<?xml version="1.0" encoding="utf-8"?>
<!-- Generator: Adobe Illustrator 19.0.0, SVG Export Plug-In . SVG Version: 6.00 Build 0)  -->
<svg version="1.1" id="Layer_1" xmlns="http://www.w3.org/2000/svg" xmlns:xlink="http://www.w3.org/1999/xlink" x="0px" y="0px"
	 viewBox="0 0 431.3 287" style="enable-background:new 0 0 431.3 287;" xml:space="preserve">
<style type="text/css">
	.st0{opacity:0.2;}
	.st1{fill:#00A6FF;}
	.st2{opacity:0.7;}
	.st3{opacity:0.2;fill:none;stroke:#00A6FF;stroke-width:0.4323;stroke-miterlimit:10;}
	.st4{fill:none;stroke:#00A6FF;stroke-width:0.4323;stroke-miterlimit:10;}
	.st5{fill:#FFFFFF;stroke:#00A6FF;stroke-miterlimit:10;stroke-dasharray:0.267,1.3327;}
	.st6{opacity:0.5;fill:#00A6FF;}
	.st7{opacity:0.6;}
	.st8{fill:#B3B3B3;}
	.st9{fill:none;stroke:#CCCCCC;stroke-width:2;stroke-miterlimit:10;}
	.st10{opacity:0.3;fill:none;stroke:#00A6FF;stroke-width:2;stroke-miterlimit:10;}
	.st11{fill:none;stroke:#00A6FF;stroke-width:2;stroke-miterlimit:10;}
	.st12{fill:#FFFFFF;}
	.st13{fill:none;}
	.st14{font-family:'OpenSansCondensed-Bold';}
	.st15{font-size:9px;}
	.st16{fill:none;stroke:#CCCCCC;stroke-width:0.5;stroke-miterlimit:10;}
	.st17{font-size:10px;}
	.st18{fill:#333333;}
	.st19{font-family:'OpenSansCondensed-Light';}
</style>
<g id="XMLID_1369_">
	<g id="XMLID_5275_">
		<g id="XMLID_5277_" class="st0">
			<path id="XMLID_29_" class="st1" d="M149.3,128c0.3-9.2,7.5-19.7,16-23.2L210,86.4c8.6-3.5,22.2-2.8,30.4,1.5l48.7,26
				c8.2,4.4,12.5,15.1,9.6,23.9l-13.2,40.7c-2.9,8.8-12.1,19.1-20.5,22.9l-41,18.6c-8.4,3.8-21,2-28-4.1l-35.2-30.4
				c-7-6-12.5-18.6-12.3-27.8L149.3,128z"/>
		</g>
		<g id="XMLID_5276_" class="st0">
			<path id="XMLID_30_" class="st1" d="M188.2,83.4c6.7-6.4,19.2-8.7,27.7-5.1l44.6,18.6c8.5,3.6,17.7,13.7,20.4,22.6l16,52.8
				c2.7,8.9-1.9,19.5-10.1,23.7l-38.1,19.4c-8.2,4.2-22.1,5-30.7,1.7L176,201.3c-8.7-3.3-16.3-13.5-17-22.7l-3.4-46.4
				c-0.7-9.2,4.3-22,11-28.3L188.2,83.4z"/>
		</g>
	</g>
	<g id="XMLID_5256_" class="st2">
		<circle id="XMLID_2_" class="st3" cx="223.1" cy="154.5" r="75.9"/>
		<circle id="XMLID_14_" class="st3" cx="223.1" cy="154.5" r="71.9"/>
		<circle id="XMLID_13_" class="st3" cx="223.1" cy="154.5" r="67.9"/>
		<circle id="XMLID_12_" class="st3" cx="223.1" cy="154.5" r="63.8"/>
		<circle id="XMLID_11_" class="st3" cx="223.1" cy="154.5" r="59.8"/>
		<circle id="XMLID_10_" class="st3" cx="223.1" cy="154.5" r="55.8"/>
		<circle id="XMLID_9_" class="st3" cx="223.1" cy="154.5" r="51.8"/>
		<circle id="XMLID_8_" class="st3" cx="223.1" cy="154.5" r="47.8"/>
		<circle id="XMLID_7_" class="st3" cx="223.1" cy="154.5" r="43.8"/>
		<circle id="XMLID_6_" class="st3" cx="223.1" cy="154.5" r="39.8"/>
		<circle id="XMLID_5_" class="st3" cx="223.1" cy="154.5" r="35.7"/>
		<circle id="XMLID_4_" class="st3" cx="223.1" cy="154.5" r="31.7"/>
		<circle id="XMLID_3_" class="st3" cx="223.1" cy="154.5" r="27.7"/>
		<circle id="XMLID_1_" class="st3" cx="223.1" cy="154.5" r="23.7"/>
	</g>
	<g id="XMLID_5240_" class="st0">
		<g id="XMLID_102_">
			<line id="XMLID_103_" class="st4" x1="223.1" y1="231.6" x2="223.1" y2="77.4"/>
		</g>
		<g id="XMLID_97_">
			<line id="XMLID_99_" class="st4" x1="184.5" y1="221.3" x2="261.7" y2="87.7"/>
		</g>
		<g id="XMLID_94_">
			<line id="XMLID_95_" class="st4" x1="156.3" y1="193.1" x2="289.9" y2="115.9"/>
		</g>
		<g id="XMLID_91_">
			<line id="XMLID_92_" class="st4" x1="146" y1="154.5" x2="300.2" y2="154.5"/>
		</g>
		<g id="XMLID_75_">
			<line id="XMLID_76_" class="st4" x1="156.3" y1="115.9" x2="289.9" y2="193.1"/>
		</g>
		<g id="XMLID_56_">
			<line id="XMLID_57_" class="st4" x1="184.5" y1="87.7" x2="261.7" y2="221.3"/>
		</g>
		<g id="XMLID_53_">
			<line id="XMLID_54_" class="st4" x1="223.1" y1="77.4" x2="223.1" y2="231.6"/>
		</g>
	</g>
	<circle id="XMLID_5239_" class="st5" cx="223.1" cy="154.4" r="65.8"/>
	<circle id="XMLID_5238_" class="st6" cx="197.4" cy="87.7" r="0.9"/>
	<circle id="XMLID_5237_" class="st6" cx="223.3" cy="227" r="0.9"/>
	<circle id="XMLID_1385_" class="st6" cx="285.2" cy="118.7" r="0.9"/>
	<circle id="XMLID_5236_" class="st6" cx="160.7" cy="190.5" r="0.9"/>
	<g id="XMLID_5097_">
		<g id="XMLID_5110_">
			<g id="XMLID_5182_">
				<path id="XMLID_5234_" class="st1" d="M222.5,100.5L222.5,100.5l0,0.2h0c28.5-0.3,52,22.7,52.3,51.2c0.3,28.5-22.7,52-51.2,52.3
					c-23,0.2-42.6-14.6-49.6-35.3l-0.2,0.1c7,20.8,26.7,35.7,49.8,35.4c28.7-0.3,51.7-23.9,51.4-52.5
					C274.8,123.3,251.2,100.2,222.5,100.5z"/>
				<path id="XMLID_5233_" class="st1" d="M222.6,102.9c27.3-0.3,49.8,21.7,50.1,49.1c0.3,27.3-21.7,49.8-49.1,50.1
					c-22,0.2-40.8-14-47.5-33.8l-0.2,0.1c6.7,19.9,25.6,34.2,47.7,34c27.5-0.3,49.6-22.9,49.3-50.3c-0.3-27.5-22.9-49.6-50.3-49.3h0
					L222.6,102.9L222.6,102.9z"/>
				<path id="XMLID_5232_" class="st1" d="M222.6,105c26.1-0.3,47.6,20.8,47.9,46.9c0.3,26.1-20.8,47.6-46.9,47.9
					c-21,0.2-39.1-13.4-45.4-32.3l-0.2,0.1c6.4,19,24.5,32.7,45.7,32.5c26.3-0.3,47.4-21.9,47.2-48.2c-0.3-26.3-21.9-47.4-48.2-47.2
					h0L222.6,105L222.6,105z"/>
				<path id="XMLID_5231_" class="st1" d="M223.6,198c25.1-0.3,45.3-20.9,45-46s-20.9-45.3-46-45h0l0,0.2h0
					c25-0.3,45.5,19.8,45.7,44.8c0.3,25-19.8,45.5-44.8,45.7c-20.1,0.2-37.3-12.8-43.4-30.9l-0.2,0.1
					C186.1,185.1,203.4,198.2,223.6,198z"/>
				<path id="XMLID_5230_" class="st1" d="M222.6,109.3c23.8-0.2,43.3,18.9,43.6,42.7c0.2,23.8-18.9,43.3-42.7,43.6
					c-19.1,0.2-35.5-12.2-41.3-29.4l-0.2,0.1c5.8,17.3,22.3,29.8,41.6,29.6c23.9-0.2,43.2-19.9,42.9-43.8
					c-0.2-23.9-19.9-43.2-43.8-42.9h0L222.6,109.3L222.6,109.3z"/>
				<path id="XMLID_5229_" class="st1" d="M222.7,111.5c22.6-0.2,41.1,17.9,41.4,40.5c0.2,22.6-17.9,41.1-40.5,41.4
					c-18.2,0.2-33.7-11.6-39.2-27.9l-0.2,0.1c5.5,16.5,21.2,28.3,39.5,28.1c22.7-0.2,41-18.9,40.8-41.6c-0.2-22.7-18.9-41-41.6-40.8
					h0L222.7,111.5L222.7,111.5z"/>
				<path id="XMLID_5228_" class="st1" d="M223.5,191.5c21.5-0.2,38.9-17.9,38.6-39.5c-0.2-21.5-17.9-38.9-39.5-38.6h0l0,0.2h0
					c21.4-0.2,39,17,39.2,38.4c0.2,21.4-17,39-38.4,39.2c-17.2,0.2-32-10.9-37.2-26.5l-0.2,0.1C191.3,180.5,206.2,191.7,223.5,191.5
					z"/>
				<path id="XMLID_5227_" class="st1" d="M222.7,115.8c20.2-0.2,36.8,16.1,37,36.3s-16.1,36.8-36.3,37c-16.3,0.2-30.2-10.3-35.1-25
					l-0.2,0.1c5,14.7,19,25.3,35.4,25.2c20.3-0.2,36.7-16.9,36.5-37.3c-0.2-20.3-16.9-36.7-37.3-36.5h0L222.7,115.8L222.7,115.8z"/>
				<path id="XMLID_5226_" class="st1" d="M222.7,118c19-0.2,34.6,15.1,34.8,34.1s-15.1,34.6-34.1,34.8
					c-15.3,0.2-28.4-9.7-33.1-23.5l-0.2,0.1c4.7,13.9,17.9,23.8,33.3,23.7c19.2-0.2,34.6-15.9,34.4-35.1s-15.9-34.6-35.1-34.4h0
					L222.7,118L222.7,118z"/>
				<path id="XMLID_5225_" class="st1" d="M223.4,185c18-0.2,32.4-15,32.2-32.9c-0.2-18-15-32.4-32.9-32.2h0l0,0.2h0
					c17.8-0.2,32.5,14.2,32.7,32s-14.2,32.5-32,32.7c-14.4,0.1-26.6-9.1-31-22l-0.2,0.1C196.6,175.8,209,185.2,223.4,185z"/>
				<path id="XMLID_5224_" class="st1" d="M222.8,122.3c16.6-0.2,30.3,13.2,30.5,29.9s-13.2,30.3-29.9,30.5
					c-13.4,0.1-24.9-8.5-28.9-20.6l-0.2,0.1c4.1,12.2,15.7,20.9,29.2,20.7c16.8-0.2,30.3-14,30.1-30.7s-14-30.3-30.7-30.1h0
					L222.8,122.3L222.8,122.3z"/>
				<path id="XMLID_5223_" class="st1" d="M222.8,124.4c15.5-0.2,28.2,12.3,28.3,27.7c0.2,15.5-12.3,28.2-27.7,28.3
					c-12.4,0.1-23.1-7.9-26.9-19.1l-0.2,0.1c3.8,11.3,14.5,19.4,27.1,19.3c15.6-0.2,28.1-13,28-28.6s-13-28.1-28.6-28h0L222.8,124.4
					L222.8,124.4z"/>
				<path id="XMLID_5222_" class="st1" d="M223.4,178.6c14.4-0.2,26-12,25.8-26.4c-0.2-14.4-12-26-26.4-25.8h0l0,0.2h0
					c14.3-0.1,26,11.3,26.1,25.6s-11.3,26-25.6,26.1c-11.5,0.1-21.3-7.3-24.8-17.6l-0.2,0.1C201.8,171.2,211.8,178.7,223.4,178.6z"
					/>
				<path id="XMLID_5221_" class="st1" d="M222.8,128.7c13.1-0.1,23.8,10.4,24,23.5c0.1,13.1-10.4,23.8-23.5,24
					c-10.5,0.1-19.5-6.7-22.7-16.2l-0.2,0.1c3.2,9.6,12.3,16.4,23,16.3c13.2-0.1,23.8-11,23.7-24.2c-0.1-13.2-11-23.8-24.2-23.7h0
					L222.8,128.7L222.8,128.7z"/>
				<path id="XMLID_5220_" class="st1" d="M222.9,130.9c11.9-0.1,21.7,9.4,21.8,21.3c0.1,11.9-9.4,21.7-21.3,21.8
					c-9.6,0.1-17.8-6.1-20.7-14.7l-0.2,0.1c2.9,8.7,11.2,15,20.9,14.9c12-0.1,21.7-10,21.6-22c-0.1-12-10-21.7-22-21.6h0
					L222.9,130.9L222.9,130.9z"/>
				<path id="XMLID_5219_" class="st1" d="M223.3,172.1c10.8-0.1,19.6-9,19.4-19.9c-0.1-10.8-9-19.6-19.9-19.4h0l0,0.2h0
					c10.7-0.1,19.5,8.5,19.6,19.2c0.1,10.7-8.5,19.5-19.2,19.6c-8.6,0.1-16-5.5-18.6-13.2l-0.2,0.1
					C207.1,166.6,214.6,172.2,223.3,172.1z"/>
				<path id="XMLID_5218_" class="st1" d="M222.9,135.2c9.5-0.1,17.3,7.6,17.4,17.1c0.1,9.5-7.6,17.3-17.1,17.4
					c-7.7,0.1-14.2-4.9-16.5-11.8l-0.2,0.1c2.4,7,9,12,16.8,11.9c9.6-0.1,17.4-8,17.3-17.7c-0.1-9.6-8-17.4-17.7-17.3h0L222.9,135.2
					L222.9,135.2z"/>
				<path id="XMLID_5217_" class="st1" d="M222.9,137.4c8.3-0.1,15.2,6.6,15.2,14.9c0.1,8.3-6.6,15.2-14.9,15.2
					c-6.7,0.1-12.4-4.3-14.5-10.3l-0.2,0.1c2.1,6.1,7.9,10.5,14.7,10.5c8.5-0.1,15.3-7,15.2-15.5c-0.1-8.5-7-15.3-15.5-15.2h0
					L222.9,137.4L222.9,137.4z"/>
				<path id="XMLID_5216_" class="st1" d="M223.2,165.6c7.3-0.1,13.1-6.1,13-13.3c-0.1-7.3-6.1-13.1-13.3-13.1h0l0,0.2h0
					c7.1-0.1,13,5.7,13.1,12.8c0.1,7.1-5.7,13-12.8,13.1c-5.7,0.1-10.7-3.7-12.4-8.8l-0.2,0.1C212.4,161.9,217.4,165.7,223.2,165.6z
					"/>
				<path id="XMLID_5215_" class="st1" d="M223,141.7c5.9-0.1,10.8,4.7,10.9,10.7c0.1,5.9-4.7,10.8-10.7,10.9c-4.8,0-8.9-3-10.3-7.4
					l-0.2,0.1c1.5,4.4,5.7,7.6,10.6,7.5c6.1-0.1,11-5.1,10.9-11.1c-0.1-6.1-5.1-11-11.1-10.9h0L223,141.7L223,141.7z"/>
				<path id="XMLID_5214_" class="st1" d="M223,143.8c4.8,0,8.7,3.8,8.7,8.5c0,4.8-3.8,8.7-8.5,8.7c-3.8,0-7.1-2.4-8.3-5.9l-0.2,0.1
					c1.2,3.5,4.6,6.1,8.5,6.1c4.9-0.1,8.8-4.1,8.8-9c-0.1-4.9-4.1-8.8-9-8.8l0,0L223,143.8L223,143.8z"/>
				<path id="XMLID_5209_" class="st1" d="M223.2,159.2c3.7,0,6.7-3.1,6.7-6.8c0-3.7-3.1-6.7-6.8-6.7h0l0,0.2h0
					c3.6,0,6.5,2.8,6.5,6.4c0,3.6-2.8,6.5-6.4,6.5c-2.9,0-5.3-1.8-6.2-4.4l-0.2,0.1C217.6,157.3,220.2,159.2,223.2,159.2z"/>
				<path id="XMLID_5189_" class="st1" d="M223,148.1c2.4,0,4.3,1.9,4.4,4.3c0,2.4-1.9,4.3-4.3,4.4c-1.9,0-3.5-1.2-4.1-2.9l-0.2,0.1
					c0.6,1.8,2.3,3.1,4.4,3.1c2.5,0,4.5-2.1,4.5-4.6s-2.1-4.5-4.6-4.5h0L223,148.1L223,148.1z"/>
			</g>
			<g id="XMLID_5140_" class="st7">
				<path id="XMLID_5180_" class="st1" d="M171.4,153c-0.2-18.2,9.1-34.3,23.2-43.7l-0.1-0.2c-14.2,9.4-23.5,25.6-23.3,43.9
					c0.1,5.6,1,11,2.7,16l0.2-0.1C172.4,163.9,171.4,158.6,171.4,153z"/>
				<path id="XMLID_5179_" class="st1" d="M173.3,153c0.1,5.4,1,10.5,2.6,15.3l0.2-0.1c-1.6-4.8-2.5-9.9-2.6-15.3
					c-0.2-17.4,8.7-32.9,22.3-41.9l-0.1-0.2C182,119.9,173.1,135.4,173.3,153z"/>
				<path id="XMLID_5176_" class="st1" d="M175.7,152.9c-0.2-16.7,8.3-31.4,21.3-40l-0.1-0.2c-13,8.6-21.6,23.5-21.4,40.3
					c0.1,5.1,0.9,10.1,2.5,14.7l0.2-0.1C176.6,162.9,175.7,158,175.7,152.9z"/>
				<path id="XMLID_5175_" class="st1" d="M177.8,152.9c-0.2-15.9,8-30,20.3-38.2l-0.1-0.2c-12.4,8.2-20.6,22.4-20.4,38.4
					c0.1,4.9,0.9,9.6,2.4,14l0.2-0.1C178.7,162.5,177.9,157.8,177.8,152.9z"/>
				<path id="XMLID_5174_" class="st1" d="M179.7,152.9c0,4.7,0.8,9.1,2.3,13.3l0.2-0.1c-1.4-4.2-2.2-8.6-2.2-13.3
					c-0.2-15.2,7.6-28.6,19.4-36.4l-0.1-0.2C187.3,124.1,179.6,137.7,179.7,152.9z"/>
				<path id="XMLID_5173_" class="st1" d="M182.1,152.9c-0.2-14.4,7.2-27.2,18.4-34.6l-0.1-0.2c-11.3,7.5-18.7,20.3-18.5,34.8
					c0,4.4,0.8,8.7,2.1,12.7l0.2-0.1C182.9,161.5,182.2,157.3,182.1,152.9z"/>
				<path id="XMLID_5172_" class="st1" d="M184.3,152.9c-0.1-13.6,6.8-25.7,17.4-32.8l-0.1-0.2c-10.7,7.1-17.7,19.2-17.5,33
					c0,4.2,0.8,8.2,2,12l0.2-0.1C185,161,184.3,157,184.3,152.9z"/>
				<path id="XMLID_5171_" class="st1" d="M186.2,152.8c0,4,0.7,7.8,1.9,11.4l0.2-0.1c-1.2-3.5-1.9-7.3-1.9-11.3
					c-0.1-12.9,6.4-24.3,16.5-30.9l-0.1-0.2C192.7,128.4,186.1,139.9,186.2,152.8z"/>
				<path id="XMLID_5156_" class="st1" d="M188.6,152.8c-0.1-12.1,6.1-22.9,15.5-29.1l-0.1-0.2c-9.5,6.3-15.7,17.1-15.6,29.3
					c0,3.7,0.7,7.3,1.8,10.7l0.2-0.1C189.3,160.1,188.6,156.5,188.6,152.8z"/>
				<path id="XMLID_5155_" class="st1" d="M190.8,152.8c-0.1-11.4,5.7-21.4,14.5-27.3l-0.1-0.2c-8.9,5.9-14.8,16.1-14.6,27.5
					c0,3.5,0.6,6.9,1.7,10l0.2-0.1C191.4,159.6,190.8,156.3,190.8,152.8z"/>
				<path id="XMLID_5154_" class="st1" d="M192.7,152.8c0,3.3,0.6,6.4,1.6,9.4l0.2-0.1c-1-2.9-1.5-6-1.6-9.3
					c-0.1-10.6,5.3-20,13.6-25.5l-0.1-0.2C198,132.6,192.5,142.1,192.7,152.8z"/>
				<path id="XMLID_5153_" class="st1" d="M195.1,152.7c-0.1-9.9,4.9-18.6,12.6-23.7l-0.1-0.2c-7.7,5.1-12.8,13.9-12.7,23.9
					c0,3,0.6,6,1.5,8.7l0.2-0.1C195.6,158.7,195.1,155.8,195.1,152.7z"/>
				<path id="XMLID_5152_" class="st1" d="M197.2,152.7c-0.1-9.1,4.5-17.2,11.6-21.8l-0.1-0.2c-7.1,4.7-11.8,12.9-11.7,22.1
					c0,2.8,0.5,5.5,1.4,8l0.2-0.1C197.7,158.2,197.2,155.5,197.2,152.7z"/>
				<path id="XMLID_5151_" class="st1" d="M199.1,152.7c0,2.6,0.5,5.1,1.2,7.4l0.2-0.1c-0.8-2.3-1.2-4.7-1.2-7.3
					c-0.1-8.3,4.2-15.7,10.7-20l-0.1-0.2C203.3,136.8,199,144.3,199.1,152.7z"/>
				<path id="XMLID_5150_" class="st1" d="M201.5,152.7c-0.1-7.6,3.8-14.3,9.7-18.2l-0.1-0.2c-6,4-9.9,10.7-9.8,18.4
					c0,2.3,0.4,4.6,1.1,6.7l0.2-0.1C202,157.2,201.6,155,201.5,152.7z"/>
				<path id="XMLID_5149_" class="st1" d="M203.7,152.7c-0.1-6.8,3.4-12.9,8.7-16.4l-0.1-0.2c-5.4,3.6-8.9,9.7-8.8,16.6
					c0,2.1,0.4,4.1,1,6l0.2-0.1C204.1,156.7,203.7,154.7,203.7,152.7z"/>
				<path id="XMLID_5148_" class="st1" d="M205.6,152.6c0,1.9,0.3,3.7,0.9,5.4l0.2-0.1c-0.6-1.7-0.9-3.5-0.9-5.3
					c-0.1-6.1,3-11.4,7.8-14.6l-0.1-0.2C208.7,141,205.5,146.5,205.6,152.6z"/>
				<path id="XMLID_5147_" class="st1" d="M208,152.6c-0.1-5.3,2.7-10,6.8-12.7l-0.1-0.2c-4.2,2.8-7,7.6-6.9,12.9
					c0,1.7,0.3,3.2,0.8,4.7l0.2-0.1C208.3,155.8,208,154.2,208,152.6z"/>
				<path id="XMLID_5146_" class="st1" d="M210.1,152.6c0-4.6,2.3-8.6,5.8-10.9l-0.1-0.2c-3.6,2.4-6,6.5-5.9,11.1
					c0,1.4,0.3,2.8,0.7,4.1l0.2-0.1C210.4,155.3,210.2,154,210.1,152.6z"/>
				<path id="XMLID_5145_" class="st1" d="M212.1,152.6c0,1.2,0.2,2.3,0.6,3.4l0.2-0.1c-0.4-1-0.6-2.2-0.6-3.3
					c0-3.8,1.9-7.1,4.8-9.1l-0.1-0.2C214,145.3,212,148.7,212.1,152.6z"/>
				<path id="XMLID_5144_" class="st1" d="M214.5,152.5c0-3,1.5-5.7,3.9-7.3l-0.1-0.2c-2.4,1.6-4,4.4-4,7.5c0,1,0.2,1.9,0.5,2.7
					l0.2-0.1C214.6,154.4,214.5,153.5,214.5,152.5z"/>
				<path id="XMLID_5143_" class="st1" d="M216.6,152.5c0-2.3,1.1-4.3,2.9-5.5l-0.1-0.2c-1.8,1.2-3,3.3-3,5.7c0,0.7,0.1,1.4,0.4,2.1
					l0.2-0.1C216.7,153.9,216.6,153.2,216.6,152.5z"/>
				<path id="XMLID_5142_" class="st1" d="M218.5,152.5c0,0.5,0.1,1,0.3,1.4l0.2-0.1c-0.1-0.4-0.2-0.9-0.2-1.3
					c0-1.5,0.8-2.9,1.9-3.6l-0.1-0.2C219.3,149.5,218.5,150.9,218.5,152.5z"/>
			</g>
			<g id="XMLID_5111_">
				<path id="XMLID_5139_" class="st8" d="M222.5,100.7l0-0.2c-10.4,0.1-20,3.3-28.1,8.6l0.1,0.2C202.6,104,212.2,100.8,222.5,100.7
					z"/>
				<path id="XMLID_5138_" class="st8" d="M222.6,102.9l0-0.2c-9.9,0.1-19.2,3.1-26.9,8.3l0.1,0.2C203.5,106,212.7,103,222.6,102.9z
					"/>
				<path id="XMLID_5137_" class="st8" d="M197,112.9c7.4-4.9,16.2-7.8,25.6-7.9l0-0.2c-9.5,0.1-18.4,3-25.8,7.9L197,112.9z"/>
				<path id="XMLID_5136_" class="st8" d="M222.6,107.2l0-0.2c-9.1,0.1-17.5,2.9-24.6,7.6l0.1,0.2
					C205.2,110,213.6,107.3,222.6,107.2z"/>
				<path id="XMLID_5135_" class="st8" d="M222.6,109.3l0-0.2c-8.7,0.1-16.7,2.7-23.4,7.2l0.1,0.2C206,112.1,214,109.4,222.6,109.3z
					"/>
				<path id="XMLID_5134_" class="st8" d="M200.5,118.3c6.4-4.2,14-6.7,22.1-6.8l0-0.2c-8.2,0.1-15.9,2.6-22.3,6.8L200.5,118.3z"/>
				<path id="XMLID_5133_" class="st8" d="M222.7,113.7l0-0.2c-7.8,0.1-15,2.5-21.1,6.5l0.1,0.2
					C207.7,116.1,214.9,113.7,222.7,113.7z"/>
				<path id="XMLID_5132_" class="st8" d="M222.7,115.8l0-0.2c-7.4,0.1-14.2,2.3-19.9,6.1l0.1,0.2
					C208.6,118.1,215.4,115.9,222.7,115.8z"/>
				<path id="XMLID_5131_" class="st8" d="M204.1,123.7c5.4-3.5,11.7-5.7,18.6-5.7l0-0.2c-6.9,0.1-13.4,2.2-18.8,5.8L204.1,123.7z"
					/>
				<path id="XMLID_5130_" class="st8" d="M222.7,120.1l0-0.2c-6.5,0.1-12.5,2.1-17.6,5.4l0.1,0.2
					C210.3,122.2,216.3,120.2,222.7,120.1z"/>
				<path id="XMLID_5129_" class="st8" d="M222.8,122.3l0-0.2c-6.1,0.1-11.7,1.9-16.4,5l0.1,0.2
					C211.1,124.2,216.7,122.3,222.8,122.3z"/>
				<path id="XMLID_5128_" class="st8" d="M207.6,129.1c4.4-2.9,9.5-4.6,15.1-4.7l0-0.2c-5.6,0.1-10.9,1.8-15.3,4.7L207.6,129.1z"/>
				<path id="XMLID_5127_" class="st8" d="M222.8,126.6l0-0.2c-5.2,0.1-10.1,1.6-14.1,4.3l0.1,0.2
					C212.9,128.2,217.6,126.6,222.8,126.6z"/>
				<path id="XMLID_5121_" class="st8" d="M222.8,128.7l0-0.2c-4.8,0-9.2,1.5-12.9,4l0.1,0.2C213.7,130.2,218.1,128.8,222.8,128.7z"
					/>
				<path id="XMLID_5120_" class="st8" d="M211.2,134.5c3.3-2.2,7.3-3.5,11.6-3.6l0-0.2c-4.4,0-8.4,1.4-11.8,3.6L211.2,134.5z"/>
				<path id="XMLID_5119_" class="st8" d="M222.9,133l0-0.2c-3.9,0-7.6,1.2-10.6,3.3l0.1,0.2C215.4,134.3,219,133.1,222.9,133z"/>
				<path id="XMLID_5118_" class="st8" d="M222.9,135.2l0-0.2c-3.5,0-6.7,1.1-9.5,2.9l0.1,0.2C216.3,136.3,219.5,135.2,222.9,135.2z
					"/>
				<path id="XMLID_5117_" class="st8" d="M214.8,139.9c2.3-1.6,5.1-2.5,8.2-2.5l0-0.2c-3.1,0-5.9,1-8.3,2.6L214.8,139.9z"/>
				<path id="XMLID_5116_" class="st8" d="M222.9,139.5l0-0.2c-2.6,0-5.1,0.8-7.1,2.2l0.1,0.2C218,140.3,220.4,139.5,222.9,139.5z"
					/>
				<path id="XMLID_5115_" class="st8" d="M223,141.7l0-0.2c-2.2,0-4.2,0.7-6,1.8l0.1,0.2C218.8,142.4,220.8,141.7,223,141.7z"/>
				<path id="XMLID_5114_" class="st8" d="M218.3,145.3c1.3-0.9,2.9-1.4,4.7-1.4l0-0.2c-1.8,0-3.4,0.6-4.8,1.5L218.3,145.3z"/>
				<path id="XMLID_5113_" class="st8" d="M223,146l0-0.2c-1.3,0-2.6,0.4-3.6,1.1l0.1,0.2C220.5,146.4,221.7,146,223,146z"/>
				<path id="XMLID_5112_" class="st8" d="M223,148.1l0-0.2c-0.9,0-1.8,0.3-2.5,0.8l0.1,0.2C221.4,148.4,222.2,148.1,223,148.1z"/>
			</g>
		</g>
		<g id="XMLID_5100_">
			<path id="XMLID_5109_" class="st9" d="M194.3,110.1c8.1-5.3,17.8-8.5,28.2-8.6"/>
			<path id="XMLID_5106_" class="st10" d="M173.4,170.4c-1.7-5-2.6-10.4-2.7-16c-0.2-18.5,9.2-34.9,23.6-44.3"/>
			<path id="XMLID_5103_" class="st11" d="M222.6,101.5c28.9-0.3,52.6,22.9,52.9,51.8c0.3,28.9-22.9,52.6-51.8,52.9
				c-23.3,0.2-43.3-14.8-50.3-35.8"/>
		</g>
	</g>
	<circle id="XMLID_5094_" class="st12" cx="223.5" cy="152.5" r="29.3"/>
	<rect id="XMLID_33_" x="194.4" y="150.6" class="st13" width="59.2" height="11.4"/>
	<text id="XMLID_5087_" transform="matrix(1 0 0 1 201.6965 157.3965)" class="st1 st14 st15">Public Token</text>
	<circle id="XMLID_5084_" class="st6" cx="288.9" cy="192.7" r="1"/>
	<polyline id="XMLID_5079_" class="st16" points="206.6,103.2 195.1,77.4 141.7,77.4 	"/>
	<circle id="XMLID_5078_" class="st1" cx="206.6" cy="103.2" r="1.3"/>
	<rect id="XMLID_27_" x="143.6" y="56.3" class="st13" width="43.7" height="22.2"/>
	<text id="XMLID_5076_" transform="matrix(1 0 0 1 143.5951 63.9365)"><tspan x="0" y="0" class="st1 st14 st17">9%</tspan><tspan x="0" y="10" class="st18 st19 st17">Reserve Fund</tspan></text>
	<polyline id="XMLID_4562_" class="st16" points="170.7,160.5 148,181.2 94.6,181.2 	"/>
	<rect id="XMLID_23_" x="96.6" y="160.2" class="st13" width="48.2" height="22.2"/>
	<text id="XMLID_2637_" transform="matrix(1 0 0 1 96.5837 167.7818)"><tspan x="0" y="0" class="st1 st14 st17">21%</tspan><tspan x="0" y="10" class="st18 st19 st17">Platform Team </tspan></text>
	<polyline id="XMLID_1901_" class="st16" points="275.1,142.7 297.8,163.5 336.7,163.5 	"/>
	<rect id="XMLID_18_" x="305" y="142.5" class="st13" width="30.7" height="22.2"/>
	<text id="XMLID_1860_" transform="matrix(1 0 0 1 305.0395 150.0508)"><tspan x="0" y="0" class="st1 st14 st17">70%</tspan><tspan x="0" y="10" class="st18 st19 st17">Investors</tspan></text>
	<circle id="XMLID_1856_" class="st1" cx="170.7" cy="160.8" r="1.3"/>
	<circle id="XMLID_1225_" class="st1" cx="275.5" cy="142.9" r="1.3"/>
</g>
</svg>
