<?xml version="1.0" encoding="utf-8"?>
<!-- Generator: Adobe Illustrator 19.0.0, SVG Export Plug-In . SVG Version: 6.00 Build 0)  -->
<svg version="1.1" id="Layer_1" xmlns="http://www.w3.org/2000/svg" xmlns:xlink="http://www.w3.org/1999/xlink" x="0px" y="0px"
	 viewBox="0 0 431.3 287" style="enable-background:new 0 0 431.3 287;" xml:space="preserve">
<style type="text/css">
	.st0{opacity:0.1;}
	.st1{fill:#666666;}
	.st2{opacity:0.2;}
	.st3{fill:none;stroke:#666666;stroke-width:0.273;stroke-miterlimit:10;}
	.st4{opacity:0.2;fill:none;stroke:#666666;stroke-width:0.273;stroke-miterlimit:10;}
	.st5{fill:#FFFFFF;}
	.st6{fill:none;stroke:#666666;stroke-width:2.184;stroke-miterlimit:10;stroke-dasharray:0.4368,0.8736;}
	.st7{fill:none;}
	.st8{fill:#333333;}
	.st9{font-family:'OpenSansCondensed-Light';}
	.st10{font-size:10px;}
	.st11{fill:#00A6FF;}
	.st12{fill:none;stroke:#00A6FF;stroke-width:0.273;stroke-miterlimit:10;}
	.st13{opacity:0.2;fill:none;stroke:#00A6FF;stroke-width:0.273;stroke-miterlimit:10;}
	.st14{fill:none;stroke:#00A6FF;stroke-width:2.184;stroke-miterlimit:10;stroke-dasharray:0.4368,0.8736;}
	.st15{fill:none;stroke:#CCEDFF;stroke-width:0.273;stroke-miterlimit:10;}
	.st16{opacity:0.2;fill:none;stroke:#CCEDFF;stroke-width:0.273;stroke-miterlimit:10;}
	.st17{fill:none;stroke:#CCEDFF;stroke-width:2.184;stroke-miterlimit:10;stroke-dasharray:0.4368,0.8736;}
	.st18{fill:#B3B3B3;}
	.st19{fill:none;stroke:#B3B3B3;stroke-width:0.273;stroke-miterlimit:10;}
	.st20{opacity:0.2;fill:none;stroke:#B3B3B3;stroke-width:0.273;stroke-miterlimit:10;}
	.st21{fill:none;stroke:#B3B3B3;stroke-width:2.184;stroke-miterlimit:10;stroke-dasharray:0.4368,0.8736;}
	.st22{fill:none;stroke:#CCCCCC;stroke-width:0.5;stroke-miterlimit:10;}
	.st23{fill:#66CAFF;}
	.st24{font-size:8px;}
	.st25{font-size:7px;}
	.st26{font-family:'OpenSansCondensed-Bold';}
	.st27{fill:none;stroke:#00A6FF;stroke-miterlimit:10;}
</style>
<g id="XMLID_5212_">
	<g id="XMLID_5157_" class="st0">
		<path id="XMLID_140_" class="st1" d="M67.1,205.9c0.8-8.4,8.1-17.6,16.2-20.5l15.1-5.4c8.1-2.9,18.7,0.6,23.4,7.8l3.6,5.4
			c4.7,7.2,7.1,17.1,5.2,22c-1.9,4.9-8.7,13.5-15.3,19.2l-5,4.4c-6.5,5.7-17.2,5.7-23.8,0.1l-8.9-7.6
			C71.1,225.7,66.4,214.2,67.1,205.9z"/>
	</g>
	<g id="XMLID_5089_">
		<g id="XMLID_601_">
			<g id="XMLID_657_" class="st2">
				<g id="XMLID_670_">
					<line id="XMLID_671_" class="st3" x1="78.1" y1="187.9" x2="120.2" y2="234.7"/>
				</g>
				<g id="XMLID_668_">
					<line id="XMLID_669_" class="st3" x1="112.5" y1="182.8" x2="85.9" y2="239.9"/>
				</g>
				<g id="XMLID_666_">
					<line id="XMLID_667_" class="st3" x1="130.6" y1="212.4" x2="67.7" y2="210.2"/>
				</g>
				<g id="XMLID_664_">
					<line id="XMLID_665_" class="st3" x1="110.5" y1="240.7" x2="87.9" y2="181.9"/>
				</g>
				<g id="XMLID_662_">
					<line id="XMLID_663_" class="st3" x1="76.5" y1="233.2" x2="121.8" y2="189.5"/>
				</g>
				<g id="XMLID_660_">
					<line id="XMLID_661_" class="st3" x1="70.2" y1="199" x2="128.2" y2="223.7"/>
				</g>
				<g id="XMLID_658_">
					<line id="XMLID_659_" class="st3" x1="99.2" y1="179.9" x2="99.2" y2="242.8"/>
				</g>
			</g>
			<g id="XMLID_602_">
				<circle id="XMLID_616_" class="st4" cx="99.2" cy="211.3" r="30.7"/>
				<circle id="XMLID_615_" class="st4" cx="99.2" cy="211.3" r="29.1"/>
				<circle id="XMLID_614_" class="st4" cx="99.2" cy="211.3" r="27.4"/>
				<circle id="XMLID_613_" class="st4" cx="99.2" cy="211.3" r="25.8"/>
				<circle id="XMLID_612_" class="st4" cx="99.2" cy="211.3" r="24.2"/>
				<circle id="XMLID_611_" class="st4" cx="99.2" cy="211.3" r="22.6"/>
				<circle id="XMLID_610_" class="st4" cx="99.2" cy="211.3" r="20.9"/>
				<circle id="XMLID_609_" class="st4" cx="99.2" cy="211.3" r="19.3"/>
				<circle id="XMLID_608_" class="st4" cx="99.2" cy="211.3" r="17.7"/>
				<circle id="XMLID_607_" class="st4" cx="99.2" cy="211.3" r="16.1"/>
				<circle id="XMLID_606_" class="st4" cx="99.2" cy="211.3" r="14.5"/>
				<circle id="XMLID_605_" class="st4" cx="99.2" cy="211.3" r="12.8"/>
				<circle id="XMLID_604_" class="st4" cx="99.2" cy="211.3" r="11.2"/>
				<circle id="XMLID_603_" class="st4" cx="99.2" cy="211.3" r="9.6"/>
			</g>
		</g>
	</g>
	<g id="XMLID_5086_">
		<circle id="XMLID_127_" class="st5" cx="99.2" cy="211.3" r="26.6"/>
	</g>
	<g id="XMLID_5083_">
		<ellipse id="XMLID_112_" class="st6" cx="99.2" cy="211.3" rx="24.3" ry="24.3"/>
	</g>
	<g id="XMLID_5081_">
		<rect id="XMLID_172_" x="78.8" y="206.1" class="st7" width="40.7" height="11.4"/>
		<text id="XMLID_171_" transform="matrix(1 0 0 1 83.4293 213.7133)" class="st8 st9 st10">Investor 3</text>
	</g>
	<g id="XMLID_4970_">
		<g id="XMLID_4973_">
			<g id="XMLID_5080_" class="st0">
				<path id="XMLID_139_" class="st11" d="M64.1,70.9c0.8-8.4,8.1-17.6,16.2-20.5l15.1-5.4c8.1-2.9,18.7,0.6,23.4,7.8l3.6,5.4
					c4.7,7.2,7.1,17.1,5.2,22c-1.9,4.9-8.7,13.5-15.3,19.2l-5,4.4c-6.5,5.7-17.2,5.7-23.8,0.1l-8.9-7.6
					C68.1,90.7,63.3,79.2,64.1,70.9z"/>
			</g>
			<g id="XMLID_4981_">
				<g id="XMLID_569_">
					<g id="XMLID_642_" class="st2">
						<g id="XMLID_655_">
							<line id="XMLID_656_" class="st12" x1="74.6" y1="52.6" x2="116.7" y2="99.4"/>
						</g>
						<g id="XMLID_653_">
							<line id="XMLID_654_" class="st12" x1="109" y1="47.5" x2="82.4" y2="104.6"/>
						</g>
						<g id="XMLID_651_">
							<line id="XMLID_652_" class="st12" x1="127.1" y1="77.1" x2="64.2" y2="74.9"/>
						</g>
						<g id="XMLID_649_">
							<line id="XMLID_650_" class="st12" x1="107" y1="105.4" x2="84.4" y2="46.6"/>
						</g>
						<g id="XMLID_647_">
							<line id="XMLID_648_" class="st12" x1="73" y1="97.9" x2="118.3" y2="54.2"/>
						</g>
						<g id="XMLID_645_">
							<line id="XMLID_646_" class="st12" x1="66.7" y1="63.7" x2="124.7" y2="88.3"/>
						</g>
						<g id="XMLID_643_">
							<line id="XMLID_644_" class="st12" x1="95.7" y1="44.5" x2="95.7" y2="107.5"/>
						</g>
					</g>
					<g id="XMLID_570_">
						<circle id="XMLID_641_" class="st13" cx="95.7" cy="76" r="30.7"/>
						<circle id="XMLID_640_" class="st13" cx="95.7" cy="76" r="29.1"/>
						<circle id="XMLID_639_" class="st13" cx="95.7" cy="76" r="27.4"/>
						<circle id="XMLID_638_" class="st13" cx="95.7" cy="76" r="25.8"/>
						<circle id="XMLID_637_" class="st13" cx="95.7" cy="76" r="24.2"/>
						<circle id="XMLID_636_" class="st13" cx="95.7" cy="76" r="22.6"/>
						<circle id="XMLID_578_" class="st13" cx="95.7" cy="76" r="20.9"/>
						<circle id="XMLID_577_" class="st13" cx="95.7" cy="76" r="19.3"/>
						<circle id="XMLID_576_" class="st13" cx="95.7" cy="76" r="17.7"/>
						<circle id="XMLID_575_" class="st13" cx="95.7" cy="76" r="16.1"/>
						<circle id="XMLID_574_" class="st13" cx="95.7" cy="76" r="14.5"/>
						<circle id="XMLID_573_" class="st13" cx="95.7" cy="76" r="12.8"/>
						<circle id="XMLID_572_" class="st13" cx="95.7" cy="76" r="11.2"/>
						<circle id="XMLID_571_" class="st13" cx="95.7" cy="76" r="9.6"/>
					</g>
				</g>
			</g>
			<g id="XMLID_4978_">
				<circle id="XMLID_117_" class="st5" cx="95.7" cy="76" r="26.6"/>
			</g>
			<g id="XMLID_4974_">
				<ellipse id="XMLID_115_" class="st14" cx="95.6" cy="76.1" rx="24.3" ry="24.3"/>
			</g>
		</g>
		<g id="XMLID_4971_">
			<rect id="XMLID_175_" x="76" y="72.3" class="st7" width="40.7" height="11.4"/>
			<text id="XMLID_174_" transform="matrix(1 0 0 1 80.6224 79.9216)" class="st8 st9 st10">Investor 1</text>
		</g>
	</g>
	<g id="XMLID_4892_">
		<g id="XMLID_4969_" class="st0">
			<path id="XMLID_137_" class="st11" d="M303.1,203.9c0.8-8.4,8.1-17.6,16.2-20.5l15.1-5.4c8.1-2.9,18.7,0.6,23.4,7.8l3.6,5.4
				c4.7,7.2,7.1,17.1,5.2,22c-1.9,4.9-8.7,13.5-15.3,19.2l-5,4.4c-6.5,5.7-17.2,5.7-23.8,0.1l-8.9-7.6
				C307.1,223.7,302.3,212.2,303.1,203.9z"/>
		</g>
		<g id="XMLID_4901_">
			<g id="XMLID_591_">
				<g id="XMLID_678_" class="st2">
					<g id="XMLID_691_">
						<line id="XMLID_692_" class="st15" x1="314.5" y1="185.9" x2="356.6" y2="232.7"/>
					</g>
					<g id="XMLID_689_">
						<line id="XMLID_690_" class="st15" x1="348.9" y1="180.8" x2="322.3" y2="237.9"/>
					</g>
					<g id="XMLID_687_">
						<line id="XMLID_688_" class="st15" x1="367" y1="210.4" x2="304.1" y2="208.2"/>
					</g>
					<g id="XMLID_685_">
						<line id="XMLID_686_" class="st15" x1="346.9" y1="238.7" x2="324.3" y2="179.9"/>
					</g>
					<g id="XMLID_683_">
						<line id="XMLID_684_" class="st15" x1="312.9" y1="231.2" x2="358.2" y2="187.5"/>
					</g>
					<g id="XMLID_681_">
						<line id="XMLID_682_" class="st15" x1="306.6" y1="197" x2="364.6" y2="221.7"/>
					</g>
					<g id="XMLID_679_">
						<line id="XMLID_680_" class="st15" x1="335.6" y1="177.9" x2="335.6" y2="240.8"/>
					</g>
				</g>
				<g id="XMLID_592_">
					<circle id="XMLID_677_" class="st16" cx="335.6" cy="209.3" r="30.7"/>
					<circle id="XMLID_676_" class="st16" cx="335.6" cy="209.3" r="29.1"/>
					<circle id="XMLID_675_" class="st16" cx="335.6" cy="209.3" r="27.4"/>
					<circle id="XMLID_674_" class="st16" cx="335.6" cy="209.3" r="25.8"/>
					<circle id="XMLID_673_" class="st16" cx="335.6" cy="209.3" r="24.2"/>
					<circle id="XMLID_672_" class="st16" cx="335.6" cy="209.3" r="22.6"/>
					<circle id="XMLID_600_" class="st16" cx="335.6" cy="209.3" r="20.9"/>
					<circle id="XMLID_599_" class="st16" cx="335.6" cy="209.3" r="19.3"/>
					<circle id="XMLID_598_" class="st16" cx="335.6" cy="209.3" r="17.7"/>
					<circle id="XMLID_597_" class="st16" cx="335.6" cy="209.3" r="16.1"/>
					<circle id="XMLID_596_" class="st16" cx="335.6" cy="209.3" r="14.5"/>
					<circle id="XMLID_595_" class="st16" cx="335.6" cy="209.3" r="12.8"/>
					<circle id="XMLID_594_" class="st16" cx="335.6" cy="209.3" r="11.2"/>
					<circle id="XMLID_593_" class="st16" cx="335.6" cy="209.3" r="9.6"/>
				</g>
			</g>
		</g>
		<g id="XMLID_4898_">
			<circle id="XMLID_126_" class="st5" cx="335.6" cy="209.3" r="26.6"/>
		</g>
		<g id="XMLID_4895_">
			<ellipse id="XMLID_120_" class="st17" cx="335.6" cy="209.3" rx="24.3" ry="24.3"/>
		</g>
		<g id="XMLID_4893_">
			<rect id="XMLID_177_" x="315.2" y="204.1" class="st7" width="40.7" height="11.4"/>
			<text id="XMLID_176_" transform="matrix(1 0 0 1 319.8289 211.7132)" class="st8 st9 st10">Investor 4</text>
		</g>
	</g>
	<g id="XMLID_4814_">
		<g id="XMLID_4891_" class="st0">
			<path id="XMLID_138_" class="st18" d="M303.1,73.9c0.8-8.4,8.1-17.6,16.2-20.5l15.1-5.4c8.1-2.9,18.7,0.6,23.4,7.8l3.6,5.4
				c4.7,7.2,7.1,17.1,5.2,22c-1.9,4.9-8.7,13.5-15.3,19.2l-5,4.4c-6.5,5.7-17.2,5.7-23.8,0.1l-8.9-7.6
				C307.1,93.7,302.3,82.2,303.1,73.9z"/>
		</g>
		<g id="XMLID_4823_">
			<g id="XMLID_579_">
				<g id="XMLID_621_" class="st2">
					<g id="XMLID_634_">
						<line id="XMLID_635_" class="st19" x1="314.1" y1="55.9" x2="356.2" y2="102.7"/>
					</g>
					<g id="XMLID_632_">
						<line id="XMLID_633_" class="st19" x1="348.5" y1="50.8" x2="321.9" y2="107.9"/>
					</g>
					<g id="XMLID_630_">
						<line id="XMLID_631_" class="st19" x1="366.6" y1="80.4" x2="303.7" y2="78.2"/>
					</g>
					<g id="XMLID_628_">
						<line id="XMLID_629_" class="st19" x1="346.5" y1="108.7" x2="323.9" y2="49.9"/>
					</g>
					<g id="XMLID_626_">
						<line id="XMLID_627_" class="st19" x1="312.5" y1="101.2" x2="357.8" y2="57.5"/>
					</g>
					<g id="XMLID_624_">
						<line id="XMLID_625_" class="st19" x1="306.2" y1="67" x2="364.2" y2="91.7"/>
					</g>
					<g id="XMLID_622_">
						<line id="XMLID_623_" class="st19" x1="335.2" y1="47.9" x2="335.2" y2="110.8"/>
					</g>
				</g>
				<g id="XMLID_580_">
					<circle id="XMLID_620_" class="st20" cx="335.2" cy="79.3" r="30.7"/>
					<circle id="XMLID_619_" class="st20" cx="335.2" cy="79.3" r="29.1"/>
					<circle id="XMLID_618_" class="st20" cx="335.2" cy="79.3" r="27.4"/>
					<circle id="XMLID_617_" class="st20" cx="335.2" cy="79.3" r="25.8"/>
					<circle id="XMLID_590_" class="st20" cx="335.2" cy="79.3" r="24.2"/>
					<circle id="XMLID_589_" class="st20" cx="335.2" cy="79.3" r="22.6"/>
					<circle id="XMLID_588_" class="st20" cx="335.2" cy="79.3" r="20.9"/>
					<circle id="XMLID_587_" class="st20" cx="335.2" cy="79.3" r="19.3"/>
					<circle id="XMLID_586_" class="st20" cx="335.2" cy="79.3" r="17.7"/>
					<circle id="XMLID_585_" class="st20" cx="335.2" cy="79.3" r="16.1"/>
					<circle id="XMLID_584_" class="st20" cx="335.2" cy="79.3" r="14.5"/>
					<circle id="XMLID_583_" class="st20" cx="335.2" cy="79.3" r="12.8"/>
					<circle id="XMLID_582_" class="st20" cx="335.2" cy="79.3" r="11.2"/>
					<circle id="XMLID_581_" class="st20" cx="335.2" cy="79.3" r="9.6"/>
				</g>
			</g>
		</g>
		<g id="XMLID_4820_">
			<circle id="XMLID_128_" class="st5" cx="335.2" cy="79.3" r="26.6"/>
		</g>
		<g id="XMLID_4817_">
			<ellipse id="XMLID_123_" class="st21" cx="335.2" cy="79.3" rx="24.3" ry="24.3"/>
		</g>
		<g id="XMLID_4815_">
			<rect id="XMLID_182_" x="314.8" y="74.1" class="st7" width="40.7" height="11.4"/>
			<text id="XMLID_180_" transform="matrix(1 0 0 1 319.4171 81.7133)" class="st8 st9 st10">Investor 2</text>
		</g>
	</g>
	<path id="XMLID_4813_" class="st22" d="M335.2,177.9v-22.4c0-5.5-4.5-10-10-10h-21.7"/>
	<path id="XMLID_4812_" class="st23" d="M340.7,166.2h-11c-2.5,0-4.5-2-4.5-4.5v0c0-2.5,2-4.5,4.5-4.5h11c2.5,0,4.5,2,4.5,4.5v0
		C345.2,164.2,343.2,166.2,340.7,166.2z"/>
	<rect id="XMLID_160_" x="327" y="158.3" class="st7" width="16.3" height="7.5"/>
	<text id="XMLID_4810_" transform="matrix(1 0 0 1 328.3336 164.4224)"><tspan x="0" y="0" class="st5 st9 st24">100</tspan><tspan x="9.6" y="0" class="st5 st9 st25">%</tspan></text>
	<circle id="XMLID_4809_" class="st23" cx="303.5" cy="145.5" r="1.3"/>
	<path id="XMLID_4808_" class="st22" d="M258.6,125.4V95.2c0-5.5,4.5-10,10-10h12.4"/>
	<path id="XMLID_4807_" class="st22" d="M295,125.4V95.2c0-5.5-4.5-10-10-10h-12.4"/>
	<circle id="XMLID_4806_" class="st18" cx="258.6" cy="125.4" r="1.3"/>
	<circle id="XMLID_4805_" class="st18" cx="295" cy="125.4" r="1.3"/>
	<g id="XMLID_4783_">
		<rect id="XMLID_10_" x="140.8" y="140.8" class="st7" width="25.9" height="11.4"/>
		<text id="XMLID_4803_" transform="matrix(1 0 0 1 142.9674 148.3821)" class="st11 st26 st10">IPC01</text>
		<rect id="XMLID_9_" x="173.2" y="140.8" class="st7" width="26.2" height="11.4"/>
		<text id="XMLID_4801_" transform="matrix(1 0 0 1 175.4888 148.3821)" class="st11 st26 st10">IPC02</text>
		<rect id="XMLID_8_" x="204.4" y="140.8" class="st7" width="29.4" height="11.4"/>
		<text id="XMLID_4799_" transform="matrix(1 0 0 1 208.2652 148.3821)" class="st11 st26 st10">IPC03</text>
		<rect id="XMLID_7_" x="237.5" y="141.1" class="st7" width="29.1" height="11.4"/>
		<text id="XMLID_4797_" transform="matrix(1 0 0 1 241.1886 148.7277)" class="st11 st26 st10">IPC04</text>
		<rect id="XMLID_6_" x="271.4" y="140.8" class="st7" width="28.2" height="11.4"/>
		<text id="XMLID_4795_" transform="matrix(1 0 0 1 274.689 148.3821)" class="st11 st26 st10">IPC05</text>
		<g id="XMLID_4784_">
			<g id="XMLID_4793_">
				<path id="XMLID_4794_" class="st27" d="M298.3,155.3L287,162c-1.1,0.6-2.4,0.6-3.5,0l-11.3-6.7c-1.1-0.6-1.7-1.8-1.7-3.1v-13.5
					c0-1.3,0.7-2.4,1.7-3.1l11.3-6.7c1.1-0.6,2.4-0.6,3.5,0l11.3,6.7c1.1,0.6,1.7,1.8,1.7,3.1v13.5
					C300,153.5,299.4,154.7,298.3,155.3z"/>
			</g>
			<g id="XMLID_4791_">
				<path id="XMLID_4792_" class="st27" d="M265.3,155.3L254,162c-1.1,0.6-2.4,0.6-3.5,0l-11.3-6.7c-1.1-0.6-1.7-1.8-1.7-3.1v-13.5
					c0-1.3,0.7-2.4,1.7-3.1l11.3-6.7c1.1-0.6,2.4-0.6,3.5,0l11.3,6.7c1.1,0.6,1.7,1.8,1.7,3.1v13.5
					C267,153.5,266.4,154.7,265.3,155.3z"/>
			</g>
			<g id="XMLID_4789_">
				<path id="XMLID_4790_" class="st27" d="M232.3,155.3L221,162c-1.1,0.6-2.4,0.6-3.5,0l-11.3-6.7c-1.1-0.6-1.7-1.8-1.7-3.1v-13.5
					c0-1.3,0.7-2.4,1.7-3.1l11.3-6.7c1.1-0.6,2.4-0.6,3.5,0l11.3,6.7c1.1,0.6,1.7,1.8,1.7,3.1v13.5
					C234,153.5,233.4,154.7,232.3,155.3z"/>
			</g>
			<g id="XMLID_4787_">
				<path id="XMLID_4788_" class="st27" d="M199.3,155.3L188,162c-1.1,0.6-2.4,0.6-3.5,0l-11.3-6.7c-1.1-0.6-1.7-1.8-1.7-3.1v-13.5
					c0-1.3,0.7-2.4,1.7-3.1l11.3-6.7c1.1-0.6,2.4-0.6,3.5,0l11.3,6.7c1.1,0.6,1.7,1.8,1.7,3.1v13.5
					C201,153.5,200.4,154.7,199.3,155.3z"/>
			</g>
			<g id="XMLID_4785_">
				<path id="XMLID_4786_" class="st27" d="M166.3,155.3L155,162c-1.1,0.6-2.4,0.6-3.5,0l-11.3-6.7c-1.1-0.6-1.7-1.8-1.7-3.1v-13.5
					c0-1.3,0.7-2.4,1.7-3.1l11.3-6.7c1.1-0.6,2.4-0.6,3.5,0l11.3,6.7c1.1,0.6,1.7,1.8,1.7,3.1v13.5
					C168,153.5,167.4,154.7,166.3,155.3z"/>
			</g>
		</g>
	</g>
	<path id="XMLID_4782_" class="st22" d="M203,204.8l-0.1,3.6c0,3.3-2.7,5.9-6,5.9h-69.2"/>
	<path id="XMLID_4781_" class="st1" d="M181.7,218.8h-12c-2.5,0-4.5-2-4.5-4.5v0c0-2.5,2-4.5,4.5-4.5h12c2.5,0,4.5,2,4.5,4.5v0
		C186.2,216.8,184.2,218.8,181.7,218.8z"/>
	<g id="XMLID_4779_">
		<rect id="XMLID_179_" x="165.4" y="211" class="st7" width="19.6" height="7.5"/>
		<text id="XMLID_178_" transform="matrix(1 0 0 1 168.293 217.0506)"><tspan x="0" y="0" class="st5 st9 st24">100</tspan><tspan x="9.6" y="0" class="st5 st9 st25">%</tspan></text>
	</g>
	<path id="XMLID_4778_" class="st22" d="M153.6,165v26c0,3.3,2.7,6,6,6H198c2.8,0,5,2.2,5,5v2.7"/>
	<path id="XMLID_4777_" class="st22" d="M285.1,165v26c0,3.3-2.7,6-6,6H208c-2.8,0-5,2.2-5,5v2.7"/>
	<g id="XMLID_4773_">
		<path id="XMLID_4776_" class="st1" d="M156.6,181.9h-6c-2.5,0-4.5-2-4.5-4.5v0c0-2.5,2-4.5,4.5-4.5h6c2.5,0,4.5,2,4.5,4.5v0
			C161.1,179.9,159.1,181.9,156.6,181.9z"/>
		<rect id="XMLID_113_" x="147.5" y="174" class="st7" width="12.2" height="7.5"/>
		<text id="XMLID_4774_" transform="matrix(1 0 0 1 148.3177 180.1147)"><tspan x="0" y="0" class="st5 st9 st24">50</tspan><tspan x="6.4" y="0" class="st5 st9 st25">%</tspan></text>
	</g>
	<path id="XMLID_4772_" class="st22" d="M252.1,165v23.6c0,2.2-1.8,4-4,4H207c-2.2,0-4,1.8-4,4v8.1"/>
	<path id="XMLID_4771_" class="st22" d="M219.3,165v20c0,1.7-1.3,3-3,3H206c-1.7,0-3,1.3-3,3v9.1"/>
	<path id="XMLID_4770_" class="st22" d="M186.3,165v24.6c0,1.7,1.3,3,3,3H200c1.7,0,3,1.3,3,3v9.1"/>
	<g id="XMLID_4764_">
		<circle id="XMLID_4769_" class="st1" cx="153.5" cy="165" r="1.3"/>
		<circle id="XMLID_4768_" class="st1" cx="219.3" cy="165" r="1.3"/>
		<circle id="XMLID_4767_" class="st1" cx="186.3" cy="165" r="1.3"/>
		<circle id="XMLID_4766_" class="st1" cx="252" cy="165" r="1.3"/>
		<circle id="XMLID_4765_" class="st1" cx="285.1" cy="165" r="1.3"/>
	</g>
	<g id="XMLID_4760_">
		<path id="XMLID_4763_" class="st1" d="M189.9,181.9h-6c-2.5,0-4.5-2-4.5-4.5v0c0-2.5,2-4.5,4.5-4.5h6c2.5,0,4.5,2,4.5,4.5v0
			C194.4,179.9,192.4,181.9,189.9,181.9z"/>
		<rect id="XMLID_3_" x="179.8" y="174" class="st7" width="14.1" height="7.5"/>
		<text id="XMLID_4761_" transform="matrix(1 0 0 1 181.5872 180.1152)"><tspan x="0" y="0" class="st5 st9 st24">10</tspan><tspan x="6.4" y="0" class="st5 st9 st25">%</tspan></text>
	</g>
	<g id="XMLID_4756_">
		<path id="XMLID_4759_" class="st1" d="M221.1,181.9h-6c-2.5,0-4.5-2-4.5-4.5v0c0-2.5,2-4.5,4.5-4.5h6c2.5,0,4.5,2,4.5,4.5v0
			C225.6,179.9,223.6,181.9,221.1,181.9z"/>
		<rect id="XMLID_93_" x="211" y="174" class="st7" width="14.1" height="7.5"/>
		<text id="XMLID_4757_" transform="matrix(1 0 0 1 212.8233 180.1152)"><tspan x="0" y="0" class="st5 st9 st24">10</tspan><tspan x="6.4" y="0" class="st5 st9 st25">%</tspan></text>
	</g>
	<g id="XMLID_4752_">
		<path id="XMLID_4755_" class="st1" d="M255,181.9h-6c-2.5,0-4.5-2-4.5-4.5v0c0-2.5,2-4.5,4.5-4.5h6c2.5,0,4.5,2,4.5,4.5v0
			C259.5,179.9,257.5,181.9,255,181.9z"/>
		<rect id="XMLID_89_" x="245" y="174" class="st7" width="14.1" height="7.5"/>
		<text id="XMLID_4753_" transform="matrix(1 0 0 1 246.7437 180.1152)"><tspan x="0" y="0" class="st5 st9 st24">15</tspan><tspan x="6.4" y="0" class="st5 st9 st25">%</tspan></text>
	</g>
	<g id="XMLID_4748_">
		<path id="XMLID_4751_" class="st1" d="M288.1,181.9h-6c-2.5,0-4.5-2-4.5-4.5v0c0-2.5,2-4.5,4.5-4.5h6c2.5,0,4.5,2,4.5,4.5v0
			C292.6,179.9,290.6,181.9,288.1,181.9z"/>
		<rect id="XMLID_2_" x="278" y="174" class="st7" width="14.1" height="7.5"/>
		<text id="XMLID_4749_" transform="matrix(1 0 0 1 279.8301 180.1152)"><tspan x="0" y="0" class="st5 st9 st24">15</tspan><tspan x="6.4" y="0" class="st5 st9 st25">%</tspan></text>
	</g>
	<path id="XMLID_4747_" class="st22" d="M203,85.9l-0.1-3.6c0-3.3-2.7-5.9-6-5.9h-69.2"/>
	<path id="XMLID_4746_" class="st22" d="M276.8,85.9l0.1-3.6c0-3.3,2.7-5.9,6-5.9h20.5"/>
	<path id="XMLID_4745_" class="st11" d="M181.7,71.8h-12c-2.5,0-4.5,2-4.5,4.5v0c0,2.5,2,4.5,4.5,4.5h12c2.5,0,4.5-2,4.5-4.5v0
		C186.2,73.8,184.2,71.8,181.7,71.8z"/>
	<g id="XMLID_4743_">
		<rect id="XMLID_173_" x="165.4" y="73.1" class="st7" width="19.6" height="7.5"/>
		<text id="XMLID_170_" transform="matrix(1 0 0 1 168.293 79.1909)"><tspan x="0" y="0" class="st5 st9 st24">100</tspan><tspan x="9.6" y="0" class="st5 st9 st25">%</tspan></text>
	</g>
	<path id="XMLID_4742_" class="st22" d="M153.6,125.6v-26c0-3.3,2.7-6,6-6H198c2.8,0,5-2.2,5-5v-2.7"/>
	<path id="XMLID_4741_" class="st22" d="M276.8,125.6v-26c0-3.3-2.7-6-6-6H208c-2.8,0-5-2.2-5-5v-2.7"/>
	<path id="XMLID_4740_" class="st22" d="M245,125.6V102c0-2.2-1.8-4-4-4H207c-2.2,0-4-1.8-4-4v-8.1"/>
	<path id="XMLID_4739_" class="st22" d="M219.3,125.6v-20c0-1.7-1.3-3-3-3H206c-1.7,0-3-1.3-3-3v-9.1"/>
	<path id="XMLID_4738_" class="st22" d="M186.3,125.6V101c0-1.7,1.3-3,3-3H200c1.7,0,3-1.3,3-3v-9.1"/>
	<g id="XMLID_4732_">
		<circle id="XMLID_4737_" class="st11" cx="153.5" cy="125.6" r="1.3"/>
		<circle id="XMLID_4736_" class="st11" cx="219.3" cy="125.6" r="1.3"/>
		<circle id="XMLID_4735_" class="st11" cx="186.3" cy="125.6" r="1.3"/>
		<circle id="XMLID_4734_" class="st11" cx="245" cy="125.6" r="1.3"/>
		<circle id="XMLID_4733_" class="st11" cx="276.8" cy="125.6" r="1.3"/>
	</g>
	<g id="XMLID_4728_">
		<path id="XMLID_4731_" class="st11" d="M247.5,110.7h-6c-2.5,0-4.5,2-4.5,4.5v0c0,2.5,2,4.5,4.5,4.5h6c2.5,0,4.5-2,4.5-4.5v0
			C252,112.7,250,110.7,247.5,110.7z"/>
		<rect id="XMLID_53_" x="237.5" y="112" class="st7" width="14.1" height="7.5"/>
		<text id="XMLID_4729_" transform="matrix(1 0 0 1 239.2437 118.1263)"><tspan x="0" y="0" class="st5 st9 st24">20</tspan><tspan x="6.4" y="0" class="st5 st9 st25">%</tspan></text>
	</g>
	<g id="XMLID_4724_">
		<path id="XMLID_4727_" class="st11" d="M282.1,111.3h-6c-2.5,0-4.5,2-4.5,4.5v0c0,2.5,2,4.5,4.5,4.5h6c2.5,0,4.5-2,4.5-4.5v0
			C286.6,113.3,284.6,111.3,282.1,111.3z"/>
		<rect id="XMLID_49_" x="272" y="112.6" class="st7" width="14.1" height="7.5"/>
		<text id="XMLID_4725_" transform="matrix(1 0 0 1 273.8301 118.7083)"><tspan x="0" y="0" class="st5 st9 st24">20</tspan><tspan x="6.4" y="0" class="st5 st9 st25">%</tspan></text>
	</g>
	<g id="XMLID_4720_">
		<path id="XMLID_4723_" class="st18" d="M261.6,98.2h-6c-2.5,0-4.5,2-4.5,4.5v0c0,2.5,2,4.5,4.5,4.5h6c2.5,0,4.5-2,4.5-4.5v0
			C266.1,100.2,264.1,98.2,261.6,98.2z"/>
		<rect id="XMLID_44_" x="251.6" y="99.5" class="st7" width="14.1" height="7.5"/>
		<text id="XMLID_4721_" transform="matrix(1 0 0 1 253.367 105.6209)"><tspan x="0" y="0" class="st5 st9 st24">40</tspan><tspan x="6.4" y="0" class="st5 st9 st25">%</tspan></text>
	</g>
	<g id="XMLID_4714_">
		<path id="XMLID_4719_" class="st18" d="M298,98.2h-6c-2.5,0-4.5,2-4.5,4.5v0c0,2.5,2,4.5,4.5,4.5h6c2.5,0,4.5-2,4.5-4.5v0
			C302.5,100.2,300.5,98.2,298,98.2z"/>
		<rect id="XMLID_39_" x="287.9" y="99.5" class="st7" width="14.1" height="7.5"/>
		<text id="XMLID_4715_" transform="matrix(1 0 0 1 289.6905 105.6209)"><tspan x="0" y="0" class="st5 st9 st24">60</tspan><tspan x="6.4" y="0" class="st5 st9 st25">%</tspan></text>
	</g>
	<g id="XMLID_4703_">
		<path id="XMLID_4713_" class="st11" d="M222.1,110.7h-6c-2.5,0-4.5,2-4.5,4.5v0c0,2.5,2,4.5,4.5,4.5h6c2.5,0,4.5-2,4.5-4.5v0
			C226.6,112.7,224.6,110.7,222.1,110.7z"/>
		<rect id="XMLID_33_" x="212" y="112" class="st7" width="14.1" height="7.5"/>
		<text id="XMLID_4708_" transform="matrix(1 0 0 1 213.8204 118.1263)"><tspan x="0" y="0" class="st5 st9 st24">20</tspan><tspan x="6.4" y="0" class="st5 st9 st25">%</tspan></text>
	</g>
	<g id="XMLID_4682_">
		<path id="XMLID_4685_" class="st11" d="M189.3,110.7h-6c-2.5,0-4.5,2-4.5,4.5v0c0,2.5,2,4.5,4.5,4.5h6c2.5,0,4.5-2,4.5-4.5v0
			C193.8,112.7,191.8,110.7,189.3,110.7z"/>
		<rect id="XMLID_28_" x="179.2" y="112" class="st7" width="14.1" height="7.5"/>
		<text id="XMLID_4683_" transform="matrix(1 0 0 1 180.9871 118.1263)"><tspan x="0" y="0" class="st5 st9 st24">20</tspan><tspan x="6.4" y="0" class="st5 st9 st25">%</tspan></text>
	</g>
	<g id="XMLID_4678_">
		<path id="XMLID_4681_" class="st11" d="M156.5,110.7h-6c-2.5,0-4.5,2-4.5,4.5v0c0,2.5,2,4.5,4.5,4.5h6c2.5,0,4.5-2,4.5-4.5v0
			C161,112.7,159,110.7,156.5,110.7z"/>
		<rect id="XMLID_23_" x="146.4" y="112" class="st7" width="14.1" height="7.5"/>
		<text id="XMLID_4679_" transform="matrix(1 0 0 1 148.2371 118.1263)"><tspan x="0" y="0" class="st5 st9 st24">20</tspan><tspan x="6.4" y="0" class="st5 st9 st25">%</tspan></text>
	</g>
	<g id="XMLID_4639_">
		<path id="XMLID_4677_" class="st18" d="M295.7,71.8h-11c-2.5,0-4.5,2-4.5,4.5v0c0,2.5,2,4.5,4.5,4.5h11c2.5,0,4.5-2,4.5-4.5v0
			C300.2,73.8,298.1,71.8,295.7,71.8z"/>
		<rect id="XMLID_17_" x="282" y="73.1" class="st7" width="16.3" height="7.5"/>
		<text id="XMLID_4675_" transform="matrix(1 0 0 1 283.2811 79.1867)"><tspan x="0" y="0" class="st5 st9 st24">100</tspan><tspan x="9.6" y="0" class="st5 st9 st25">%</tspan></text>
	</g>
</g>
</svg>
