<?xml version="1.0" encoding="utf-8"?>
<!-- Generator: Adobe Illustrator 19.0.0, SVG Export Plug-In . SVG Version: 6.00 Build 0)  -->
<svg version="1.1" id="Layer_1" xmlns="http://www.w3.org/2000/svg" xmlns:xlink="http://www.w3.org/1999/xlink" x="0px" y="0px"
	 viewBox="0 0 431.3 287" style="enable-background:new 0 0 431.3 287;" xml:space="preserve">
<style type="text/css">
	.st0{fill:none;stroke:#CCCCCC;stroke-width:0.5;stroke-miterlimit:10;stroke-dasharray:0.997,1;}
	.st1{opacity:0.7;}
	.st2{opacity:0.2;fill:none;stroke:#00A6FF;stroke-width:0.4323;stroke-miterlimit:10;}
	.st3{opacity:0.2;}
	.st4{fill:#00A6FF;}
	.st5{fill:#FFFFFF;}
	.st6{fill:none;stroke:#00A6FF;stroke-miterlimit:10;stroke-dasharray:0.2674,1.3347;}
	.st7{fill:#B3B3B3;}
	.st8{opacity:0.5;}
	.st9{fill:#666666;}
	.st10{fill:none;}
	.st11{font-family:'OpenSansCondensed-Bold';}
	.st12{font-size:9px;}
	.st13{fill:#333333;}
	.st14{font-family:'OpenSansCondensed-Light';}
	.st15{font-size:12.233px;}
	.st16{fill:none;stroke:#666666;stroke-width:3;stroke-miterlimit:10;}
	.st17{fill:none;stroke:#B3B3B3;stroke-width:3;stroke-miterlimit:10;}
	.st18{opacity:0.5;fill:none;stroke:#00A6FF;stroke-width:3;stroke-miterlimit:10;}
	.st19{fill:none;stroke:#00A6FF;stroke-width:3;stroke-miterlimit:10;}
	.st20{fill:none;stroke:#CCCCCC;stroke-width:0.5;stroke-miterlimit:10;}
	.st21{fill:none;stroke:#CCCCCC;stroke-width:0.5;stroke-miterlimit:10;stroke-dasharray:1,1.003;}
</style>
<g id="XMLID_19_">
	<line id="XMLID_5169_" class="st0" x1="197.4" y1="217.2" x2="265.4" y2="217.2"/>
	<g id="XMLID_4412_" class="st1">
		<circle id="XMLID_2_" class="st2" cx="231.2" cy="137.9" r="67.4"/>
		<circle id="XMLID_14_" class="st2" cx="231.2" cy="137.9" r="63.8"/>
		<circle id="XMLID_13_" class="st2" cx="231.2" cy="137.9" r="60.3"/>
		<circle id="XMLID_12_" class="st2" cx="231.2" cy="137.9" r="56.7"/>
		<circle id="XMLID_11_" class="st2" cx="231.2" cy="137.9" r="53.1"/>
		<circle id="XMLID_10_" class="st2" cx="231.2" cy="137.9" r="49.6"/>
		<circle id="XMLID_9_" class="st2" cx="231.2" cy="137.9" r="46"/>
		<circle id="XMLID_8_" class="st2" cx="231.2" cy="137.9" r="42.4"/>
		<circle id="XMLID_7_" class="st2" cx="231.2" cy="137.9" r="38.9"/>
		<circle id="XMLID_6_" class="st2" cx="231.2" cy="137.9" r="35.3"/>
		<circle id="XMLID_5_" class="st2" cx="231.2" cy="137.9" r="31.7"/>
		<circle id="XMLID_4_" class="st2" cx="231.2" cy="137.9" r="28.2"/>
		<circle id="XMLID_3_" class="st2" cx="231.2" cy="137.9" r="24.6"/>
		<circle id="XMLID_1_" class="st2" cx="231.2" cy="137.9" r="21"/>
	</g>
	<g id="XMLID_4409_">
		<g id="XMLID_4411_" class="st3">
			<path id="XMLID_31_" class="st4" d="M165,114.5c1.2-9.2,9.4-18.9,18.3-21.5l39.2-11.7c8.9-2.6,22.4-0.6,30.1,4.6l39.2,26.3
				c7.7,5.2,10.9,16.3,7.2,24.8l-14.5,32.8c-3.7,8.5-13.9,17.8-22.7,20.8l-35.9,12.1c-8.8,3-21.1-0.1-27.5-6.8l-27-28.5
				c-6.4-6.7-10.6-19.7-9.4-28.9L165,114.5z"/>
		</g>
		<g id="XMLID_4410_" class="st3">
			<path id="XMLID_32_" class="st4" d="M203.4,77.1c7.3-5.7,20-6.7,28.1-2.3l36,19.4c8.1,4.4,16.3,15.4,18,24.5l9.1,46.3
				c1.8,9.1-3.8,19.2-12.4,22.6l-33.4,13c-8.6,3.4-22.5,2.7-30.7-1.4l-33.9-16.8c-8.3-4.1-14.9-15-14.6-24.3l1.1-39.2
				c0.3-9.2,6.5-21.4,13.8-27.1L203.4,77.1z"/>
		</g>
	</g>
	<g id="XMLID_4380_">
		<circle id="XMLID_26_" class="st5" cx="231.2" cy="137.9" r="57.9"/>
		<circle id="XMLID_24_" class="st6" cx="231.2" cy="137.9" r="57.9"/>
	</g>
	<g id="XMLID_2538_">
		<g id="XMLID_3455_">
			<path id="XMLID_4379_" class="st4" d="M231.2,86.9c22.9,0,42.3,15.1,48.8,35.9l0.2-0.1c-6.5-20.9-26-36.1-49-36.1h0L231.2,86.9
				L231.2,86.9z"/>
			<path id="XMLID_4378_" class="st4" d="M231.2,88.6c22.1,0,40.8,14.6,47.1,34.7l0.2-0.1c-6.3-20.2-25.1-34.8-47.3-34.8h0
				L231.2,88.6L231.2,88.6z"/>
			<path id="XMLID_4377_" class="st4" d="M231.2,90.4c21.3,0,39.4,14.1,45.4,33.4l0.2-0.1c-6-19.4-24.2-33.6-45.6-33.6h0L231.2,90.4
				L231.2,90.4z"/>
			<path id="XMLID_4345_" class="st4" d="M231.2,92L231.2,92l0,0.2h0c20.5,0,37.9,13.6,43.7,32.2l0.2-0.1
				C269.3,105.6,251.8,92,231.2,92z"/>
			<path id="XMLID_4343_" class="st4" d="M231.2,94c19.7,0,36.4,13,42,31l0.2-0.1c-5.6-18-22.4-31.1-42.2-31.1h0L231.2,94L231.2,94z
				"/>
			<path id="XMLID_4342_" class="st4" d="M231.2,95.8c18.9,0,35,12.5,40.3,29.7l0.2-0.1c-5.3-17.3-21.5-29.9-40.5-29.9h0L231.2,95.8
				L231.2,95.8z"/>
			<path id="XMLID_4337_" class="st4" d="M231.2,97.6c18.1,0,33.5,12,38.6,28.5l0.2-0.1c-5.1-16.6-20.6-28.7-38.8-28.7h0L231.2,97.6
				L231.2,97.6z"/>
			<path id="XMLID_4319_" class="st4" d="M231.2,99.4c17.3,0,32,11.5,36.9,27.2l0.2-0.1c-4.9-15.9-19.7-27.4-37.1-27.4h0L231.2,99.4
				L231.2,99.4z"/>
			<path id="XMLID_4316_" class="st4" d="M231.2,100.9L231.2,100.9l0,0.2h0c16.5,0,30.5,11,35.2,26l0.2-0.1
				C262,112,247.9,100.9,231.2,100.9z"/>
			<path id="XMLID_4310_" class="st4" d="M231.2,103c15.7,0,29.1,10.5,33.4,24.8l0.2-0.1c-4.4-14.4-17.8-24.9-33.7-24.9h0L231.2,103
				L231.2,103z"/>
			<path id="XMLID_4238_" class="st4" d="M231.2,104.7c14.9,0,27.6,9.9,31.7,23.5l0.2-0.1c-4.2-13.7-16.9-23.7-32-23.7h0
				L231.2,104.7L231.2,104.7z"/>
			<path id="XMLID_4226_" class="st4" d="M231.2,106.5c14.1,0,26.1,9.4,30,22.3l0.2-0.1c-3.9-13-16-22.5-30.3-22.5h0L231.2,106.5
				L231.2,106.5z"/>
			<path id="XMLID_4225_" class="st4" d="M231.2,108.3c13.4,0,24.7,8.9,28.3,21.1l0.2-0.1c-3.7-12.3-15.1-21.2-28.6-21.2h0
				L231.2,108.3L231.2,108.3z"/>
			<path id="XMLID_4223_" class="st4" d="M231.2,109.9L231.2,109.9l0,0.2h0c12.6,0,23.2,8.4,26.6,19.8l0.2-0.1
				C254.6,118.3,243.9,109.9,231.2,109.9z"/>
			<path id="XMLID_4222_" class="st4" d="M231.2,111.9c11.8,0,21.7,7.9,24.9,18.6l0.2-0.1c-3.2-10.8-13.3-18.8-25.2-18.8h0
				L231.2,111.9L231.2,111.9z"/>
			<path id="XMLID_4216_" class="st4" d="M231.2,113.7c11,0,20.3,7.3,23.2,17.4l0.2-0.1c-3-10.1-12.4-17.5-23.5-17.5h0L231.2,113.7
				L231.2,113.7z"/>
			<path id="XMLID_3952_" class="st4" d="M231.2,115.5c10.2,0,18.8,6.8,21.5,16.1l0.2-0.1c-2.8-9.4-11.5-16.3-21.8-16.3h0
				L231.2,115.5L231.2,115.5z"/>
			<path id="XMLID_3916_" class="st4" d="M231.2,117.3c9.4,0,17.3,6.3,19.8,14.9l0.2-0.1c-2.5-8.7-10.6-15.1-20.1-15.1h0
				L231.2,117.3L231.2,117.3z"/>
			<path id="XMLID_3470_" class="st4" d="M231.2,118.8L231.2,118.8l0,0.2h0c8.6,0,15.8,5.8,18.1,13.7l0.2-0.1
				C247.3,124.7,239.9,118.8,231.2,118.8z"/>
			<path id="XMLID_3468_" class="st4" d="M231.2,120.9c7.8,0,14.4,5.3,16.4,12.4l0.2-0.1c-2.1-7.3-8.7-12.6-16.6-12.6h0L231.2,120.9
				L231.2,120.9z"/>
			<path id="XMLID_3463_" class="st4" d="M231.2,122.6c7,0,12.9,4.7,14.7,11.2l0.2-0.1c-1.8-6.5-7.8-11.4-14.9-11.4h0L231.2,122.6
				L231.2,122.6z"/>
			<path id="XMLID_3462_" class="st4" d="M231.2,124.4c6.2,0,11.4,4.2,13,9.9l0.2-0.1c-1.6-5.8-6.9-10.1-13.2-10.1h0L231.2,124.4
				L231.2,124.4z"/>
			<path id="XMLID_3461_" class="st4" d="M231.2,126.2c5.4,0,10,3.7,11.3,8.7l0.2-0.1c-1.4-5.1-6-8.9-11.5-8.9h0L231.2,126.2
				L231.2,126.2z"/>
			<path id="XMLID_3459_" class="st4" d="M231.2,127.8L231.2,127.8l0,0.2h0c4.6,0,8.5,3.2,9.6,7.5l0.2-0.1
				C239.9,131,236,127.8,231.2,127.8z"/>
			<path id="XMLID_3458_" class="st4" d="M231.2,129.8c3.8,0,7,2.7,7.9,6.2l0.2-0.1c-0.9-3.7-4.2-6.4-8.1-6.4h0L231.2,129.8
				L231.2,129.8z"/>
			<path id="XMLID_3456_" class="st4" d="M231.2,131.6c3,0,5.6,2.1,6.2,5l0.2-0.1c-0.6-3-3.3-5.2-6.4-5.2h0L231.2,131.6L231.2,131.6
				z"/>
		</g>
		<g id="XMLID_3252_">
			<path id="XMLID_3452_" class="st7" d="M231.2,189c-11.1,0-21.3-3.5-29.7-9.5l-0.1,0.2c8.4,6,18.7,9.6,29.8,9.6
				c11.1,0,21.4-3.6,29.8-9.6l-0.1-0.2C252.5,185.5,242.3,189,231.2,189z"/>
			<path id="XMLID_3451_" class="st7" d="M231.2,187.2c-10.7,0-20.6-3.4-28.6-9.2l-0.1,0.2c8.1,5.8,18,9.3,28.8,9.3
				c10.7,0,20.7-3.4,28.8-9.3l-0.1-0.2C251.8,183.8,241.9,187.2,231.2,187.2z"/>
			<path id="XMLID_3450_" class="st7" d="M259,176.8l-0.1-0.2c-7.8,5.6-17.3,8.9-27.6,8.9c-10.3,0-19.8-3.3-27.6-8.9l-0.1,0.2
				c7.8,5.6,17.4,8.9,27.7,8.9C241.6,185.7,251.1,182.4,259,176.8z"/>
			<path id="XMLID_3449_" class="st7" d="M231.2,183.6c-9.9,0-19-3.2-26.5-8.5l-0.1,0.2c7.5,5.4,16.7,8.6,26.7,8.6
				c9.9,0,19.1-3.2,26.7-8.6l-0.1-0.2C250.3,180.5,241.1,183.6,231.2,183.6z"/>
			<path id="XMLID_3448_" class="st7" d="M231.2,181.8c-9.5,0-18.3-3-25.5-8.2l-0.1,0.2c7.2,5.2,16.1,8.2,25.6,8.2
				c9.5,0,18.4-3.1,25.6-8.2l-0.1-0.2C249.5,178.8,240.7,181.8,231.2,181.8z"/>
			<path id="XMLID_3447_" class="st7" d="M231.2,180.1c-9.1,0-17.5-2.9-24.4-7.8l-0.1,0.2c6.9,5,15.4,7.9,24.6,7.9
				c9.2,0,17.6-2.9,24.6-7.9l-0.1-0.2C248.8,177.1,240.3,180.1,231.2,180.1z"/>
			<path id="XMLID_3446_" class="st7" d="M231.2,178.3c-8.7,0-16.8-2.8-23.4-7.5l-0.1,0.2c6.6,4.7,14.8,7.5,23.5,7.5
				c8.8,0,16.9-2.8,23.5-7.5l-0.1-0.2C248,175.5,239.9,178.3,231.2,178.3z"/>
			<path id="XMLID_3445_" class="st7" d="M253.7,169.5l-0.1-0.2c-6.3,4.5-14,7.1-22.3,7.1c-8.3,0-16-2.7-22.3-7.1l-0.1,0.2
				c6.3,4.5,14.1,7.2,22.5,7.2C239.6,176.7,247.4,174,253.7,169.5z"/>
			<path id="XMLID_3412_" class="st7" d="M231.2,174.7c-7.9,0-15.3-2.5-21.3-6.8l-0.1,0.2c6,4.3,13.4,6.9,21.4,6.9
				c8,0,15.4-2.5,21.4-6.9l-0.1-0.2C246.5,172.2,239.2,174.7,231.2,174.7z"/>
			<path id="XMLID_3400_" class="st7" d="M231.2,172.9c-7.5,0-14.5-2.4-20.2-6.5l-0.1,0.2c5.8,4.1,12.8,6.5,20.4,6.5
				c7.6,0,14.6-2.4,20.4-6.5l-0.1-0.2C245.7,170.5,238.8,172.9,231.2,172.9z"/>
			<path id="XMLID_3397_" class="st7" d="M231.2,171.1c-7.1,0-13.7-2.3-19.2-6.1l-0.1,0.2c5.5,3.9,12.1,6.2,19.3,6.2
				c7.2,0,13.9-2.3,19.3-6.2l-0.1-0.2C245,168.8,238.4,171.1,231.2,171.1z"/>
			<path id="XMLID_3305_" class="st7" d="M231.2,169.3c-6.7,0-13-2.1-18.1-5.8l-0.1,0.2c5.2,3.7,11.5,5.8,18.3,5.8
				c6.8,0,13.1-2.2,18.3-5.8l-0.1-0.2C244.2,167.2,238,169.3,231.2,169.3z"/>
			<path id="XMLID_3304_" class="st7" d="M248.4,162.3l-0.1-0.2c-4.8,3.4-10.7,5.4-17.1,5.4c-6.4,0-12.2-2-17.1-5.4l-0.1,0.2
				c4.9,3.4,10.8,5.5,17.2,5.5C237.6,167.8,243.6,165.7,248.4,162.3z"/>
			<path id="XMLID_3298_" class="st7" d="M231.2,165.7c-6,0-11.5-1.9-16-5.1l-0.1,0.2c4.6,3.2,10.1,5.1,16.2,5.1
				c6,0,11.6-1.9,16.2-5.1l-0.1-0.2C242.7,163.8,237.2,165.7,231.2,165.7z"/>
			<path id="XMLID_3293_" class="st7" d="M231.2,163.9c-5.6,0-10.7-1.8-15-4.8l-0.1,0.2c4.3,3,9.5,4.8,15.1,4.8
				c5.6,0,10.8-1.8,15.1-4.8l-0.1-0.2C242,162.2,236.8,163.9,231.2,163.9z"/>
			<path id="XMLID_3291_" class="st7" d="M231.2,162.2c-5.2,0-10-1.6-13.9-4.4l-0.1,0.2c4,2.8,8.8,4.5,14.1,4.5
				c5.2,0,10.1-1.7,14.1-4.5l-0.1-0.2C241.2,160.5,236.4,162.2,231.2,162.2z"/>
			<path id="XMLID_3289_" class="st7" d="M231.2,160.4c-4.8,0-9.2-1.5-12.9-4.1l-0.1,0.2c3.7,2.6,8.2,4.1,13,4.1
				c4.8,0,9.3-1.5,13-4.1l-0.1-0.2C240.4,158.9,236,160.4,231.2,160.4z"/>
			<path id="XMLID_3288_" class="st7" d="M243.2,155l-0.1-0.2c-3.3,2.3-7.4,3.7-11.8,3.7c-4.4,0-8.5-1.4-11.8-3.7l-0.1,0.2
				c3.4,2.4,7.5,3.8,11.9,3.8C235.7,158.8,239.8,157.4,243.2,155z"/>
			<path id="XMLID_3286_" class="st7" d="M231.2,156.8c-4,0-7.7-1.3-10.8-3.4l-0.1,0.2c3.1,2.2,6.8,3.4,10.9,3.4
				c4,0,7.8-1.3,10.9-3.4l-0.1-0.2C238.9,155.5,235.2,156.8,231.2,156.8z"/>
			<path id="XMLID_3285_" class="st7" d="M231.2,155c-3.6,0-6.9-1.1-9.7-3l-0.1,0.2c2.8,1.9,6.2,3.1,9.8,3.1c3.7,0,7-1.1,9.8-3.1
				l-0.1-0.2C238.2,153.9,234.8,155,231.2,155z"/>
			<path id="XMLID_3263_" class="st7" d="M231.2,153.2c-3.2,0-6.2-1-8.7-2.7l-0.1,0.2c2.5,1.7,5.5,2.7,8.8,2.7c3.3,0,6.3-1,8.8-2.7
				l-0.1-0.2C237.4,152.2,234.4,153.2,231.2,153.2z"/>
			<path id="XMLID_3262_" class="st7" d="M231.2,151.4c-2.8,0-5.4-0.9-7.6-2.4l-0.1,0.2c2.2,1.5,4.9,2.4,7.7,2.4
				c2.9,0,5.5-0.9,7.7-2.4l-0.1-0.2C236.7,150.5,234,151.4,231.2,151.4z"/>
			<path id="XMLID_3258_" class="st7" d="M237.9,147.8l-0.1-0.2c-1.9,1.3-4.1,2-6.5,2c-2.4,0-4.7-0.7-6.6-2l-0.1,0.2
				c1.9,1.3,4.2,2.1,6.7,2.1C233.7,149.9,236,149.1,237.9,147.8z"/>
			<path id="XMLID_3256_" class="st7" d="M231.2,147.8c-2,0-3.9-0.6-5.5-1.7l-0.1,0.2c1.6,1.1,3.6,1.7,5.6,1.7c2.1,0,4-0.6,5.6-1.7
				l-0.1-0.2C235.2,147.2,233.3,147.8,231.2,147.8z"/>
			<path id="XMLID_3255_" class="st7" d="M231.2,146c-1.6,0-3.2-0.5-4.4-1.3l-0.1,0.2c1.3,0.9,2.9,1.4,4.6,1.4
				c1.7,0,3.3-0.5,4.6-1.4l-0.1-0.2C234.4,145.6,232.9,146,231.2,146z"/>
			<path id="XMLID_3253_" class="st7" d="M231.2,144.3c-1.2,0-2.4-0.4-3.4-1l-0.1,0.2c1,0.7,2.2,1,3.5,1c1.3,0,2.5-0.4,3.5-1
				l-0.1-0.2C233.6,143.9,232.5,144.3,231.2,144.3z"/>
		</g>
		<g id="XMLID_3133_" class="st8">
			<path id="XMLID_3251_" class="st4" d="M280,122.8c1.5,4.8,2.3,9.9,2.3,15.2c0,17.1-8.5,32.3-21.4,41.5l0.1,0.2
				c13-9.3,21.5-24.5,21.5-41.7c0-5.3-0.8-10.4-2.3-15.2L280,122.8z"/>
			<path id="XMLID_3250_" class="st4" d="M280.5,137.9c0,16.5-8.2,31.1-20.7,40.1l0.1,0.2c12.6-9,20.8-23.7,20.8-40.3
				c0-5.1-0.8-10-2.2-14.7l-0.2,0.1C279.7,127.9,280.5,132.8,280.5,137.9z"/>
			<path id="XMLID_3249_" class="st4" d="M278.7,137.9c0,15.9-7.9,30-19.9,38.6l0.1,0.2c12.1-8.7,20-22.8,20-38.8
				c0-4.9-0.7-9.7-2.1-14.1l-0.2,0.1C278,128.3,278.7,133,278.7,137.9z"/>
			<path id="XMLID_3248_" class="st4" d="M276.9,137.9c0,15.3-7.6,28.9-19.2,37.2l0.1,0.2c11.7-8.3,19.3-22,19.3-37.4
				c0-4.7-0.7-9.3-2.1-13.6l-0.2,0.1C276.2,128.7,276.9,133.2,276.9,137.9z"/>
			<path id="XMLID_3247_" class="st4" d="M275.1,137.9c0,14.7-7.3,27.8-18.4,35.7l0.1,0.2c11.2-8,18.5-21.1,18.5-35.9
				c0-4.5-0.7-8.9-2-13l-0.2,0.1C274.5,129.1,275.1,133.4,275.1,137.9z"/>
			<path id="XMLID_3239_" class="st4" d="M273.6,137.9c0-4.3-0.7-8.5-1.9-12.5l-0.2,0.1c1.2,3.9,1.9,8.1,1.9,12.4
				c0,14.1-7,26.6-17.7,34.3l0.1,0.2C266.6,164.7,273.6,152.1,273.6,137.9z"/>
			<path id="XMLID_3238_" class="st4" d="M271.6,137.9c0,13.5-6.7,25.5-17,32.8l0.1,0.2c10.3-7.4,17.1-19.4,17.1-33
				c0-4.1-0.6-8.2-1.8-11.9l-0.2,0.1C270.9,129.8,271.6,133.8,271.6,137.9z"/>
			<path id="XMLID_3233_" class="st4" d="M269.8,137.9c0,12.9-6.4,24.4-16.2,31.4l0.1,0.2c9.9-7,16.3-18.6,16.3-31.6
				c0-4-0.6-7.8-1.7-11.4l-0.2,0.1C269.2,130.2,269.8,134,269.8,137.9z"/>
			<path id="XMLID_3208_" class="st4" d="M268,137.9c0,12.3-6.1,23.3-15.5,30l0.1,0.2c9.4-6.7,15.6-17.7,15.6-30.2
				c0-3.8-0.6-7.4-1.6-10.8l-0.2,0.1C267.4,130.6,268,134.2,268,137.9z"/>
			<path id="XMLID_3207_" class="st4" d="M266.2,137.9c0,11.8-5.8,22.2-14.8,28.5l0.1,0.2c9-6.4,14.9-16.9,14.9-28.7
				c0-3.6-0.5-7-1.5-10.3l-0.2,0.1C265.7,131,266.2,134.4,266.2,137.9z"/>
			<path id="XMLID_3206_" class="st4" d="M264.7,137.9c0-3.4-0.5-6.6-1.4-9.7l-0.2,0.1c0.9,3.1,1.4,6.3,1.4,9.6
				c0,11.2-5.5,21-14,27.1l0.1,0.2C259.1,159.1,264.7,149.2,264.7,137.9z"/>
			<path id="XMLID_3204_" class="st4" d="M262.6,137.9c0,10.6-5.3,19.9-13.3,25.6l0.1,0.2c8.1-5.7,13.4-15.2,13.4-25.8
				c0-3.2-0.5-6.3-1.4-9.2l-0.2,0.1C262.1,131.7,262.6,134.8,262.6,137.9z"/>
			<path id="XMLID_3201_" class="st4" d="M260.8,137.9c0,10-5,18.8-12.5,24.2l0.1,0.2c7.6-5.4,12.6-14.3,12.6-24.4
				c0-3-0.4-5.9-1.3-8.6l-0.2,0.1C260.4,132.1,260.8,135,260.8,137.9z"/>
			<path id="XMLID_3200_" class="st4" d="M259,137.9c0,9.4-4.7,17.7-11.8,22.7l0.1,0.2c7.2-5.1,11.9-13.5,11.9-22.9
				c0-2.8-0.4-5.5-1.2-8.1l-0.2,0.1C258.6,132.5,259,135.2,259,137.9z"/>
			<path id="XMLID_3198_" class="st4" d="M257.2,137.9c0,8.8-4.4,16.6-11.1,21.3l0.1,0.2c6.7-4.8,11.2-12.6,11.2-21.5
				c0-2.6-0.4-5.1-1.1-7.5l-0.2,0.1C256.9,132.9,257.2,135.3,257.2,137.9z"/>
			<path id="XMLID_3197_" class="st4" d="M255.7,137.9c0-2.4-0.4-4.7-1-6.9l-0.2,0.1c0.6,2.2,1,4.5,1,6.9c0,8.2-4.1,15.4-10.3,19.8
				l0.1,0.2C251.6,153.5,255.7,146.2,255.7,137.9z"/>
			<path id="XMLID_3196_" class="st4" d="M253.7,137.9c0,7.6-3.8,14.3-9.6,18.4l0.1,0.2c5.9-4.1,9.7-10.9,9.7-18.6
				c0-2.2-0.3-4.4-0.9-6.4l-0.2,0.1C253.3,133.6,253.7,135.7,253.7,137.9z"/>
			<path id="XMLID_3195_" class="st4" d="M251.9,137.9c0,7-3.5,13.2-8.8,16.9l0.1,0.2c5.4-3.8,9-10,9-17.1c0-2-0.3-4-0.8-5.8
				l-0.2,0.1C251.6,134,251.9,135.9,251.9,137.9z"/>
			<path id="XMLID_3194_" class="st4" d="M250.1,137.9c0,6.4-3.2,12.1-8.1,15.5l0.1,0.2c5-3.5,8.2-9.2,8.2-15.7
				c0-1.8-0.3-3.6-0.8-5.3l-0.2,0.1C249.8,134.4,250.1,136.1,250.1,137.9z"/>
			<path id="XMLID_3193_" class="st4" d="M248.3,137.9c0,5.8-2.9,10.9-7.4,14l0.1,0.2c4.5-3.1,7.5-8.3,7.5-14.2
				c0-1.6-0.2-3.2-0.7-4.7l-0.2,0.1C248.1,134.8,248.3,136.3,248.3,137.9z"/>
			<path id="XMLID_3191_" class="st4" d="M246.8,137.9c0-1.4-0.2-2.8-0.6-4.2l-0.2,0.1c0.4,1.3,0.6,2.7,0.6,4.1
				c0,5.2-2.6,9.8-6.6,12.6l0.1,0.2C244.1,147.9,246.8,143.2,246.8,137.9z"/>
			<path id="XMLID_3190_" class="st4" d="M244.7,137.9c0,4.6-2.3,8.7-5.9,11.1l0.1,0.2c3.6-2.5,6-6.6,6-11.3c0-1.3-0.2-2.5-0.5-3.6
				l-0.2,0.1C244.5,135.5,244.7,136.7,244.7,137.9z"/>
			<path id="XMLID_3183_" class="st4" d="M242.9,137.9c0,4-2,7.6-5.2,9.7l0.1,0.2c3.2-2.2,5.3-5.8,5.3-9.9c0-1.1-0.2-2.1-0.4-3.1
				l-0.2,0.1C242.8,135.9,242.9,136.9,242.9,137.9z"/>
			<path id="XMLID_3174_" class="st4" d="M241.1,137.9c0,3.4-1.8,6.5-4.4,8.2l0.1,0.2c2.7-1.8,4.5-4.9,4.5-8.4
				c0-0.9-0.1-1.7-0.3-2.5l-0.2,0.1C241,136.3,241.1,137.1,241.1,137.9z"/>
			<path id="XMLID_3173_" class="st4" d="M239.4,137.9c0,2.8-1.5,5.3-3.7,6.8l0.1,0.2c2.3-1.5,3.8-4.1,3.8-7c0-0.7-0.1-1.3-0.2-2
				l-0.2,0.1C239.3,136.6,239.4,137.3,239.4,137.9z"/>
			<path id="XMLID_3172_" class="st4" d="M237.8,137.9c0-0.5-0.1-1-0.2-1.4l-0.2,0.1c0.1,0.4,0.1,0.9,0.1,1.3c0,2.2-1.2,4.2-2.9,5.3
				l0.1,0.2C236.6,142.3,237.8,140.3,237.8,137.9z"/>
		</g>
		<g id="XMLID_2539_">
			<g id="XMLID_2903_">
				<path id="XMLID_3132_" class="st9" d="M180.2,137.9c0-5.3,0.8-10.4,2.3-15.2l-0.2-0.1c-1.5,4.8-2.3,9.9-2.3,15.2
					c0,17.2,8.5,32.4,21.5,41.7l0.1-0.2C188.6,170.2,180.2,155,180.2,137.9z"/>
				<path id="XMLID_2978_" class="st9" d="M181.9,137.9c0-5.1,0.8-10,2.2-14.6l-0.2-0.1c-1.4,4.6-2.2,9.6-2.2,14.7
					c0,16.6,8.2,31.3,20.8,40.3l0.1-0.2C190.1,169.1,181.9,154.4,181.9,137.9z"/>
				<path id="XMLID_2977_" class="st9" d="M183.7,137.9c0-4.9,0.7-9.6,2.1-14.1l-0.2-0.1c-1.4,4.5-2.1,9.2-2.1,14.1
					c0,16,7.9,30.2,20,38.8l0.1-0.2C191.6,167.9,183.7,153.8,183.7,137.9z"/>
				<path id="XMLID_2973_" class="st9" d="M185.5,137.9c0-4.7,0.7-9.2,2-13.5l-0.2-0.1c-1.3,4.3-2.1,8.9-2.1,13.6
					c0,15.4,7.6,29,19.3,37.4l0.1-0.2C193.1,166.8,185.5,153.2,185.5,137.9z"/>
				<path id="XMLID_2969_" class="st9" d="M205.6,173.9l0.1-0.2c-11.2-8-18.4-21-18.4-35.7c0-4.5,0.7-8.9,2-13l-0.2-0.1
					c-1.3,4.1-2,8.5-2,13C187.1,152.7,194.4,165.8,205.6,173.9z"/>
				<path id="XMLID_2968_" class="st9" d="M189.1,137.9c0-4.3,0.7-8.5,1.9-12.4l-0.2-0.1c-1.2,3.9-1.9,8.1-1.9,12.5
					c0,14.2,7,26.8,17.8,34.5l0.1-0.2C196.1,164.6,189.1,152.1,189.1,137.9z"/>
				<path id="XMLID_2966_" class="st9" d="M190.9,137.9c0-4.1,0.6-8.1,1.8-11.9l-0.2-0.1c-1.2,3.8-1.8,7.8-1.8,11.9
					c0,13.6,6.7,25.7,17.1,33l0.1-0.2C197.6,163.5,190.9,151.5,190.9,137.9z"/>
				<path id="XMLID_2965_" class="st9" d="M192.7,137.9c0-3.9,0.6-7.7,1.7-11.3l-0.2-0.1c-1.1,3.6-1.7,7.4-1.7,11.4
					c0,13,6.5,24.6,16.3,31.6l0.1-0.2C199.1,162.3,192.7,150.9,192.7,137.9z"/>
				<path id="XMLID_2961_" class="st9" d="M194.5,137.9c0-3.7,0.6-7.3,1.6-10.7l-0.2-0.1c-1,3.4-1.6,7.1-1.6,10.8
					c0,12.4,6.2,23.4,15.6,30.2l0.1-0.2C200.6,161.2,194.5,150.3,194.5,137.9z"/>
				<path id="XMLID_2960_" class="st9" d="M210.9,166.6l0.1-0.2c-8.9-6.3-14.8-16.8-14.8-28.5c0-3.5,0.5-7,1.5-10.2l-0.2-0.1
					c-1,3.3-1.5,6.7-1.5,10.3C196,149.8,201.9,160.2,210.9,166.6z"/>
				<path id="XMLID_2959_" class="st9" d="M198.1,137.9c0-3.4,0.5-6.6,1.4-9.6l-0.2-0.1c-0.9,3.1-1.4,6.3-1.4,9.7
					c0,11.2,5.6,21.2,14.1,27.3l0.1-0.2C203.6,159,198.1,149.1,198.1,137.9z"/>
				<path id="XMLID_2957_" class="st9" d="M199.8,137.9c0-3.2,0.5-6.2,1.3-9.1l-0.2-0.1c-0.9,2.9-1.4,6-1.4,9.2
					c0,10.6,5.3,20.1,13.4,25.8l0.1-0.2C205.1,157.8,199.8,148.5,199.8,137.9z"/>
				<path id="XMLID_2956_" class="st9" d="M201.6,137.9c0-3,0.4-5.8,1.3-8.5l-0.2-0.1c-0.8,2.7-1.3,5.6-1.3,8.6
					c0,10.1,5,19,12.6,24.4l0.1-0.2C206.6,156.7,201.6,147.9,201.6,137.9z"/>
				<path id="XMLID_2955_" class="st9" d="M203.4,137.9c0-2.8,0.4-5.4,1.2-8l-0.2-0.1c-0.8,2.6-1.2,5.3-1.2,8.1
					c0,9.5,4.7,17.8,11.9,22.9l0.1-0.2C208.1,155.6,203.4,147.3,203.4,137.9z"/>
				<path id="XMLID_2954_" class="st9" d="M216.1,159.4l0.1-0.2c-6.7-4.7-11.1-12.5-11.1-21.3c0-2.6,0.4-5.1,1.1-7.4l-0.2-0.1
					c-0.7,2.4-1.1,4.9-1.1,7.5C205,146.8,209.4,154.6,216.1,159.4z"/>
				<path id="XMLID_2952_" class="st9" d="M207,137.9c0-2.4,0.4-4.7,1-6.9l-0.2-0.1c-0.7,2.2-1,4.5-1,6.9c0,8.3,4.1,15.6,10.4,20
					l0.1-0.2C211.1,153.4,207,146.1,207,137.9z"/>
				<path id="XMLID_2951_" class="st9" d="M208.8,137.9c0-2.2,0.3-4.3,0.9-6.3l-0.2-0.1c-0.6,2-0.9,4.2-0.9,6.4
					c0,7.7,3.8,14.5,9.7,18.6l0.1-0.2C212.6,152.2,208.8,145.5,208.8,137.9z"/>
				<path id="XMLID_2950_" class="st9" d="M210.6,137.9c0-2,0.3-3.9,0.8-5.8l-0.2-0.1c-0.5,1.9-0.8,3.8-0.8,5.8
					c0,7.1,3.5,13.3,9,17.1l0.1-0.2C214.1,151.1,210.6,144.9,210.6,137.9z"/>
				<path id="XMLID_2945_" class="st9" d="M212.4,137.9c0-1.8,0.3-3.6,0.7-5.2l-0.2-0.1c-0.5,1.7-0.8,3.5-0.8,5.3
					c0,6.5,3.3,12.2,8.2,15.7l0.1-0.2C215.6,150,212.4,144.3,212.4,137.9z"/>
				<path id="XMLID_2944_" class="st9" d="M221.4,152.2l0.1-0.2c-4.4-3.1-7.4-8.2-7.4-14c0-1.6,0.2-3.2,0.7-4.7l-0.2-0.1
					c-0.4,1.5-0.7,3.1-0.7,4.7C213.9,143.8,216.9,149,221.4,152.2z"/>
				<path id="XMLID_2943_" class="st9" d="M215.9,137.9c0-1.4,0.2-2.8,0.6-4.1l-0.2-0.1c-0.4,1.3-0.6,2.7-0.6,4.2
					c0,5.3,2.7,10,6.7,12.8l0.1-0.2C218.6,147.8,215.9,143.1,215.9,137.9z"/>
				<path id="XMLID_2933_" class="st9" d="M217.7,137.9c0-1.2,0.2-2.4,0.5-3.5l-0.2-0.1c-0.3,1.2-0.5,2.4-0.5,3.6
					c0,4.7,2.4,8.9,6,11.3l0.1-0.2C220.1,146.6,217.7,142.5,217.7,137.9z"/>
				<path id="XMLID_2928_" class="st9" d="M219.5,137.9c0-1,0.1-2,0.4-3l-0.2-0.1c-0.3,1-0.4,2-0.4,3.1c0,4.1,2.1,7.7,5.3,9.9
					l0.1-0.2C221.6,145.5,219.5,142,219.5,137.9z"/>
				<path id="XMLID_2927_" class="st9" d="M221.3,137.9c0-0.8,0.1-1.7,0.3-2.4l-0.2-0.1c-0.2,0.8-0.3,1.6-0.3,2.5
					c0,3.5,1.8,6.6,4.5,8.4l0.1-0.2C223.1,144.4,221.3,141.4,221.3,137.9z"/>
				<path id="XMLID_2926_" class="st9" d="M226.6,144.9l0.1-0.2c-2.2-1.5-3.7-4-3.7-6.8c0-0.7,0.1-1.3,0.2-1.9l-0.2-0.1
					c-0.2,0.6-0.2,1.3-0.2,2C222.9,140.8,224.4,143.4,226.6,144.9z"/>
				<path id="XMLID_2920_" class="st9" d="M224.9,137.9c0-0.5,0.1-0.9,0.1-1.3l-0.2-0.1c-0.1,0.5-0.2,0.9-0.2,1.4
					c0,2.3,1.2,4.4,3,5.5l0.1-0.2C226.1,142.1,224.9,140.2,224.9,137.9z"/>
			</g>
			<g id="XMLID_2540_">
				<path id="XMLID_2902_" class="st9" d="M231.2,86.9v-0.2c-23,0-42.5,15.2-49,36.1l0.2,0.1C188.9,102,208.3,86.9,231.2,86.9z"/>
				<path id="XMLID_2898_" class="st9" d="M183.9,123.2l0.2,0.1c6.2-20.1,25-34.7,47.1-34.7v-0.2C209,88.4,190.2,103.1,183.9,123.2z
					"/>
				<path id="XMLID_2700_" class="st9" d="M231.2,90.4v-0.2c-21.4,0-39.6,14.2-45.6,33.6l0.2,0.1C191.9,104.5,209.9,90.4,231.2,90.4
					z"/>
				<path id="XMLID_2698_" class="st9" d="M231.2,92.2V92c-20.6,0-38.1,13.6-43.9,32.4l0.2,0.1C193.3,105.8,210.7,92.2,231.2,92.2z"
					/>
				<path id="XMLID_2692_" class="st9" d="M231.2,94v-0.2c-19.8,0-36.6,13.1-42.2,31.1l0.2,0.1C194.8,107.1,211.5,94,231.2,94z"/>
				<path id="XMLID_2686_" class="st9" d="M231.2,95.8v-0.2c-19,0-35.2,12.6-40.5,29.9l0.2,0.1C196.3,108.3,212.3,95.8,231.2,95.8z"
					/>
				<path id="XMLID_2683_" class="st9" d="M192.4,126l0.2,0.1c5.1-16.5,20.4-28.5,38.6-28.5v-0.2C213,97.3,197.5,109.4,192.4,126z"
					/>
				<path id="XMLID_2680_" class="st9" d="M231.2,99.4v-0.2c-17.4,0-32.2,11.6-37.1,27.4l0.2,0.1C199.2,110.9,213.9,99.4,231.2,99.4
					z"/>
				<path id="XMLID_2666_" class="st9" d="M231.2,101.2v-0.2c-16.6,0-30.8,11-35.4,26.2l0.2,0.1
					C200.7,112.1,214.7,101.2,231.2,101.2z"/>
				<path id="XMLID_2654_" class="st9" d="M231.2,103v-0.2c-15.8,0-29.3,10.5-33.7,25l0.2,0.1C202.2,113.4,215.5,103,231.2,103z"/>
				<path id="XMLID_2651_" class="st9" d="M231.2,104.7v-0.2c-15.1,0-27.8,10-32,23.7l0.2,0.1C203.6,114.7,216.3,104.7,231.2,104.7z
					"/>
				<path id="XMLID_2559_" class="st9" d="M200.9,128.8l0.2,0.1c3.9-12.9,15.9-22.3,30-22.3v-0.2C217,106.3,204.9,115.8,200.9,128.8
					z"/>
				<path id="XMLID_2557_" class="st9" d="M231.2,108.3v-0.2c-13.5,0-24.9,9-28.6,21.2l0.2,0.1C206.6,117.2,217.9,108.3,231.2,108.3
					z"/>
				<path id="XMLID_2555_" class="st9" d="M231.2,110.1v-0.2c-12.7,0-23.4,8.4-26.9,20l0.2,0.1C208,118.5,218.7,110.1,231.2,110.1z"
					/>
				<path id="XMLID_2554_" class="st9" d="M231.2,111.9v-0.2c-11.9,0-21.9,7.9-25.2,18.8l0.2,0.1
					C209.5,119.8,219.5,111.9,231.2,111.9z"/>
				<path id="XMLID_2551_" class="st9" d="M231.2,113.7v-0.2c-11.1,0-20.5,7.4-23.5,17.5l0.2,0.1C211,121,220.3,113.7,231.2,113.7z"
					/>
				<path id="XMLID_2550_" class="st9" d="M209.5,131.5l0.2,0.1c2.7-9.3,11.3-16.1,21.5-16.1v-0.2
					C220.9,115.2,212.2,122.1,209.5,131.5z"/>
				<path id="XMLID_2549_" class="st9" d="M231.2,117.3V117c-9.5,0-17.5,6.4-20.1,15.1l0.2,0.1C213.9,123.6,221.8,117.3,231.2,117.3
					z"/>
				<path id="XMLID_2548_" class="st9" d="M231.2,119.1v-0.2c-8.7,0-16.1,5.9-18.4,13.8l0.2,0.1
					C215.4,124.8,222.6,119.1,231.2,119.1z"/>
				<path id="XMLID_2547_" class="st9" d="M231.2,120.9v-0.2c-7.9,0-14.6,5.3-16.6,12.6l0.2,0.1
					C216.9,126.1,223.4,120.9,231.2,120.9z"/>
				<path id="XMLID_2546_" class="st9" d="M231.2,122.6v-0.2c-7.1,0-13.1,4.8-14.9,11.4l0.2,0.1
					C218.3,127.4,224.2,122.6,231.2,122.6z"/>
				<path id="XMLID_2545_" class="st9" d="M218,134.3l0.2,0.1c1.6-5.7,6.8-9.9,13-9.9v-0.2C224.9,124.2,219.6,128.5,218,134.3z"/>
				<path id="XMLID_2544_" class="st9" d="M231.2,126.2V126c-5.5,0-10.2,3.8-11.5,8.9l0.2,0.1C221.3,129.9,225.8,126.2,231.2,126.2z
					"/>
				<path id="XMLID_2543_" class="st9" d="M231.2,128v-0.2c-4.7,0-8.7,3.3-9.8,7.6l0.2,0.1C222.7,131.2,226.6,128,231.2,128z"/>
				<path id="XMLID_2542_" class="st9" d="M231.2,129.8v-0.2c-3.9,0-7.2,2.7-8.1,6.4l0.2,0.1C224.2,132.5,227.4,129.8,231.2,129.8z"
					/>
				<path id="XMLID_2541_" class="st9" d="M231.2,131.6v-0.2c-3.1,0-5.8,2.2-6.4,5.2l0.2,0.1C225.7,133.7,228.2,131.6,231.2,131.6z"
					/>
			</g>
		</g>
	</g>
	<circle id="XMLID_2537_" class="st5" cx="231.2" cy="137.9" r="36.3"/>
	<rect id="XMLID_62_" x="201.7" y="136.2" class="st10" width="59.2" height="19.5"/>
	<text id="XMLID_2533_" transform="matrix(1 0 0 1 208.9757 143.0816)" class="st4 st11 st12">Public Token</text>
	<g id="XMLID_2529_">
		<rect id="XMLID_57_" x="196.4" y="220.3" class="st10" width="71.3" height="12.2"/>
		<text id="XMLID_56_" transform="matrix(1 0 0 1 198.5903 229.6121)" class="st13 st14 st15">Stock Exchange 3</text>
	</g>
	<g id="XMLID_2521_">
		
			<rect id="XMLID_65_" x="276.3" y="170.4" transform="matrix(0.4875 -0.8731 0.8731 0.4875 5.66 362.7588)" class="st10" width="71" height="12.2"/>
		<text id="XMLID_58_" transform="matrix(0.4875 -0.8731 0.8732 0.4875 298.3021 207.3957)" class="st13 st14 st15">Stock Exchange 2</text>
	</g>
	<g id="XMLID_2519_">
		
			<rect id="XMLID_67_" x="263.2" y="75.3" transform="matrix(0.7674 0.6411 -0.6411 0.7674 121.267 -171.3843)" class="st10" width="67.2" height="12.2"/>
		<text id="XMLID_66_" transform="matrix(0.7674 0.6411 -0.6411 0.7674 269.1361 62.3741)" class="st13 st14 st15">Stock Exchange 1</text>
	</g>
	<g id="XMLID_2511_">
		<path id="XMLID_2518_" class="st16" d="M201.4,179.6c-13-9.3-21.4-24.5-21.4-41.7c0-28.3,22.9-51.2,51.2-51.2"/>
		<path id="XMLID_2516_" class="st17" d="M261,179.6c-8.4,6-18.7,9.5-29.8,9.5c-11.1,0-21.4-3.5-29.8-9.5"/>
		<path id="XMLID_2515_" class="st18" d="M280.1,122.7c1.5,4.8,2.3,9.9,2.3,15.2c0,17.2-8.5,32.4-21.4,41.7"/>
		<path id="XMLID_2512_" class="st19" d="M231.2,86.7c23,0,42.4,15.1,48.9,36"/>
	</g>
	<line id="XMLID_2509_" class="st20" x1="289.9" y1="89.1" x2="271.7" y2="107.2"/>
	<line id="XMLID_2508_" class="st20" x1="231.4" y1="217.2" x2="231.2" y2="190.8"/>
	<circle id="XMLID_2507_" class="st4" cx="231.3" cy="190.8" r="1.6"/>
	<line id="XMLID_2504_" class="st20" x1="300.9" y1="171.9" x2="279" y2="159"/>
	<circle id="XMLID_2501_" class="st4" cx="279" cy="159" r="1.6"/>
	<circle id="XMLID_2498_" class="st4" cx="272.7" cy="106.3" r="1.6"/>
	<line id="XMLID_2493_" class="st0" x1="285.3" y1="199.8" x2="318.3" y2="140.5"/>
	<line id="XMLID_2492_" class="st0" x1="261.8" y1="64.6" x2="318.3" y2="111.7"/>
	<rect id="XMLID_23_" x="96.9" y="125.7" class="st10" width="53.4" height="32.2"/>
	<text id="XMLID_2488_" transform="matrix(1 0 0 1 96.8612 134.9822)"><tspan x="0" y="0" class="st13 st14 st15">IPCO  </tspan><tspan x="0" y="14.7" class="st13 st14 st15">Private Token</tspan></text>
	<line id="XMLID_2487_" class="st20" x1="178.3" y1="140.4" x2="154" y2="140.4"/>
	<g id="XMLID_1045_">
		<g id="XMLID_34_">
			<line id="XMLID_37_" class="st20" x1="154" y1="120.6" x2="154" y2="121.1"/>
			<line id="XMLID_36_" class="st21" x1="154" y1="122.1" x2="154" y2="157.7"/>
			<line id="XMLID_35_" class="st20" x1="154" y1="158.2" x2="154" y2="158.7"/>
		</g>
	</g>
	<circle id="XMLID_1019_" class="st4" cx="178.3" cy="140.4" r="1.6"/>
</g>
</svg>
