<?xml version="1.0" encoding="utf-8"?>
<!-- Generator: Adobe Illustrator 19.0.0, SVG Export Plug-In . SVG Version: 6.00 Build 0)  -->
<svg version="1.1" id="Layer_1" xmlns="http://www.w3.org/2000/svg" xmlns:xlink="http://www.w3.org/1999/xlink" x="0px" y="0px"
	 viewBox="0 0 431.3 287" style="enable-background:new 0 0 431.3 287;" xml:space="preserve">
<style type="text/css">
	.st0{opacity:0.21;}
	.st1{fill:none;stroke:#00A6FF;stroke-width:0.4323;stroke-miterlimit:10;}
	.st2{opacity:0.7;}
	.st3{opacity:0.2;fill:none;stroke:#00A6FF;stroke-width:0.4323;stroke-miterlimit:10;}
	.st4{opacity:0.2;}
	.st5{fill:#00A6FF;}
	.st6{fill:#FFFFFF;}
	.st7{fill:none;stroke:#00A6FF;stroke-miterlimit:10;stroke-dasharray:0.2671,1.3329;}
	.st8{opacity:0.5;fill:#00A6FF;}
	.st9{opacity:0.5;fill:none;stroke:#00A6FF;stroke-width:2;stroke-linecap:round;stroke-linejoin:round;stroke-miterlimit:10;}
	.st10{fill:none;}
	.st11{fill:#333333;}
	.st12{font-family:'OpenSansCondensed-Light';}
	.st13{font-size:10px;}
	.st14{font-family:'OpenSansCondensed-Bold';}
	.st15{fill:none;stroke:#00A6FF;stroke-width:7;stroke-linejoin:round;stroke-miterlimit:10;stroke-dasharray:0.5,1.092;}
	.st16{fill:none;stroke:#B3B3B3;stroke-width:7;stroke-linejoin:round;stroke-miterlimit:10;stroke-dasharray:0.5,1.092;}
</style>
<g id="XMLID_543_">
	<g id="XMLID_890_" class="st0">
		<g id="XMLID_106_">
			<line id="XMLID_107_" class="st1" x1="312.7" y1="143.5" x2="118.5" y2="143.5"/>
		</g>
		<g id="XMLID_102_">
			<line id="XMLID_103_" class="st1" x1="284.3" y1="212.1" x2="147" y2="74.9"/>
		</g>
		<g id="XMLID_97_">
			<line id="XMLID_99_" class="st1" x1="215.6" y1="240.6" x2="215.6" y2="46.4"/>
		</g>
		<g id="XMLID_94_">
			<line id="XMLID_95_" class="st1" x1="147" y1="212.1" x2="284.3" y2="74.9"/>
		</g>
		<g id="XMLID_91_">
			<line id="XMLID_92_" class="st1" x1="118.5" y1="143.5" x2="312.7" y2="143.5"/>
		</g>
		<g id="XMLID_75_">
			<line id="XMLID_76_" class="st1" x1="147" y1="74.9" x2="284.3" y2="212.1"/>
		</g>
		<g id="XMLID_56_">
			<line id="XMLID_57_" class="st1" x1="215.6" y1="46.4" x2="215.6" y2="240.6"/>
		</g>
	</g>
	<g id="XMLID_778_" class="st2">
		<circle id="XMLID_2_" class="st3" cx="215.6" cy="143.5" r="99.6"/>
		<circle id="XMLID_14_" class="st3" cx="215.6" cy="143.5" r="94.3"/>
		<circle id="XMLID_13_" class="st3" cx="215.6" cy="143.5" r="89"/>
		<circle id="XMLID_12_" class="st3" cx="215.6" cy="143.5" r="83.8"/>
		<circle id="XMLID_11_" class="st3" cx="215.6" cy="143.5" r="78.5"/>
		<circle id="XMLID_10_" class="st3" cx="215.6" cy="143.5" r="73.2"/>
		<circle id="XMLID_9_" class="st3" cx="215.6" cy="143.5" r="68"/>
		<circle id="XMLID_8_" class="st3" cx="215.6" cy="143.5" r="62.7"/>
		<circle id="XMLID_7_" class="st3" cx="215.6" cy="143.5" r="57.4"/>
		<circle id="XMLID_6_" class="st3" cx="215.6" cy="143.5" r="52.2"/>
		<circle id="XMLID_5_" class="st3" cx="215.6" cy="143.5" r="46.9"/>
		<circle id="XMLID_4_" class="st3" cx="215.6" cy="143.5" r="41.6"/>
		<circle id="XMLID_3_" class="st3" cx="215.6" cy="143.5" r="36.4"/>
		<circle id="XMLID_1_" class="st3" cx="215.6" cy="143.5" r="31.1"/>
	</g>
	<g id="XMLID_775_">
		<g id="XMLID_777_" class="st4">
			<path id="XMLID_33_" class="st5" d="M126.8,179.6c-5.9-7.1-7.9-19.9-4.4-28.5l25-61.2c3.5-8.6,13.7-17.6,22.6-20L243,50
				c8.9-2.4,19.5,2.4,23.4,10.8l25.8,54.6c4,8.4,4.9,22.4,2.2,31.3l-20.1,64c-2.8,8.8-12.6,15.9-21.9,15.7l-71.5-1.6
				c-9.2-0.2-21.7-6.2-27.6-13.3L126.8,179.6z"/>
		</g>
		<g id="XMLID_776_" class="st4">
			<path id="XMLID_34_" class="st5" d="M129.4,104.9c0.5-9.2,8-19.5,16.7-22.7l62.9-23.7c8.7-3.3,22.3-2.2,30.3,2.4l65.7,37.6
				c8,4.6,12.4,15.6,9.8,24.5l-17.6,59.4c-2.6,8.9-11.6,19.4-20,23.4l-63.4,30.2c-8.4,4-20.4,1.7-26.7-5l-49.6-52.6
				c-6.3-6.7-11.1-19.8-10.6-29L129.4,104.9z"/>
		</g>
	</g>
	<g id="XMLID_770_">
		<circle id="XMLID_27_" class="st6" cx="214.3" cy="145.2" r="85.6"/>
		<circle id="XMLID_24_" class="st7" cx="214.3" cy="145.2" r="85.6"/>
	</g>
	<circle id="XMLID_766_" class="st8" cx="150.7" cy="208.5" r="1"/>
	<circle id="XMLID_756_" class="st8" cx="284.2" cy="211.5" r="1"/>
	<circle id="XMLID_697_" class="st8" cx="307.6" cy="143.5" r="1"/>
	<circle id="XMLID_680_" class="st8" cx="312.7" cy="143.4" r="1"/>
	<circle id="XMLID_679_" class="st8" cx="150.7" cy="78.7" r="1"/>
	<path id="XMLID_622_" class="st9" d="M215.6,82.1"/>
	<rect id="XMLID_28_" x="171.8" y="80.6" class="st10" width="38" height="8.2"/>
	<text id="XMLID_578_" transform="matrix(1 0 0 1 182.3035 88.1511)" class="st11 st12 st13">Platform</text>
	<rect id="XMLID_26_" x="141.2" y="124.2" class="st10" width="31.5" height="10"/>
	<text id="XMLID_528_" transform="matrix(1 0 0 1 141.1631 131.753)" class="st5 st14 st13">70-90%</text>
	<rect id="XMLID_22_" x="184.8" y="96.8" class="st10" width="25" height="9.4"/>
	<text id="XMLID_513_" transform="matrix(1 0 0 1 187.6843 104.403)" class="st11 st12 st13">Project</text>
	<path id="XMLID_512_" class="st15" d="M214.3,85.2c33.2,0,60,26.9,60,60s-26.9,60-60,60s-60-26.9-60-60c0-3.1,0.2-6.1,0.7-9.1"/>
	<rect id="XMLID_17_" x="220.6" y="172.9" class="st10" width="30.5" height="10"/>
	<text id="XMLID_509_" transform="matrix(1 0 0 1 220.5561 180.4601)" class="st5 st14 st13">10-30%</text>
	<path id="XMLID_508_" class="st16" d="M214.3,102.3c23.7,0,42.9,19.2,42.9,42.9c0,9.3-3,18-8,25"/>
</g>
</svg>
