<?xml version="1.0" encoding="utf-8"?>
<!-- Generator: Adobe Illustrator 19.0.0, SVG Export Plug-In . SVG Version: 6.00 Build 0)  -->
<svg version="1.1" id="Layer_1" xmlns="http://www.w3.org/2000/svg" xmlns:xlink="http://www.w3.org/1999/xlink" x="0px" y="0px"
	 viewBox="0 0 408.7 235.3" style="enable-background:new 0 0 408.7 235.3;" xml:space="preserve">
<style type="text/css">
	.st0{opacity:0.1;fill:#00A6FF;}
	.st1{opacity:0.7;}
	.st2{opacity:0.2;fill:none;stroke:#00A6FF;stroke-width:0.4323;stroke-miterlimit:10;}
	.st3{opacity:0.2;}
	.st4{fill:#00A6FF;}
	.st5{fill:#FFFFFF;}
	.st6{fill:none;stroke:#00A6FF;stroke-miterlimit:10;stroke-dasharray:0.267,1.3325;}
	.st7{fill:none;}
	.st8{font-family:'OpenSans-Semibold';}
	.st9{font-size:10px;}
	.st10{fill:none;stroke:#00A6FF;stroke-miterlimit:10;stroke-dasharray:0.2668,1.3315;}
	.st11{fill:#CCCCCC;}
	.st12{fill:#666666;}
	.st13{opacity:0.6;}
	.st14{opacity:0.29;}
	.st15{fill:none;stroke:#666666;stroke-width:2;stroke-miterlimit:10;}
	.st16{fill:none;stroke:#CCCCCC;stroke-width:2;stroke-miterlimit:10;}
	.st17{opacity:0.3;fill:none;stroke:#00A6FF;stroke-width:2;stroke-miterlimit:10;}
	.st18{opacity:0.6;fill:none;stroke:#00A6FF;stroke-width:2;stroke-miterlimit:10;}
	.st19{fill:none;stroke:#00A6FF;stroke-width:2;stroke-miterlimit:10;}
	.st20{fill:none;stroke:#CCCCCC;stroke-width:0.5;stroke-miterlimit:10;stroke-dasharray:0.997,1;}
	.st21{fill:none;stroke:#CCCCCC;stroke-width:0.5;stroke-miterlimit:10;}
	.st22{font-family:'OpenSansCondensed-Light';}
	.st23{font-family:'OpenSansCondensed-Bold';}
	.st24{font-size:9px;}
	.st25{fill:none;stroke:#666666;stroke-width:3;stroke-miterlimit:10;}
	.st26{fill:none;stroke:#B3B3B3;stroke-width:3;stroke-miterlimit:10;}
	.st27{fill:none;stroke:#F2F2F2;stroke-width:3;stroke-miterlimit:10;}
	.st28{opacity:0.3;fill:none;stroke:#00A6FF;stroke-width:3;stroke-miterlimit:10;}
	.st29{opacity:0.6;fill:none;stroke:#00A6FF;stroke-width:3;stroke-miterlimit:10;}
	.st30{fill:none;stroke:#00A6FF;stroke-width:3;stroke-miterlimit:10;}
	.st31{opacity:0.4;}
	.st32{fill:none;stroke:#B3B3B3;stroke-width:0.5;stroke-miterlimit:10;stroke-dasharray:0.997,1;}
	.st33{fill:none;stroke:#B3B3B3;stroke-width:0.5;stroke-linecap:round;stroke-linejoin:round;stroke-miterlimit:10;}
</style>
<g id="XMLID_3843_">
	<path id="XMLID_3180_" class="st0" d="M114.7,129l-13.7-23.7c-0.9-1.6-0.9-3.5,0-5.1l13.7-23.7c0.9-1.6,2.6-2.5,4.4-2.5h27.3
		c1.8,0,3.5,1,4.4,2.5l13.7,23.7c0.9,1.6,0.9,3.5,0,5.1L150.9,129c-0.9,1.6-2.6,2.5-4.4,2.5h-27.3
		C117.3,131.5,115.6,130.5,114.7,129z"/>
	<path id="XMLID_3179_" class="st0" d="M120.3,117.2l-10.7-18.5c-0.7-1.2-0.7-2.7,0-4l10.7-18.5c0.7-1.2,2-2,3.4-2h21.4
		c1.4,0,2.7,0.8,3.4,2l10.7,18.5c0.7,1.2,0.7,2.7,0,4l-10.7,18.5c-0.7,1.2-2,2-3.4,2h-21.4C122.3,119.2,121,118.4,120.3,117.2z"/>
	<g id="XMLID_3160_" class="st1">
		<circle id="XMLID_69_" class="st2" cx="128.9" cy="103.3" r="81.5"/>
		<circle id="XMLID_103_" class="st2" cx="128.9" cy="103.3" r="77.2"/>
		<circle id="XMLID_102_" class="st2" cx="128.9" cy="103.3" r="72.9"/>
		<circle id="XMLID_101_" class="st2" cx="128.9" cy="103.3" r="68.5"/>
		<circle id="XMLID_100_" class="st2" cx="128.9" cy="103.3" r="64.2"/>
		<circle id="XMLID_99_" class="st2" cx="128.9" cy="103.3" r="59.9"/>
		<circle id="XMLID_98_" class="st2" cx="128.9" cy="103.3" r="55.6"/>
		<circle id="XMLID_97_" class="st2" cx="128.9" cy="103.3" r="51.3"/>
		<circle id="XMLID_96_" class="st2" cx="128.9" cy="103.3" r="47"/>
		<circle id="XMLID_95_" class="st2" cx="128.9" cy="103.3" r="42.7"/>
		<circle id="XMLID_94_" class="st2" cx="128.9" cy="103.3" r="38.4"/>
		<circle id="XMLID_92_" class="st2" cx="128.9" cy="103.3" r="34.1"/>
		<circle id="XMLID_88_" class="st2" cx="128.9" cy="103.3" r="29.8"/>
		<circle id="XMLID_64_" class="st2" cx="128.9" cy="103.3" r="25.4"/>
	</g>
	<g id="XMLID_3157_">
		<g id="XMLID_3159_" class="st3">
			<path id="XMLID_110_" class="st4" d="M61.6,141.5c-6.4-6.7-8.8-19.1-5.3-27.7l19.3-47.2C79.1,58,89.2,48.8,98,46l55.5-17.3
				c8.8-2.7,19.5,1.7,23.8,9.9l20.8,40.2c4.3,8.2,5.1,22,1.9,30.7l-16.4,44.6c-3.2,8.7-13.4,16.4-22.6,17.1l-48.9,3.9
				c-9.2,0.7-22-4.1-28.4-10.8L61.6,141.5z"/>
		</g>
		<g id="XMLID_3158_" class="st3">
			<path id="XMLID_109_" class="st4" d="M57.4,80.3c0.2-9.2,7.3-19.7,15.9-23.3l47-19.7c8.5-3.6,22.2-3,30.4,1.3l51.4,27
				c8.2,4.3,12.6,15,9.8,23.9l-13.7,43.1c-2.8,8.8-12,19.2-20.4,23.1l-43.2,19.9c-8.4,3.9-21,2.1-28.1-3.9l-37.4-31.8
				c-7-6-12.6-18.5-12.5-27.7L57.4,80.3z"/>
		</g>
	</g>
	<g id="XMLID_3153_">
		<circle id="XMLID_83_" class="st5" cx="128.9" cy="103.2" r="70"/>
		<circle id="XMLID_82_" class="st6" cx="128.9" cy="103.2" r="70"/>
	</g>
	<path id="XMLID_3131_" class="st7" d="M63,162C63,162,63,162,63,162l0-1.2c0,0,0,0,0,0c-4.6,0-8.4,3-9.7,7.1l1.2,0.4
		C55.6,164.6,59,162,63,162z"/>
	<g id="XMLID_3128_">
		<rect id="XMLID_368_" x="115.9" y="202.2" class="st7" width="9.7" height="15.3"/>
		<text id="XMLID_3129_" transform="matrix(1 0 0 1 117.9234 209.7541)" class="st5 st8 st9">1</text>
	</g>
	<circle id="XMLID_3127_" class="st5" cx="132.7" cy="102.7" r="35"/>
	<g id="XMLID_3380_" class="st1">
		<circle id="XMLID_23_" class="st2" cx="340.9" cy="118.3" r="55.1"/>
		<circle id="XMLID_63_" class="st2" cx="340.9" cy="118.3" r="52.2"/>
		<circle id="XMLID_61_" class="st2" cx="340.9" cy="118.3" r="49.3"/>
		<circle id="XMLID_59_" class="st2" cx="340.9" cy="118.3" r="46.3"/>
		<circle id="XMLID_58_" class="st2" cx="340.9" cy="118.3" r="43.4"/>
		<circle id="XMLID_57_" class="st2" cx="340.9" cy="118.3" r="40.5"/>
		<circle id="XMLID_54_" class="st2" cx="340.9" cy="118.3" r="37.6"/>
		<circle id="XMLID_49_" class="st2" cx="340.9" cy="118.3" r="34.7"/>
		<circle id="XMLID_46_" class="st2" cx="340.9" cy="118.3" r="31.8"/>
		<circle id="XMLID_38_" class="st2" cx="340.9" cy="118.3" r="28.9"/>
		<circle id="XMLID_36_" class="st2" cx="340.9" cy="118.3" r="25.9"/>
		<circle id="XMLID_33_" class="st2" cx="340.9" cy="118.3" r="23"/>
		<circle id="XMLID_24_" class="st2" cx="340.9" cy="118.3" r="20.1"/>
		<circle id="XMLID_9_" class="st2" cx="340.9" cy="118.3" r="17.2"/>
	</g>
	<g id="XMLID_3373_">
		<g id="XMLID_3377_" class="st3">
			<path id="XMLID_105_" class="st4" d="M286.8,102.5c1.2-9.2,9.4-18.9,18.3-21.5l26.2-7.8c8.9-2.6,22.4-0.6,30.1,4.6l26.9,18.1
				c7.7,5.2,10.9,16.3,7.2,24.8l-9.3,21.2c-3.7,8.5-13.9,17.8-22.7,20.8l-23.5,7.9c-8.8,3-21.1-0.1-27.5-6.8l-17.8-18.8
				c-6.4-6.7-10.6-19.7-9.4-28.9L286.8,102.5z"/>
		</g>
		<g id="XMLID_3374_" class="st3">
			<path id="XMLID_106_" class="st4" d="M316.1,70.7c7.3-5.7,20-6.7,28.1-2.3l24,13c8.1,4.4,16.3,15.4,18,24.5l6.3,31.8
				c1.8,9.1-3.8,19.2-12.4,22.6l-21.6,8.4c-8.6,3.4-22.5,2.7-30.7-1.4l-22.2-11c-8.3-4.1-14.9-15-14.6-24.3l0.7-25.9
				c0.3-9.2,6.5-21.4,13.8-27.1L316.1,70.7z"/>
		</g>
	</g>
	<g id="XMLID_3369_">
		<circle id="XMLID_90_" class="st5" cx="340.9" cy="119.1" r="47.3"/>
		<circle id="XMLID_89_" class="st10" cx="340.9" cy="119.1" r="47.3"/>
	</g>
	<g id="XMLID_996_">
		<g id="XMLID_3002_">
			<g id="XMLID_3104_">
				<path id="XMLID_3126_" class="st11" d="M97.7,151.5l0.2-0.3c-14.6-9.9-24.1-26.7-24.1-45.6c0-5.7,0.9-11.2,2.5-16.3l-0.4-0.1
					c-1.6,5.2-2.5,10.7-2.5,16.5C73.4,124.7,83,141.5,97.7,151.5z"/>
				<path id="XMLID_3125_" class="st11" d="M76.1,105.6c0-5.5,0.8-10.7,2.4-15.7l-0.4-0.1c-1.6,5-2.4,10.3-2.4,15.8
					c0,18.3,9.2,34.4,23.3,44l0.2-0.3C85.3,139.8,76.1,123.8,76.1,105.6z"/>
				<path id="XMLID_3124_" class="st11" d="M78.4,105.6c0-5.2,0.8-10.2,2.3-15l-0.4-0.1c-1.5,4.8-2.3,9.8-2.3,15.1
					c0,17.5,8.8,32.9,22.3,42.1l0.2-0.3C87.2,138.3,78.4,123,78.4,105.6z"/>
				<path id="XMLID_3123_" class="st11" d="M80.7,105.6c0-5,0.8-9.8,2.2-14.3l-0.4-0.1c-1.4,4.6-2.2,9.4-2.2,14.4
					c0,16.7,8.4,31.4,21.3,40.2l0.2-0.3C89.1,136.8,80.7,122.2,80.7,105.6z"/>
				<path id="XMLID_3122_" class="st11" d="M83,105.6c0-4.7,0.7-9.3,2.1-13.6l-0.4-0.1c-1.4,4.3-2.1,9-2.1,13.7
					c0,15.9,8,29.9,20.3,38.3l0.2-0.3C91,135.3,83,121.4,83,105.6z"/>
				<path id="XMLID_3121_" class="st11" d="M104.2,142l0.2-0.3c-11.5-7.9-19.1-21.1-19.1-36c0-4.5,0.7-8.8,2-12.9l-0.4-0.1
					c-1.3,4.1-2,8.5-2,13C84.9,120.7,92.6,134.1,104.2,142z"/>
				<path id="XMLID_3120_" class="st11" d="M87.6,105.6c0-4.3,0.6-8.4,1.9-12.2l-0.4-0.1c-1.2,3.9-1.9,8.1-1.9,12.4
					c0,14.3,7.2,26.9,18.3,34.5l0.2-0.3C94.8,132.3,87.6,119.8,87.6,105.6z"/>
				<path id="XMLID_3119_" class="st11" d="M89.9,105.6c0-4,0.6-7.9,1.8-11.6L91.3,94c-1.1,3.7-1.8,7.6-1.8,11.7
					c0,13.5,6.8,25.5,17.2,32.5l0.2-0.3C96.7,130.8,89.9,119,89.9,105.6z"/>
				<path id="XMLID_3118_" class="st11" d="M92.2,105.6c0-3.8,0.6-7.4,1.6-10.9l-0.4-0.1c-1.1,3.5-1.7,7.2-1.7,11
					c0,12.7,6.4,24,16.2,30.6l0.2-0.3C98.6,129.3,92.2,118.2,92.2,105.6z"/>
				<path id="XMLID_3117_" class="st11" d="M94.5,105.6c0-3.5,0.5-7,1.5-10.2l-0.4-0.1c-1,3.3-1.6,6.7-1.6,10.3
					c0,11.9,6,22.5,15.2,28.7l0.2-0.3C100.5,127.9,94.5,117.4,94.5,105.6z"/>
				<path id="XMLID_3116_" class="st11" d="M110.7,132.5l0.2-0.3c-8.5-5.8-14-15.5-14-26.5c0-3.3,0.5-6.5,1.4-9.5L97.9,96
					c-0.9,3-1.5,6.3-1.5,9.6C96.4,116.8,102.1,126.6,110.7,132.5z"/>
				<path id="XMLID_3115_" class="st11" d="M99.1,105.6c0-3.1,0.5-6,1.3-8.8l-0.4-0.1c-0.9,2.8-1.4,5.8-1.4,8.9
					c0,10.3,5.2,19.5,13.2,24.9l0.2-0.3C104.3,124.9,99.1,115.8,99.1,105.6z"/>
				<path id="XMLID_3114_" class="st11" d="M101.4,105.6c0-2.8,0.4-5.6,1.2-8.1l-0.4-0.1c-0.8,2.6-1.3,5.4-1.3,8.3
					c0,9.6,4.8,18,12.2,23l0.2-0.3C106.2,123.4,101.4,115.1,101.4,105.6z"/>
				<path id="XMLID_3113_" class="st11" d="M103.8,105.6c0-2.6,0.4-5.1,1.1-7.5l-0.4-0.1c-0.7,2.4-1.1,4.9-1.1,7.6
					c0,8.8,4.4,16.5,11.2,21.1l0.2-0.3C108.1,121.9,103.8,114.3,103.8,105.6z"/>
				<path id="XMLID_3112_" class="st11" d="M106.1,105.6c0-2.4,0.4-4.6,1-6.8l-0.4-0.1c-0.7,2.2-1,4.5-1,6.9c0,8,4,15,10.2,19.2
					l0.2-0.3C110,120.4,106.1,113.5,106.1,105.6z"/>
				<path id="XMLID_3111_" class="st11" d="M117.1,122.9l0.2-0.3c-5.4-3.7-9-9.9-9-17c0-2.1,0.3-4.2,0.9-6.1l-0.4-0.1
					c-0.6,2-0.9,4-0.9,6.2C108,112.8,111.6,119.2,117.1,122.9z"/>
				<path id="XMLID_3110_" class="st11" d="M110.7,105.6c0-1.9,0.3-3.7,0.8-5.4l-0.4-0.1c-0.5,1.7-0.8,3.6-0.8,5.5
					c0,6.4,3.2,12,8.2,15.4l0.2-0.3C113.8,117.4,110.7,111.9,110.7,105.6z"/>
				<path id="XMLID_3109_" class="st11" d="M113,105.6c0-1.6,0.3-3.2,0.7-4.7l-0.4-0.1c-0.5,1.5-0.7,3.2-0.7,4.8
					c0,5.6,2.8,10.5,7.1,13.5l0.2-0.3C115.7,115.9,113,111.1,113,105.6z"/>
				<path id="XMLID_3108_" class="st11" d="M115.3,105.6c0-1.4,0.2-2.8,0.6-4l-0.4-0.1c-0.4,1.3-0.6,2.7-0.6,4.2
					c0,4.8,2.4,9.1,6.1,11.6l0.2-0.3C117.6,114.4,115.3,110.3,115.3,105.6z"/>
				<path id="XMLID_3107_" class="st11" d="M117.6,105.6c0-1.2,0.2-2.3,0.5-3.4l-0.4-0.1c-0.3,1.1-0.5,2.3-0.5,3.5
					c0,4,2,7.6,5.1,9.7l0.2-0.3C119.6,113,117.6,109.5,117.6,105.6z"/>
				<path id="XMLID_3106_" class="st11" d="M123.6,113.4l0.2-0.3c-2.4-1.6-3.9-4.4-3.9-7.4c0-0.9,0.1-1.8,0.4-2.7l-0.4-0.1
					c-0.3,0.9-0.4,1.8-0.4,2.8C119.5,108.9,121.1,111.7,123.6,113.4z"/>
				<path id="XMLID_3105_" class="st11" d="M122.2,105.6c0-0.7,0.1-1.3,0.3-2l-0.4-0.1c-0.2,0.7-0.4,1.4-0.4,2.1
					c0,2.4,1.2,4.6,3.1,5.9l0.2-0.3C123.4,110,122.2,107.9,122.2,105.6z"/>
			</g>
			<g id="XMLID_3080_">
				<path id="XMLID_3103_" class="st12" d="M128.9,50.5c0,0,0.1,0,0.1,0l0-0.4c0,0-0.1,0-0.1,0c-24.9,0-46,16.5-53,39.1l0.4,0.1
					C83.2,66.8,104.2,50.5,128.9,50.5z"/>
				<path id="XMLID_3102_" class="st12" d="M128.9,52.8c0,0,0.1,0,0.1,0l0-0.4c0,0-0.1,0-0.1,0c-23.9,0-44.1,15.8-50.8,37.4l0.4,0.1
					C85.1,68.5,105.2,52.8,128.9,52.8z"/>
				<path id="XMLID_3101_" class="st12" d="M80.3,90.5l0.4,0.1c6.4-20.6,25.6-35.5,48.2-35.5c0,0,0.1,0,0.1,0l0-0.4c0,0-0.1,0-0.1,0
					C106.1,54.7,86.7,69.8,80.3,90.5z"/>
				<path id="XMLID_3100_" class="st12" d="M128.9,57.4c0,0,0.1,0,0.1,0l0-0.4c0,0-0.1,0-0.1,0c-21.8,0-40.3,14.4-46.4,34.2l0.4,0.1
					C89,71.7,107.3,57.4,128.9,57.4z"/>
				<path id="XMLID_3099_" class="st12" d="M128.9,59.7c0,0,0.1,0,0.1,0l0-0.4c0,0-0.1,0-0.1,0c-20.7,0-38.4,13.7-44.2,32.6l0.4,0.1
					C90.9,73.3,108.3,59.7,128.9,59.7z"/>
				<path id="XMLID_3098_" class="st12" d="M128.9,62c0,0,0.1,0,0.1,0l0-0.4c0,0-0.1,0-0.1,0c-19.7,0-36.4,13-42,30.9l0.4,0.1
					C92.8,75,109.4,62,128.9,62z"/>
				<path id="XMLID_3097_" class="st12" d="M128.9,64.3c0,0,0.1,0,0.1,0l0-0.4c0,0-0.1,0-0.1,0c-18.7,0-34.5,12.4-39.8,29.3l0.4,0.1
					C94.7,76.6,110.4,64.3,128.9,64.3z"/>
				<path id="XMLID_3096_" class="st12" d="M91.3,94l0.4,0.1c4.9-15.9,19.8-27.4,37.2-27.4c0,0,0.1,0,0.1,0l0-0.4c0,0-0.1,0-0.1,0
					C111.3,66.3,96.3,77.9,91.3,94z"/>
				<path id="XMLID_3095_" class="st12" d="M128.9,69C128.9,69,129,69,128.9,69l0.1-0.4c0,0-0.1,0-0.1,0c-16.6,0-30.7,11-35.4,26.1
					l0.4,0.1C98.5,79.8,112.5,69,128.9,69z"/>
				<path id="XMLID_3094_" class="st12" d="M128.9,71.3C128.9,71.3,129,71.3,128.9,71.3l0.1-0.4c0,0-0.1,0-0.1,0
					c-15.6,0-28.8,10.3-33.2,24.5l0.4,0.1C100.4,81.5,113.5,71.3,128.9,71.3z"/>
				<path id="XMLID_3093_" class="st12" d="M128.9,73.6C128.9,73.6,129,73.6,128.9,73.6l0.1-0.4c0,0-0.1,0-0.1,0
					c-14.5,0-26.9,9.6-31,22.8l0.4,0.1C102.3,83.1,114.5,73.6,128.9,73.6z"/>
				<path id="XMLID_3092_" class="st12" d="M128.9,75.9C128.9,75.9,129,75.9,128.9,75.9l0.1-0.4c0,0-0.1,0-0.1,0
					c-13.5,0-25,8.9-28.8,21.2l0.4,0.1C104.2,84.7,115.6,75.9,128.9,75.9z"/>
				<path id="XMLID_3091_" class="st12" d="M102.3,97.4l0.4,0.1c3.5-11.2,13.9-19.3,26.2-19.3c0,0,0,0,0.1,0l0-0.4c0,0,0,0-0.1,0
					C116.4,77.8,105.8,86,102.3,97.4z"/>
				<path id="XMLID_3090_" class="st12" d="M128.9,80.5C128.9,80.5,128.9,80.5,128.9,80.5l0.1-0.4c0,0,0,0-0.1,0
					c-11.4,0-21.2,7.6-24.4,18l0.4,0.1C108.1,87.9,117.6,80.5,128.9,80.5z"/>
				<path id="XMLID_3089_" class="st12" d="M128.9,82.8C128.9,82.8,128.9,82.8,128.9,82.8l0.1-0.4c0,0,0,0-0.1,0
					c-10.4,0-19.3,6.9-22.2,16.3l0.4,0.1C110,89.6,118.7,82.8,128.9,82.8z"/>
				<path id="XMLID_3088_" class="st12" d="M128.9,85.1C128.9,85.1,128.9,85.1,128.9,85.1l0.1-0.4c0,0,0,0-0.1,0
					c-9.4,0-17.3,6.2-20,14.7l0.4,0.1C111.9,91.2,119.7,85.1,128.9,85.1z"/>
				<path id="XMLID_3087_" class="st12" d="M128.9,87.4C128.9,87.4,128.9,87.4,128.9,87.4l0-0.4c0,0,0,0,0,0
					c-8.3,0-15.4,5.5-17.8,13.1l0.4,0.1C113.8,92.8,120.7,87.4,128.9,87.4z"/>
				<path id="XMLID_3086_" class="st12" d="M113.3,100.8l0.4,0.1c2-6.5,8.1-11.2,15.2-11.2c0,0,0,0,0,0l0-0.4c0,0,0,0,0,0
					C121.6,89.3,115.4,94.2,113.3,100.8z"/>
				<path id="XMLID_3085_" class="st12" d="M128.9,92C128.9,92,128.9,92,128.9,92l0-0.4c0,0,0,0,0,0c-6.3,0-11.6,4.2-13.4,9.9
					l0.4,0.1C117.6,96.1,122.8,92,128.9,92z"/>
				<path id="XMLID_3084_" class="st12" d="M128.9,94.3C128.9,94.3,128.9,94.3,128.9,94.3l0-0.4c0,0,0,0,0,0
					c-5.2,0-9.7,3.5-11.2,8.2l0.4,0.1C119.5,97.7,123.8,94.3,128.9,94.3z"/>
				<path id="XMLID_3083_" class="st12" d="M128.9,96.6C128.9,96.6,128.9,96.6,128.9,96.6l0-0.4c0,0,0,0,0,0c-4.2,0-7.8,2.8-9,6.6
					l0.4,0.1C121.4,99.3,124.9,96.6,128.9,96.6z"/>
				<path id="XMLID_3082_" class="st12" d="M128.9,98.9C128.9,98.9,128.9,98.9,128.9,98.9l0-0.4c0,0,0,0,0,0c-3.2,0-5.8,2.1-6.7,5
					l0.4,0.1C123.4,100.9,125.9,98.9,128.9,98.9z"/>
				<path id="XMLID_3081_" class="st12" d="M124.3,104.2l0.4,0.1c0.6-1.8,2.2-3.1,4.2-3.1c0,0,0,0,0,0l0-0.4c0,0,0,0,0,0
					C126.8,100.8,125,102.3,124.3,104.2z"/>
			</g>
			<g id="XMLID_3056_" class="st13">
				<path id="XMLID_3079_" class="st4" d="M184,105.6c0,18.9-9.6,35.6-24.1,45.5l0.2,0.3c14.6-10,24.3-26.8,24.3-45.9
					c0-5.6-0.8-11-2.4-16.1l-0.4,0.1C183.2,94.7,184,100.1,184,105.6z"/>
				<path id="XMLID_3078_" class="st4" d="M182.1,105.6c0-5.4-0.8-10.5-2.3-15.4l-0.4,0.1c1.5,4.8,2.3,10,2.3,15.3
					c0,18.1-9.2,34.1-23.1,43.6l0.2,0.3C172.9,140,182.1,123.9,182.1,105.6z"/>
				<path id="XMLID_3077_" class="st4" d="M179.4,105.6c0,17.3-8.8,32.6-22.1,41.7l0.2,0.3c13.4-9.2,22.3-24.6,22.3-42.1
					c0-5.1-0.8-10.1-2.2-14.7l-0.4,0.1C178.7,95.6,179.4,100.6,179.4,105.6z"/>
				<path id="XMLID_3076_" class="st4" d="M177.1,105.6c0,16.5-8.4,31.1-21.1,39.8l0.2,0.3c12.8-8.8,21.3-23.5,21.3-40.2
					c0-4.9-0.7-9.6-2.1-14.1l-0.4,0.1C176.4,96.1,177.1,100.8,177.1,105.6z"/>
				<path id="XMLID_3075_" class="st4" d="M174.8,105.6c0,15.7-8,29.7-20.1,37.9l0.2,0.3c12.2-8.3,20.2-22.4,20.2-38.2
					c0-4.7-0.7-9.2-2-13.4l-0.4,0.1C174.1,96.6,174.8,101,174.8,105.6z"/>
				<path id="XMLID_3074_" class="st4" d="M172.5,105.6c0,14.9-7.6,28.2-19.1,36l0.2,0.3c11.6-7.9,19.2-21.3,19.2-36.3
					c0-4.4-0.7-8.7-1.9-12.7l-0.4,0.1C171.8,97,172.5,101.2,172.5,105.6z"/>
				<path id="XMLID_3073_" class="st4" d="M170.6,105.6c0-4.2-0.6-8.2-1.8-12.1l-0.4,0.1c1.1,3.8,1.8,7.8,1.8,12
					c0,14.2-7.2,26.7-18.1,34.1l0.2,0.3C163.4,132.6,170.6,119.9,170.6,105.6z"/>
				<path id="XMLID_3072_" class="st4" d="M167.9,105.6c0,13.4-6.8,25.2-17,32.2l0.2,0.3c10.4-7.1,17.2-19,17.2-32.5
					c0-4-0.6-7.8-1.7-11.4l-0.4,0.1C167.3,97.9,167.9,101.7,167.9,105.6z"/>
				<path id="XMLID_3071_" class="st4" d="M165.6,105.6c0,12.6-6.4,23.7-16,30.3l0.2,0.3c9.8-6.7,16.2-17.9,16.2-30.6
					c0-3.7-0.6-7.3-1.6-10.7L164,95C165,98.4,165.6,101.9,165.6,105.6z"/>
				<path id="XMLID_3070_" class="st4" d="M163.3,105.6c0,11.8-6,22.2-15,28.4l0.2,0.3c9.2-6.3,15.2-16.8,15.2-28.7
					c0-3.5-0.5-6.9-1.5-10.1l-0.4,0.1C162.8,98.8,163.3,102.2,163.3,105.6z"/>
				<path id="XMLID_3069_" class="st4" d="M161,105.6c0,11-5.6,20.7-14,26.5l0.2,0.3c8.6-5.9,14.2-15.7,14.2-26.8
					c0-3.3-0.5-6.4-1.4-9.4l-0.4,0.1C160.5,99.3,161,102.4,161,105.6z"/>
				<path id="XMLID_3068_" class="st4" d="M159.1,105.6c0-3-0.5-6-1.3-8.7l-0.4,0.1c0.8,2.7,1.3,5.6,1.3,8.6
					c0,10.2-5.2,19.2-13,24.6l0.2,0.3C153.8,125.1,159.1,116,159.1,105.6z"/>
				<path id="XMLID_3067_" class="st4" d="M156.4,105.6c0,9.4-4.8,17.7-12,22.7l0.2,0.3c7.3-5,12.2-13.5,12.2-23
					c0-2.8-0.4-5.5-1.2-8.1l-0.4,0.1C155.9,100.2,156.4,102.9,156.4,105.6z"/>
				<path id="XMLID_3066_" class="st4" d="M154.1,105.6c0,8.6-4.4,16.2-11,20.8l0.2,0.3c6.7-4.6,11.2-12.3,11.2-21.1
					c0-2.6-0.4-5.1-1.1-7.4l-0.4,0.1C153.7,100.7,154.1,103.1,154.1,105.6z"/>
				<path id="XMLID_3065_" class="st4" d="M151.7,105.6c0,7.8-4,14.8-10,18.9l0.2,0.3c6.1-4.2,10.2-11.2,10.2-19.2
					c0-2.3-0.4-4.6-1-6.7l-0.4,0.1C151.4,101.1,151.7,103.3,151.7,105.6z"/>
				<path id="XMLID_3064_" class="st4" d="M149.4,105.6c0,7-3.6,13.3-9,17l0.2,0.3c5.5-3.8,9.2-10.1,9.2-17.3c0-2.1-0.3-4.1-0.9-6.1
					l-0.4,0.1C149.1,101.6,149.4,103.6,149.4,105.6z"/>
				<path id="XMLID_3063_" class="st4" d="M147.5,105.6c0-1.9-0.3-3.7-0.8-5.4l-0.4,0.1c0.5,1.7,0.8,3.4,0.8,5.3
					c0,6.3-3.2,11.8-8,15.1l0.2,0.3C144.3,117.7,147.5,112,147.5,105.6z"/>
				<path id="XMLID_3062_" class="st4" d="M144.8,105.6c0,5.5-2.8,10.3-7,13.2l0.2,0.3c4.3-2.9,7.1-7.9,7.1-13.5
					c0-1.6-0.2-3.2-0.7-4.7l-0.4,0.1C144.6,102.5,144.8,104,144.8,105.6z"/>
				<path id="XMLID_3061_" class="st4" d="M142.5,105.6c0,4.7-2.4,8.8-6,11.3l0.2,0.3c3.7-2.5,6.1-6.8,6.1-11.6
					c0-1.4-0.2-2.8-0.6-4.1l-0.4,0.1C142.3,102.9,142.5,104.3,142.5,105.6z"/>
				<path id="XMLID_3060_" class="st4" d="M140.2,105.6c0,3.9-2,7.3-4.9,9.3l0.2,0.3c3.1-2.1,5.1-5.7,5.1-9.7c0-1.2-0.2-2.3-0.5-3.4
					l-0.4,0.1C140,103.4,140.2,104.5,140.2,105.6z"/>
				<path id="XMLID_3059_" class="st4" d="M137.9,105.6c0,3.1-1.6,5.8-3.9,7.4l0.2,0.3c2.5-1.7,4.1-4.5,4.1-7.8
					c0-0.9-0.1-1.9-0.4-2.7l-0.4,0.1C137.8,103.9,137.9,104.7,137.9,105.6z"/>
				<path id="XMLID_3058_" class="st4" d="M136,105.6c0-0.7-0.1-1.4-0.3-2l-0.4,0.1c0.2,0.6,0.3,1.3,0.3,1.9c0,2.3-1.2,4.3-2.9,5.5
					l0.2,0.3C134.8,110.2,136,108.1,136,105.6z"/>
				<path id="XMLID_3057_" class="st4" d="M133.3,105.6c0,1.5-0.8,2.8-1.9,3.6l0.2,0.3c1.3-0.9,2.1-2.3,2.1-4c0-0.5-0.1-0.9-0.2-1.4
					l-0.4,0.1C133.2,104.8,133.3,105.2,133.3,105.6z"/>
			</g>
			<g id="XMLID_3032_">
				<path id="XMLID_3055_" class="st4" d="M181.7,89.7l0.4-0.1c-6.9-22.8-28-39.4-53-39.4l0,0.4C153.8,50.6,174.8,67.1,181.7,89.7z"
					/>
				<path id="XMLID_3054_" class="st4" d="M179.5,90.3l0.4-0.1C173.2,68.4,153,52.5,129,52.4l0,0.4
					C152.8,52.9,172.9,68.7,179.5,90.3z"/>
				<path id="XMLID_3053_" class="st4" d="M177.3,91l0.4-0.1C171.3,70,151.9,54.8,129,54.7l0,0.4C151.7,55.2,171,70.3,177.3,91z"/>
				<path id="XMLID_3052_" class="st4" d="M175,91.7l0.4-0.1c-6-19.9-24.5-34.5-46.4-34.5l0,0.4C150.7,57.5,169.1,71.9,175,91.7z"/>
				<path id="XMLID_3051_" class="st4" d="M129,59.3l0,0.4c20.6,0.1,38.1,13.8,43.8,32.6l0.4-0.1C167.5,73.3,149.8,59.4,129,59.3z"
					/>
				<path id="XMLID_3050_" class="st4" d="M170.6,93l0.4-0.1c-5.5-18-22.2-31.2-42-31.2l0,0.4C148.6,62.1,165.2,75.1,170.6,93z"/>
				<path id="XMLID_3049_" class="st4" d="M168.4,93.7l0.4-0.1C163.6,76.5,147.8,64,129,64l0,0.4C147.6,64.4,163.3,76.8,168.4,93.7z
					"/>
				<path id="XMLID_3048_" class="st4" d="M166.2,94.3l0.4-0.1c-4.9-16.1-19.9-27.9-37.6-28l0,0.4C146.5,66.7,161.4,78.4,166.2,94.3
					z"/>
				<path id="XMLID_3047_" class="st4" d="M164,95l0.4-0.1c-4.6-15.2-18.7-26.3-35.4-26.3l0,0.4C145.5,69,159.5,80,164,95z"/>
				<path id="XMLID_3046_" class="st4" d="M129,70.9l0,0.4c15.5,0,28.5,10.3,32.8,24.4l0.4-0.1C157.9,81.3,144.6,70.9,129,70.9z"/>
				<path id="XMLID_3045_" class="st4" d="M159.6,96.4l0.4-0.1c-4-13.3-16.4-23-31-23.1l0,0.4C143.4,73.6,155.6,83.2,159.6,96.4z"/>
				<path id="XMLID_3044_" class="st4" d="M157.4,97l0.4-0.1C154,84.5,142.5,75.5,129,75.5l0,0.4C142.4,75.9,153.7,84.8,157.4,97z"
					/>
				<path id="XMLID_3043_" class="st4" d="M155.2,97.7l0.4-0.1c-3.5-11.4-14.1-19.7-26.6-19.8l0,0.4
					C141.3,78.2,151.8,86.4,155.2,97.7z"/>
				<path id="XMLID_3042_" class="st4" d="M153,98.4l0.4-0.1c-3.2-10.5-12.9-18.1-24.4-18.1l0,0.4C140.3,80.5,149.8,88,153,98.4z"/>
				<path id="XMLID_3041_" class="st4" d="M129,82.4l0,0.4c10.3,0,19,6.9,21.8,16.2l0.4-0.1C148.2,89.4,139.4,82.4,129,82.4z"/>
				<path id="XMLID_3040_" class="st4" d="M148.6,99.7l0.4-0.1c-2.6-8.6-10.6-14.8-20-14.9l0,0.4C138.2,85.1,146,91.3,148.6,99.7z"
					/>
				<path id="XMLID_3039_" class="st4" d="M146.3,100.4l0.4-0.1c-2.3-7.6-9.4-13.2-17.8-13.2l0,0.4
					C137.1,87.4,144.1,92.9,146.3,100.4z"/>
				<path id="XMLID_3038_" class="st4" d="M144.1,101l0.4-0.1c-2-6.7-8.2-11.6-15.6-11.6l0,0.4C136.1,89.7,142.2,94.5,144.1,101z"/>
				<path id="XMLID_3037_" class="st4" d="M141.9,101.7l0.4-0.1c-1.7-5.7-7.1-9.9-13.4-10l0,0.4C135.1,92,140.2,96.1,141.9,101.7z"
					/>
				<path id="XMLID_3036_" class="st4" d="M128.9,93.9l0,0.4c5.1,0,9.4,3.4,10.8,8l0.4-0.1C138.6,97.5,134.2,93.9,128.9,93.9z"/>
				<path id="XMLID_3035_" class="st4" d="M137.5,103l0.4-0.1c-1.2-3.9-4.7-6.7-9-6.7l0,0.4C133,96.6,136.4,99.3,137.5,103z"/>
				<path id="XMLID_3034_" class="st4" d="M135.3,103.7l0.4-0.1c-0.9-2.9-3.6-5-6.7-5l0,0.4C131.9,98.9,134.5,101,135.3,103.7z"/>
				<path id="XMLID_3033_" class="st4" d="M133.1,104.4l0.4-0.1c-0.6-2-2.4-3.4-4.5-3.4l0,0.4C130.9,101.2,132.5,102.6,133.1,104.4z
					"/>
			</g>
			<g id="XMLID_3008_" class="st14">
				<path id="XMLID_3031_" class="st4" d="M159.9,151.2c-8.8,6-19.5,9.6-31,9.6c-11.5,0-22.2-3.5-31-9.6l-0.2,0.3
					c8.9,6.1,19.6,9.6,31.2,9.6c11.6,0,22.3-3.6,31.2-9.7L159.9,151.2"/>
				<path id="XMLID_3030_" class="st4" d="M128.9,158.5c-11,0-21.2-3.4-29.7-9.2l-0.2,0.3c8.5,5.8,18.8,9.2,29.9,9.2
					c11.1,0,21.4-3.4,29.9-9.3l-0.2-0.3C150.2,155.1,139.9,158.5,128.9,158.5z"/>
				<path id="XMLID_3029_" class="st4" d="M128.9,156.2c-10.5,0-20.3-3.2-28.4-8.8l-0.2,0.3c8.2,5.6,18,8.8,28.6,8.8
					c10.6,0,20.5-3.3,28.6-8.9l-0.2-0.3C149.2,152.9,139.4,156.2,128.9,156.2z"/>
				<path id="XMLID_3028_" class="st4" d="M156.3,145.8l-0.2-0.3c-7.7,5.3-17.1,8.4-27.1,8.4c-10,0-19.4-3.1-27.1-8.4l-0.2,0.3
					c7.8,5.3,17.2,8.4,27.3,8.4C139,154.2,148.5,151.1,156.3,145.8z"/>
				<path id="XMLID_3027_" class="st4" d="M128.9,151.5c-9.6,0-18.4-2.9-25.8-8l-0.2,0.3c7.4,5.1,16.4,8,26,8c9.7,0,18.6-3,26.1-8
					l-0.2-0.3C147.4,148.6,138.5,151.5,128.9,151.5z"/>
				<path id="XMLID_3026_" class="st4" d="M128.9,149.2c-9.1,0-17.5-2.8-24.5-7.6l-0.2,0.3c7.1,4.8,15.6,7.6,24.7,7.6
					c9.2,0,17.7-2.8,24.8-7.6l-0.2-0.3C146.4,146.4,138,149.2,128.9,149.2z"/>
				<path id="XMLID_3025_" class="st4" d="M128.9,146.9c-8.6,0-16.6-2.6-23.2-7.2l-0.2,0.3c6.7,4.6,14.8,7.2,23.4,7.2
					c8.7,0,16.8-2.7,23.5-7.2l-0.2-0.3C145.5,144.3,137.5,146.9,128.9,146.9z"/>
				<path id="XMLID_3024_" class="st4" d="M128.9,144.6c-8.1,0-15.7-2.5-21.9-6.8l-0.2,0.3c6.3,4.3,13.9,6.8,22.1,6.8
					c8.2,0,15.8-2.5,22.2-6.8l-0.2-0.3C144.6,142.1,137,144.6,128.9,144.6z"/>
				<path id="XMLID_3023_" class="st4" d="M149.8,136.3l-0.2-0.3c-5.9,4-13,6.4-20.6,6.4c-7.6,0-14.7-2.4-20.6-6.4l-0.2,0.3
					c5.9,4.1,13.1,6.4,20.8,6.4C136.6,142.7,143.8,140.3,149.8,136.3z"/>
				<path id="XMLID_3022_" class="st4" d="M128.9,140c-7.2,0-13.8-2.2-19.3-6l-0.2,0.3c5.6,3.8,12.3,6,19.5,6c7.3,0,14-2.2,19.6-6
					l-0.2-0.3C142.7,137.8,136.1,140,128.9,140z"/>
				<path id="XMLID_3021_" class="st4" d="M128.9,137.7c-6.7,0-12.9-2.1-18-5.6l-0.2,0.3c5.2,3.6,11.5,5.6,18.2,5.6
					c6.8,0,13.1-2.1,18.3-5.6l-0.2-0.3C141.8,135.6,135.6,137.7,128.9,137.7z"/>
				<path id="XMLID_3020_" class="st4" d="M128.9,135.4c-6.2,0-12-1.9-16.7-5.2l-0.2,0.3c4.8,3.3,10.7,5.2,16.9,5.2
					c6.3,0,12.1-1.9,17-5.2l-0.2-0.3C140.9,133.5,135.1,135.4,128.9,135.4z"/>
				<path id="XMLID_3019_" class="st4" d="M128.9,133.1c-5.7,0-11-1.8-15.4-4.8l-0.2,0.3c4.5,3,9.9,4.8,15.7,4.8
					c5.8,0,11.2-1.8,15.7-4.8l-0.2-0.3C139.9,131.3,134.6,133.1,128.9,133.1z"/>
				<path id="XMLID_3018_" class="st4" d="M143.3,126.7l-0.2-0.3c-4,2.8-8.9,4.4-14.2,4.4c-5.2,0-10.1-1.6-14.1-4.4l-0.2,0.3
					c4.1,2.8,9,4.4,14.4,4.4C134.2,131.2,139.2,129.5,143.3,126.7z"/>
				<path id="XMLID_3017_" class="st4" d="M128.9,128.5c-4.8,0-9.2-1.5-12.8-4l-0.2,0.3c3.7,2.5,8.2,4,13.1,4c4.8,0,9.3-1.5,13.1-4
					l-0.2-0.3C138.1,127,133.7,128.5,128.9,128.5z"/>
				<path id="XMLID_3016_" class="st4" d="M128.9,126.2c-4.3,0-8.3-1.3-11.5-3.6l-0.2,0.3c3.4,2.3,7.4,3.6,11.8,3.6
					c4.4,0,8.4-1.3,11.8-3.6l-0.2-0.3C137.2,124.9,133.2,126.2,128.9,126.2z"/>
				<path id="XMLID_3015_" class="st4" d="M128.9,123.9c-3.8,0-7.3-1.2-10.2-3.2l-0.2,0.3c3,2,6.6,3.2,10.5,3.2
					c3.9,0,7.5-1.2,10.5-3.2l-0.2-0.3C136.2,122.7,132.7,123.9,128.9,123.9z"/>
				<path id="XMLID_3014_" class="st4" d="M128.9,121.6c-3.3,0-6.4-1-9-2.8l-0.2,0.3c2.6,1.8,5.8,2.8,9.2,2.8c3.4,0,6.6-1.1,9.2-2.8
					l-0.2-0.3C135.3,120.5,132.2,121.6,128.9,121.6z"/>
				<path id="XMLID_3013_" class="st4" d="M136.8,117.2l-0.2-0.3c-2.2,1.5-4.8,2.4-7.7,2.4c-2.8,0-5.5-0.9-7.7-2.4l-0.2,0.3
					c2.2,1.5,5,2.4,7.9,2.4C131.8,119.7,134.5,118.7,136.8,117.2z"/>
				<path id="XMLID_3012_" class="st4" d="M128.9,117c-2.4,0-4.5-0.7-6.4-2l-0.2,0.3c1.9,1.3,4.1,2,6.6,2c2.4,0,4.7-0.8,6.6-2
					l-0.2-0.3C133.5,116.2,131.3,117,128.9,117z"/>
				<path id="XMLID_3011_" class="st4" d="M128.9,114.6c-1.9,0-3.6-0.6-5.1-1.6l-0.2,0.3c1.5,1,3.3,1.6,5.3,1.6c2,0,3.8-0.6,5.3-1.6
					l-0.2-0.3C132.5,114.1,130.8,114.6,128.9,114.6z"/>
				<path id="XMLID_3010_" class="st4" d="M128.9,112.3c-1.4,0-2.7-0.4-3.8-1.2l-0.2,0.3c1.1,0.8,2.5,1.2,4,1.2c1.5,0,2.9-0.5,4-1.2
					l-0.2-0.3C131.6,111.9,130.3,112.3,128.9,112.3z"/>
				<path id="XMLID_3009_" class="st4" d="M128.9,110c-0.9,0-1.8-0.3-2.5-0.8l-0.2,0.3c0.8,0.5,1.7,0.8,2.7,0.8c1,0,1.9-0.3,2.7-0.8
					l-0.2-0.3C130.7,109.8,129.8,110,128.9,110z"/>
			</g>
			<path id="XMLID_3007_" class="st15" d="M75.9,89.2c7-22.6,28.1-39.1,53-39.1"/>
			<path id="XMLID_3006_" class="st16" d="M97.9,151.7c-14.8-10-24.5-26.9-24.5-46c0-5.7,0.9-11.3,2.5-16.5"/>
			<path id="XMLID_3005_" class="st17" d="M160.2,151.5c-8.9,6.1-19.7,9.6-31.3,9.6c-11.5,0-22.2-3.5-31-9.5"/>
			<path id="XMLID_3004_" class="st18" d="M181.9,89.1c1.6,5.2,2.5,10.8,2.5,16.5c0,19.1-9.6,35.9-24.3,45.9"/>
			<path id="XMLID_3003_" class="st19" d="M128.9,50.1c24.9,0,46,16.4,53,39"/>
		</g>
		<circle id="XMLID_2996_" class="st5" cx="128.9" cy="105.9" r="29.3"/>
	</g>
	<g id="XMLID_2993_">
		<line id="XMLID_2995_" class="st20" x1="97.7" y1="199.9" x2="160.2" y2="199.9"/>
		<line id="XMLID_2994_" class="st21" x1="128.9" y1="199.9" x2="128.9" y2="161.2"/>
	</g>
	<g id="XMLID_2990_">
		<line id="XMLID_2992_" class="st20" x1="201" y1="174" x2="228.8" y2="118"/>
		<line id="XMLID_2991_" class="st21" x1="214.9" y1="146" x2="180.3" y2="128.8"/>
	</g>
	<g id="XMLID_2987_">
		<line id="XMLID_2989_" class="st20" x1="28.6" y1="118.2" x2="56.8" y2="174"/>
		<line id="XMLID_2988_" class="st21" x1="42.7" y1="146.1" x2="77.3" y2="128.6"/>
	</g>
	<g id="XMLID_2985_">
		<g id="XMLID_112_">
			<circle id="XMLID_207_" cx="129.1" cy="184.8" r="7"/>
		</g>
	</g>
	<g id="XMLID_2982_">
		<rect id="XMLID_189_" x="124.3" y="180.6" class="st7" width="9.7" height="15.3"/>
		<text id="XMLID_2983_" transform="matrix(1 0 0 1 126.2708 188.2054)" class="st5 st8 st9">3</text>
	</g>
	<g id="XMLID_2980_">
		<g id="XMLID_208_">
			<circle id="XMLID_209_" cx="194.1" cy="135.8" r="7"/>
		</g>
	</g>
	<g id="XMLID_2975_">
		<rect id="XMLID_181_" x="189.3" y="131.6" class="st7" width="9.7" height="15.3"/>
		<text id="XMLID_2976_" transform="matrix(1 0 0 1 191.2711 139.2054)" class="st5 st8 st9">2</text>
	</g>
	<g id="XMLID_2972_">
		<g id="XMLID_210_">
			<circle id="XMLID_214_" cx="62.1" cy="137.8" r="7"/>
		</g>
	</g>
	<g id="XMLID_2967_">
		<rect id="XMLID_19_" x="57.3" y="133.6" class="st7" width="9.7" height="15.3"/>
		<text id="XMLID_2970_" transform="matrix(1 0 0 1 59.2711 141.2054)" class="st5 st8 st9">4</text>
	</g>
	<rect id="XMLID_17_" x="97" y="205.9" class="st7" width="64.2" height="11.5"/>
	<text id="XMLID_2963_" transform="matrix(1 0 0 1 97.0367 213.5398)" class="st22 st9">Приватный токен 3</text>
	<rect id="XMLID_166_" x="99.8" y="99.4" class="st7" width="59.2" height="19.5"/>
	<text id="XMLID_2612_" transform="matrix(1 0 0 1 107.6048 106.2408)"><tspan x="0" y="0" class="st4 st23 st24">Публичный</tspan><tspan x="10.1" y="10.8" class="st4 st23 st24"> токен</tspan></text>
	<rect id="XMLID_164_" x="311.3" y="113.6" class="st7" width="59.2" height="19.5"/>
	<text id="XMLID_2662_" transform="matrix(1 0 0 1 319.1429 120.4312)"><tspan x="0" y="0" class="st4 st23 st24">Публичный</tspan><tspan x="10.1" y="10.8" class="st4 st23 st24"> токен</tspan></text>
	
		<rect id="XMLID_15_" x="180.2" y="44.4" transform="matrix(0.7071 0.7071 -0.7071 0.7071 99.1859 -139.2311)" class="st7" width="75" height="11.5"/>
	<text id="XMLID_2958_" transform="matrix(0.7071 0.7071 -0.7071 0.7071 189.8362 24.8848)" class="st22 st9">Приватный токен 1</text>
	
		<rect id="XMLID_14_" x="188.3" y="140.2" transform="matrix(0.4211 -0.907 0.907 0.4211 -1.7319 289.277)" class="st7" width="75" height="11.5"/>
	<text id="XMLID_2948_" transform="matrix(0.4211 -0.907 0.907 0.4211 211.6377 180.7307)" class="st22 st9">Приватный токен 2</text>
	
		<rect id="XMLID_13_" x="-3.5" y="146.2" transform="matrix(0.4594 0.8882 -0.8882 0.4594 153.3701 51.9171)" class="st7" width="75" height="11.5"/>
	<text id="XMLID_2946_" transform="matrix(0.4594 0.8882 -0.8882 0.4595 15.1835 119.5448)" class="st22 st9">Приватный токен 2</text>
	
		<rect id="XMLID_12_" x="6.3" y="44.4" transform="matrix(0.5328 -0.8462 0.8462 0.5328 -23.3763 57.8962)" class="st7" width="68.9" height="11.5"/>
	<text id="XMLID_2929_" transform="matrix(0.5328 -0.8462 0.8463 0.5328 23.951 80.3187)" class="st22 st9">Приватный токен 5</text>
	<g id="XMLID_2918_">
		<line id="XMLID_2923_" class="st20" x1="65" y1="28.4" x2="31.7" y2="81.2"/>
		<line id="XMLID_2922_" class="st21" x1="48.4" y1="54.8" x2="81.1" y2="75.4"/>
	</g>
	<g id="XMLID_2914_">
		<line id="XMLID_2917_" class="st20" x1="226.9" y1="74.7" x2="183.2" y2="30"/>
		<line id="XMLID_2916_" class="st21" x1="205" y1="52.4" x2="178.7" y2="78.1"/>
	</g>
	<g id="XMLID_2904_">
		<g id="XMLID_2912_">
			<g id="XMLID_215_">
				<circle id="XMLID_216_" cx="69.1" cy="67.8" r="7"/>
			</g>
		</g>
		<g id="XMLID_2908_">
			<rect id="XMLID_11_" x="64.3" y="63.6" class="st7" width="9.7" height="15.3"/>
			<text id="XMLID_2910_" transform="matrix(1 0 0 1 66.2711 71.2054)" class="st5 st8 st9">5</text>
		</g>
	</g>
	<g id="XMLID_1854_">
		<g id="XMLID_2054_">
			<g id="XMLID_217_">
				<circle id="XMLID_218_" cx="191.1" cy="66.8" r="7"/>
			</g>
		</g>
		<g id="XMLID_1855_">
			<rect id="XMLID_124_" x="186.3" y="62.6" class="st7" width="9.7" height="15.3"/>
			<text id="XMLID_1865_" transform="matrix(1 0 0 1 188.2711 70.2054)" class="st5 st8 st9">1</text>
		</g>
	</g>
	<g id="XMLID_2665_">
		<path id="XMLID_696_" class="st25" d="M301.9,117.5c0.8-13.5,8.5-26.2,21.4-32.7"/>
		<path id="XMLID_694_" class="st26" d="M319.5,152.4c-5.6-3.6-10.3-8.7-13.5-15.1c-3.2-6.3-4.5-13.2-4.1-19.8"/>
		<path id="XMLID_684_" class="st27" d="M358.5,154.6c-12.9,6.5-27.7,5.2-39-2.2"/>
		<path id="XMLID_671_" class="st28" d="M379.9,121.9c-0.8,13.5-8.5,26.2-21.4,32.7"/>
		<path id="XMLID_654_" class="st29" d="M362.4,87c5.6,3.6,10.3,8.7,13.5,15.1c3.2,6.4,4.5,13.2,4.1,19.8"/>
		<path id="XMLID_1644_" class="st30" d="M323.3,84.8c12.9-6.5,27.7-5.2,39,2.2"/>
	</g>
	<g id="XMLID_1648_">
		<g id="XMLID_1399_">
			<g id="XMLID_2611_">
				<g id="XMLID_2632_">
					<circle id="XMLID_2633_" class="st4" cx="326.3" cy="184.4" r="1.3"/>
				</g>
				<g id="XMLID_2628_">
					<circle id="XMLID_2629_" class="st4" cx="322.8" cy="184.4" r="1.3"/>
				</g>
				<g id="XMLID_2625_">
					<circle id="XMLID_2626_" class="st4" cx="319.3" cy="184.4" r="1.3"/>
				</g>
				<g id="XMLID_2621_">
					<circle id="XMLID_2622_" class="st4" cx="315.8" cy="184.4" r="1.3"/>
				</g>
				<g id="XMLID_2617_">
					<circle id="XMLID_2618_" class="st4" cx="312.3" cy="184.4" r="1.3"/>
				</g>
			</g>
			<g id="XMLID_2577_">
				<g id="XMLID_2607_">
					<circle id="XMLID_2610_" class="st4" cx="326.3" cy="180.9" r="1.3"/>
				</g>
				<g id="XMLID_2602_">
					<circle id="XMLID_2603_" class="st4" cx="322.8" cy="180.9" r="1.3"/>
				</g>
				<g id="XMLID_2599_">
					<circle id="XMLID_2600_" class="st4" cx="319.3" cy="180.9" r="1.3"/>
				</g>
				<g id="XMLID_2596_">
					<circle id="XMLID_2597_" class="st4" cx="315.8" cy="180.9" r="1.3"/>
				</g>
				<g id="XMLID_2593_">
					<circle id="XMLID_2594_" class="st4" cx="312.3" cy="180.9" r="1.3"/>
				</g>
			</g>
		</g>
		<g id="XMLID_1999_" class="st31">
			<g id="XMLID_2595_">
				<g id="XMLID_2613_">
					<circle id="XMLID_2616_" class="st4" cx="340.8" cy="184.5" r="1.3"/>
				</g>
				<g id="XMLID_2606_">
					<circle id="XMLID_2608_" class="st4" cx="337.3" cy="184.5" r="1.3"/>
				</g>
				<g id="XMLID_2604_">
					<circle id="XMLID_2605_" class="st4" cx="333.8" cy="184.4" r="1.3"/>
				</g>
				<g id="XMLID_2598_">
					<circle id="XMLID_2601_" class="st4" cx="330.3" cy="184.4" r="1.3"/>
				</g>
			</g>
			<g id="XMLID_2584_">
				<g id="XMLID_2591_">
					<circle id="XMLID_2592_" class="st4" cx="340.8" cy="181" r="1.3"/>
				</g>
				<g id="XMLID_2589_">
					<circle id="XMLID_2590_" class="st4" cx="337.3" cy="181" r="1.3"/>
				</g>
				<g id="XMLID_2587_">
					<circle id="XMLID_2588_" class="st4" cx="333.8" cy="180.9" r="1.3"/>
				</g>
				<g id="XMLID_2585_">
					<circle id="XMLID_2586_" class="st4" cx="330.3" cy="180.9" r="1.3"/>
				</g>
			</g>
		</g>
		<g id="XMLID_2014_">
			<g id="XMLID_2563_">
				<g id="XMLID_2581_">
					<circle id="XMLID_2583_" class="st12" cx="372.8" cy="184.5" r="1.3"/>
				</g>
				<g id="XMLID_2579_">
					<circle id="XMLID_2580_" class="st12" cx="369.3" cy="184.5" r="1.3"/>
				</g>
				<g id="XMLID_2576_">
					<circle id="XMLID_2578_" class="st12" cx="365.8" cy="184.5" r="1.3"/>
				</g>
				<g id="XMLID_2574_">
					<circle id="XMLID_2575_" class="st12" cx="362.3" cy="184.5" r="1.3"/>
				</g>
				<g id="XMLID_2572_">
					<circle id="XMLID_2573_" class="st12" cx="358.8" cy="184.5" r="1.3"/>
				</g>
				<g id="XMLID_2570_">
					<circle id="XMLID_2571_" class="st12" cx="355.3" cy="184.5" r="1.3"/>
				</g>
				<g id="XMLID_2568_">
					<circle id="XMLID_2569_" class="st12" cx="351.8" cy="184.5" r="1.3"/>
				</g>
				<g id="XMLID_2566_">
					<circle id="XMLID_2567_" class="st12" cx="348.3" cy="184.5" r="1.3"/>
				</g>
				<g id="XMLID_2564_">
					<circle id="XMLID_2565_" class="st12" cx="344.8" cy="184.5" r="1.3"/>
				</g>
			</g>
			<g id="XMLID_2016_">
				<g id="XMLID_2459_">
					<circle id="XMLID_2461_" class="st12" cx="372.8" cy="181" r="1.3"/>
				</g>
				<g id="XMLID_2453_">
					<circle id="XMLID_2455_" class="st12" cx="369.3" cy="181" r="1.3"/>
				</g>
				<g id="XMLID_2428_">
					<circle id="XMLID_2451_" class="st12" cx="365.8" cy="181" r="1.3"/>
				</g>
				<g id="XMLID_2426_">
					<circle id="XMLID_2427_" class="st12" cx="362.3" cy="181" r="1.3"/>
				</g>
				<g id="XMLID_2424_">
					<circle id="XMLID_2425_" class="st12" cx="358.8" cy="181" r="1.3"/>
				</g>
				<g id="XMLID_2089_">
					<circle id="XMLID_2423_" class="st12" cx="355.3" cy="181" r="1.3"/>
				</g>
				<g id="XMLID_2064_">
					<circle id="XMLID_2086_" class="st12" cx="351.8" cy="181" r="1.3"/>
				</g>
				<g id="XMLID_2057_">
					<circle id="XMLID_2061_" class="st12" cx="348.3" cy="181" r="1.3"/>
				</g>
				<g id="XMLID_2052_">
					<circle id="XMLID_2053_" class="st12" cx="344.8" cy="181" r="1.3"/>
				</g>
			</g>
		</g>
	</g>
	<path id="XMLID_2609_" class="st32" d="M290.4,140.5c-5.8,14.2-19.6,23.6-35.9,23.6c-10.8,0-20.6-4.4-27.7-11.5"/>
	<g id="XMLID_2664_">
		<rect id="XMLID_231_" x="306" y="190.7" class="st7" width="72.5" height="20"/>
		<text id="XMLID_230_" transform="matrix(1 0 0 1 314.4303 198.3298)"><tspan x="0" y="0" class="st22 st9">Дополнительная </tspan><tspan x="5.5" y="12" class="st22 st9">эмиссия IPCO</tspan></text>
	</g>
	<line id="XMLID_1332_" class="st21" x1="340.9" y1="179.9" x2="340.8" y2="158.9"/>
	<circle id="XMLID_3000_" class="st4" cx="340.9" cy="158.9" r="1.3"/>
	<circle id="XMLID_2997_" class="st4" cx="81.1" cy="75.4" r="1.3"/>
	<circle id="XMLID_2999_" class="st4" cx="77.3" cy="128.6" r="1.3"/>
	<circle id="XMLID_3001_" class="st4" cx="128.9" cy="161.2" r="1.3"/>
	<circle id="XMLID_2998_" class="st4" cx="178.7" cy="77.8" r="1.3"/>
	<circle id="XMLID_3736_" class="st4" cx="179.8" cy="128.3" r="1.3"/>
	<polyline id="XMLID_4248_" class="st33" points="288.7,141.3 290.6,140.5 291.2,142.5 	"/>
</g>
</svg>
