<?xml version="1.0" encoding="utf-8"?>
<!-- Generator: Adobe Illustrator 19.0.0, SVG Export Plug-In . SVG Version: 6.00 Build 0)  -->
<svg version="1.1" id="Layer_1" xmlns="http://www.w3.org/2000/svg" xmlns:xlink="http://www.w3.org/1999/xlink" x="0px" y="0px"
	 viewBox="0 0 324.7 287.9" style="enable-background:new 0 0 324.7 287.9;" xml:space="preserve">
<style type="text/css">
	.st0{opacity:0.2;}
	.st1{fill:#00A6FF;}
	.st2{opacity:0.7;}
	.st3{opacity:0.2;fill:none;stroke:#00A6FF;stroke-width:0.4323;stroke-miterlimit:10;}
	.st4{fill:none;stroke:#00A6FF;stroke-width:0.4323;stroke-miterlimit:10;}
	.st5{fill:#FFFFFF;stroke:#00A6FF;stroke-miterlimit:10;stroke-dasharray:0.267,1.3327;}
	.st6{opacity:0.5;fill:#00A6FF;}
	.st7{opacity:0.6;}
	.st8{fill:#B3B3B3;}
	.st9{fill:none;stroke:#CCCCCC;stroke-width:2;stroke-miterlimit:10;}
	.st10{opacity:0.3;fill:none;stroke:#00A6FF;stroke-width:2;stroke-miterlimit:10;}
	.st11{fill:none;stroke:#00A6FF;stroke-width:2;stroke-miterlimit:10;}
	.st12{fill:#FFFFFF;}
	.st13{fill:none;}
	.st14{font-family:'OpenSansCondensed-Bold';}
	.st15{font-size:9px;}
	.st16{fill:none;stroke:#CCCCCC;stroke-width:0.5;stroke-miterlimit:10;}
	.st17{font-size:10px;}
	.st18{fill:#333333;}
	.st19{font-family:'OpenSansCondensed-Light';}
</style>
<g id="XMLID_658_">
	<g id="XMLID_1772_">
		<g id="XMLID_1943_" class="st0">
			<path id="XMLID_79_" class="st1" d="M102.3,128.5c0.3-9.2,7.5-19.7,16-23.2L163,86.9c8.6-3.5,22.2-2.8,30.4,1.5l48.7,26
				c8.2,4.4,12.5,15.1,9.6,23.9L238.4,179c-2.9,8.8-12.1,19.1-20.5,22.9l-41,18.6c-8.4,3.8-21,2-28-4.1l-35.2-30.4
				c-7-6-12.5-18.6-12.3-27.8L102.3,128.5z"/>
		</g>
		<g id="XMLID_1774_" class="st0">
			<path id="XMLID_80_" class="st1" d="M141.2,83.9c6.7-6.4,19.2-8.7,27.7-5.1l44.6,18.6c8.5,3.6,17.7,13.7,20.4,22.6l16,52.8
				c2.7,8.9-1.9,19.5-10.1,23.7l-38.1,19.4c-8.2,4.2-22.1,5-30.7,1.7l-42.1-15.9c-8.7-3.3-16.3-13.5-17-22.7l-3.4-46.4
				c-0.7-9.2,4.3-22,11-28.3L141.2,83.9z"/>
		</g>
	</g>
	<g id="XMLID_1913_" class="st2">
		<circle id="XMLID_12_" class="st3" cx="176.1" cy="155" r="75.9"/>
		<circle id="XMLID_57_" class="st3" cx="176.1" cy="155" r="71.9"/>
		<circle id="XMLID_54_" class="st3" cx="176.1" cy="155" r="67.9"/>
		<circle id="XMLID_49_" class="st3" cx="176.1" cy="155" r="63.8"/>
		<circle id="XMLID_46_" class="st3" cx="176.1" cy="155" r="59.8"/>
		<circle id="XMLID_38_" class="st3" cx="176.1" cy="155" r="55.8"/>
		<circle id="XMLID_36_" class="st3" cx="176.1" cy="155" r="51.8"/>
		<circle id="XMLID_24_" class="st3" cx="176.1" cy="155" r="47.8"/>
		<circle id="XMLID_19_" class="st3" cx="176.1" cy="155" r="43.8"/>
		<circle id="XMLID_17_" class="st3" cx="176.1" cy="155" r="39.8"/>
		<circle id="XMLID_15_" class="st3" cx="176.1" cy="155" r="35.7"/>
		<circle id="XMLID_14_" class="st3" cx="176.1" cy="155" r="31.7"/>
		<circle id="XMLID_13_" class="st3" cx="176.1" cy="155" r="27.7"/>
		<circle id="XMLID_11_" class="st3" cx="176.1" cy="155" r="23.7"/>
	</g>
	<g id="XMLID_1870_" class="st0">
		<g id="XMLID_120_">
			<line id="XMLID_121_" class="st4" x1="176.1" y1="232.1" x2="176.1" y2="77.8"/>
		</g>
		<g id="XMLID_117_">
			<line id="XMLID_118_" class="st4" x1="137.5" y1="221.8" x2="214.6" y2="88.2"/>
		</g>
		<g id="XMLID_114_">
			<line id="XMLID_115_" class="st4" x1="109.3" y1="193.5" x2="242.9" y2="116.4"/>
		</g>
		<g id="XMLID_111_">
			<line id="XMLID_112_" class="st4" x1="98.9" y1="155" x2="253.2" y2="155"/>
		</g>
		<g id="XMLID_108_">
			<line id="XMLID_109_" class="st4" x1="109.3" y1="116.4" x2="242.9" y2="193.5"/>
		</g>
		<g id="XMLID_105_">
			<line id="XMLID_106_" class="st4" x1="137.5" y1="88.2" x2="214.6" y2="221.8"/>
		</g>
		<g id="XMLID_102_">
			<line id="XMLID_103_" class="st4" x1="176.1" y1="77.8" x2="176.1" y2="232.1"/>
		</g>
	</g>
	<circle id="XMLID_1869_" class="st5" cx="176.1" cy="154.8" r="65.8"/>
	<circle id="XMLID_1918_" class="st6" cx="140" cy="93" r="0.9"/>
	<circle id="XMLID_1920_" class="st6" cx="211.6" cy="217" r="0.9"/>
	<circle id="XMLID_1921_" class="st6" cx="113.9" cy="190.7" r="0.9"/>
	<g id="XMLID_2620_">
		<g id="XMLID_2582_">
			<g id="XMLID_1902_">
				<path id="XMLID_4032_" class="st1" d="M175.5,100.9L175.5,100.9l0,0.2h0c28.5-0.3,52,22.7,52.3,51.2c0.3,28.5-22.7,52-51.2,52.3
					c-23,0.2-42.6-14.6-49.6-35.3l-0.2,0.1c7,20.8,26.7,35.7,49.8,35.4c28.7-0.3,51.7-23.9,51.4-52.5
					C227.7,123.7,204.2,100.6,175.5,100.9z"/>
				<path id="XMLID_4034_" class="st1" d="M175.5,103.3c27.3-0.3,49.8,21.7,50.1,49.1c0.3,27.3-21.7,49.8-49.1,50.1
					c-22,0.2-40.8-14-47.5-33.8l-0.2,0.1c6.7,19.9,25.6,34.2,47.7,34c27.5-0.3,49.6-22.9,49.3-50.3c-0.3-27.5-22.9-49.6-50.3-49.3h0
					L175.5,103.3L175.5,103.3z"/>
				<path id="XMLID_4038_" class="st1" d="M175.6,105.5c26.1-0.3,47.6,20.8,47.9,46.9c0.3,26.1-20.8,47.6-46.9,47.9
					c-21,0.2-39.1-13.4-45.4-32.3l-0.2,0.1c6.4,19,24.5,32.7,45.7,32.5c26.3-0.3,47.4-21.9,47.2-48.2c-0.3-26.3-21.9-47.4-48.2-47.2
					h0L175.6,105.5L175.6,105.5z"/>
				<path id="XMLID_4039_" class="st1" d="M176.5,198.4c25.1-0.3,45.3-20.9,45-46c-0.3-25.1-20.9-45.3-46-45h0l0,0.2h0
					c25-0.3,45.5,19.8,45.7,44.8c0.3,25-19.8,45.5-44.8,45.7c-20.1,0.2-37.3-12.8-43.4-30.9l-0.2,0.1
					C139,185.6,156.3,198.6,176.5,198.4z"/>
				<path id="XMLID_4042_" class="st1" d="M175.6,109.8c23.8-0.2,43.3,18.9,43.6,42.7c0.2,23.8-18.9,43.3-42.7,43.6
					c-19.1,0.2-35.5-12.2-41.3-29.4l-0.2,0.1c5.8,17.3,22.3,29.8,41.6,29.6c23.9-0.2,43.2-19.9,42.9-43.8
					c-0.2-23.9-19.9-43.2-43.8-42.9h0L175.6,109.8L175.6,109.8z"/>
				<path id="XMLID_4045_" class="st1" d="M175.6,112c22.6-0.2,41.1,17.9,41.4,40.5c0.2,22.6-17.9,41.1-40.5,41.4
					c-18.2,0.2-33.7-11.6-39.2-27.9L137,166c5.5,16.5,21.2,28.3,39.5,28.1c22.7-0.2,41-18.9,40.8-41.6c-0.2-22.7-18.9-41-41.6-40.8
					h0L175.6,112L175.6,112z"/>
				<path id="XMLID_4050_" class="st1" d="M176.5,191.9c21.5-0.2,38.9-17.9,38.6-39.5c-0.2-21.5-17.9-38.9-39.5-38.6h0l0,0.2h0
					c21.4-0.2,39,17,39.2,38.4c0.2,21.4-17,39-38.4,39.2c-17.2,0.2-32-10.9-37.2-26.5l-0.2,0.1C144.3,180.9,159.1,192.1,176.5,191.9
					z"/>
				<path id="XMLID_4052_" class="st1" d="M175.7,116.3c20.2-0.2,36.8,16.1,37,36.3s-16.1,36.8-36.3,37c-16.3,0.2-30.2-10.3-35.1-25
					l-0.2,0.1c5,14.7,19,25.3,35.4,25.2c20.3-0.2,36.7-16.9,36.5-37.3S196,115.8,175.7,116h0L175.7,116.3L175.7,116.3z"/>
				<path id="XMLID_4054_" class="st1" d="M175.7,118.4c19-0.2,34.6,15.1,34.8,34.1s-15.1,34.6-34.1,34.8
					c-15.3,0.2-28.4-9.7-33.1-23.5l-0.2,0.1c4.7,13.9,17.9,23.8,33.3,23.7c19.2-0.2,34.6-15.9,34.4-35.1s-15.9-34.6-35.1-34.4h0
					L175.7,118.4L175.7,118.4z"/>
				<path id="XMLID_4058_" class="st1" d="M176.4,185.5c18-0.2,32.4-15,32.2-32.9c-0.2-18-15-32.4-32.9-32.2h0l0,0.2h0
					c17.8-0.2,32.5,14.2,32.7,32s-14.2,32.5-32,32.7c-14.4,0.1-26.6-9.1-31-22l-0.2,0.1C149.5,176.3,161.9,185.6,176.4,185.5z"/>
				<path id="XMLID_4061_" class="st1" d="M175.7,122.7c16.6-0.2,30.3,13.2,30.5,29.9s-13.2,30.3-29.9,30.5
					c-13.4,0.1-24.9-8.5-28.9-20.6l-0.2,0.1c4.1,12.2,15.7,20.9,29.2,20.7c16.8-0.2,30.3-14,30.1-30.7s-14-30.3-30.7-30.1h0
					L175.7,122.7L175.7,122.7z"/>
				<path id="XMLID_4065_" class="st1" d="M175.8,124.9c15.5-0.2,28.2,12.3,28.3,27.7c0.2,15.5-12.3,28.2-27.7,28.3
					c-12.4,0.1-23.1-7.9-26.9-19.1l-0.2,0.1c3.8,11.3,14.5,19.4,27.1,19.3c15.6-0.2,28.1-13,28-28.6s-13-28.1-28.6-28h0L175.8,124.9
					L175.8,124.9z"/>
				<path id="XMLID_4067_" class="st1" d="M176.3,179c14.4-0.2,26-12,25.8-26.4c-0.2-14.4-12-26-26.4-25.8h0l0,0.2h0
					c14.3-0.1,26,11.3,26.1,25.6c0.1,14.3-11.3,26-25.6,26.1c-11.5,0.1-21.3-7.3-24.8-17.6l-0.2,0.1
					C154.8,171.6,164.7,179.1,176.3,179z"/>
				<path id="XMLID_4071_" class="st1" d="M175.8,129.2c13.1-0.1,23.8,10.4,24,23.5c0.1,13.1-10.4,23.8-23.5,24
					c-10.5,0.1-19.5-6.7-22.7-16.2l-0.2,0.1c3.2,9.6,12.3,16.4,23,16.3c13.2-0.1,23.8-11,23.7-24.2s-11-23.8-24.2-23.7h0
					L175.8,129.2L175.8,129.2z"/>
				<path id="XMLID_4073_" class="st1" d="M175.8,131.3c11.9-0.1,21.7,9.4,21.8,21.3c0.1,11.9-9.4,21.7-21.3,21.8
					c-9.6,0.1-17.8-6.1-20.7-14.7l-0.2,0.1c2.9,8.7,11.2,15,20.9,14.9c12-0.1,21.7-10,21.6-22c-0.1-12-10-21.7-22-21.6h0
					L175.8,131.3L175.8,131.3z"/>
				<path id="XMLID_4075_" class="st1" d="M176.3,172.6c10.8-0.1,19.6-9,19.4-19.9c-0.1-10.8-9-19.6-19.9-19.4h0l0,0.2l0,0
					c10.7-0.1,19.5,8.5,19.6,19.2c0.1,10.7-8.5,19.5-19.2,19.6c-8.6,0.1-16-5.5-18.6-13.2l-0.2,0.1
					C160.1,167,167.5,172.6,176.3,172.6z"/>
				<path id="XMLID_4079_" class="st1" d="M175.9,135.7c9.5-0.1,17.3,7.6,17.4,17.1c0.1,9.5-7.6,17.3-17.1,17.4
					c-7.7,0.1-14.2-4.9-16.5-11.8l-0.2,0.1c2.4,7,9,12,16.8,11.9c9.6-0.1,17.4-8,17.3-17.7c-0.1-9.6-8-17.4-17.7-17.3h0L175.9,135.7
					L175.9,135.7z"/>
				<path id="XMLID_4083_" class="st1" d="M175.9,137.8c8.3-0.1,15.2,6.6,15.2,14.9c0.1,8.3-6.6,15.2-14.9,15.2
					c-6.7,0.1-12.4-4.3-14.5-10.3l-0.2,0.1c2.1,6.1,7.9,10.5,14.7,10.5c8.5-0.1,15.3-7,15.2-15.5c-0.1-8.5-7-15.3-15.5-15.2h0
					L175.9,137.8L175.9,137.8z"/>
				<path id="XMLID_4084_" class="st1" d="M176.2,166.1c7.3-0.1,13.1-6.1,13-13.3c-0.1-7.3-6.1-13.1-13.3-13.1h0l0,0.2h0
					c7.1-0.1,13,5.7,13.1,12.8c0.1,7.1-5.7,13-12.8,13.1c-5.7,0.1-10.7-3.7-12.4-8.8l-0.2,0.1C165.3,162.4,170.3,166.2,176.2,166.1z
					"/>
				<path id="XMLID_4087_" class="st1" d="M175.9,142.1c5.9-0.1,10.8,4.7,10.9,10.7c0.1,5.9-4.7,10.8-10.7,10.9
					c-4.8,0-8.9-3-10.3-7.4l-0.2,0.1c1.5,4.4,5.7,7.6,10.6,7.5c6.1-0.1,11-5.1,10.9-11.1c-0.1-6.1-5.1-11-11.1-10.9h0L175.9,142.1
					L175.9,142.1z"/>
				<path id="XMLID_4091_" class="st1" d="M176,144.3c4.8,0,8.7,3.8,8.7,8.5c0,4.8-3.8,8.7-8.5,8.7c-3.8,0-7.1-2.4-8.3-5.9l-0.2,0.1
					c1.2,3.5,4.6,6.1,8.5,6.1c4.9-0.1,8.8-4.1,8.8-9c-0.1-4.9-4.1-8.8-9-8.8h0L176,144.3L176,144.3z"/>
				<path id="XMLID_4095_" class="st1" d="M176.1,159.6c3.7,0,6.7-3.1,6.7-6.8c0-3.7-3.1-6.7-6.8-6.7h0l0,0.2h0
					c3.6,0,6.5,2.8,6.5,6.4c0,3.6-2.8,6.5-6.4,6.5c-2.9,0-5.3-1.8-6.2-4.4l-0.2,0.1C170.6,157.7,173.1,159.7,176.1,159.6z"/>
				<path id="XMLID_4096_" class="st1" d="M176,148.6c2.4,0,4.3,1.9,4.4,4.3c0,2.4-1.9,4.3-4.3,4.4c-1.9,0-3.5-1.2-4.1-2.9l-0.2,0.1
					c0.6,1.8,2.3,3.1,4.4,3.1c2.5,0,4.5-2.1,4.5-4.6s-2.1-4.5-4.6-4.5h0L176,148.6L176,148.6z"/>
			</g>
			<g id="XMLID_1903_" class="st7">
				<path id="XMLID_4031_" class="st1" d="M124.3,153.4c-0.2-18.2,9.1-34.3,23.2-43.7l-0.1-0.2c-14.2,9.4-23.5,25.6-23.3,43.9
					c0.1,5.6,1,11,2.7,16l0.2-0.1C125.3,164.4,124.4,159,124.3,153.4z"/>
				<path id="XMLID_4033_" class="st1" d="M126.2,153.4c0.1,5.4,1,10.5,2.6,15.3l0.2-0.1c-1.6-4.8-2.5-9.9-2.6-15.3
					c-0.2-17.4,8.7-32.9,22.3-41.9l-0.1-0.2C135,120.4,126.1,135.9,126.2,153.4z"/>
				<path id="XMLID_4036_" class="st1" d="M128.6,153.4c-0.2-16.7,8.3-31.4,21.3-40l-0.1-0.2c-13,8.6-21.6,23.5-21.4,40.3
					c0.1,5.1,0.9,10.1,2.5,14.7l0.2-0.1C129.6,163.4,128.7,158.5,128.6,153.4z"/>
				<path id="XMLID_4041_" class="st1" d="M130.8,153.4c-0.2-15.9,8-30,20.3-38.2l-0.1-0.2c-12.4,8.2-20.6,22.4-20.4,38.4
					c0.1,4.9,0.9,9.6,2.4,14l0.2-0.1C131.7,162.9,130.8,158.2,130.8,153.4z"/>
				<path id="XMLID_4043_" class="st1" d="M132.7,153.4c0,4.7,0.8,9.1,2.3,13.3l0.2-0.1c-1.4-4.2-2.2-8.6-2.2-13.3
					c-0.2-15.2,7.6-28.6,19.4-36.4l-0.1-0.2C140.3,124.6,132.5,138.1,132.7,153.4z"/>
				<path id="XMLID_4046_" class="st1" d="M135.1,153.3c-0.2-14.4,7.2-27.2,18.4-34.6l-0.1-0.2c-11.3,7.5-18.7,20.3-18.5,34.8
					c0,4.4,0.8,8.7,2.1,12.7l0.2-0.1C135.9,162,135.1,157.7,135.1,153.3z"/>
				<path id="XMLID_4049_" class="st1" d="M137.3,153.3c-0.1-13.6,6.8-25.7,17.4-32.8l-0.1-0.2c-10.7,7.1-17.7,19.2-17.5,33
					c0,4.2,0.8,8.2,2,12l0.2-0.1C138,161.5,137.3,157.5,137.3,153.3z"/>
				<path id="XMLID_4053_" class="st1" d="M139.2,153.3c0,4,0.7,7.8,1.9,11.4l0.2-0.1c-1.2-3.5-1.9-7.3-1.9-11.3
					c-0.1-12.9,6.4-24.3,16.5-30.9l-0.1-0.2C145.6,128.8,139,140.3,139.2,153.3z"/>
				<path id="XMLID_4056_" class="st1" d="M141.6,153.3c-0.1-12.1,6.1-22.9,15.5-29.1l-0.1-0.2c-9.5,6.3-15.7,17.1-15.6,29.3
					c0,3.7,0.7,7.3,1.8,10.7l0.2-0.1C142.2,160.5,141.6,157,141.6,153.3z"/>
				<path id="XMLID_4057_" class="st1" d="M143.7,153.2c-0.1-11.4,5.7-21.4,14.5-27.3l-0.1-0.2c-8.9,5.9-14.8,16.1-14.6,27.5
					c0,3.5,0.6,6.9,1.7,10l0.2-0.1C144.4,160.1,143.8,156.7,143.7,153.2z"/>
				<path id="XMLID_4060_" class="st1" d="M145.6,153.2c0,3.3,0.6,6.4,1.6,9.4l0.2-0.1c-1-2.9-1.5-6-1.6-9.3
					c-0.1-10.6,5.3-20,13.6-25.5l-0.1-0.2C151,133,145.5,142.5,145.6,153.2z"/>
				<path id="XMLID_4064_" class="st1" d="M148,153.2c-0.1-9.9,4.9-18.6,12.6-23.7l-0.1-0.2c-7.7,5.1-12.8,13.9-12.7,23.9
					c0,3,0.6,6,1.5,8.7l0.2-0.1C148.6,159.1,148.1,156.2,148,153.2z"/>
				<path id="XMLID_4066_" class="st1" d="M150.2,153.2c-0.1-9.1,4.5-17.2,11.6-21.8l-0.1-0.2c-7.1,4.7-11.8,12.9-11.7,22.1
					c0,2.8,0.5,5.5,1.4,8l0.2-0.1C150.7,158.6,150.2,156,150.2,153.2z"/>
				<path id="XMLID_4069_" class="st1" d="M152.1,153.2c0,2.6,0.5,5.1,1.2,7.4l0.2-0.1c-0.8-2.3-1.2-4.7-1.2-7.3
					c-0.1-8.3,4.2-15.7,10.7-20l-0.1-0.2C156.3,137.3,152,144.7,152.1,153.2z"/>
				<path id="XMLID_4074_" class="st1" d="M154.5,153.1c-0.1-7.6,3.8-14.3,9.7-18.2l-0.1-0.2c-6,4-9.9,10.7-9.8,18.4
					c0,2.3,0.4,4.6,1.1,6.7l0.2-0.1C154.9,157.7,154.5,155.4,154.5,153.1z"/>
				<path id="XMLID_4077_" class="st1" d="M156.7,153.1c-0.1-6.8,3.4-12.9,8.7-16.4l-0.1-0.2c-5.4,3.6-8.9,9.7-8.8,16.6
					c0,2.1,0.4,4.1,1,6l0.2-0.1C157,157.2,156.7,155.2,156.7,153.1z"/>
				<path id="XMLID_4080_" class="st1" d="M158.6,153.1c0,1.9,0.3,3.7,0.9,5.4l0.2-0.1c-0.6-1.7-0.9-3.5-0.9-5.3
					c-0.1-6.1,3-11.4,7.8-14.6l-0.1-0.2C161.6,141.5,158.5,146.9,158.6,153.1z"/>
				<path id="XMLID_4081_" class="st1" d="M161,153.1c-0.1-5.3,2.7-10,6.8-12.7l-0.1-0.2c-4.2,2.8-7,7.6-6.9,12.9
					c0,1.7,0.3,3.2,0.8,4.7l0.2-0.1C161.3,156.2,161,154.7,161,153.1z"/>
				<path id="XMLID_4086_" class="st1" d="M163.1,153c0-4.6,2.3-8.6,5.8-10.9l-0.1-0.2c-3.6,2.4-6,6.5-5.9,11.1
					c0,1.4,0.3,2.8,0.7,4.1l0.2-0.1C163.4,155.8,163.1,154.4,163.1,153z"/>
				<path id="XMLID_4089_" class="st1" d="M165,153c0,1.2,0.2,2.3,0.6,3.4l0.2-0.1c-0.4-1-0.6-2.2-0.6-3.3c0-3.8,1.9-7.1,4.8-9.1
					l-0.1-0.2C167,145.7,165,149.1,165,153z"/>
				<path id="XMLID_4090_" class="st1" d="M167.4,153c0-3,1.5-5.7,3.9-7.3l-0.1-0.2c-2.4,1.6-4,4.4-4,7.5c0,1,0.2,1.9,0.5,2.7
					l0.2-0.1C167.6,154.8,167.4,153.9,167.4,153z"/>
				<path id="XMLID_4093_" class="st1" d="M169.6,153c0-2.3,1.1-4.3,2.9-5.5l-0.1-0.2c-1.8,1.2-3,3.3-3,5.7c0,0.7,0.1,1.4,0.4,2.1
					l0.2-0.1C169.7,154.3,169.6,153.7,169.6,153z"/>
				<path id="XMLID_4097_" class="st1" d="M171.5,153c0,0.5,0.1,1,0.3,1.4l0.2-0.1c-0.1-0.4-0.2-0.9-0.2-1.3c0-1.5,0.8-2.9,1.9-3.6
					l-0.1-0.2C172.3,149.9,171.5,151.3,171.5,153z"/>
			</g>
			<g id="XMLID_1904_">
				<path id="XMLID_4030_" class="st8" d="M175.5,101.2l0-0.2c-10.4,0.1-20,3.3-28.1,8.6l0.1,0.2
					C155.6,104.4,165.2,101.3,175.5,101.2z"/>
				<path id="XMLID_4035_" class="st8" d="M175.5,103.3l0-0.2c-9.9,0.1-19.2,3.1-26.9,8.3l0.1,0.2
					C156.4,106.5,165.6,103.4,175.5,103.3z"/>
				<path id="XMLID_4037_" class="st8" d="M149.9,113.4c7.4-4.9,16.2-7.8,25.6-7.9l0-0.2c-9.5,0.1-18.4,3-25.8,7.9L149.9,113.4z"/>
				<path id="XMLID_4040_" class="st8" d="M175.6,107.6l0-0.2c-9.1,0.1-17.5,2.9-24.6,7.6l0.1,0.2
					C158.2,110.5,166.5,107.7,175.6,107.6z"/>
				<path id="XMLID_4044_" class="st8" d="M175.6,109.8l0-0.2c-8.7,0.1-16.7,2.7-23.4,7.2l0.1,0.2C159,112.5,167,109.9,175.6,109.8z
					"/>
				<path id="XMLID_4047_" class="st8" d="M153.5,118.7c6.4-4.2,14-6.7,22.1-6.8l0-0.2c-8.2,0.1-15.9,2.6-22.3,6.8L153.5,118.7z"/>
				<path id="XMLID_4048_" class="st8" d="M175.6,114.1l0-0.2c-7.8,0.1-15,2.5-21.1,6.5l0.1,0.2
					C160.7,116.6,167.9,114.2,175.6,114.1z"/>
				<path id="XMLID_4051_" class="st8" d="M175.7,116.3l0-0.2c-7.4,0.1-14.2,2.3-19.9,6.1l0.1,0.2
					C161.6,118.6,168.4,116.3,175.7,116.3z"/>
				<path id="XMLID_4055_" class="st8" d="M157.1,124.1c5.4-3.5,11.7-5.7,18.6-5.7l0-0.2c-6.9,0.1-13.4,2.2-18.8,5.8L157.1,124.1z"
					/>
				<path id="XMLID_4059_" class="st8" d="M175.7,120.6l0-0.2c-6.5,0.1-12.5,2.1-17.6,5.4l0.1,0.2
					C163.3,122.6,169.3,120.6,175.7,120.6z"/>
				<path id="XMLID_4062_" class="st8" d="M175.7,122.7l0-0.2c-6.1,0.1-11.7,1.9-16.4,5l0.1,0.2
					C164.1,124.6,169.7,122.8,175.7,122.7z"/>
				<path id="XMLID_4063_" class="st8" d="M160.6,129.5c4.4-2.9,9.5-4.6,15.1-4.7l0-0.2c-5.6,0.1-10.9,1.8-15.3,4.7L160.6,129.5z"/>
				<path id="XMLID_4068_" class="st8" d="M175.8,127l0-0.2c-5.2,0.1-10.1,1.6-14.1,4.3l0.1,0.2C165.8,128.7,170.6,127.1,175.8,127z
					"/>
				<path id="XMLID_4070_" class="st8" d="M175.8,129.2l0-0.2c-4.8,0-9.2,1.5-12.9,4l0.1,0.2C166.7,130.7,171.1,129.2,175.8,129.2z"
					/>
				<path id="XMLID_4072_" class="st8" d="M164.2,134.9c3.3-2.2,7.3-3.5,11.6-3.6l0-0.2c-4.4,0-8.4,1.4-11.8,3.6L164.2,134.9z"/>
				<path id="XMLID_4076_" class="st8" d="M175.9,133.5l0-0.2c-3.9,0-7.6,1.2-10.6,3.3l0.1,0.2C168.4,134.7,172,133.5,175.9,133.5z"
					/>
				<path id="XMLID_4078_" class="st8" d="M175.9,135.7l0-0.2c-3.5,0-6.7,1.1-9.5,2.9l0.1,0.2C169.2,136.8,172.4,135.7,175.9,135.7z
					"/>
				<path id="XMLID_4082_" class="st8" d="M167.7,140.3c2.3-1.6,5.1-2.5,8.2-2.5l0-0.2c-3.1,0-5.9,1-8.3,2.6L167.7,140.3z"/>
				<path id="XMLID_4085_" class="st8" d="M175.9,140l0-0.2c-2.6,0-5.1,0.8-7.1,2.2l0.1,0.2C170.9,140.8,173.3,140,175.9,140z"/>
				<path id="XMLID_4088_" class="st8" d="M175.9,142.1l0-0.2c-2.2,0-4.2,0.7-6,1.8l0.1,0.2C171.8,142.8,173.8,142.1,175.9,142.1z"
					/>
				<path id="XMLID_4092_" class="st8" d="M171.3,145.7c1.3-0.9,2.9-1.4,4.7-1.4l0-0.2c-1.8,0-3.4,0.6-4.8,1.5L171.3,145.7z"/>
				<path id="XMLID_4094_" class="st8" d="M176,146.4l0-0.2c-1.3,0-2.6,0.4-3.6,1.1l0.1,0.2C173.5,146.8,174.7,146.4,176,146.4z"/>
				<path id="XMLID_4098_" class="st8" d="M176,148.6l0-0.2c-0.9,0-1.8,0.3-2.5,0.8l0.1,0.2C174.4,148.9,175.1,148.6,176,148.6z"/>
			</g>
		</g>
		<g id="XMLID_1398_">
			<path id="XMLID_1404_" class="st9" d="M147.3,110.5c8.1-5.3,17.8-8.5,28.2-8.6"/>
			<path id="XMLID_1413_" class="st10" d="M126.4,170.9c-1.7-5-2.6-10.4-2.7-16c-0.2-18.5,9.2-34.9,23.6-44.3"/>
			<path id="XMLID_3870_" class="st11" d="M175.5,101.9c28.9-0.3,52.6,22.9,52.9,51.8c0.3,28.9-22.9,52.6-51.8,52.9
				c-23.3,0.2-43.3-14.8-50.3-35.8"/>
		</g>
	</g>
	<circle id="XMLID_2062_" class="st12" cx="176.4" cy="152.9" r="29.3"/>
	<rect id="XMLID_33_" x="147.3" y="146.4" class="st13" width="59.2" height="19.5"/>
	<text id="XMLID_2047_" transform="matrix(1 0 0 1 155.1425 153.2591)"><tspan x="0" y="0" class="st1 st14 st15">Публичный</tspan><tspan x="10.1" y="10.8" class="st1 st14 st15"> токен</tspan></text>
	<circle id="XMLID_1922_" class="st6" cx="241.9" cy="193" r="1"/>
	<polyline id="XMLID_1178_" class="st16" points="159.6,103.6 148,77.8 81,77.8 	"/>
	<circle id="XMLID_1179_" class="st1" cx="159.6" cy="103.6" r="1.3"/>
	<rect id="XMLID_10_" x="83.7" y="56.8" class="st13" width="57.6" height="22.2"/>
	<text id="XMLID_1516_" transform="matrix(1 0 0 1 83.7132 64.3889)"><tspan x="0" y="0" class="st1 st14 st17">9%</tspan><tspan x="0" y="10" class="st18 st19 st17">Резервный фонд </tspan></text>
	<polyline id="XMLID_1465_" class="st16" points="123.7,160.9 101,181.7 26,181.7 	"/>
	<rect id="XMLID_23_" x="28" y="160.6" class="st13" width="71.2" height="22.2"/>
	<text id="XMLID_1302_" transform="matrix(1 0 0 1 28.0286 168.2342)"><tspan x="0" y="0" class="st1 st14 st17">21%</tspan><tspan x="0" y="10" class="st18 st19 st17">Команда платформы </tspan></text>
	<polyline id="XMLID_1619_" class="st16" points="228,143.2 250.8,163.9 298.6,163.9 	"/>
	<rect id="XMLID_9_" x="259" y="142.9" class="st13" width="39.6" height="22.2"/>
	<text id="XMLID_1487_" transform="matrix(1 0 0 1 259.0098 150.5032)"><tspan x="0" y="0" class="st1 st14 st17">70%</tspan><tspan x="0" y="10" class="st18 st19 st17">Инвесторы</tspan></text>
	<circle id="XMLID_1471_" class="st1" cx="123.7" cy="161.2" r="1.3"/>
	<circle id="XMLID_2657_" class="st1" cx="228.5" cy="143.4" r="1.3"/>
</g>
</svg>
