<?xml version="1.0" encoding="utf-8"?>
<!-- Generator: Adobe Illustrator 19.0.0, SVG Export Plug-In . SVG Version: 6.00 Build 0)  -->
<svg version="1.1" id="Layer_1" xmlns="http://www.w3.org/2000/svg" xmlns:xlink="http://www.w3.org/1999/xlink" x="0px" y="0px"
	 viewBox="0 0 408.7 235.3" style="enable-background:new 0 0 408.7 235.3;" xml:space="preserve">
<style type="text/css">
	.st0{fill:none;stroke:#CCCCCC;stroke-width:0.5;stroke-miterlimit:10;stroke-dasharray:0.997,1;}
	.st1{opacity:0.7;}
	.st2{opacity:0.2;fill:none;stroke:#00A6FF;stroke-width:0.4323;stroke-miterlimit:10;}
	.st3{opacity:0.2;}
	.st4{fill:#00A6FF;}
	.st5{fill:#FFFFFF;}
	.st6{fill:none;stroke:#00A6FF;stroke-miterlimit:10;stroke-dasharray:0.2674,1.3347;}
	.st7{fill:#B3B3B3;}
	.st8{opacity:0.5;}
	.st9{fill:#666666;}
	.st10{fill:none;}
	.st11{font-family:'OpenSansCondensed-Bold';}
	.st12{font-size:9px;}
	.st13{fill:#333333;}
	.st14{font-family:'OpenSansCondensed-Light';}
	.st15{font-size:12.233px;}
	.st16{fill:none;stroke:#666666;stroke-width:3;stroke-miterlimit:10;}
	.st17{fill:none;stroke:#B3B3B3;stroke-width:3;stroke-miterlimit:10;}
	.st18{opacity:0.5;fill:none;stroke:#00A6FF;stroke-width:3;stroke-miterlimit:10;}
	.st19{fill:none;stroke:#00A6FF;stroke-width:3;stroke-miterlimit:10;}
	.st20{fill:none;stroke:#CCCCCC;stroke-width:0.5;stroke-miterlimit:10;}
	.st21{fill:none;stroke:#CCCCCC;stroke-width:0.5;stroke-miterlimit:10;stroke-dasharray:1.0016,1.0046;}
</style>
<g id="XMLID_9_">
	<line id="XMLID_2479_" class="st0" x1="201.5" y1="183.5" x2="243.4" y2="183.5"/>
	<g id="XMLID_5037_" class="st1">
		<circle id="XMLID_15_" class="st2" cx="222.3" cy="104.2" r="67.4"/>
		<circle id="XMLID_69_" class="st2" cx="222.3" cy="104.2" r="63.8"/>
		<circle id="XMLID_64_" class="st2" cx="222.3" cy="104.2" r="60.3"/>
		<circle id="XMLID_61_" class="st2" cx="222.3" cy="104.2" r="56.7"/>
		<circle id="XMLID_59_" class="st2" cx="222.3" cy="104.2" r="53.1"/>
		<circle id="XMLID_58_" class="st2" cx="222.3" cy="104.2" r="49.6"/>
		<circle id="XMLID_54_" class="st2" cx="222.3" cy="104.2" r="46"/>
		<circle id="XMLID_49_" class="st2" cx="222.3" cy="104.2" r="42.4"/>
		<circle id="XMLID_38_" class="st2" cx="222.3" cy="104.2" r="38.9"/>
		<circle id="XMLID_36_" class="st2" cx="222.3" cy="104.2" r="35.3"/>
		<circle id="XMLID_23_" class="st2" cx="222.3" cy="104.2" r="31.7"/>
		<circle id="XMLID_19_" class="st2" cx="222.3" cy="104.2" r="28.2"/>
		<circle id="XMLID_17_" class="st2" cx="222.3" cy="104.2" r="24.6"/>
		<circle id="XMLID_14_" class="st2" cx="222.3" cy="104.2" r="21"/>
	</g>
	<g id="XMLID_5034_">
		<g id="XMLID_5036_" class="st3">
			<path id="XMLID_89_" class="st4" d="M156.1,80.8c1.2-9.2,9.4-18.9,18.3-21.5l39.2-11.7c8.9-2.6,22.4-0.6,30.1,4.6l39.2,26.3
				c7.7,5.2,10.9,16.3,7.2,24.8L275.6,136c-3.7,8.5-13.9,17.8-22.7,20.8L217,168.9c-8.8,3-21.1-0.1-27.5-6.8l-27-28.5
				c-6.4-6.7-10.6-19.7-9.4-28.9L156.1,80.8z"/>
		</g>
		<g id="XMLID_5035_" class="st3">
			<path id="XMLID_90_" class="st4" d="M194.5,43.3c7.3-5.7,20-6.7,28.1-2.3l36,19.4c8.1,4.4,16.3,15.4,18,24.5l9.1,46.3
				c1.8,9.1-3.8,19.2-12.4,22.6l-33.4,13c-8.6,3.4-22.5,2.7-30.7-1.4l-33.9-16.8c-8.3-4.1-14.9-15-14.6-24.3l1.1-39.2
				c0.3-9.2,6.5-21.4,13.8-27.1L194.5,43.3z"/>
		</g>
	</g>
	<g id="XMLID_5030_">
		<circle id="XMLID_84_" class="st5" cx="222.3" cy="104.2" r="57.9"/>
		<circle id="XMLID_82_" class="st6" cx="222.3" cy="104.2" r="57.9"/>
	</g>
	<g id="XMLID_4575_">
		<g id="XMLID_4831_">
			<path id="XMLID_5029_" class="st4" d="M222.3,53.1c22.9,0,42.3,15.1,48.8,35.9l0.2-0.1c-6.5-20.9-26-36.1-49-36.1h0L222.3,53.1
				L222.3,53.1z"/>
			<path id="XMLID_5028_" class="st4" d="M222.3,54.9c22.1,0,40.8,14.6,47.1,34.7l0.2-0.1c-6.3-20.2-25.1-34.8-47.3-34.8h0
				L222.3,54.9L222.3,54.9z"/>
			<path id="XMLID_5027_" class="st4" d="M222.3,56.7c21.3,0,39.4,14.1,45.4,33.4l0.2-0.1c-6-19.4-24.2-33.6-45.6-33.6h0L222.3,56.7
				L222.3,56.7z"/>
			<path id="XMLID_5026_" class="st4" d="M222.3,58.2L222.3,58.2l0,0.2h0c20.5,0,37.9,13.6,43.7,32.2l0.2-0.1
				C260.4,71.8,242.9,58.2,222.3,58.2z"/>
			<path id="XMLID_5025_" class="st4" d="M222.3,60.2c19.7,0,36.4,13,42,31l0.2-0.1C259,73.1,242.1,60,222.3,60h0L222.3,60.2
				L222.3,60.2z"/>
			<path id="XMLID_5023_" class="st4" d="M222.3,62c18.9,0,35,12.5,40.3,29.7l0.2-0.1c-5.3-17.3-21.5-29.9-40.5-29.9h0L222.3,62
				L222.3,62z"/>
			<path id="XMLID_5022_" class="st4" d="M222.3,63.8c18.1,0,33.5,12,38.6,28.5l0.2-0.1c-5.1-16.6-20.6-28.7-38.8-28.7h0L222.3,63.8
				L222.3,63.8z"/>
			<path id="XMLID_5021_" class="st4" d="M222.3,65.6c17.3,0,32,11.5,36.9,27.2l0.2-0.1c-4.9-15.9-19.7-27.4-37.1-27.4h0L222.3,65.6
				L222.3,65.6z"/>
			<path id="XMLID_5020_" class="st4" d="M222.3,67.1L222.3,67.1l0,0.2h0c16.5,0,30.5,11,35.2,26l0.2-0.1
				C253.1,78.2,239,67.1,222.3,67.1z"/>
			<path id="XMLID_5019_" class="st4" d="M222.3,69.2c15.7,0,29.1,10.5,33.4,24.8l0.2-0.1c-4.4-14.4-17.8-24.9-33.7-24.9h0
				L222.3,69.2L222.3,69.2z"/>
			<path id="XMLID_5018_" class="st4" d="M222.3,71c14.9,0,27.6,9.9,31.7,23.5l0.2-0.1c-4.2-13.7-16.9-23.7-32-23.7h0L222.3,71
				L222.3,71z"/>
			<path id="XMLID_5017_" class="st4" d="M222.3,72.8c14.1,0,26.1,9.4,30,22.3l0.2-0.1c-3.9-13-16-22.5-30.3-22.5h0L222.3,72.8
				L222.3,72.8z"/>
			<path id="XMLID_5016_" class="st4" d="M222.3,74.6c13.4,0,24.7,8.9,28.3,21.1l0.2-0.1c-3.7-12.3-15.1-21.2-28.6-21.2h0
				L222.3,74.6L222.3,74.6z"/>
			<path id="XMLID_5015_" class="st4" d="M222.3,76.1L222.3,76.1l0,0.2h0c12.6,0,23.2,8.4,26.6,19.8l0.2-0.1
				C245.7,84.5,235,76.1,222.3,76.1z"/>
			<path id="XMLID_5014_" class="st4" d="M222.3,78.1c11.8,0,21.7,7.9,24.9,18.6l0.2-0.1c-3.2-10.8-13.3-18.8-25.2-18.8h0
				L222.3,78.1L222.3,78.1z"/>
			<path id="XMLID_5013_" class="st4" d="M222.3,79.9c11,0,20.3,7.3,23.2,17.4l0.2-0.1c-3-10.1-12.4-17.5-23.5-17.5h0L222.3,79.9
				L222.3,79.9z"/>
			<path id="XMLID_5012_" class="st4" d="M222.3,81.7c10.2,0,18.8,6.8,21.5,16.1l0.2-0.1c-2.8-9.4-11.5-16.3-21.8-16.3h0L222.3,81.7
				L222.3,81.7z"/>
			<path id="XMLID_5011_" class="st4" d="M222.3,83.5c9.4,0,17.3,6.3,19.8,14.9l0.2-0.1c-2.5-8.7-10.6-15.1-20.1-15.1h0L222.3,83.5
				L222.3,83.5z"/>
			<path id="XMLID_5010_" class="st4" d="M222.3,85L222.3,85l0,0.2h0c8.6,0,15.8,5.8,18.1,13.7l0.2-0.1C238.4,90.9,231,85,222.3,85z
				"/>
			<path id="XMLID_5009_" class="st4" d="M222.3,87.1c7.8,0,14.4,5.3,16.4,12.4l0.2-0.1c-2.1-7.3-8.7-12.6-16.6-12.6h0L222.3,87.1
				L222.3,87.1z"/>
			<path id="XMLID_5008_" class="st4" d="M222.3,88.9c7,0,12.9,4.7,14.7,11.2l0.2-0.1c-1.8-6.5-7.8-11.4-14.9-11.4h0L222.3,88.9
				L222.3,88.9z"/>
			<path id="XMLID_4976_" class="st4" d="M222.3,90.7c6.2,0,11.4,4.2,13,9.9l0.2-0.1c-1.6-5.8-6.9-10.1-13.2-10.1h0L222.3,90.7
				L222.3,90.7z"/>
			<path id="XMLID_4845_" class="st4" d="M222.3,92.5c5.4,0,10,3.7,11.3,8.7l0.2-0.1c-1.4-5.1-6-8.9-11.5-8.9h0L222.3,92.5
				L222.3,92.5z"/>
			<path id="XMLID_4843_" class="st4" d="M222.3,94L222.3,94l0,0.2h0c4.6,0,8.5,3.2,9.6,7.5l0.2-0.1C231,97.3,227.1,94,222.3,94z"/>
			<path id="XMLID_4842_" class="st4" d="M222.3,96c3.8,0,7,2.7,7.9,6.2l0.2-0.1c-0.9-3.7-4.2-6.4-8.1-6.4h0L222.3,96L222.3,96z"/>
			<path id="XMLID_4838_" class="st4" d="M222.3,97.8c3,0,5.6,2.1,6.2,5l0.2-0.1c-0.6-3-3.3-5.2-6.4-5.2h0L222.3,97.8L222.3,97.8z"
				/>
		</g>
		<g id="XMLID_4666_">
			<path id="XMLID_4830_" class="st7" d="M222.3,155.2c-11.1,0-21.3-3.5-29.7-9.5l-0.1,0.2c8.4,6,18.7,9.6,29.8,9.6
				c11.1,0,21.4-3.6,29.8-9.6l-0.1-0.2C243.6,151.7,233.4,155.2,222.3,155.2z"/>
			<path id="XMLID_4829_" class="st7" d="M222.3,153.4c-10.7,0-20.6-3.4-28.6-9.2l-0.1,0.2c8.1,5.8,18,9.3,28.8,9.3
				c10.7,0,20.7-3.4,28.8-9.3l-0.1-0.2C242.9,150,233,153.4,222.3,153.4z"/>
			<path id="XMLID_4828_" class="st7" d="M250,143l-0.1-0.2c-7.8,5.6-17.3,8.9-27.6,8.9c-10.3,0-19.8-3.3-27.6-8.9l-0.1,0.2
				c7.8,5.6,17.4,8.9,27.7,8.9C232.7,151.9,242.2,148.6,250,143z"/>
			<path id="XMLID_4827_" class="st7" d="M222.3,149.9c-9.9,0-19-3.2-26.5-8.5l-0.1,0.2c7.5,5.4,16.7,8.6,26.7,8.6
				c9.9,0,19.1-3.2,26.7-8.6l-0.1-0.2C241.4,146.7,232.2,149.9,222.3,149.9z"/>
			<path id="XMLID_4826_" class="st7" d="M222.3,148.1c-9.5,0-18.3-3-25.5-8.2l-0.1,0.2c7.2,5.2,16.1,8.2,25.6,8.2
				c9.5,0,18.4-3.1,25.6-8.2l-0.1-0.2C240.6,145,231.8,148.1,222.3,148.1z"/>
			<path id="XMLID_4825_" class="st7" d="M222.3,146.3c-9.1,0-17.5-2.9-24.4-7.8l-0.1,0.2c6.9,5,15.4,7.9,24.6,7.9
				c9.2,0,17.6-2.9,24.6-7.9l-0.1-0.2C239.9,143.4,231.4,146.3,222.3,146.3z"/>
			<path id="XMLID_4824_" class="st7" d="M222.3,144.5c-8.7,0-16.8-2.8-23.4-7.5l-0.1,0.2c6.6,4.7,14.8,7.5,23.5,7.5
				c8.8,0,16.9-2.8,23.5-7.5l-0.1-0.2C239.1,141.7,231,144.5,222.3,144.5z"/>
			<path id="XMLID_4822_" class="st7" d="M244.8,135.8l-0.1-0.2c-6.3,4.5-14,7.1-22.3,7.1c-8.3,0-16-2.7-22.3-7.1l-0.1,0.2
				c6.3,4.5,14.1,7.2,22.5,7.2C230.7,143,238.4,140.3,244.8,135.8z"/>
			<path id="XMLID_4698_" class="st7" d="M222.3,140.9c-7.9,0-15.3-2.5-21.3-6.8l-0.1,0.2c6,4.3,13.4,6.9,21.4,6.9
				c8,0,15.4-2.5,21.4-6.9l-0.1-0.2C237.6,138.4,230.2,140.9,222.3,140.9z"/>
			<path id="XMLID_4697_" class="st7" d="M222.3,139.1c-7.5,0-14.5-2.4-20.2-6.5l-0.1,0.2c5.8,4.1,12.8,6.5,20.4,6.5
				c7.6,0,14.6-2.4,20.4-6.5l-0.1-0.2C236.8,136.7,229.9,139.1,222.3,139.1z"/>
			<path id="XMLID_4696_" class="st7" d="M222.3,137.3c-7.1,0-13.7-2.3-19.2-6.1l-0.1,0.2c5.5,3.9,12.1,6.2,19.3,6.2
				c7.2,0,13.9-2.3,19.3-6.2l-0.1-0.2C236.1,135.1,229.5,137.3,222.3,137.3z"/>
			<path id="XMLID_4695_" class="st7" d="M222.3,135.5c-6.7,0-13-2.1-18.1-5.8l-0.1,0.2c5.2,3.7,11.5,5.8,18.3,5.8
				c6.8,0,13.1-2.2,18.3-5.8l-0.1-0.2C235.3,133.4,229.1,135.5,222.3,135.5z"/>
			<path id="XMLID_4694_" class="st7" d="M239.5,128.5l-0.1-0.2c-4.8,3.4-10.7,5.4-17.1,5.4c-6.4,0-12.2-2-17.1-5.4l-0.1,0.2
				c4.9,3.4,10.8,5.5,17.2,5.5C228.7,134,234.7,132,239.5,128.5z"/>
			<path id="XMLID_4693_" class="st7" d="M222.3,132c-6,0-11.5-1.9-16-5.1l-0.1,0.2c4.6,3.2,10.1,5.1,16.2,5.1
				c6,0,11.6-1.9,16.2-5.1l-0.1-0.2C233.8,130.1,228.3,132,222.3,132z"/>
			<path id="XMLID_4692_" class="st7" d="M222.3,130.2c-5.6,0-10.7-1.8-15-4.8l-0.1,0.2c4.3,3,9.5,4.8,15.1,4.8
				c5.6,0,10.8-1.8,15.1-4.8l-0.1-0.2C233.1,128.4,227.9,130.2,222.3,130.2z"/>
			<path id="XMLID_4691_" class="st7" d="M222.3,128.4c-5.2,0-10-1.6-13.9-4.4l-0.1,0.2c4,2.8,8.8,4.5,14.1,4.5
				c5.2,0,10.1-1.7,14.1-4.5l-0.1-0.2C232.3,126.8,227.5,128.4,222.3,128.4z"/>
			<path id="XMLID_4690_" class="st7" d="M222.3,126.6c-4.8,0-9.2-1.5-12.9-4.1l-0.1,0.2c3.7,2.6,8.2,4.1,13,4.1
				c4.8,0,9.3-1.5,13-4.1l-0.1-0.2C231.5,125.1,227.1,126.6,222.3,126.6z"/>
			<path id="XMLID_4689_" class="st7" d="M234.3,121.3l-0.1-0.2c-3.3,2.3-7.4,3.7-11.8,3.7c-4.4,0-8.5-1.4-11.8-3.7l-0.1,0.2
				c3.4,2.4,7.5,3.8,11.9,3.8C226.8,125.1,230.9,123.7,234.3,121.3z"/>
			<path id="XMLID_4688_" class="st7" d="M222.3,123c-4,0-7.7-1.3-10.8-3.4l-0.1,0.2c3.1,2.2,6.8,3.4,10.9,3.4c4,0,7.8-1.3,10.9-3.4
				l-0.1-0.2C230,121.8,226.3,123,222.3,123z"/>
			<path id="XMLID_4687_" class="st7" d="M222.3,121.2c-3.6,0-6.9-1.1-9.7-3l-0.1,0.2c2.8,1.9,6.2,3.1,9.8,3.1c3.7,0,7-1.1,9.8-3.1
				l-0.1-0.2C229.3,120.1,225.9,121.2,222.3,121.2z"/>
			<path id="XMLID_4686_" class="st7" d="M222.3,119.4c-3.2,0-6.2-1-8.7-2.7l-0.1,0.2c2.5,1.7,5.5,2.7,8.8,2.7c3.3,0,6.3-1,8.8-2.7
				l-0.1-0.2C228.5,118.4,225.5,119.4,222.3,119.4z"/>
			<path id="XMLID_4674_" class="st7" d="M222.3,117.6c-2.8,0-5.4-0.9-7.6-2.4l-0.1,0.2c2.2,1.5,4.9,2.4,7.7,2.4
				c2.9,0,5.5-0.9,7.7-2.4l-0.1-0.2C227.8,116.8,225.1,117.6,222.3,117.6z"/>
			<path id="XMLID_4671_" class="st7" d="M229,114.1l-0.1-0.2c-1.9,1.3-4.1,2-6.5,2c-2.4,0-4.7-0.7-6.6-2l-0.1,0.2
				c1.9,1.3,4.2,2.1,6.7,2.1C224.8,116.1,227.1,115.3,229,114.1z"/>
			<path id="XMLID_4670_" class="st7" d="M222.3,114.1c-2,0-3.9-0.6-5.5-1.7l-0.1,0.2c1.6,1.1,3.6,1.7,5.6,1.7c2.1,0,4-0.6,5.6-1.7
				l-0.1-0.2C226.2,113.5,224.4,114.1,222.3,114.1z"/>
			<path id="XMLID_4669_" class="st7" d="M222.3,112.3c-1.6,0-3.2-0.5-4.4-1.3l-0.1,0.2c1.3,0.9,2.9,1.4,4.6,1.4
				c1.7,0,3.3-0.5,4.6-1.4l-0.1-0.2C225.5,111.8,224,112.3,222.3,112.3z"/>
			<path id="XMLID_4667_" class="st7" d="M222.3,110.5c-1.2,0-2.4-0.4-3.4-1l-0.1,0.2c1,0.7,2.2,1,3.5,1c1.3,0,2.5-0.4,3.5-1
				l-0.1-0.2C224.7,110.1,223.6,110.5,222.3,110.5z"/>
		</g>
		<g id="XMLID_4638_" class="st8">
			<path id="XMLID_4665_" class="st4" d="M271.1,89c1.5,4.8,2.3,9.9,2.3,15.2c0,17.1-8.5,32.3-21.4,41.5l0.1,0.2
				c13-9.3,21.5-24.5,21.5-41.7c0-5.3-0.8-10.4-2.3-15.2L271.1,89z"/>
			<path id="XMLID_4664_" class="st4" d="M271.6,104.2c0,16.5-8.2,31.1-20.7,40.1l0.1,0.2c12.6-9,20.8-23.7,20.8-40.3
				c0-5.1-0.8-10-2.2-14.7l-0.2,0.1C270.8,94.2,271.6,99.1,271.6,104.2z"/>
			<path id="XMLID_4663_" class="st4" d="M269.8,104.2c0,15.9-7.9,30-19.9,38.6l0.1,0.2c12.1-8.7,20-22.8,20-38.8
				c0-4.9-0.7-9.7-2.1-14.1l-0.2,0.1C269.1,94.5,269.8,99.3,269.8,104.2z"/>
			<path id="XMLID_4662_" class="st4" d="M268,104.2c0,15.3-7.6,28.9-19.2,37.2l0.1,0.2c11.7-8.3,19.3-22,19.3-37.4
				c0-4.7-0.7-9.3-2.1-13.6l-0.2,0.1C267.3,94.9,268,99.5,268,104.2z"/>
			<path id="XMLID_4661_" class="st4" d="M266.2,104.2c0,14.7-7.3,27.8-18.4,35.7l0.1,0.2c11.2-8,18.5-21.1,18.5-35.9
				c0-4.5-0.7-8.9-2-13l-0.2,0.1C265.6,95.3,266.2,99.6,266.2,104.2z"/>
			<path id="XMLID_4660_" class="st4" d="M264.7,104.2c0-4.3-0.7-8.5-1.9-12.5l-0.2,0.1c1.2,3.9,1.9,8.1,1.9,12.4
				c0,14.1-7,26.6-17.7,34.3l0.1,0.2C257.7,131,264.7,118.4,264.7,104.2z"/>
			<path id="XMLID_4659_" class="st4" d="M262.7,104.2c0,13.5-6.7,25.5-17,32.8l0.1,0.2c10.3-7.4,17.1-19.4,17.1-33
				c0-4.1-0.6-8.2-1.8-11.9l-0.2,0.1C262,96.1,262.7,100,262.7,104.2z"/>
			<path id="XMLID_4658_" class="st4" d="M260.9,104.2c0,12.9-6.4,24.4-16.2,31.4l0.1,0.2c9.9-7,16.3-18.6,16.3-31.6
				c0-4-0.6-7.8-1.7-11.4l-0.2,0.1C260.3,96.4,260.9,100.2,260.9,104.2z"/>
			<path id="XMLID_4657_" class="st4" d="M259.1,104.2c0,12.3-6.1,23.3-15.5,30l0.1,0.2c9.4-6.7,15.6-17.7,15.6-30.2
				c0-3.8-0.6-7.4-1.6-10.8l-0.2,0.1C258.5,96.8,259.1,100.4,259.1,104.2z"/>
			<path id="XMLID_4656_" class="st4" d="M257.3,104.2c0,11.8-5.8,22.2-14.8,28.5l0.1,0.2c9-6.4,14.9-16.9,14.9-28.7
				c0-3.6-0.5-7-1.5-10.3l-0.2,0.1C256.8,97.2,257.3,100.6,257.3,104.2z"/>
			<path id="XMLID_4655_" class="st4" d="M255.8,104.2c0-3.4-0.5-6.6-1.4-9.7l-0.2,0.1c0.9,3.1,1.4,6.3,1.4,9.6
				c0,11.2-5.5,21-14,27.1l0.1,0.2C250.2,125.4,255.8,115.4,255.8,104.2z"/>
			<path id="XMLID_4654_" class="st4" d="M253.7,104.2c0,10.6-5.3,19.9-13.3,25.6l0.1,0.2c8.1-5.7,13.4-15.2,13.4-25.8
				c0-3.2-0.5-6.3-1.4-9.2l-0.2,0.1C253.2,98,253.7,101,253.7,104.2z"/>
			<path id="XMLID_4653_" class="st4" d="M251.9,104.2c0,10-5,18.8-12.5,24.2l0.1,0.2c7.6-5.4,12.6-14.3,12.6-24.4
				c0-3-0.4-5.9-1.3-8.6l-0.2,0.1C251.5,98.3,251.9,101.2,251.9,104.2z"/>
			<path id="XMLID_4652_" class="st4" d="M250.1,104.2c0,9.4-4.7,17.7-11.8,22.7l0.1,0.2c7.2-5.1,11.9-13.5,11.9-22.9
				c0-2.8-0.4-5.5-1.2-8.1l-0.2,0.1C249.7,98.7,250.1,101.4,250.1,104.2z"/>
			<path id="XMLID_4651_" class="st4" d="M248.3,104.2c0,8.8-4.4,16.6-11.1,21.3l0.1,0.2c6.7-4.8,11.2-12.6,11.2-21.5
				c0-2.6-0.4-5.1-1.1-7.5l-0.2,0.1C248,99.1,248.3,101.6,248.3,104.2z"/>
			<path id="XMLID_4650_" class="st4" d="M246.8,104.2c0-2.4-0.4-4.7-1-6.9l-0.2,0.1c0.6,2.2,1,4.5,1,6.9c0,8.2-4.1,15.4-10.3,19.8
				l0.1,0.2C242.7,119.7,246.8,112.4,246.8,104.2z"/>
			<path id="XMLID_4649_" class="st4" d="M244.8,104.2c0,7.6-3.8,14.3-9.6,18.4l0.1,0.2c5.9-4.1,9.7-10.9,9.7-18.6
				c0-2.2-0.3-4.4-0.9-6.4l-0.2,0.1C244.4,99.8,244.8,102,244.8,104.2z"/>
			<path id="XMLID_4648_" class="st4" d="M243,104.2c0,7-3.5,13.2-8.8,16.9l0.1,0.2c5.4-3.8,9-10,9-17.1c0-2-0.3-4-0.8-5.8l-0.2,0.1
				C242.7,100.2,243,102.2,243,104.2z"/>
			<path id="XMLID_4647_" class="st4" d="M241.2,104.2c0,6.4-3.2,12.1-8.1,15.5l0.1,0.2c5-3.5,8.2-9.2,8.2-15.7
				c0-1.8-0.3-3.6-0.8-5.3l-0.2,0.1C240.9,100.6,241.2,102.3,241.2,104.2z"/>
			<path id="XMLID_4646_" class="st4" d="M239.4,104.2c0,5.8-2.9,10.9-7.4,14l0.1,0.2c4.5-3.1,7.5-8.3,7.5-14.2
				c0-1.6-0.2-3.2-0.7-4.7l-0.2,0.1C239.2,101,239.4,102.5,239.4,104.2z"/>
			<path id="XMLID_4645_" class="st4" d="M237.9,104.2c0-1.4-0.2-2.8-0.6-4.2l-0.2,0.1c0.4,1.3,0.6,2.7,0.6,4.1
				c0,5.2-2.6,9.8-6.6,12.6l0.1,0.2C235.2,114.1,237.9,109.5,237.9,104.2z"/>
			<path id="XMLID_4644_" class="st4" d="M235.8,104.2c0,4.6-2.3,8.7-5.9,11.1l0.1,0.2c3.6-2.5,6-6.6,6-11.3c0-1.3-0.2-2.5-0.5-3.6
				l-0.2,0.1C235.6,101.7,235.8,102.9,235.8,104.2z"/>
			<path id="XMLID_4643_" class="st4" d="M234,104.2c0,4-2,7.6-5.2,9.7l0.1,0.2c3.2-2.2,5.3-5.8,5.3-9.9c0-1.1-0.2-2.1-0.4-3.1
				l-0.2,0.1C233.9,102.1,234,103.1,234,104.2z"/>
			<path id="XMLID_4642_" class="st4" d="M232.2,104.2c0,3.4-1.8,6.5-4.4,8.2l0.1,0.2c2.7-1.8,4.5-4.9,4.5-8.4
				c0-0.9-0.1-1.7-0.3-2.5l-0.2,0.1C232.1,102.5,232.2,103.3,232.2,104.2z"/>
			<path id="XMLID_4641_" class="st4" d="M230.4,104.2c0,2.8-1.5,5.3-3.7,6.8l0.1,0.2c2.3-1.5,3.8-4.1,3.8-7c0-0.7-0.1-1.3-0.2-2
				l-0.2,0.1C230.4,102.9,230.4,103.5,230.4,104.2z"/>
			<path id="XMLID_4640_" class="st4" d="M228.9,104.2c0-0.5-0.1-1-0.2-1.4l-0.2,0.1c0.1,0.4,0.1,0.9,0.1,1.3c0,2.2-1.2,4.2-2.9,5.3
				l0.1,0.2C227.7,108.5,228.9,106.5,228.9,104.2z"/>
		</g>
		<g id="XMLID_4576_">
			<g id="XMLID_4605_">
				<path id="XMLID_4637_" class="st9" d="M171.3,104.2c0-5.3,0.8-10.4,2.3-15.2l-0.2-0.1c-1.5,4.8-2.3,9.9-2.3,15.2
					c0,17.2,8.5,32.4,21.5,41.7l0.1-0.2C179.7,136.4,171.3,121.3,171.3,104.2z"/>
				<path id="XMLID_4636_" class="st9" d="M173,104.2c0-5.1,0.8-10,2.2-14.6l-0.2-0.1c-1.4,4.6-2.2,9.6-2.2,14.7
					c0,16.6,8.2,31.3,20.8,40.3l0.1-0.2C181.2,135.3,173,120.7,173,104.2z"/>
				<path id="XMLID_4635_" class="st9" d="M174.8,104.2c0-4.9,0.7-9.6,2.1-14.1l-0.2-0.1c-1.4,4.5-2.1,9.2-2.1,14.1
					c0,16,7.9,30.2,20,38.8l0.1-0.2C182.7,134.2,174.8,120.1,174.8,104.2z"/>
				<path id="XMLID_4634_" class="st9" d="M176.6,104.2c0-4.7,0.7-9.2,2-13.5l-0.2-0.1c-1.3,4.3-2.1,8.9-2.1,13.6
					c0,15.4,7.6,29,19.3,37.4l0.1-0.2C184.2,133,176.6,119.5,176.6,104.2z"/>
				<path id="XMLID_4633_" class="st9" d="M196.7,140.1l0.1-0.2c-11.2-8-18.4-21-18.4-35.7c0-4.5,0.7-8.9,2-13l-0.2-0.1
					c-1.3,4.1-2,8.5-2,13C178.2,119,185.5,132.1,196.7,140.1z"/>
				<path id="XMLID_4632_" class="st9" d="M180.2,104.2c0-4.3,0.7-8.5,1.9-12.4l-0.2-0.1c-1.2,3.9-1.9,8.1-1.9,12.5
					c0,14.2,7,26.8,17.8,34.5l0.1-0.2C187.2,130.8,180.2,118.3,180.2,104.2z"/>
				<path id="XMLID_4631_" class="st9" d="M182,104.2c0-4.1,0.6-8.1,1.8-11.9l-0.2-0.1c-1.2,3.8-1.8,7.8-1.8,11.9
					c0,13.6,6.7,25.7,17.1,33l0.1-0.2C188.7,129.7,182,117.7,182,104.2z"/>
				<path id="XMLID_4630_" class="st9" d="M183.8,104.2c0-3.9,0.6-7.7,1.7-11.3l-0.2-0.1c-1.1,3.6-1.7,7.4-1.7,11.4
					c0,13,6.5,24.6,16.3,31.6l0.1-0.2C190.2,128.6,183.8,117.1,183.8,104.2z"/>
				<path id="XMLID_4629_" class="st9" d="M185.6,104.2c0-3.7,0.6-7.3,1.6-10.7l-0.2-0.1c-1,3.4-1.6,7.1-1.6,10.8
					c0,12.4,6.2,23.4,15.6,30.2l0.1-0.2C191.7,127.4,185.6,116.5,185.6,104.2z"/>
				<path id="XMLID_4628_" class="st9" d="M202,132.9l0.1-0.2c-8.9-6.3-14.8-16.8-14.8-28.5c0-3.5,0.5-7,1.5-10.2l-0.2-0.1
					c-1,3.3-1.5,6.7-1.5,10.3C187.1,116,193,126.5,202,132.9z"/>
				<path id="XMLID_4627_" class="st9" d="M189.1,104.2c0-3.4,0.5-6.6,1.4-9.6l-0.2-0.1c-0.9,3.1-1.4,6.3-1.4,9.7
					c0,11.2,5.6,21.2,14.1,27.3l0.1-0.2C194.7,125.2,189.1,115.3,189.1,104.2z"/>
				<path id="XMLID_4626_" class="st9" d="M190.9,104.2c0-3.2,0.5-6.2,1.3-9.1L192,95c-0.9,2.9-1.4,6-1.4,9.2
					c0,10.6,5.3,20.1,13.4,25.8l0.1-0.2C196.2,124.1,190.9,114.7,190.9,104.2z"/>
				<path id="XMLID_4625_" class="st9" d="M192.7,104.2c0-3,0.4-5.8,1.3-8.5l-0.2-0.1c-0.8,2.7-1.3,5.6-1.3,8.6
					c0,10.1,5,19,12.6,24.4l0.1-0.2C197.7,123,192.7,114.1,192.7,104.2z"/>
				<path id="XMLID_4623_" class="st9" d="M194.5,104.2c0-2.8,0.4-5.4,1.2-8l-0.2-0.1c-0.8,2.6-1.2,5.3-1.2,8.1
					c0,9.5,4.7,17.8,11.9,22.9l0.1-0.2C199.2,121.8,194.5,113.5,194.5,104.2z"/>
				<path id="XMLID_4622_" class="st9" d="M207.2,125.6l0.1-0.2c-6.7-4.7-11.1-12.5-11.1-21.3c0-2.6,0.4-5.1,1.1-7.4l-0.2-0.1
					c-0.7,2.4-1.1,4.9-1.1,7.5C196.1,113,200.5,120.9,207.2,125.6z"/>
				<path id="XMLID_4620_" class="st9" d="M198.1,104.2c0-2.4,0.4-4.7,1-6.9l-0.2-0.1c-0.7,2.2-1,4.5-1,6.9c0,8.3,4.1,15.6,10.4,20
					l0.1-0.2C202.2,119.6,198.1,112.3,198.1,104.2z"/>
				<path id="XMLID_4619_" class="st9" d="M199.9,104.2c0-2.2,0.3-4.3,0.9-6.3l-0.2-0.1c-0.6,2-0.9,4.2-0.9,6.4
					c0,7.7,3.8,14.5,9.7,18.6l0.1-0.2C203.7,118.5,199.9,111.8,199.9,104.2z"/>
				<path id="XMLID_4617_" class="st9" d="M201.7,104.2c0-2,0.3-3.9,0.8-5.8l-0.2-0.1c-0.5,1.9-0.8,3.8-0.8,5.8
					c0,7.1,3.5,13.3,9,17.1l0.1-0.2C205.2,117.3,201.7,111.2,201.7,104.2z"/>
				<path id="XMLID_4616_" class="st9" d="M203.5,104.2c0-1.8,0.3-3.6,0.7-5.2l-0.2-0.1c-0.5,1.7-0.8,3.5-0.8,5.3
					c0,6.5,3.3,12.2,8.2,15.7l0.1-0.2C206.7,116.2,203.5,110.6,203.5,104.2z"/>
				<path id="XMLID_4614_" class="st9" d="M212.5,118.4l0.1-0.2c-4.4-3.1-7.4-8.2-7.4-14c0-1.6,0.2-3.2,0.7-4.7l-0.2-0.1
					c-0.4,1.5-0.7,3.1-0.7,4.7C205,110.1,208,115.3,212.5,118.4z"/>
				<path id="XMLID_4613_" class="st9" d="M207,104.2c0-1.4,0.2-2.8,0.6-4.1l-0.2-0.1c-0.4,1.3-0.6,2.7-0.6,4.2
					c0,5.3,2.7,10,6.7,12.8l0.1-0.2C209.7,114,207,109.4,207,104.2z"/>
				<path id="XMLID_4611_" class="st9" d="M208.8,104.2c0-1.2,0.2-2.4,0.5-3.5l-0.2-0.1c-0.3,1.2-0.5,2.4-0.5,3.6
					c0,4.7,2.4,8.9,6,11.3l0.1-0.2C211.2,112.9,208.8,108.8,208.8,104.2z"/>
				<path id="XMLID_4610_" class="st9" d="M210.6,104.2c0-1,0.1-2,0.4-3l-0.2-0.1c-0.3,1-0.4,2-0.4,3.1c0,4.1,2.1,7.7,5.3,9.9
					l0.1-0.2C212.7,111.7,210.6,108.2,210.6,104.2z"/>
				<path id="XMLID_4608_" class="st9" d="M212.4,104.2c0-0.8,0.1-1.7,0.3-2.4l-0.2-0.1c-0.2,0.8-0.3,1.6-0.3,2.5
					c0,3.5,1.8,6.6,4.5,8.4l0.1-0.2C214.2,110.6,212.4,107.6,212.4,104.2z"/>
				<path id="XMLID_4607_" class="st9" d="M217.7,111.2l0.1-0.2c-2.2-1.5-3.7-4-3.7-6.8c0-0.7,0.1-1.3,0.2-1.9l-0.2-0.1
					c-0.2,0.6-0.2,1.3-0.2,2C214,107.1,215.5,109.7,217.7,111.2z"/>
				<path id="XMLID_4606_" class="st9" d="M216,104.2c0-0.5,0.1-0.9,0.1-1.3l-0.2-0.1c-0.1,0.5-0.2,0.9-0.2,1.4c0,2.3,1.2,4.4,3,5.5
					l0.1-0.2C217.2,108.4,216,106.4,216,104.2z"/>
			</g>
			<g id="XMLID_4578_">
				<path id="XMLID_4604_" class="st9" d="M222.3,53.1v-0.2c-23,0-42.5,15.2-49,36.1l0.2,0.1C180,68.2,199.4,53.1,222.3,53.1z"/>
				<path id="XMLID_4603_" class="st9" d="M175,89.5l0.2,0.1c6.2-20.1,25-34.7,47.1-34.7v-0.2C200.1,54.6,181.3,69.3,175,89.5z"/>
				<path id="XMLID_4602_" class="st9" d="M222.3,56.7v-0.2c-21.4,0-39.6,14.2-45.6,33.6l0.2,0.1C183,70.7,201,56.7,222.3,56.7z"/>
				<path id="XMLID_4601_" class="st9" d="M222.3,58.5v-0.2c-20.6,0-38.1,13.6-43.9,32.4l0.2,0.1C184.4,72,201.8,58.5,222.3,58.5z"
					/>
				<path id="XMLID_4600_" class="st9" d="M222.3,60.2V60c-19.8,0-36.6,13.1-42.2,31.1l0.2,0.1C185.9,73.3,202.6,60.2,222.3,60.2z"
					/>
				<path id="XMLID_4599_" class="st9" d="M222.3,62v-0.2c-19,0-35.2,12.6-40.5,29.9l0.2,0.1C187.4,74.6,203.4,62,222.3,62z"/>
				<path id="XMLID_4598_" class="st9" d="M183.5,92.2l0.2,0.1c5.1-16.5,20.4-28.5,38.6-28.5v-0.2C204.1,63.6,188.6,75.7,183.5,92.2
					z"/>
				<path id="XMLID_4597_" class="st9" d="M222.3,65.6v-0.2c-17.4,0-32.2,11.6-37.1,27.4l0.2,0.1C190.3,77.1,205,65.6,222.3,65.6z"
					/>
				<path id="XMLID_4596_" class="st9" d="M222.3,67.4v-0.2c-16.6,0-30.8,11-35.4,26.2l0.2,0.1C191.8,78.4,205.8,67.4,222.3,67.4z"
					/>
				<path id="XMLID_4595_" class="st9" d="M222.3,69.2v-0.2c-15.8,0-29.3,10.5-33.7,25l0.2,0.1C193.3,79.6,206.6,69.2,222.3,69.2z"
					/>
				<path id="XMLID_4594_" class="st9" d="M222.3,71v-0.2c-15.1,0-27.8,10-32,23.7l0.2,0.1C194.7,80.9,207.4,71,222.3,71z"/>
				<path id="XMLID_4593_" class="st9" d="M192,95l0.2,0.1c3.9-12.9,15.9-22.3,30-22.3v-0.2C208.1,72.5,196,82,192,95z"/>
				<path id="XMLID_4592_" class="st9" d="M222.3,74.6v-0.2c-13.5,0-24.9,9-28.6,21.2l0.2,0.1C197.7,83.5,209,74.6,222.3,74.6z"/>
				<path id="XMLID_4591_" class="st9" d="M222.3,76.3v-0.2c-12.7,0-23.4,8.4-26.9,20l0.2,0.1C199.1,84.7,209.8,76.3,222.3,76.3z"/>
				<path id="XMLID_4590_" class="st9" d="M222.3,78.1v-0.2c-11.9,0-21.9,7.9-25.2,18.8l0.2,0.1C200.6,86,210.6,78.1,222.3,78.1z"/>
				<path id="XMLID_4589_" class="st9" d="M222.3,79.9v-0.2c-11.1,0-20.5,7.4-23.5,17.5l0.2,0.1C202.1,87.3,211.4,79.9,222.3,79.9z"
					/>
				<path id="XMLID_4588_" class="st9" d="M200.6,97.8l0.2,0.1c2.7-9.3,11.3-16.1,21.5-16.1v-0.2C212,81.5,203.3,88.4,200.6,97.8z"
					/>
				<path id="XMLID_4587_" class="st9" d="M222.3,83.5v-0.2c-9.5,0-17.5,6.4-20.1,15.1l0.2,0.1C205,89.8,212.9,83.5,222.3,83.5z"/>
				<path id="XMLID_4586_" class="st9" d="M222.3,85.3V85c-8.7,0-16.1,5.9-18.4,13.8l0.2,0.1C206.5,91.1,213.7,85.3,222.3,85.3z"/>
				<path id="XMLID_4585_" class="st9" d="M222.3,87.1v-0.2c-7.9,0-14.6,5.3-16.6,12.6l0.2,0.1C207.9,92.3,214.5,87.1,222.3,87.1z"
					/>
				<path id="XMLID_4584_" class="st9" d="M222.3,88.9v-0.2c-7.1,0-13.1,4.8-14.9,11.4l0.2,0.1C209.4,93.6,215.3,88.9,222.3,88.9z"
					/>
				<path id="XMLID_4583_" class="st9" d="M209.1,100.5l0.2,0.1c1.6-5.7,6.8-9.9,13-9.9v-0.2C216,90.4,210.7,94.7,209.1,100.5z"/>
				<path id="XMLID_4582_" class="st9" d="M222.3,92.5v-0.2c-5.5,0-10.2,3.8-11.5,8.9l0.2,0.1C212.4,96.2,216.9,92.5,222.3,92.5z"/>
				<path id="XMLID_4581_" class="st9" d="M222.3,94.2V94c-4.7,0-8.7,3.3-9.8,7.6l0.2,0.1C213.8,97.4,217.7,94.2,222.3,94.2z"/>
				<path id="XMLID_4580_" class="st9" d="M222.3,96v-0.2c-3.9,0-7.2,2.7-8.1,6.4l0.2,0.1C215.3,98.7,218.5,96,222.3,96z"/>
				<path id="XMLID_4579_" class="st9" d="M222.3,97.8v-0.2c-3.1,0-5.8,2.2-6.4,5.2l0.2,0.1C216.8,100,219.3,97.8,222.3,97.8z"/>
			</g>
		</g>
	</g>
	<circle id="XMLID_4574_" class="st5" cx="222.3" cy="104.2" r="36.3"/>
	<rect id="XMLID_33_" x="192.7" y="100.5" class="st10" width="59.2" height="19.5"/>
	<text id="XMLID_4572_" transform="matrix(1 0 0 1 200.5463 107.313)"><tspan x="0" y="0" class="st4 st11 st12">Публичный</tspan><tspan x="10.1" y="10.8" class="st4 st11 st12"> токен</tspan></text>
	<g id="XMLID_2535_">
		<rect id="XMLID_112_" x="205.5" y="186.5" class="st10" width="35.3" height="12.2"/>
		<text id="XMLID_111_" transform="matrix(1 0 0 1 206.4824 195.8424)" class="st13 st14 st15">Биржа 3</text>
	</g>
	<g id="XMLID_2531_">
		
			<rect id="XMLID_120_" x="282" y="135.9" transform="matrix(0.4875 -0.8731 0.8731 0.4875 30.723 336.3239)" class="st10" width="39.7" height="12.2"/>
		<text id="XMLID_119_" transform="matrix(0.4875 -0.8731 0.8732 0.4875 296.5042 158.1621)" class="st13 st14 st15">Биржа 2</text>
	</g>
	<g id="XMLID_953_">
		
			<rect id="XMLID_122_" x="277.6" y="49" transform="matrix(0.5316 0.847 -0.847 0.5316 185.3225 -224.7838)" class="st10" width="36.5" height="12.2"/>
		<text id="XMLID_121_" transform="matrix(0.5316 0.847 -0.847 0.5316 284.3343 42.7736)" class="st13 st14 st15">Биржа 1</text>
	</g>
	<g id="XMLID_469_">
		<path id="XMLID_944_" class="st16" d="M192.5,145.8c-13-9.3-21.4-24.5-21.4-41.7c0-28.3,22.9-51.2,51.2-51.2"/>
		<path id="XMLID_592_" class="st17" d="M252.1,145.8c-8.4,6-18.7,9.5-29.8,9.5c-11.1,0-21.4-3.5-29.8-9.5"/>
		<path id="XMLID_471_" class="st18" d="M271.2,88.9c1.5,4.8,2.3,9.9,2.3,15.2c0,17.2-8.5,32.4-21.4,41.7"/>
		<path id="XMLID_470_" class="st19" d="M222.3,53c23,0,42.4,15.1,48.9,36"/>
	</g>
	<line id="XMLID_466_" class="st20" x1="286.2" y1="60.3" x2="266.2" y2="74.4"/>
	<line id="XMLID_454_" class="st20" x1="222.5" y1="183.5" x2="222.3" y2="157"/>
	<circle id="XMLID_234_" class="st4" cx="222.4" cy="157" r="1.6"/>
	<line id="XMLID_13_" class="st20" x1="292" y1="138.2" x2="270.1" y2="125.2"/>
	<circle id="XMLID_12_" class="st4" cx="270.1" cy="125.2" r="1.6"/>
	<circle id="XMLID_11_" class="st4" cx="266.2" cy="74.4" r="1.6"/>
	<line id="XMLID_2556_" class="st0" x1="282.8" y1="153.7" x2="301.2" y2="121.5"/>
	<line id="XMLID_483_" class="st0" x1="276.5" y1="44.1" x2="296.6" y2="75.2"/>
	<rect id="XMLID_24_" x="91.8" y="86.4" class="st10" width="48.5" height="39.7"/>
	<text id="XMLID_489_" transform="matrix(1 0 0 1 91.81 95.6549)"><tspan x="0" y="0" class="st13 st14 st15">IPCO </tspan><tspan x="0" y="14.7" class="st13 st14 st15">приватного </tspan><tspan x="0" y="29.4" class="st13 st14 st15">токена</tspan></text>
	<line id="XMLID_492_" class="st20" x1="169.4" y1="106.7" x2="145.1" y2="106.7"/>
	<g id="XMLID_485_">
		<g id="XMLID_92_">
			<line id="XMLID_95_" class="st20" x1="145.1" y1="83.8" x2="145.1" y2="84.3"/>
			<line id="XMLID_94_" class="st21" x1="145.1" y1="85.3" x2="145.1" y2="126.9"/>
			<line id="XMLID_93_" class="st20" x1="145.1" y1="127.4" x2="145.1" y2="127.9"/>
		</g>
	</g>
	<circle id="XMLID_10_" class="st4" cx="169.4" cy="106.7" r="1.6"/>
</g>
</svg>
