<?xml version="1.0" encoding="UTF-8" standalone="no"?>
<svg
   xmlns:dc="http://purl.org/dc/elements/1.1/"
   xmlns:cc="http://creativecommons.org/ns#"
   xmlns:rdf="http://www.w3.org/1999/02/22-rdf-syntax-ns#"
   xmlns:svg="http://www.w3.org/2000/svg"
   xmlns="http://www.w3.org/2000/svg"
   viewBox="0 0 325 86.25"
   height="86.25"
   width="325"
   xml:space="preserve"
   version="1.1"
   id="svg2"><metadata
     id="metadata8"><rdf:RDF><cc:Work
         rdf:about=""><dc:format>image/svg+xml</dc:format><dc:type
           rdf:resource="http://purl.org/dc/dcmitype/StillImage" /></cc:Work></rdf:RDF></metadata><defs
     id="defs6"><clipPath
       id="clipPath18"
       clipPathUnits="userSpaceOnUse"><path
         id="path20"
         d="m 0,0 644.867,0 0,690 L 0,690 0,0 Z" /></clipPath><clipPath
       id="clipPath30"
       clipPathUnits="userSpaceOnUse"><path
         id="path32"
         d="m 863.758,175.992 0,-80.992 1724.602,0 0,80.992 -1724.602,0 z" /></clipPath></defs><g
     transform="matrix(1.25,0,0,-1.25,0,86.25)"
     id="g10"><g
       transform="scale(0.1,0.1)"
       id="g12"><g
         id="g14"><g
           clip-path="url(#clipPath18)"
           id="g16"><path
             id="path22"
             style="fill:#1fc9fc;fill-opacity:1;fill-rule:nonzero;stroke:none"
             d="m 230.102,191.547 c -3.176,7.336 7.32,10.48 7.32,10.48 0,0 28.359,2.098 48.297,-29.902 0,0 0.742,0.105 2.015,0.137 l 0.465,1.082 c -0.297,0.019 -0.465,0.031 -0.465,0.031 0.168,0 0.305,-0.012 0.465,-0.012 l 1.973,4.559 c 0,0 2.379,12.078 2.379,17.051 0,4.968 -1.571,9.949 -1.571,9.949 l -17.062,58.738 c 0,0 -3.406,9.961 5.52,13.375 8.921,3.41 12.601,-4.715 12.601,-4.715 0,0 19.164,-53.23 21.254,-59.8 2.109,-6.54 6.832,1.058 6.832,1.058 l -1.039,68.184 c 0,0 -1.316,11.273 10.758,12.332 12.086,1.051 11.035,-16.531 11.035,-16.531 0,0 1.051,-58.727 1.316,-65.563 0.254,-6.836 4.719,-0.785 4.719,-0.785 0,0 15.481,54.535 17.074,60.308 1.559,5.766 4.2,12.059 12.871,10.758 8.645,-1.316 5.231,-19.933 5.231,-19.933 0,0 -13.391,-55.582 -14.168,-59.789 -0.793,-4.196 2.094,-3.414 2.094,-3.414 0,0 26.257,40.906 28.347,43.8 2.121,2.879 6.325,9.176 14.453,4.715 8.125,-4.461 -2.621,-22.297 -2.621,-22.297 0,0 -19.957,-34.875 -21.804,-38.277 -1.825,-3.402 -1.559,-5.512 -1.559,-5.512 l -1.316,-26.754 c -5.231,-36.179 -22.578,-46.152 -22.578,-46.152 L 366.789,0.664063 c -7.066,-0.433594 -14.176,-0.66796925 -21.348,-0.66796925 -15.078,0 -29.91,0.99609425 -44.476,2.87109625 l 3.172,108.96881 c 0,0 -4.731,3.148 -14.176,8.934 -9.441,5.765 -18.375,19.914 -20.477,24.64 -2.101,4.715 -6.832,17.832 -20.488,30.942 -13.656,13.078 -15.758,7.843 -18.894,15.195 z m 279.761,301.031 90.43,85.219 c -13.992,15.281 -29.348,29.293 -45.867,41.859 l -80.86,-86.715 c 0,0 -17.812,4.801 -44.867,-15.398 l -18.324,-16.594 c 0,0 -1.199,-1.535 -4.625,-2.574 -3.418,-1.02 -39.207,-10.766 -39.207,-10.766 0,0 -18.652,-4.621 -16.254,-12.836 2.399,-8.191 9.242,-6.835 12.512,-6.324 3.246,0.508 47.086,10.098 47.086,10.098 0,0 2.406,-1.379 -0.848,-3.594 -3.269,-2.246 -48.297,-29.777 -48.297,-29.777 0,0 -14.379,-9.906 -9.594,-16.403 4.797,-6.496 10.622,-4.113 15.407,-1.367 4.808,2.735 50.504,28.219 50.504,28.219 0,0 6.863,1.027 2.578,-3.59 -4.278,-4.621 -41.953,-43.609 -41.953,-43.609 0,0 -12.157,-10.778 -3.594,-17.961 8.57,-7.176 15.066,1.039 15.066,1.039 l 43.84,45.141 c 0,0 8.043,1.867 5.145,-3.762 -2.918,-5.649 -25.176,-52.836 -25.176,-52.836 0,0 -2.91,-7.703 5.133,-11.285 8.054,-3.582 12.32,5.129 12.32,5.129 l 27.223,49.425 c 0,0 2.23,4.282 5.488,7.512 3.258,3.254 12.668,9.582 12.668,9.582 l 4.266,1.684 c 0.093,-0.106 0.199,-0.211 0.296,-0.309 0,0 -0.105,0.106 -0.289,0.328 l 1.008,0.395 c 0.86,-0.809 1.402,-1.219 1.402,-1.219 -7.894,-33.859 11.969,-50.961 11.969,-50.961 0,0 8.91,-4.781 11.637,2.067 2.738,6.832 -2.047,4.789 -2.406,22.218 -0.34,17.446 5.133,29.082 6.851,33.52 1.731,4.453 5.137,19.5 2.75,29.406 -2.398,9.899 -3.418,15.039 -3.418,15.039 z m -73.972,39.231 c -14.821,14.254 -19.977,28.504 -22.258,33.632 -2.293,5.141 -12,20.528 -22.27,26.782 -10.261,6.293 -15.398,9.707 -15.398,9.707 l 2.504,86.492 C 367.605,689.461 356.57,690 345.422,690 c -12.277,0 -24.395,-0.656 -36.332,-1.898 l 2.949,-82.739 c 0,0 -18.84,-10.832 -24.539,-50.168 l -1.422,-29.078 c 0,0 0.277,-2.289 -1.699,-6 -2.004,-3.695 -23.691,-41.601 -23.691,-41.601 0,0 -11.692,-19.383 -2.852,-24.227 8.836,-4.84 13.398,1.992 15.699,5.129 2.281,3.137 30.824,47.602 30.824,47.602 0,0 3.153,0.859 2.282,-3.707 -0.86,-4.567 -15.407,-64.993 -15.407,-64.993 0,0 -3.714,-20.23 5.7,-21.66 9.41,-1.43 12.273,5.414 13.984,11.688 1.719,6.273 18.543,65.566 18.543,65.566 0,0 4.859,6.559 5.137,-0.859 0.277,-7.418 1.422,-71.266 1.422,-71.266 0,0 -1.145,-19.105 11.988,-17.961 13.125,1.145 11.703,13.406 11.703,13.406 l -1.133,74.102 c 0,0 5.121,8.258 7.414,1.144 2.293,-7.128 23.121,-64.988 23.121,-64.988 0,0 4,-8.84 13.696,-5.129 9.699,3.707 5.996,14.539 5.996,14.539 l -18.559,63.836 c 0,0 -1.707,5.426 -1.707,10.821 0,5.421 2.578,18.531 2.578,18.531 l 2.145,4.949 c 0.168,0 0.328,0 0.508,0 0,0 -0.18,0 -0.5,0.024 l 0.5,1.164 c 1.402,0.043 2.187,0.136 2.187,0.136 21.676,-34.789 52.496,-32.488 52.496,-32.488 0,0 11.418,3.422 7.969,11.391 -3.418,7.988 -5.688,2.3 -20.531,16.543 z m -148.008,-114.493 -44.606,24.5 c 0,0 -3.863,2.004 -6.789,4.93 -2.941,2.934 -8.636,11.414 -8.636,11.414 l -1.528,3.836 c 0.094,0.094 0.18,0.18 0.274,0.274 0,0 -0.106,-0.094 -0.285,-0.254 l -0.352,0.902 c 0.723,0.773 1.105,1.258 1.105,1.258 30.555,-7.098 45.985,10.777 45.985,10.777 0,0 4.316,8.024 -1.867,10.473 -6.176,2.469 -4.321,-1.844 -20.067,-2.164 -15.734,-0.297 -26.226,4.633 -30.25,6.168 -4.019,1.547 -17.601,4.633 -26.535,2.457 -8.953,-2.141 -13.59,-3.071 -13.59,-3.071 L 93.5898,581.082 C 80.5508,567.211 68.6484,552.281 58.0273,536.418 l 86.3007,-80.273 c 0,0 -4.328,-16.043 13.899,-40.387 l 14.972,-16.496 c 0,0 1.391,-1.082 2.324,-4.157 0.911,-3.082 9.719,-35.296 9.719,-35.296 0,0 4.168,-16.797 11.574,-14.645 7.395,2.16 6.164,8.316 5.719,11.254 -0.469,2.934 -9.105,42.387 -9.105,42.387 0,0 1.242,2.16 3.25,-0.762 2.004,-2.926 26.851,-43.469 26.851,-43.469 0,0 8.946,-12.953 14.813,-8.636 5.867,4.32 3.703,9.558 1.23,13.871 -2.461,4.324 -25.465,45.468 -25.465,45.468 0,0 -0.921,6.18 3.239,2.313 4.168,-3.86 39.351,-37.77 39.351,-37.77 0,0 9.731,-10.945 16.203,-3.23 6.481,7.715 -0.937,13.562 -0.937,13.562 l -40.731,39.477 c 0,0 -1.687,7.238 3.395,4.617 5.094,-2.625 47.684,-22.656 47.684,-22.656 0,0 6.949,-2.625 10.183,4.633 3.246,7.246 -4.613,11.093 -4.613,11.093 z m 356.984,-244.418 -55.715,51.829 c 0,0 5.657,20.972 -18.175,52.804 l -19.575,21.578 c 0,0 -1.812,1.407 -3.043,5.426 -1.191,4.035 -12.703,46.16 -12.703,46.16 0,0 -5.441,21.957 -15.14,19.137 -9.676,-2.82 -8.063,-10.871 -7.457,-14.719 0.605,-3.824 11.902,-55.422 11.902,-55.422 0,0 -1.621,-2.839 -4.242,1.004 -2.621,3.828 -35.11,56.844 -35.11,56.844 0,0 -11.703,16.934 -19.375,11.285 -7.668,-5.648 -4.836,-12.492 -1.589,-18.14 3.226,-5.649 33.285,-59.45 33.285,-59.45 0,0 1.207,-8.086 -4.223,-3.019 -5.465,5.055 -51.461,49.383 -51.461,49.383 0,0 -12.719,14.304 -21.199,4.226 -8.488,-10.078 1.211,-17.738 1.211,-17.738 l 53.273,-51.598 c 0,0 2.207,-9.472 -4.445,-6.05 -6.664,3.433 -62.356,29.64 -62.356,29.64 0,0 -9.082,3.422 -13.328,-6.051 -4.222,-9.476 6.051,-14.507 6.051,-14.507 l 58.32,-32.036 c 0,0 5.043,-2.629 8.86,-6.433 3.844,-3.836 11.301,-14.93 11.301,-14.93 l 1.996,-5.012 c -0.117,-0.129 -0.223,-0.246 -0.364,-0.371 0,0 0.141,0.125 0.383,0.336 l 0.469,-1.176 c -0.957,-1.015 -1.453,-1.64 -1.453,-1.64 -39.949,9.293 -60.129,-14.094 -60.129,-14.094 0,0 -5.656,-10.48 2.43,-13.68 8.062,-3.234 5.656,2.403 26.238,2.817 20.562,0.394 34.293,-6.039 39.543,-8.063 5.262,-2.015 23.016,-6.043 34.707,-3.222 11.711,2.808 17.769,4.015 17.769,4.015 l 62.305,-65.945 c 15.52,17.422 29.293,36.465 41.039,56.812 z M 184.922,304.809 c 6.726,0.242 64.605,1.281 64.605,1.281 0,0 17.317,-1.027 16.286,10.844 -1.028,11.867 -12.161,10.586 -12.161,10.586 l -67.179,-1.04 c 0,0 -7.493,4.641 -1.043,6.719 6.465,2.067 58.918,20.906 58.918,20.906 0,0 8.023,3.606 4.66,12.387 -3.363,8.778 -13.18,5.426 -13.18,5.426 l -57.887,-16.785 c 0,0 -4.914,-1.547 -9.816,-1.547 -4.91,0 -16.793,2.332 -16.793,2.332 l -4.5,1.941 c 0,0.157 0,0.293 0,0.465 0,0 0,-0.16 -0.019,-0.465 l -1.063,0.465 c -0.031,1.25 -0.129,1.969 -0.129,1.969 31.535,19.605 29.465,47.477 29.465,47.477 0,0 -3.109,10.32 -10.332,7.207 -7.238,-3.094 -2.07,-5.161 -14.984,-18.579 -12.922,-13.414 -25.844,-18.066 -30.493,-20.125 -4.656,-2.066 -18.597,-10.839 -24.2848,-20.132 -5.707,-9.274 -8.7969,-13.934 -8.7969,-13.934 L 0,344.719 c 0.0117188,-21.547 2.02734,-42.614 5.82422,-63.055 l 77.28518,2.734 c 0,0 9.8242,-17.027 45.4846,-22.191 l 26.367,-1.281 c 0,0 2.066,0.246 5.43,-1.547 3.355,-1.813 37.718,-21.426 37.718,-21.426 0,0 17.571,-10.566 21.965,-2.566 4.391,7.992 -1.816,12.125 -4.648,14.199 -2.844,2.059 -43.16,27.871 -43.16,27.871 0,0 -0.766,2.852 3.363,2.066 4.125,-0.785 58.918,-13.933 58.918,-13.933 0,0 18.344,-3.348 19.637,5.148 1.296,8.52 -4.911,11.106 -10.598,12.633 -5.688,1.567 -59.426,16.785 -59.426,16.785 0,0 -5.965,4.41 0.762,4.653" /></g></g><path
         id="path24"
         style="fill:#474749;fill-opacity:1;fill-rule:nonzero;stroke:none"
         d="m 852.121,386.59 0,203.012 19.973,0 0,-199.262 c 0,-24.102 8.308,-44.699 24.926,-61.797 l 0,0 c 16.57,-17.098 36.918,-25.648 61.046,-25.648 l 0,0 c 19.473,0 37.043,5.847 52.714,17.546 l 0,0 c 15.67,11.7 26.03,26.899 31.08,45.598 l 0,223.563 20.05,0 0,-223.563 c 5.76,-18.699 16.47,-33.898 32.14,-45.598 l 0,0 c 15.67,-11.699 33.06,-17.546 52.18,-17.546 l 0,0 c 24.13,0 44.31,8.449 60.52,25.347 l 0,0 c 16.22,16.949 24.33,37.649 24.33,62.098 l 0,199.262 20.05,0 0,-208.414 c 0,-27.348 -10.56,-50.395 -31.68,-69.145 l 0,0 c -21.08,-18.699 -45.48,-28.047 -73.22,-28.047 l 0,0 c -19.82,0 -38.11,5.125 -54.88,15.375 l 0,0 c -16.77,10.246 -29.84,23.848 -39.2,40.797 l 0,0 c -9.36,-17.648 -22.52,-31.426 -39.49,-41.324 l 0,0 c -16.926,-9.899 -35.121,-14.848 -54.594,-14.848 l 0,0 c -28.832,0 -53.687,10.074 -74.562,30.223 l 0,0 c -20.922,20.148 -31.383,44.273 -31.383,72.371 z m 783.379,74.543 -226.01,0 0,19.426 202.21,0 0,0 c -8.66,28.046 -25.23,50.82 -49.71,68.32 l 0,0 c -24.53,17.449 -51.21,26.172 -80.04,26.172 l 0,0 c -34.94,0 -66.38,-13.598 -94.31,-40.797 l 0,0 c -27.93,-27.149 -41.9,-58.922 -41.9,-95.32 l 0,0 c 0,-37.047 13.32,-68.993 39.95,-95.844 l 0,0 c 26.68,-26.797 58.77,-40.195 96.26,-40.195 l 0,0 c 40.75,0 74.64,15.296 101.67,45.898 l 0,0 14.04,-12.977 0,0 c -34.59,-34.546 -73.16,-51.82 -115.71,-51.82 l 0,0 c -42.55,0 -79.04,15.297 -109.48,45.895 l 0,0 c -30.43,30.601 -45.65,66.949 -45.65,109.043 l 0,0 c 0,42.847 15.12,79.394 45.35,109.644 l 0,0 c 30.29,30.246 66.88,45.371 109.78,45.371 l 0,0 c 38.19,0 71.88,-12.597 101.07,-37.797 l 0,0 c 29.23,-25.199 46.73,-56.871 52.48,-95.019 z m 273.54,-147.965 0,0 7.59,-17.324 0,0 c -19.47,-8.25 -39.67,-12.375 -60.6,-12.375 l 0,0 c -41.05,0 -77.26,14.851 -108.65,44.547 l 0,0 c -31.33,29.699 -47,66.672 -47,110.918 l 0,0 c 0,42.148 15.04,78.597 45.12,109.343 l 0,0 c 30.09,30.797 66.93,46.2 110.53,46.2 l 0,0 c 41.45,0 77.77,-14.75 108.95,-44.25 l 0,0 c 31.19,-29.547 46.78,-66.645 46.78,-111.293 l 0,-149.539 -18.92,0 0,153.367 c 0,36.695 -13.79,68.019 -41.37,93.968 l 0,0 c -27.58,25.895 -59.4,38.844 -95.44,38.844 l 0,0 c -36.39,0 -68.28,-13.047 -95.66,-39.144 l 0,0 c -27.38,-26.098 -41.07,-58.598 -41.07,-97.496 l 0,0 c 0,-35.996 13.06,-67.743 39.2,-95.243 l 0,0 c 26.13,-27.546 58.64,-41.32 97.53,-41.32 l 0,0 c 18.02,0 35.69,3.598 53.01,10.797 z M 2253.39,595 l 0,-18.898 c -37.44,0 -69.5,-13.399 -96.18,-40.2 l 0,0 c -26.68,-26.847 -40.03,-58.968 -40.03,-96.367 l 0,-150.14 -18.92,0 0,150.14 c 0,44.996 15.67,82.145 47.01,111.442 l 0,0 C 2176.65,580.324 2212.7,595 2253.39,595 l 0,0 z M 2600,461.133 l -226.02,0 0,19.426 202.21,0 0,0 c -8.66,28.046 -25.25,50.82 -49.78,68.32 l 0,0 c -24.48,17.449 -51.14,26.172 -79.97,26.172 l 0,0 c -34.99,0 -66.45,-13.598 -94.38,-40.797 l 0,0 c -27.93,-27.149 -41.9,-58.922 -41.9,-95.32 l 0,0 c 0,-37.047 13.34,-68.993 40.02,-95.844 l 0,0 c 26.68,-26.797 58.77,-40.195 96.26,-40.195 l 0,0 c 40.7,0 74.56,15.296 101.6,45.898 l 0,0 14.11,-12.977 0,0 c -34.64,-34.546 -73.21,-51.82 -115.71,-51.82 l 0,0 c -42.55,0 -79.04,15.297 -109.48,45.895 l 0,0 c -30.48,30.601 -45.72,66.949 -45.72,109.043 l 0,0 c 0,42.847 15.14,79.394 45.42,109.644 l 0,0 c 30.29,30.246 66.88,45.371 109.78,45.371 l 0,0 c 38.2,0 71.88,-12.597 101.07,-37.797 l 0,0 c 29.18,-25.199 46.68,-56.871 52.49,-95.019" /><g
         id="g26"><g
           clip-path="url(#clipPath30)"
           id="g28"><path
             id="path34"
             style="fill:#474749;fill-opacity:1;fill-rule:nonzero;stroke:none"
             d="m 863.758,121.996 0,21.598 c 0,7.492 2.648,13.859 7.945,19.109 l 0,0 c 5.293,5.262 11.656,7.891 19.086,7.891 l 0,0 c 7.348,0 13.727,-2.629 19.133,-7.891 l 0,0 c 0.801,-0.859 1.199,-1.883 1.199,-3.074 l 0,0 c 0,-1.191 -0.398,-2.215 -1.199,-3.074 l 0,0 c -0.863,-0.789 -1.887,-1.184 -3.078,-1.184 l 0,0 c -1.192,0 -2.219,0.395 -3.078,1.184 l 0,0 c -3.606,3.597 -7.93,5.398 -12.977,5.398 l 0,0 c -5.117,0 -9.461,-1.801 -13.035,-5.398 l 0,0 c -3.563,-3.602 -5.348,-7.922 -5.348,-12.961 l 0,-21.598 c 0,-5.039 1.785,-9.359 5.348,-12.957 l 0,0 c 3.574,-3.601 7.918,-5.402 13.035,-5.402 l 0,0 c 5.047,0 9.371,1.801 12.977,5.402 l 0,0 c 0.859,0.789 1.886,1.184 3.078,1.184 l 0,0 c 1.191,0 2.215,-0.395 3.078,-1.184 l 0,0 c 0.801,-0.863 1.199,-1.887 1.199,-3.078 l 0,0 c 0,-1.188 -0.398,-2.215 -1.199,-3.074 l 0,0 C 904.516,97.6289 898.137,95 890.789,95 l 0,0 c -7.43,0 -13.793,2.6289 -19.086,7.887 l 0,0 c -5.297,5.25 -7.945,11.621 -7.945,19.109 z m 109.101,-4.32 -40.546,0 0,0 c 1.011,-4.098 3.152,-7.465 6.425,-10.094 l 0,0 c 3.285,-2.629 7.09,-3.945 11.414,-3.945 l 0,0 c 5.047,0 9.371,1.801 12.977,5.402 l 0,0 c 0.859,0.789 1.887,1.184 3.078,1.184 l 0,0 c 1.191,0 2.219,-0.395 3.078,-1.184 l 0,0 c 0.789,-0.863 1.188,-1.887 1.188,-3.078 l 0,0 c 0,-1.188 -0.399,-2.215 -1.188,-3.074 l 0,0 C 963.879,97.6289 957.5,95 950.152,95 l 0,0 c -7.429,0 -13.789,2.6289 -19.086,7.887 l 0,0 c -5.296,5.25 -7.945,11.621 -7.945,19.109 l 0,0 c 0,7.488 2.649,13.859 7.945,19.109 l 0,0 c 5.297,5.258 11.657,7.891 19.086,7.891 l 0,0 c 7.418,0 13.782,-2.633 19.086,-7.891 l 0,0 c 5.297,-5.25 7.946,-11.621 7.946,-19.109 l 0,0 c 0,-1.148 -0.414,-2.16 -1.246,-3.031 l 0,0 c -0.833,-0.86 -1.856,-1.289 -3.079,-1.289 z m -40.546,8.64 35.679,0 0,0 c -1.012,4.098 -3.156,7.465 -6.441,10.094 l 0,0 c -3.274,2.629 -7.074,3.945 -11.399,3.945 l 0,0 c -4.324,0 -8.129,-1.316 -11.414,-3.945 l 0,0 c -3.273,-2.629 -5.414,-5.996 -6.425,-10.094 z m 102.177,-26.9996 0,22.6796 c 0,5.039 -1.79,9.359 -5.36,12.961 l 0,0 c -3.56,3.598 -7.9,5.398 -13.02,5.398 l 0,0 c -5.12,0 -9.46,-1.8 -13.04,-5.398 l 0,0 c -3.558,-3.602 -5.343,-7.922 -5.343,-12.961 l 0,-22.6796 c 0,-1.1484 -0.414,-2.1601 -1.247,-3.0273 l 0,0 C 995.652,95.4297 994.625,95 993.402,95 l 0,0 c -1.23,0 -2.257,0.4297 -3.078,1.2891 l 0,0 c -0.832,0.8672 -1.246,1.8789 -1.246,3.0273 l 0,45.3596 c 0,1.148 0.414,2.16 1.246,3.027 l 0,0 c 0.821,0.863 1.848,1.293 3.078,1.293 l 0,0 c 1.223,0 2.25,-0.43 3.078,-1.293 l 0,0 c 0.833,-0.867 1.247,-1.879 1.247,-3.027 l 0,-2.91 c 5.183,4.82 11.313,7.23 18.383,7.23 l 0,0 c 7.42,0 13.78,-2.633 19.09,-7.891 l 0,0 c 5.29,-5.25 7.94,-11.621 7.94,-19.109 l 0,-22.6796 c 0,-1.1484 -0.41,-2.1601 -1.25,-3.0273 l 0,0 C 1041.06,95.4297 1040.04,95 1038.82,95 l 0,0 c -1.23,0 -2.26,0.4297 -3.08,1.2891 l 0,0 c -0.83,0.8672 -1.25,1.8789 -1.25,3.0273 z m 41.09,41.0386 -11.9,0 0,-29.16 c 0,-2.09 0.74,-3.867 2.21,-5.336 l 0,0 c 1.49,-1.48 3.27,-2.222 5.36,-2.222 l 0,0 c 2.09,0 3.9,0.758 5.41,2.265 l 0,0 c 0.79,0.789 1.78,1.184 2.97,1.184 l 0,0 c 1.19,0 2.22,-0.395 3.08,-1.184 l 0,0 c 0.86,-0.859 1.29,-1.882 1.29,-3.074 l 0,0 c 0,-1.191 -0.43,-2.215 -1.29,-3.0741 l 0,0 C 1079.54,96.582 1075.72,95 1071.25,95 l 0,0 c -4.47,0 -8.29,1.582 -11.46,4.7539 l 0,0 c -3.17,3.1681 -4.75,6.9841 -4.75,11.4411 l 0,55.078 c 0,1.149 0.41,2.161 1.24,3.032 l 0,0 c 0.82,0.859 1.85,1.289 3.08,1.289 l 0,0 c 1.22,0 2.25,-0.43 3.08,-1.289 l 0,0 c 0.83,-0.871 1.24,-1.883 1.24,-3.032 l 0,-17.277 11.9,0 0,0 c 1.22,0 2.24,-0.43 3.08,-1.293 l 0,0 c 0.83,-0.867 1.24,-1.879 1.24,-3.027 l 0,0 c 0,-1.153 -0.41,-2.16 -1.24,-3.031 l 0,0 c -0.84,-0.86 -1.86,-1.29 -3.08,-1.29 l 0,0 z m 20.32,-41.0386 0,45.3596 c 0,1.148 0.41,2.16 1.24,3.027 l 0,0 c 0.83,0.863 1.86,1.293 3.08,1.293 l 0,0 c 1.23,0 2.26,-0.43 3.1,-1.293 l 0,0 c 0.82,-0.867 1.23,-1.879 1.23,-3.027 l 0,-2.91 c 5.19,4.82 11.32,7.23 18.38,7.23 l 0,0 c 1.23,0 2.26,-0.43 3.09,-1.293 l 0,0 c 0.82,-0.867 1.23,-1.879 1.23,-3.027 l 0,0 c 0,-1.153 -0.41,-2.16 -1.23,-3.031 l 0,0 c -0.83,-0.86 -1.86,-1.29 -3.09,-1.29 l 0,0 c -5.12,0 -9.46,-1.8 -13.02,-5.398 l 0,0 c -3.58,-3.602 -5.36,-7.922 -5.36,-12.961 l 0,-22.6796 c 0,-1.1484 -0.41,-2.1601 -1.23,-3.0273 l 0,0 C 1102.48,95.4297 1101.45,95 1100.22,95 l 0,0 c -1.22,0 -2.25,0.4297 -3.08,1.2891 l 0,0 c -0.83,0.8672 -1.24,1.8789 -1.24,3.0273 z m 88.66,0 0,2.9106 C 1179.38,97.4063 1173.25,95 1166.18,95 l 0,0 c -7.42,0 -13.78,2.6289 -19.07,7.887 l 0,0 c -5.31,5.25 -7.96,11.621 -7.96,19.109 l 0,0 c 0,7.488 2.65,13.859 7.96,19.109 l 0,0 c 5.29,5.258 11.65,7.891 19.07,7.891 l 0,0 c 7.43,0 13.79,-2.633 19.09,-7.891 l 0,0 c 5.29,-5.25 7.94,-11.621 7.94,-19.109 l 0,-22.6796 c 0,-1.1484 -0.41,-2.1601 -1.23,-3.0273 l 0,0 C 1191.15,95.4297 1190.12,95 1188.88,95 l 0,0 c -1.22,0 -2.24,0.4297 -3.08,1.2891 l 0,0 c -0.82,0.8672 -1.24,1.8789 -1.24,3.0273 z m -31.4,9.7226 0,0 c 3.56,-3.601 7.9,-5.402 13.02,-5.402 l 0,0 c 5.12,0 9.47,1.801 13.03,5.402 l 0,0 c 3.57,3.598 5.35,7.918 5.35,12.957 l 0,0 c 0,5.039 -1.78,9.359 -5.35,12.961 l 0,0 c -3.56,3.598 -7.91,5.398 -13.03,5.398 l 0,0 c -5.12,0 -9.46,-1.8 -13.02,-5.398 l 0,0 c -3.58,-3.602 -5.36,-7.922 -5.36,-12.961 l 0,0 c 0,-5.039 1.78,-9.359 5.36,-12.957 z m 60.59,62.633 0,-72.3556 c 0,-1.1484 -0.41,-2.1601 -1.23,-3.0273 l 0,0 C 1211.69,95.4297 1210.66,95 1209.43,95 l 0,0 c -1.22,0 -2.25,0.4297 -3.08,1.2891 l 0,0 c -0.83,0.8672 -1.25,1.8789 -1.25,3.0273 l 0,72.3556 c 0,1.152 0.42,2.16 1.25,3.031 l 0,0 c 0.83,0.86 1.86,1.289 3.08,1.289 l 0,0 c 1.23,0 2.26,-0.429 3.09,-1.289 l 0,0 c 0.82,-0.871 1.23,-1.879 1.23,-3.031 z m 20.23,-2.488 0,0 c 0.93,-0.93 1.4,-2.082 1.4,-3.45 l 0,0 c 0,-1.371 -0.47,-2.519 -1.4,-3.449 l 0,0 c -0.94,-0.941 -2.1,-1.41 -3.47,-1.41 l 0,0 c -1.36,0 -2.51,0.469 -3.45,1.41 l 0,0 c -0.94,0.93 -1.41,2.078 -1.41,3.449 l 0,0 c 0,1.368 0.47,2.52 1.41,3.45 l 0,0 c 0.94,0.941 2.09,1.41 3.45,1.41 l 0,0 c 1.37,0 2.53,-0.469 3.47,-1.41 z m -7.79,-69.8676 0,45.3596 c 0,1.148 0.44,2.16 1.3,3.027 l 0,0 c 0.87,0.863 1.87,1.293 3.02,1.293 l 0,0 c 1.17,0 2.17,-0.43 3.04,-1.293 l 0,0 c 0.86,-0.867 1.29,-1.879 1.29,-3.027 l 0,-45.3596 c 0,-1.1484 -0.43,-2.1601 -1.29,-3.0273 l 0,0 C 1232.68,95.4297 1231.68,95 1230.51,95 l 0,0 c -1.15,0 -2.15,0.4297 -3.02,1.2891 l 0,0 c -0.86,0.8672 -1.3,1.8789 -1.3,3.0273 z M 1297.01,95 l -45.41,0 0,0 c -1.22,0 -2.23,0.4297 -3.02,1.2891 l 0,0 c -0.87,0.8007 -1.31,1.8086 -1.31,3.0273 l 0,0 c 0,1.2226 0.44,2.2306 1.31,3.0316 l 0,0 37.95,38.007 -34.93,0 0,0 c -1.22,0 -2.25,0.43 -3.08,1.29 l 0,0 c -0.83,0.871 -1.25,1.878 -1.25,3.031 l 0,0 c 0,1.148 0.42,2.16 1.25,3.027 l 0,0 c 0.83,0.863 1.86,1.293 3.08,1.293 l 45.41,0 0,0 c 1.16,0 2.17,-0.43 3.03,-1.293 l 0,0 c 0.86,-0.797 1.3,-1.808 1.3,-3.027 l 0,0 c 0,-1.219 -0.44,-2.231 -1.3,-3.031 l 0,0 -37.95,-38.008 34.92,0 0,0 c 1.23,0 2.26,-0.43 3.09,-1.289 l 0,0 c 0.83,-0.871 1.24,-1.879 1.24,-3.0316 l 0,0 c 0,-1.1484 -0.41,-2.1601 -1.24,-3.0273 l 0,0 C 1299.27,95.4297 1298.24,95 1297.01,95 Z m 65.95,22.676 -40.54,0 0,0 c 1.01,-4.098 3.16,-7.465 6.44,-10.094 l 0,0 c 3.28,-2.629 7.07,-3.945 11.4,-3.945 l 0,0 c 5.04,0 9.37,1.801 12.97,5.402 l 0,0 c 0.88,0.789 1.91,1.184 3.1,1.184 l 0,0 c 1.18,0 2.21,-0.395 3.08,-1.184 l 0,0 c 0.79,-0.863 1.18,-1.887 1.18,-3.078 l 0,0 c 0,-1.188 -0.39,-2.215 -1.18,-3.074 l 0,0 C 1354,97.6289 1347.62,95 1340.26,95 l 0,0 c -7.42,0 -13.78,2.6289 -19.07,7.887 l 0,0 c -5.31,5.25 -7.96,11.621 -7.96,19.109 l 0,0 c 0,7.488 2.65,13.859 7.96,19.109 l 0,0 c 5.29,5.258 11.65,7.891 19.07,7.891 l 0,0 c 7.43,0 13.79,-2.633 19.09,-7.891 l 0,0 c 5.29,-5.25 7.94,-11.621 7.94,-19.109 l 0,0 c 0,-1.148 -0.41,-2.16 -1.23,-3.031 l 0,0 c -0.83,-0.86 -1.86,-1.289 -3.1,-1.289 z m -40.54,8.64 35.68,0 0,0 c -1,4.098 -3.14,7.465 -6.43,10.094 l 0,0 c -3.28,2.629 -7.08,3.945 -11.41,3.945 l 0,0 c -4.33,0 -8.12,-1.316 -11.4,-3.945 l 0,0 c -3.28,-2.629 -5.43,-5.996 -6.44,-10.094 z m 110.83,45.356 0,-72.3556 c 0,-1.1484 -0.41,-2.1601 -1.23,-3.0273 l 0,0 C 1431.18,95.4297 1430.15,95 1428.92,95 l 0,0 c -1.22,0 -2.24,0.4297 -3.08,1.2891 l 0,0 c -0.83,0.8672 -1.24,1.8789 -1.24,3.0273 l 0,2.9106 C 1419.41,97.4063 1413.29,95 1406.21,95 l 0,0 c -7.41,0 -13.77,2.6289 -19.07,7.887 l 0,0 c -5.3,5.25 -7.96,11.621 -7.96,19.109 l 0,0 c 0,7.488 2.66,13.859 7.96,19.109 l 0,0 c 5.3,5.258 11.66,7.891 19.07,7.891 l 0,0 c 7.08,0 13.2,-2.41 18.39,-7.23 l 0,29.906 c 0,1.152 0.41,2.16 1.24,3.031 l 0,0 c 0.84,0.86 1.86,1.289 3.08,1.289 l 0,0 c 1.23,0 2.26,-0.429 3.1,-1.289 l 0,0 c 0.82,-0.871 1.23,-1.879 1.23,-3.031 l 0,0 z m -40.05,-62.633 0,0 c 3.56,-3.601 7.9,-5.402 13.01,-5.402 l 0,0 c 5.13,0 9.48,1.801 13.04,5.402 l 0,0 c 3.57,3.598 5.35,7.918 5.35,12.957 l 0,0 c 0,5.039 -1.78,9.359 -5.35,12.961 l 0,0 c -3.56,3.598 -7.91,5.398 -13.04,5.398 l 0,0 c -5.11,0 -9.45,-1.8 -13.01,-5.398 l 0,0 c -3.58,-3.602 -5.36,-7.922 -5.36,-12.961 l 0,0 c 0,-5.039 1.78,-9.359 5.36,-12.957 z M 1472.17,95 l -22.71,0 0,0 c -1.21,0 -2.24,0.4297 -3.07,1.2891 l 0,0 c -0.83,0.8672 -1.25,1.8789 -1.25,3.0273 l 0,66.9566 c 0,1.149 0.42,2.161 1.25,3.032 l 0,0 c 0.83,0.859 1.86,1.289 3.07,1.289 l 22.71,0 0,0 c 7.43,0 13.79,-2.629 19.09,-7.891 l 0,0 c 5.29,-5.25 7.94,-11.617 7.94,-19.109 l 0,-21.598 c 0,-7.488 -2.65,-13.859 -7.94,-19.109 l 0,0 C 1485.96,97.6289 1479.6,95 1472.17,95 Z m 18.38,26.996 0,21.598 c 0,5.039 -1.78,9.359 -5.34,12.961 l 0,0 c -3.57,3.597 -7.91,5.398 -13.04,5.398 l -18.38,0 0,-58.316 18.38,0 0,0 c 5.13,0 9.47,1.801 13.04,5.402 l 0,0 c 3.56,3.598 5.34,7.918 5.34,12.957 z m 70.29,-4.32 -40.55,0 0,0 c 1.01,-4.098 3.16,-7.465 6.44,-10.094 l 0,0 c 3.27,-2.629 7.07,-3.945 11.4,-3.945 l 0,0 c 5.05,0 9.37,1.801 12.98,5.402 l 0,0 c 0.87,0.789 1.9,1.184 3.09,1.184 l 0,0 c 1.18,0 2.21,-0.395 3.08,-1.184 l 0,0 c 0.79,-0.863 1.18,-1.887 1.18,-3.078 l 0,0 c 0,-1.188 -0.39,-2.215 -1.18,-3.074 l 0,0 C 1551.87,97.6289 1545.49,95 1538.13,95 l 0,0 c -7.42,0 -13.78,2.6289 -19.07,7.887 l 0,0 c -5.31,5.25 -7.96,11.621 -7.96,19.109 l 0,0 c 0,7.488 2.65,13.859 7.96,19.109 l 0,0 c 5.29,5.258 11.65,7.891 19.07,7.891 l 0,0 c 7.43,0 13.79,-2.633 19.08,-7.891 l 0,0 c 5.3,-5.25 7.95,-11.621 7.95,-19.109 l 0,0 c 0,-1.148 -0.41,-2.16 -1.23,-3.031 l 0,0 c -0.83,-0.86 -1.86,-1.289 -3.09,-1.289 z m -40.55,8.64 35.68,0 0,0 c -1,4.098 -3.15,7.465 -6.43,10.094 l 0,0 c -3.28,2.629 -7.09,3.945 -11.41,3.945 l 0,0 c -4.33,0 -8.13,-1.316 -11.4,-3.945 l 0,0 c -3.28,-2.629 -5.43,-5.996 -6.44,-10.094 z m 102.94,-23.429 0,0 C 1617.83,97.6289 1611.45,95 1604.09,95 l 0,0 c -7.42,0 -13.78,2.6289 -19.08,7.887 l 0,0 c -5.3,5.25 -7.96,11.621 -7.96,19.109 l 0,0 c 0,7.488 2.66,13.859 7.96,19.109 l 0,0 c 5.3,5.258 11.66,7.891 19.08,7.891 l 0,0 c 7.36,0 13.74,-2.633 19.14,-7.891 l 0,0 c 0.79,-0.859 1.19,-1.886 1.19,-3.074 l 0,0 c 0,-1.191 -0.4,-2.215 -1.19,-3.074 l 0,0 c -0.87,-0.793 -1.89,-1.187 -3.08,-1.187 l 0,0 c -1.19,0 -2.22,0.394 -3.09,1.187 l 0,0 c -3.6,3.598 -7.93,5.398 -12.97,5.398 l 0,0 c -5.12,0 -9.46,-1.8 -13.02,-5.398 l 0,0 c -3.58,-3.602 -5.37,-7.922 -5.37,-12.961 l 0,0 c 0,-5.039 1.79,-9.359 5.37,-12.957 l 0,0 c 3.56,-3.601 7.9,-5.402 13.02,-5.402 l 0,0 c 5.04,0 9.37,1.801 12.97,5.402 l 0,0 c 0.87,0.789 1.9,1.184 3.09,1.184 l 0,0 c 1.19,0 2.21,-0.395 3.08,-1.184 l 0,0 c 0.79,-0.863 1.19,-1.887 1.19,-3.078 l 0,0 c 0,-1.188 -0.4,-2.215 -1.19,-3.074 z m 62.93,14.789 -40.55,0 0,0 c 1.01,-4.098 3.16,-7.465 6.44,-10.094 l 0,0 c 3.27,-2.629 7.08,-3.945 11.4,-3.945 l 0,0 c 5.05,0 9.37,1.801 12.98,5.402 l 0,0 c 0.87,0.789 1.89,1.184 3.07,1.184 l 0,0 c 1.2,0 2.23,-0.395 3.1,-1.184 l 0,0 c 0.79,-0.863 1.18,-1.887 1.18,-3.078 l 0,0 c 0,-1.188 -0.39,-2.215 -1.18,-3.074 l 0,0 C 1677.19,97.6289 1670.81,95 1663.45,95 l 0,0 c -7.42,0 -13.78,2.6289 -19.09,7.887 l 0,0 c -5.29,5.25 -7.94,11.621 -7.94,19.109 l 0,0 c 0,7.488 2.65,13.859 7.94,19.109 l 0,0 c 5.31,5.258 11.67,7.891 19.09,7.891 l 0,0 c 7.43,0 13.79,-2.633 19.09,-7.891 l 0,0 c 5.29,-5.25 7.94,-11.621 7.94,-19.109 l 0,0 c 0,-1.148 -0.41,-2.16 -1.25,-3.031 l 0,0 c -0.82,-0.86 -1.84,-1.289 -3.07,-1.289 z m -40.55,8.64 35.68,0 0,0 c -1.01,4.098 -3.15,7.465 -6.43,10.094 l 0,0 c -3.28,2.629 -7.09,3.945 -11.41,3.945 l 0,0 c -4.32,0 -8.13,-1.316 -11.4,-3.945 l 0,0 c -3.28,-2.629 -5.43,-5.996 -6.44,-10.094 z m 102.18,-26.9996 0,22.6796 c 0,5.039 -1.79,9.359 -5.35,12.961 l 0,0 c -3.57,3.598 -7.92,5.398 -13.03,5.398 l 0,0 c -5.12,0 -9.46,-1.8 -13.02,-5.398 l 0,0 c -3.58,-3.602 -5.37,-7.922 -5.37,-12.961 l 0,-22.6796 c 0,-1.1484 -0.41,-2.1601 -1.24,-3.0273 l 0,0 C 1708.96,95.4297 1707.93,95 1706.7,95 l 0,0 c -1.22,0 -2.25,0.4297 -3.08,1.2891 l 0,0 c -0.83,0.8672 -1.24,1.8789 -1.24,3.0273 l 0,45.3596 c 0,1.148 0.41,2.16 1.24,3.027 l 0,0 c 0.83,0.863 1.86,1.293 3.08,1.293 l 0,0 c 1.23,0 2.26,-0.43 3.08,-1.293 l 0,0 c 0.83,-0.867 1.24,-1.879 1.24,-3.027 l 0,-2.91 c 5.2,4.82 11.33,7.23 18.39,7.23 l 0,0 c 7.43,0 13.79,-2.633 19.08,-7.891 l 0,0 c 5.3,-5.25 7.95,-11.621 7.95,-19.109 l 0,-22.6796 c 0,-1.1484 -0.42,-2.1601 -1.25,-3.0273 l 0,0 C 1754.37,95.4297 1753.34,95 1752.11,95 l 0,0 c -1.22,0 -2.25,0.4297 -3.07,1.2891 l 0,0 c -0.84,0.8672 -1.25,1.8789 -1.25,3.0273 z m 41.09,41.0386 -11.9,0 0,-29.16 c 0,-2.09 0.74,-3.867 2.22,-5.336 l 0,0 c 1.48,-1.48 3.26,-2.222 5.35,-2.222 l 0,0 c 2.09,0 3.9,0.758 5.41,2.265 l 0,0 c 0.79,0.789 1.78,1.184 2.97,1.184 l 0,0 c 1.19,0 2.22,-0.395 3.08,-1.184 l 0,0 c 0.87,-0.859 1.3,-1.882 1.3,-3.074 l 0,0 c 0,-1.191 -0.43,-2.215 -1.3,-3.0741 l 0,0 C 1792.84,96.582 1789.02,95 1784.55,95 l 0,0 c -4.46,0 -8.28,1.582 -11.46,4.7539 l 0,0 c -3.17,3.1681 -4.76,6.9841 -4.76,11.4411 l 0,55.078 c 0,1.149 0.42,2.161 1.25,3.032 l 0,0 c 0.83,0.859 1.85,1.289 3.08,1.289 l 0,0 c 1.23,0 2.25,-0.43 3.07,-1.289 l 0,0 c 0.84,-0.871 1.25,-1.883 1.25,-3.032 l 0,-17.277 11.9,0 0,0 c 1.23,0 2.25,-0.43 3.07,-1.293 l 0,0 c 0.84,-0.867 1.25,-1.879 1.25,-3.027 l 0,0 c 0,-1.153 -0.41,-2.16 -1.25,-3.031 l 0,0 c -0.82,-0.86 -1.84,-1.29 -3.07,-1.29 l 0,0 z m 20.33,-41.0386 0,45.3596 c 0,1.148 0.42,2.16 1.24,3.027 l 0,0 c 0.83,0.863 1.85,1.293 3.08,1.293 l 0,0 c 1.22,0 2.25,-0.43 3.08,-1.293 l 0,0 c 0.83,-0.867 1.25,-1.879 1.25,-3.027 l 0,-2.91 c 5.18,4.82 11.31,7.23 18.38,7.23 l 0,0 c 1.22,0 2.25,-0.43 3.08,-1.293 l 0,0 c 0.83,-0.867 1.24,-1.879 1.24,-3.027 l 0,0 c 0,-1.153 -0.41,-2.16 -1.24,-3.031 l 0,0 c -0.83,-0.86 -1.86,-1.29 -3.08,-1.29 l 0,0 c -5.11,0 -9.46,-1.8 -13.04,-5.398 l 0,0 c -3.56,-3.602 -5.34,-7.922 -5.34,-12.961 l 0,-22.6796 c 0,-1.1484 -0.42,-2.1601 -1.25,-3.0273 l 0,0 C 1815.78,95.4297 1814.75,95 1813.53,95 l 0,0 c -1.23,0 -2.25,0.4297 -3.08,1.2891 l 0,0 c -0.82,0.8672 -1.24,1.8789 -1.24,3.0273 z m 88.66,0 0,2.9106 C 1892.68,97.4063 1886.55,95 1879.49,95 l 0,0 c -7.43,0 -13.79,2.6289 -19.09,7.887 l 0,0 c -5.29,5.25 -7.94,11.621 -7.94,19.109 l 0,0 c 0,7.488 2.65,13.859 7.94,19.109 l 0,0 c 5.3,5.258 11.66,7.891 19.09,7.891 l 0,0 c 7.42,0 13.78,-2.633 19.09,-7.891 l 0,0 c 5.29,-5.25 7.94,-11.621 7.94,-19.109 l 0,-22.6796 c 0,-1.1484 -0.41,-2.1601 -1.25,-3.0273 l 0,0 C 1904.45,95.4297 1903.42,95 1902.2,95 l 0,0 c -1.24,0 -2.26,0.4297 -3.08,1.2891 l 0,0 c -0.83,0.8672 -1.25,1.8789 -1.25,3.0273 z m -31.42,9.7226 0,0 c 3.58,-3.601 7.93,-5.402 13.04,-5.402 l 0,0 c 5.12,0 9.46,1.801 13.02,5.402 l 0,0 c 3.57,3.598 5.36,7.918 5.36,12.957 l 0,0 c 0,5.039 -1.79,9.359 -5.36,12.961 l 0,0 c -3.56,3.598 -7.9,5.398 -13.02,5.398 l 0,0 c -5.11,0 -9.46,-1.8 -13.04,-5.398 l 0,0 c -3.56,-3.602 -5.34,-7.922 -5.34,-12.961 l 0,0 c 0,-5.039 1.78,-9.359 5.34,-12.957 z m 60.62,62.633 0,-72.3556 c 0,-1.1484 -0.42,-2.1601 -1.25,-3.0273 l 0,0 C 1924.99,95.4297 1923.96,95 1922.74,95 l 0,0 c -1.23,0 -2.26,0.4297 -3.08,1.2891 l 0,0 c -0.83,0.8672 -1.25,1.8789 -1.25,3.0273 l 0,72.3556 c 0,1.152 0.42,2.16 1.25,3.031 l 0,0 c 0.82,0.86 1.85,1.289 3.08,1.289 l 0,0 c 1.22,0 2.25,-0.429 3.08,-1.289 l 0,0 c 0.83,-0.871 1.25,-1.879 1.25,-3.031 z m 20.21,-2.488 0,0 c 0.94,-0.93 1.41,-2.082 1.41,-3.45 l 0,0 c 0,-1.371 -0.47,-2.519 -1.41,-3.449 l 0,0 c -0.93,-0.941 -2.08,-1.41 -3.46,-1.41 l 0,0 c -1.37,0 -2.52,0.469 -3.46,1.41 l 0,0 c -0.93,0.93 -1.4,2.078 -1.4,3.449 l 0,0 c 0,1.368 0.47,2.52 1.4,3.45 l 0,0 c 0.94,0.941 2.09,1.41 3.46,1.41 l 0,0 c 1.38,0 2.53,-0.469 3.46,-1.41 z m -7.78,-69.8676 0,45.3596 c 0,1.148 0.43,2.16 1.29,3.027 l 0,0 c 0.87,0.863 1.88,1.293 3.03,1.293 l 0,0 c 1.16,0 2.16,-0.43 3.02,-1.293 l 0,0 c 0.87,-0.867 1.31,-1.879 1.31,-3.027 l 0,-45.3596 c 0,-1.1484 -0.44,-2.1601 -1.31,-3.0273 l 0,0 C 1945.98,95.4297 1944.98,95 1943.82,95 l 0,0 c -1.15,0 -2.16,0.4297 -3.03,1.2891 l 0,0 c -0.86,0.8672 -1.29,1.8789 -1.29,3.0273 z M 2010.32,95 l -45.41,0 0,0 c -1.23,0 -2.25,0.4297 -3.03,1.2891 l 0,0 c -0.86,0.8007 -1.3,1.8086 -1.3,3.0273 l 0,0 c 0,1.2226 0.44,2.2306 1.3,3.0316 l 0,0 37.94,38.007 -34.91,0 0,0 c -1.23,0 -2.26,0.43 -3.08,1.29 l 0,0 c -0.83,0.871 -1.25,1.878 -1.25,3.031 l 0,0 c 0,1.148 0.42,2.16 1.25,3.027 l 0,0 c 0.82,0.863 1.85,1.293 3.08,1.293 l 45.41,0 0,0 c 1.15,0 2.16,-0.43 3.02,-1.293 l 0,0 c 0.87,-0.797 1.3,-1.808 1.3,-3.027 l 0,0 c 0,-1.219 -0.43,-2.231 -1.3,-3.031 l 0,0 -37.95,-38.008 34.93,0 0,0 c 1.22,0 2.25,-0.43 3.08,-1.289 l 0,0 c 0.83,-0.871 1.24,-1.879 1.24,-3.0316 l 0,0 c 0,-1.1484 -0.41,-2.1601 -1.24,-3.0273 l 0,0 C 2012.57,95.4297 2011.54,95 2010.32,95 Z m 65.96,22.676 -40.55,0 0,0 c 1.01,-4.098 3.15,-7.465 6.43,-10.094 l 0,0 c 3.28,-2.629 7.09,-3.945 11.41,-3.945 l 0,0 c 5.05,0 9.37,1.801 12.98,5.402 l 0,0 c 0.86,0.789 1.88,1.184 3.08,1.184 l 0,0 c 1.19,0 2.21,-0.395 3.07,-1.184 l 0,0 c 0.8,-0.863 1.19,-1.887 1.19,-3.078 l 0,0 c 0,-1.188 -0.39,-2.215 -1.19,-3.074 l 0,0 C 2067.3,97.6289 2060.92,95 2053.57,95 l 0,0 c -7.43,0 -13.79,2.6289 -19.09,7.887 l 0,0 c -5.29,5.25 -7.94,11.621 -7.94,19.109 l 0,0 c 0,7.488 2.65,13.859 7.94,19.109 l 0,0 c 5.3,5.258 11.66,7.891 19.09,7.891 l 0,0 c 7.42,0 13.78,-2.633 19.09,-7.891 l 0,0 c 5.29,-5.25 7.94,-11.621 7.94,-19.109 l 0,0 c 0,-1.148 -0.41,-2.16 -1.24,-3.031 l 0,0 c -0.84,-0.86 -1.86,-1.289 -3.08,-1.289 z m -40.55,8.64 35.68,0 0,0 c -1.01,4.098 -3.16,7.465 -6.44,10.094 l 0,0 c -3.27,2.629 -7.08,3.945 -11.4,3.945 l 0,0 c -4.32,0 -8.13,-1.316 -11.41,-3.945 l 0,0 c -3.28,-2.629 -5.42,-5.996 -6.43,-10.094 z m 110.83,45.356 0,-72.3556 c 0,-1.1484 -0.42,-2.1601 -1.25,-3.0273 l 0,0 C 2144.48,95.4297 2143.46,95 2142.23,95 l 0,0 c -1.23,0 -2.25,0.4297 -3.07,1.2891 l 0,0 c -0.84,0.8672 -1.25,1.8789 -1.25,3.0273 l 0,2.9106 C 2132.71,97.4063 2126.59,95 2119.53,95 l 0,0 c -7.43,0 -13.79,2.6289 -19.09,7.887 l 0,0 c -5.3,5.25 -7.94,11.621 -7.94,19.109 l 0,0 c 0,7.488 2.64,13.859 7.94,19.109 l 0,0 c 5.3,5.258 11.66,7.891 19.09,7.891 l 0,0 c 7.06,0 13.18,-2.41 18.38,-7.23 l 0,29.906 c 0,1.152 0.41,2.16 1.25,3.031 l 0,0 c 0.82,0.86 1.84,1.289 3.07,1.289 l 0,0 c 1.23,0 2.25,-0.429 3.08,-1.289 l 0,0 c 0.83,-0.871 1.25,-1.879 1.25,-3.031 l 0,0 z m -40.07,-62.633 0,0 c 3.58,-3.601 7.92,-5.402 13.04,-5.402 l 0,0 c 5.11,0 9.45,1.801 13.02,5.402 l 0,0 c 3.57,3.598 5.36,7.918 5.36,12.957 l 0,0 c 0,5.039 -1.79,9.359 -5.36,12.961 l 0,0 c -3.57,3.598 -7.91,5.398 -13.02,5.398 l 0,0 c -5.12,0 -9.46,-1.8 -13.04,-5.398 l 0,0 c -3.56,-3.602 -5.35,-7.922 -5.35,-12.961 l 0,0 c 0,-5.039 1.79,-9.359 5.35,-12.957 z m 79.53,8.637 -18.92,0 0,-18.3596 c 0,-1.1484 -0.41,-2.1601 -1.24,-3.0273 l 0,0 C 2165.02,95.4297 2164,95 2162.78,95 l 0,0 c -1.23,0 -2.26,0.4297 -3.08,1.2891 l 0,0 c -0.83,0.8672 -1.25,1.8789 -1.25,3.0273 l 0,66.9566 c 0,1.149 0.42,2.161 1.25,3.032 l 0,0 c 0.82,0.859 1.85,1.289 3.08,1.289 l 23.24,0 0,0 c 7.28,0 13.52,-2.59 18.7,-7.77 l 0,0 c 5.2,-5.191 7.8,-11.418 7.8,-18.687 l 0,0 c 0,-7.27 -2.6,-13.5 -7.8,-18.692 l 0,0 c -5.18,-5.179 -11.42,-7.769 -18.7,-7.769 z m -18.92,44.277 0,-35.637 18.92,0 0,0 c 4.9,0 9.1,1.747 12.61,5.235 l 0,0 c 3.49,3.488 5.24,7.683 5.24,12.586 l 0,0 c 0,4.898 -1.75,9.093 -5.24,12.582 l 0,0 c -3.51,3.488 -7.71,5.234 -12.61,5.234 l -18.92,0 z m 65.96,9.719 0,-72.3556 c 0,-1.1484 -0.42,-2.1601 -1.25,-3.0273 l 0,0 C 2230.98,95.4297 2229.96,95 2228.73,95 l 0,0 c -1.23,0 -2.25,0.4297 -3.07,1.2891 l 0,0 c -0.84,0.8672 -1.25,1.8789 -1.25,3.0273 l 0,72.3556 c 0,1.152 0.41,2.16 1.25,3.031 l 0,0 c 0.82,0.86 1.84,1.289 3.07,1.289 l 0,0 c 1.23,0 2.25,-0.429 3.08,-1.289 l 0,0 c 0.83,-0.871 1.25,-1.879 1.25,-3.031 z m 57.31,-72.3556 0,2.9106 C 2285.17,97.4063 2279.04,95 2271.98,95 l 0,0 c -7.43,0 -13.78,2.6289 -19.08,7.887 l 0,0 c -5.3,5.25 -7.95,11.621 -7.95,19.109 l 0,0 c 0,7.488 2.65,13.859 7.95,19.109 l 0,0 c 5.3,5.258 11.65,7.891 19.08,7.891 l 0,0 c 7.42,0 13.79,-2.633 19.09,-7.891 l 0,0 c 5.3,-5.25 7.95,-11.621 7.95,-19.109 l 0,-22.6796 c 0,-1.1484 -0.42,-2.1601 -1.25,-3.0273 l 0,0 C 2296.94,95.4297 2295.91,95 2294.69,95 l 0,0 c -1.23,0 -2.26,0.4297 -3.08,1.2891 l 0,0 c -0.83,0.8672 -1.24,1.8789 -1.24,3.0273 z m -31.42,9.7226 0,0 c 3.57,-3.601 7.92,-5.402 13.03,-5.402 l 0,0 c 5.12,0 9.46,1.801 13.02,5.402 l 0,0 c 3.58,3.598 5.37,7.918 5.37,12.957 l 0,0 c 0,5.039 -1.79,9.359 -5.37,12.961 l 0,0 c -3.56,3.598 -7.9,5.398 -13.02,5.398 l 0,0 c -5.11,0 -9.46,-1.8 -13.03,-5.398 l 0,0 c -3.56,-3.602 -5.35,-7.922 -5.35,-12.961 l 0,0 c 0,-5.039 1.79,-9.359 5.35,-12.957 z m 72.5,31.316 -11.89,0 0,-29.16 c 0,-2.09 0.74,-3.867 2.21,-5.336 l 0,0 c 1.48,-1.48 3.27,-2.222 5.36,-2.222 l 0,0 c 2.09,0 3.89,0.758 5.41,2.265 l 0,0 c 0.78,0.789 1.78,1.184 2.97,1.184 l 0,0 c 1.19,0 2.22,-0.395 3.08,-1.184 l 0,0 c 0.86,-0.859 1.29,-1.882 1.29,-3.074 l 0,0 c 0,-1.191 -0.43,-2.215 -1.29,-3.0741 l 0,0 C 2335.41,96.582 2331.59,95 2327.13,95 l 0,0 c -4.48,0 -8.3,1.582 -11.46,4.7539 l 0,0 c -3.17,3.1681 -4.76,6.9841 -4.76,11.4411 l 0,55.078 c 0,1.149 0.41,2.161 1.25,3.032 l 0,0 c 0.82,0.859 1.84,1.289 3.07,1.289 l 0,0 c 1.23,0 2.25,-0.43 3.08,-1.289 l 0,0 c 0.83,-0.871 1.25,-1.883 1.25,-3.032 l 0,-17.277 11.89,0 0,0 c 1.23,0 2.25,-0.43 3.08,-1.293 l 0,0 c 0.83,-0.867 1.25,-1.879 1.25,-3.027 l 0,0 c 0,-1.153 -0.42,-2.16 -1.25,-3.031 l 0,0 c -0.83,-0.86 -1.85,-1.29 -3.08,-1.29 l 0,0 z m 44.98,0 -16.01,0 0,-41.0386 c 0,-1.1484 -0.41,-2.1601 -1.23,-3.0273 l 0,0 C 2358.36,95.4297 2357.33,95 2356.1,95 l 0,0 c -1.22,0 -2.25,0.4297 -3.08,1.2891 l 0,0 c -0.83,0.8672 -1.25,1.8789 -1.25,3.0273 l 0,60.4766 c 0,4.461 1.59,8.277 4.76,11.445 l 0,0 c 3.18,3.168 7,4.754 11.46,4.754 l 0,0 c 4.47,0 8.3,-1.586 11.47,-4.754 l 0,0 c 0.86,-0.859 1.29,-1.886 1.29,-3.074 l 0,0 c 0,-1.191 -0.43,-2.215 -1.29,-3.074 l 0,0 c -0.87,-0.793 -1.9,-1.188 -3.09,-1.188 l 0,0 c -1.18,0 -2.17,0.395 -2.97,1.188 l 0,0 c -1.51,1.508 -3.32,2.262 -5.41,2.262 l 0,0 c -2.08,0 -3.86,-0.739 -5.35,-2.219 l 0,0 c -1.48,-1.469 -2.22,-3.25 -2.22,-5.34 l 0,-10.797 16.01,0 0,0 c 1.22,0 2.25,-0.43 3.08,-1.293 l 0,0 c 0.83,-0.867 1.24,-1.879 1.24,-3.027 l 0,0 c 0,-1.153 -0.41,-2.16 -1.24,-3.031 l 0,0 c -0.83,-0.86 -1.86,-1.29 -3.08,-1.29 l 0,0 z m 62.34,-37.468 0,0 C 2433.47,97.6289 2427.11,95 2419.68,95 l 0,0 c -7.43,0 -13.79,2.6289 -19.09,7.887 l 0,0 c -5.29,5.25 -7.94,11.621 -7.94,19.109 l 0,0 c 0,7.488 2.65,13.859 7.94,19.109 l 0,0 c 5.3,5.258 11.66,7.891 19.09,7.891 l 0,0 c 7.43,0 13.79,-2.633 19.09,-7.891 l 0,0 c 5.29,-5.25 7.94,-11.621 7.94,-19.109 l 0,0 c 0,-7.488 -2.65,-13.859 -7.94,-19.109 z m -32.13,6.152 0,0 c 3.58,-3.601 7.93,-5.402 13.04,-5.402 l 0,0 c 5.12,0 9.46,1.801 13.03,5.402 l 0,0 c 3.57,3.598 5.35,7.918 5.35,12.957 l 0,0 c 0,5.039 -1.78,9.359 -5.35,12.961 l 0,0 c -3.57,3.598 -7.91,5.398 -13.03,5.398 l 0,0 c -5.11,0 -9.46,-1.8 -13.04,-5.398 l 0,0 c -3.56,-3.602 -5.34,-7.922 -5.34,-12.961 l 0,0 c 0,-5.039 1.78,-9.359 5.34,-12.957 z m 51.97,-9.7226 0,45.3596 c 0,1.148 0.41,2.16 1.24,3.027 l 0,0 c 0.83,0.863 1.86,1.293 3.08,1.293 l 0,0 c 1.22,0 2.25,-0.43 3.08,-1.293 l 0,0 c 0.83,-0.867 1.24,-1.879 1.24,-3.027 l 0,-2.91 c 5.19,4.82 11.32,7.23 18.39,7.23 l 0,0 c 1.22,0 2.24,-0.43 3.07,-1.293 l 0,0 c 0.84,-0.867 1.25,-1.879 1.25,-3.027 l 0,0 c 0,-1.153 -0.41,-2.16 -1.25,-3.031 l 0,0 c -0.83,-0.86 -1.85,-1.29 -3.07,-1.29 l 0,0 c -5.12,0 -9.46,-1.8 -13.04,-5.398 l 0,0 c -3.56,-3.602 -5.35,-7.922 -5.35,-12.961 l 0,-22.6796 c 0,-1.1484 -0.41,-2.1601 -1.24,-3.0273 l 0,0 C 2465.18,95.4297 2464.15,95 2462.93,95 l 0,0 c -1.22,0 -2.25,0.4297 -3.08,1.2891 l 0,0 c -0.83,0.8672 -1.24,1.8789 -1.24,3.0273 z m 121.1,0 0,25.9176 c 0,4.184 -1.48,7.746 -4.43,10.696 l 0,0 c -2.96,2.949 -6.53,4.425 -10.71,4.425 l 0,0 c -4.19,0 -7.76,-1.476 -10.71,-4.425 l 0,0 c -2.95,-2.95 -4.43,-6.512 -4.43,-10.696 l 0,-25.9176 c 0,-1.1484 -0.41,-2.1601 -1.25,-3.0273 l 0,0 C 2547.35,95.4297 2546.33,95 2545.11,95 l 0,0 c -1.23,0 -2.25,0.4297 -3.08,1.2891 l 0,0 c -0.83,0.8672 -1.25,1.8789 -1.25,3.0273 l 0,25.9176 c 0,4.184 -1.48,7.746 -4.43,10.696 l 0,0 c -2.95,2.949 -6.52,4.425 -10.71,4.425 l 0,0 c -4.18,0 -7.75,-1.476 -10.7,-4.425 l 0,0 c -2.96,-2.95 -4.44,-6.512 -4.44,-10.696 l 0,-25.9176 c 0,-1.1484 -0.41,-2.1601 -1.24,-3.0273 l 0,0 C 2508.43,95.4297 2507.4,95 2506.18,95 l 0,0 c -1.22,0 -2.25,0.4297 -3.08,1.2891 l 0,0 c -0.83,0.8672 -1.24,1.8789 -1.24,3.0273 l 0,45.3596 c 0,1.148 0.41,2.16 1.24,3.027 l 0,0 c 0.83,0.863 1.86,1.293 3.08,1.293 l 0,0 c 1.22,0 2.25,-0.43 3.08,-1.293 l 0,0 c 0.83,-0.867 1.24,-1.879 1.24,-3.027 l 0,-1.082 c 4.4,3.601 9.45,5.402 15.14,5.402 l 0,0 c 3.97,0 7.64,-0.922 11.02,-2.762 l 0,0 c 3.4,-1.828 6.22,-4.293 8.45,-7.394 l 0,0 c 2.23,3.101 5.04,5.566 8.44,7.394 l 0,0 c 3.38,1.84 7.06,2.762 11.02,2.762 l 0,0 c 6.56,0 12.16,-2.32 16.82,-6.961 l 0,0 c 4.65,-4.648 6.97,-10.25 6.97,-16.801 l 0,-25.9176 c 0,-1.1484 -0.42,-2.1601 -1.25,-3.0273 l 0,0 C 2586.28,95.4297 2585.25,95 2584.03,95 l 0,0 c -1.22,0 -2.24,0.4297 -3.08,1.2891 l 0,0 c -0.83,0.8672 -1.24,1.8789 -1.24,3.0273" /></g></g></g></g></svg>