<?xml version="1.0" encoding="utf-8"?>
<!-- Generator: Adobe Illustrator 19.0.0, SVG Export Plug-In . SVG Version: 6.00 Build 0)  -->
<svg version="1.1"
	 id="svg2" xmlns:rdf="http://www.w3.org/1999/02/22-rdf-syntax-ns#" xmlns:cc="http://creativecommons.org/ns#" xmlns:svg="http://www.w3.org/2000/svg" xmlns:dc="http://purl.org/dc/elements/1.1/"
	 xmlns="http://www.w3.org/2000/svg" xmlns:xlink="http://www.w3.org/1999/xlink" x="0px" y="0px" viewBox="-157 167.8 325 86.2"
	 style="enable-background:new -157 167.8 325 86.2;" xml:space="preserve">
<style type="text/css">
	.st0{fill:#1FC9FC;}
	.st1{fill:#FFFFFF;}
	.st2{clip-path:url(#SVGID_2_);}
</style>
<g id="g16">
	<path id="path22" class="st0" d="M-128.2,230.1c-0.4-0.9,0.9-1.3,0.9-1.3s3.5-0.3,6,3.7c0,0,0.1,0,0.3,0l0.1-0.1c0,0-0.1,0-0.1,0
		c0,0,0,0,0.1,0l0.2-0.6c0,0,0.3-1.5,0.3-2.1c0-0.6-0.2-1.2-0.2-1.2l-2.1-7.3c0,0-0.4-1.2,0.7-1.7c1.1-0.4,1.6,0.6,1.6,0.6
		s2.4,6.7,2.7,7.5c0.3,0.8,0.9-0.1,0.9-0.1l-0.1-8.5c0,0-0.2-1.4,1.3-1.5c1.5-0.1,1.4,2.1,1.4,2.1s0.1,7.3,0.2,8.2
		c0,0.9,0.6,0.1,0.6,0.1s1.9-6.8,2.1-7.5c0.2-0.7,0.5-1.5,1.6-1.3c1.1,0.2,0.7,2.5,0.7,2.5s-1.7,6.9-1.8,7.5
		c-0.1,0.5,0.3,0.4,0.3,0.4s3.3-5.1,3.5-5.5c0.3-0.4,0.8-1.1,1.8-0.6c1,0.6-0.3,2.8-0.3,2.8s-2.5,4.4-2.7,4.8
		c-0.2,0.4-0.2,0.7-0.2,0.7l-0.2,3.3c-0.7,4.5-2.8,5.8-2.8,5.8l0.5,13.5c-0.9,0.1-1.8,0.1-2.7,0.1c-1.9,0-3.7-0.1-5.6-0.4l0.4-13.6
		c0,0-0.6-0.4-1.8-1.1c-1.2-0.7-2.3-2.5-2.6-3.1c-0.3-0.6-0.9-2.2-2.6-3.9C-127.6,230.3-127.8,231-128.2,230.1z M-93.3,192.4
		l11.3-10.7c-1.7-1.9-3.7-3.7-5.7-5.2l-10.1,10.8c0,0-2.2-0.6-5.6,1.9l-2.3,2.1c0,0-0.1,0.2-0.6,0.3c-0.4,0.1-4.9,1.3-4.9,1.3
		s-2.3,0.6-2,1.6c0.3,1,1.2,0.9,1.6,0.8c0.4-0.1,5.9-1.3,5.9-1.3s0.3,0.2-0.1,0.4c-0.4,0.3-6,3.7-6,3.7s-1.8,1.2-1.2,2.1
		c0.6,0.8,1.3,0.5,1.9,0.2c0.6-0.3,6.3-3.5,6.3-3.5s0.9-0.1,0.3,0.4c-0.5,0.6-5.2,5.5-5.2,5.5s-1.5,1.3-0.4,2.2
		c1.1,0.9,1.9-0.1,1.9-0.1l5.5-5.6c0,0,1-0.2,0.6,0.5c-0.4,0.7-3.1,6.6-3.1,6.6s-0.4,1,0.6,1.4c1,0.4,1.5-0.6,1.5-0.6l3.4-6.2
		c0,0,0.3-0.5,0.7-0.9c0.4-0.4,1.6-1.2,1.6-1.2l0.5-0.2c0,0,0,0,0,0c0,0,0,0,0,0l0.1,0c0.1,0.1,0.2,0.2,0.2,0.2
		c-1,4.2,1.5,6.4,1.5,6.4s1.1,0.6,1.5-0.3c0.3-0.9-0.3-0.6-0.3-2.8c0-2.2,0.6-3.6,0.9-4.2c0.2-0.6,0.6-2.4,0.3-3.7
		C-93.1,193.1-93.3,192.4-93.3,192.4z M-102.5,187.5c-1.9-1.8-2.5-3.6-2.8-4.2c-0.3-0.6-1.5-2.6-2.8-3.3c-1.3-0.8-1.9-1.2-1.9-1.2
		l0.3-10.8c-1.4-0.1-2.7-0.2-4.1-0.2c-1.5,0-3,0.1-4.5,0.2l0.4,10.3c0,0-2.4,1.4-3.1,6.3l-0.2,3.6c0,0,0,0.3-0.2,0.8
		c-0.3,0.5-3,5.2-3,5.2s-1.5,2.4-0.4,3c1.1,0.6,1.7-0.2,2-0.6c0.3-0.4,3.9-6,3.9-6s0.4-0.1,0.3,0.5c-0.1,0.6-1.9,8.1-1.9,8.1
		s-0.5,2.5,0.7,2.7c1.2,0.2,1.5-0.7,1.7-1.5c0.2-0.8,2.3-8.2,2.3-8.2s0.6-0.8,0.6,0.1c0,0.9,0.2,8.9,0.2,8.9s-0.1,2.4,1.5,2.2
		c1.6-0.1,1.5-1.7,1.5-1.7l-0.1-9.3c0,0,0.6-1,0.9-0.1c0.3,0.9,2.9,8.1,2.9,8.1s0.5,1.1,1.7,0.6c1.2-0.5,0.7-1.8,0.7-1.8l-2.3-8
		c0,0-0.2-0.7-0.2-1.4c0-0.7,0.3-2.3,0.3-2.3l0.3-0.6c0,0,0,0,0.1,0c0,0,0,0-0.1,0l0.1-0.1c0.2,0,0.3,0,0.3,0
		c2.7,4.3,6.6,4.1,6.6,4.1s1.4-0.4,1-1.4C-100.4,188.6-100.7,189.3-102.5,187.5z M-121,201.8l-5.6-3.1c0,0-0.5-0.3-0.8-0.6
		c-0.4-0.4-1.1-1.4-1.1-1.4l-0.2-0.5c0,0,0,0,0,0c0,0,0,0,0,0l0-0.1c0.1-0.1,0.1-0.2,0.1-0.2c3.8,0.9,5.7-1.3,5.7-1.3s0.5-1-0.2-1.3
		c-0.8-0.3-0.5,0.2-2.5,0.3c-2,0-3.3-0.6-3.8-0.8c-0.5-0.2-2.2-0.6-3.3-0.3c-1.1,0.3-1.7,0.4-1.7,0.4l-10.9-11.5
		c-1.6,1.7-3.1,3.6-4.4,5.6l10.8,10c0,0-0.5,2,1.7,5l1.9,2.1c0,0,0.2,0.1,0.3,0.5c0.1,0.4,1.2,4.4,1.2,4.4s0.5,2.1,1.4,1.8
		c0.9-0.3,0.8-1,0.7-1.4c-0.1-0.4-1.1-5.3-1.1-5.3s0.2-0.3,0.4,0.1c0.3,0.4,3.4,5.4,3.4,5.4s1.1,1.6,1.9,1.1
		c0.7-0.5,0.5-1.2,0.2-1.7c-0.3-0.5-3.2-5.7-3.2-5.7s-0.1-0.8,0.4-0.3c0.5,0.5,4.9,4.7,4.9,4.7s1.2,1.4,2,0.4c0.8-1-0.1-1.7-0.1-1.7
		l-5.1-4.9c0,0-0.2-0.9,0.4-0.6c0.6,0.3,6,2.8,6,2.8s0.9,0.3,1.3-0.6C-120,202.3-121,201.8-121,201.8z M-76.4,232.4l-7-6.5
		c0,0,0.7-2.6-2.3-6.6l-2.4-2.7c0,0-0.2-0.2-0.4-0.7c-0.1-0.5-1.6-5.8-1.6-5.8s-0.7-2.7-1.9-2.4c-1.2,0.4-1,1.4-0.9,1.8
		c0.1,0.5,1.5,6.9,1.5,6.9s-0.2,0.4-0.5-0.1c-0.3-0.5-4.4-7.1-4.4-7.1s-1.5-2.1-2.4-1.4c-1,0.7-0.6,1.6-0.2,2.3
		c0.4,0.7,4.2,7.4,4.2,7.4s0.2,1-0.5,0.4c-0.7-0.6-6.4-6.2-6.4-6.2s-1.6-1.8-2.6-0.5c-1.1,1.3,0.2,2.2,0.2,2.2l6.7,6.4
		c0,0,0.3,1.2-0.6,0.8c-0.8-0.4-7.8-3.7-7.8-3.7s-1.1-0.4-1.7,0.8c-0.5,1.2,0.8,1.8,0.8,1.8l7.3,4c0,0,0.6,0.3,1.1,0.8
		c0.5,0.5,1.4,1.9,1.4,1.9l0.2,0.6c0,0,0,0,0,0c0,0,0,0,0,0l0.1,0.1c-0.1,0.1-0.2,0.2-0.2,0.2c-5-1.2-7.5,1.8-7.5,1.8
		s-0.7,1.3,0.3,1.7c1,0.4,0.7-0.3,3.3-0.4c2.6,0,4.3,0.8,4.9,1c0.7,0.3,2.9,0.8,4.3,0.4c1.5-0.4,2.2-0.5,2.2-0.5l7.8,8.2
		C-79.6,237.3-77.9,234.9-76.4,232.4L-76.4,232.4z M-133.9,215.9c0.8,0,8.1-0.2,8.1-0.2s2.2,0.1,2-1.4c-0.1-1.5-1.5-1.3-1.5-1.3
		l-8.4,0.1c0,0-0.9-0.6-0.1-0.8c0.8-0.3,7.4-2.6,7.4-2.6s1-0.5,0.6-1.5c-0.4-1.1-1.6-0.7-1.6-0.7l-7.2,2.1c0,0-0.6,0.2-1.2,0.2
		c-0.6,0-2.1-0.3-2.1-0.3l-0.6-0.2c0,0,0,0,0-0.1c0,0,0,0,0,0.1l-0.1-0.1c0-0.2,0-0.2,0-0.2c3.9-2.5,3.7-5.9,3.7-5.9
		s-0.4-1.3-1.3-0.9c-0.9,0.4-0.3,0.6-1.9,2.3c-1.6,1.7-3.2,2.3-3.8,2.5c-0.6,0.3-2.3,1.4-3,2.5c-0.7,1.2-1.1,1.7-1.1,1.7l-10.8-0.3
		c0,2.7,0.3,5.3,0.7,7.9l9.7-0.3c0,0,1.2,2.1,5.7,2.8l3.3,0.2c0,0,0.3,0,0.7,0.2c0.4,0.2,4.7,2.7,4.7,2.7s2.2,1.3,2.7,0.3
		c0.5-1-0.2-1.5-0.6-1.8c-0.4-0.3-5.4-3.5-5.4-3.5s-0.1-0.4,0.4-0.3c0.5,0.1,7.4,1.7,7.4,1.7s2.3,0.4,2.5-0.6
		c0.2-1.1-0.6-1.4-1.3-1.6c-0.7-0.2-7.4-2.1-7.4-2.1S-134.7,215.9-133.9,215.9"/>
</g>
<path id="path24" class="st1" d="M-50.5,205.7v-25.4h2.5v24.9c0,3,1,5.6,3.1,7.7l0,0c2.1,2.1,4.6,3.2,7.6,3.2l0,0
	c2.4,0,4.6-0.7,6.6-2.2l0,0c2-1.5,3.3-3.4,3.9-5.7v-27.9h2.5v27.9c0.7,2.3,2.1,4.2,4,5.7l0,0c2,1.5,4.1,2.2,6.5,2.2l0,0
	c3,0,5.5-1.1,7.6-3.2l0,0c2-2.1,3-4.7,3-7.8v-24.9h2.5v26.1c0,3.4-1.3,6.3-4,8.6l0,0c-2.6,2.3-5.7,3.5-9.2,3.5l0,0
	c-2.5,0-4.8-0.6-6.9-1.9l0,0c-2.1-1.3-3.7-3-4.9-5.1l0,0c-1.2,2.2-2.8,3.9-4.9,5.2l0,0c-2.1,1.2-4.4,1.9-6.8,1.9l0,0
	c-3.6,0-6.7-1.3-9.3-3.8l0,0C-49.2,212.2-50.5,209.2-50.5,205.7L-50.5,205.7z M47.4,196.4H19.2v-2.4h25.3l0,0
	c-1.1-3.5-3.2-6.4-6.2-8.5l0,0c-3.1-2.2-6.4-3.3-10-3.3l0,0c-4.4,0-8.3,1.7-11.8,5.1l0,0c-3.5,3.4-5.2,7.4-5.2,11.9l0,0
	c0,4.6,1.7,8.6,5,12l0,0c3.3,3.3,7.3,5,12,5l0,0c5.1,0,9.3-1.9,12.7-5.7l0,0l1.8,1.6l0,0c-4.3,4.3-9.1,6.5-14.5,6.5l0,0
	c-5.3,0-9.9-1.9-13.7-5.7l0,0c-3.8-3.8-5.7-8.4-5.7-13.6l0,0c0-5.4,1.9-9.9,5.7-13.7l0,0c3.8-3.8,8.4-5.7,13.7-5.7l0,0
	c4.8,0,9,1.6,12.6,4.7l0,0C44.5,187.6,46.7,191.6,47.4,196.4L47.4,196.4z M81.6,214.9L81.6,214.9l0.9,2.2l0,0c-2.4,1-5,1.5-7.6,1.5
	l0,0c-5.1,0-9.7-1.9-13.6-5.6l0,0c-3.9-3.7-5.9-8.3-5.9-13.9l0,0c0-5.3,1.9-9.8,5.6-13.7l0,0c3.8-3.8,8.4-5.8,13.8-5.8l0,0
	c5.2,0,9.7,1.8,13.6,5.5l0,0c3.9,3.7,5.8,8.3,5.8,13.9v18.7h-2.4v-19.2c0-4.6-1.7-8.5-5.2-11.7l0,0c-3.4-3.2-7.4-4.9-11.9-4.9l0,0
	c-4.5,0-8.5,1.6-12,4.9l0,0c-3.4,3.3-5.1,7.3-5.1,12.2l0,0c0,4.5,1.6,8.5,4.9,11.9l0,0c3.3,3.4,7.3,5.2,12.2,5.2l0,0
	C77.3,216.2,79.5,215.8,81.6,214.9z M124.7,179.6v2.4c-4.7,0-8.7,1.7-12,5l0,0c-3.3,3.4-5,7.4-5,12v18.8h-2.4v-18.8
	c0-5.6,2-10.3,5.9-13.9l0,0C115.1,181.5,119.6,179.6,124.7,179.6L124.7,179.6z M168,196.4h-28.3v-2.4H165l0,0
	c-1.1-3.5-3.2-6.4-6.2-8.5l0,0c-3.1-2.2-6.4-3.3-10-3.3l0,0c-4.4,0-8.3,1.7-11.8,5.1l0,0c-3.5,3.4-5.2,7.4-5.2,11.9l0,0
	c0,4.6,1.7,8.6,5,12l0,0c3.3,3.3,7.3,5,12,5l0,0c5.1,0,9.3-1.9,12.7-5.7l0,0l1.8,1.6l0,0c-4.3,4.3-9.2,6.5-14.5,6.5l0,0
	c-5.3,0-9.9-1.9-13.7-5.7l0,0c-3.8-3.8-5.7-8.4-5.7-13.6l0,0c0-5.4,1.9-9.9,5.7-13.7l0,0c3.8-3.8,8.4-5.7,13.7-5.7l0,0
	c4.8,0,9,1.6,12.6,4.7l0,0C165.1,187.6,167.3,191.6,168,196.4"/>
<g id="g26">
	<g>
		<defs>
			<rect id="SVGID_1_" x="-49" y="232" width="215.6" height="10.1"/>
		</defs>
		<clipPath id="SVGID_2_">
			<use xlink:href="#SVGID_1_"  style="overflow:visible;"/>
		</clipPath>
		<g id="g28" class="st2">
			<path id="path34" class="st1" d="M-49,238.8v-2.7c0-0.9,0.3-1.7,1-2.4l0,0c0.7-0.7,1.5-1,2.4-1l0,0c0.9,0,1.7,0.3,2.4,1l0,0
				c0.1,0.1,0.1,0.2,0.1,0.4l0,0c0,0.1,0,0.3-0.1,0.4l0,0c-0.1,0.1-0.2,0.1-0.4,0.1l0,0c-0.1,0-0.3,0-0.4-0.1l0,0
				c-0.5-0.4-1-0.7-1.6-0.7l0,0c-0.6,0-1.2,0.2-1.6,0.7l0,0c-0.4,0.5-0.7,1-0.7,1.6v2.7c0,0.6,0.2,1.2,0.7,1.6l0,0
				c0.4,0.5,1,0.7,1.6,0.7l0,0c0.6,0,1.2-0.2,1.6-0.7l0,0c0.1-0.1,0.2-0.1,0.4-0.1l0,0c0.1,0,0.3,0,0.4,0.1l0,0
				c0.1,0.1,0.1,0.2,0.1,0.4l0,0c0,0.1,0,0.3-0.1,0.4l0,0c-0.7,0.7-1.5,1-2.4,1l0,0c-0.9,0-1.7-0.3-2.4-1l0,0
				C-48.7,240.5-49,239.7-49,238.8z M-35.4,239.3h-5.1l0,0c0.1,0.5,0.4,0.9,0.8,1.3l0,0c0.4,0.3,0.9,0.5,1.4,0.5l0,0
				c0.6,0,1.2-0.2,1.6-0.7l0,0c0.1-0.1,0.2-0.1,0.4-0.1l0,0c0.1,0,0.3,0,0.4,0.1l0,0c0.1,0.1,0.1,0.2,0.1,0.4l0,0
				c0,0.1,0,0.3-0.1,0.4l0,0c-0.7,0.7-1.5,1-2.4,1l0,0c-0.9,0-1.7-0.3-2.4-1l0,0c-0.7-0.7-1-1.5-1-2.4l0,0c0-0.9,0.3-1.7,1-2.4l0,0
				c0.7-0.7,1.5-1,2.4-1l0,0c0.9,0,1.7,0.3,2.4,1l0,0c0.7,0.7,1,1.5,1,2.4l0,0c0,0.1-0.1,0.3-0.2,0.4l0,0
				C-35.1,239.2-35.2,239.3-35.4,239.3z M-40.5,238.2h4.5l0,0c-0.1-0.5-0.4-0.9-0.8-1.3l0,0c-0.4-0.3-0.9-0.5-1.4-0.5l0,0
				c-0.5,0-1,0.2-1.4,0.5l0,0C-40.1,237.3-40.3,237.7-40.5,238.2z M-27.7,241.6v-2.8c0-0.6-0.2-1.2-0.7-1.6l0,0
				c-0.4-0.4-1-0.7-1.6-0.7l0,0c-0.6,0-1.2,0.2-1.6,0.7l0,0c-0.4,0.5-0.7,1-0.7,1.6v2.8c0,0.1-0.1,0.3-0.2,0.4l0,0
				c-0.1,0.1-0.2,0.2-0.4,0.2l0,0c-0.2,0-0.3-0.1-0.4-0.2l0,0c-0.1-0.1-0.2-0.2-0.2-0.4v-5.7c0-0.1,0.1-0.3,0.2-0.4l0,0
				c0.1-0.1,0.2-0.2,0.4-0.2l0,0c0.2,0,0.3,0.1,0.4,0.2l0,0c0.1,0.1,0.2,0.2,0.2,0.4v0.4c0.6-0.6,1.4-0.9,2.3-0.9l0,0
				c0.9,0,1.7,0.3,2.4,1l0,0c0.7,0.7,1,1.5,1,2.4v2.8c0,0.1-0.1,0.3-0.2,0.4l0,0c-0.1,0.1-0.2,0.2-0.4,0.2l0,0
				c-0.2,0-0.3-0.1-0.4-0.2l0,0C-27.6,241.9-27.7,241.7-27.7,241.6z M-22.6,236.5H-24v3.6c0,0.3,0.1,0.5,0.3,0.7l0,0
				c0.2,0.2,0.4,0.3,0.7,0.3l0,0c0.3,0,0.5-0.1,0.7-0.3l0,0c0.1-0.1,0.2-0.1,0.4-0.1l0,0c0.1,0,0.3,0,0.4,0.1l0,0
				c0.1,0.1,0.2,0.2,0.2,0.4l0,0c0,0.1-0.1,0.3-0.2,0.4l0,0c-0.4,0.4-0.9,0.6-1.4,0.6l0,0c-0.6,0-1-0.2-1.4-0.6l0,0
				c-0.4-0.4-0.6-0.9-0.6-1.4v-6.9c0-0.1,0.1-0.3,0.2-0.4l0,0c0.1-0.1,0.2-0.2,0.4-0.2l0,0c0.2,0,0.3,0.1,0.4,0.2l0,0
				c0.1,0.1,0.2,0.2,0.2,0.4v2.2h1.5l0,0c0.2,0,0.3,0.1,0.4,0.2l0,0c0.1,0.1,0.2,0.2,0.2,0.4l0,0c0,0.1-0.1,0.3-0.2,0.4l0,0
				C-22.3,236.4-22.4,236.5-22.6,236.5L-22.6,236.5z M-20,241.6v-5.7c0-0.1,0.1-0.3,0.2-0.4l0,0c0.1-0.1,0.2-0.2,0.4-0.2l0,0
				c0.2,0,0.3,0.1,0.4,0.2l0,0c0.1,0.1,0.2,0.2,0.2,0.4v0.4c0.6-0.6,1.4-0.9,2.3-0.9l0,0c0.2,0,0.3,0.1,0.4,0.2l0,0
				c0.1,0.1,0.2,0.2,0.2,0.4l0,0c0,0.1-0.1,0.3-0.2,0.4l0,0c-0.1,0.1-0.2,0.2-0.4,0.2l0,0c-0.6,0-1.2,0.2-1.6,0.7l0,0
				c-0.4,0.5-0.7,1-0.7,1.6v2.8c0,0.1-0.1,0.3-0.2,0.4l0,0c-0.1,0.1-0.2,0.2-0.4,0.2l0,0c-0.2,0-0.3-0.1-0.4-0.2l0,0
				C-20,241.9-20,241.7-20,241.6L-20,241.6z M-8.9,241.6v-0.4c-0.6,0.6-1.4,0.9-2.3,0.9l0,0c-0.9,0-1.7-0.3-2.4-1l0,0
				c-0.7-0.7-1-1.5-1-2.4l0,0c0-0.9,0.3-1.7,1-2.4l0,0c0.7-0.7,1.5-1,2.4-1l0,0c0.9,0,1.7,0.3,2.4,1l0,0c0.7,0.7,1,1.5,1,2.4v2.8
				c0,0.1-0.1,0.3-0.2,0.4l0,0c-0.1,0.1-0.2,0.2-0.4,0.2l0,0c-0.2,0-0.3-0.1-0.4-0.2l0,0C-8.9,241.9-8.9,241.7-8.9,241.6L-8.9,241.6
				z M-12.9,240.4L-12.9,240.4c0.4,0.5,1,0.7,1.6,0.7l0,0c0.6,0,1.2-0.2,1.6-0.7l0,0c0.4-0.4,0.7-1,0.7-1.6l0,0
				c0-0.6-0.2-1.2-0.7-1.6l0,0c-0.4-0.4-1-0.7-1.6-0.7l0,0c-0.6,0-1.2,0.2-1.6,0.7l0,0c-0.4,0.5-0.7,1-0.7,1.6l0,0
				C-13.5,239.4-13.3,239.9-12.9,240.4z M-5.3,232.5v9c0,0.1-0.1,0.3-0.2,0.4l0,0c-0.1,0.1-0.2,0.2-0.4,0.2l0,0
				c-0.2,0-0.3-0.1-0.4-0.2l0,0c-0.1-0.1-0.2-0.2-0.2-0.4v-9c0-0.1,0.1-0.3,0.2-0.4l0,0c0.1-0.1,0.2-0.2,0.4-0.2l0,0
				c0.2,0,0.3,0.1,0.4,0.2l0,0C-5.3,232.3-5.3,232.4-5.3,232.5L-5.3,232.5z M-2.8,232.9L-2.8,232.9c0.1,0.1,0.2,0.3,0.2,0.4l0,0
				c0,0.2-0.1,0.3-0.2,0.4l0,0c-0.1,0.1-0.3,0.2-0.4,0.2l0,0c-0.2,0-0.3-0.1-0.4-0.2l0,0c-0.1-0.1-0.2-0.3-0.2-0.4l0,0
				c0-0.2,0.1-0.3,0.2-0.4l0,0c0.1-0.1,0.3-0.2,0.4-0.2l0,0C-3,232.7-2.9,232.7-2.8,232.9z M-3.7,241.6v-5.7c0-0.1,0.1-0.3,0.2-0.4
				l0,0c0.1-0.1,0.2-0.2,0.4-0.2l0,0c0.1,0,0.3,0.1,0.4,0.2l0,0c0.1,0.1,0.2,0.2,0.2,0.4v5.7c0,0.1-0.1,0.3-0.2,0.4l0,0
				c-0.1,0.1-0.2,0.2-0.4,0.2l0,0c-0.1,0-0.3-0.1-0.4-0.2l0,0C-3.7,241.9-3.7,241.7-3.7,241.6L-3.7,241.6z M5.1,242.1h-5.7l0,0
				c-0.2,0-0.3-0.1-0.4-0.2l0,0c-0.1-0.1-0.2-0.2-0.2-0.4l0,0c0-0.2,0.1-0.3,0.2-0.4l0,0l4.7-4.8h-4.4l0,0c-0.2,0-0.3-0.1-0.4-0.2
				l0,0c-0.1-0.1-0.2-0.2-0.2-0.4l0,0c0-0.1,0.1-0.3,0.2-0.4l0,0c0.1-0.1,0.2-0.2,0.4-0.2h5.7l0,0c0.1,0,0.3,0.1,0.4,0.2l0,0
				c0.1,0.1,0.2,0.2,0.2,0.4l0,0c0,0.2-0.1,0.3-0.2,0.4l0,0L0.8,241h4.4l0,0c0.2,0,0.3,0.1,0.4,0.2l0,0c0.1,0.1,0.2,0.2,0.2,0.4l0,0
				c0,0.1-0.1,0.3-0.2,0.4l0,0C5.4,242.1,5.3,242.1,5.1,242.1z M13.4,239.3H8.3l0,0c0.1,0.5,0.4,0.9,0.8,1.3l0,0
				c0.4,0.3,0.9,0.5,1.4,0.5l0,0c0.6,0,1.2-0.2,1.6-0.7l0,0c0.1-0.1,0.2-0.1,0.4-0.1l0,0c0.1,0,0.3,0,0.4,0.1l0,0
				c0.1,0.1,0.1,0.2,0.1,0.4l0,0c0,0.1,0,0.3-0.1,0.4l0,0c-0.7,0.7-1.5,1-2.4,1l0,0c-0.9,0-1.7-0.3-2.4-1l0,0c-0.7-0.7-1-1.5-1-2.4
				l0,0c0-0.9,0.3-1.7,1-2.4l0,0c0.7-0.7,1.5-1,2.4-1l0,0c0.9,0,1.7,0.3,2.4,1l0,0c0.7,0.7,1,1.5,1,2.4l0,0c0,0.1-0.1,0.3-0.2,0.4
				l0,0C13.7,239.2,13.5,239.3,13.4,239.3z M8.3,238.2h4.5l0,0c-0.1-0.5-0.4-0.9-0.8-1.3l0,0c-0.4-0.3-0.9-0.5-1.4-0.5l0,0
				c-0.5,0-1,0.2-1.4,0.5l0,0C8.7,237.3,8.4,237.7,8.3,238.2z M22.2,232.5v9c0,0.1-0.1,0.3-0.2,0.4l0,0c-0.1,0.1-0.2,0.2-0.4,0.2
				l0,0c-0.2,0-0.3-0.1-0.4-0.2l0,0c-0.1-0.1-0.2-0.2-0.2-0.4v-0.4c-0.6,0.6-1.4,0.9-2.3,0.9l0,0c-0.9,0-1.7-0.3-2.4-1l0,0
				c-0.7-0.7-1-1.5-1-2.4l0,0c0-0.9,0.3-1.7,1-2.4l0,0c0.7-0.7,1.5-1,2.4-1l0,0c0.9,0,1.6,0.3,2.3,0.9v-3.7c0-0.1,0.1-0.3,0.2-0.4
				l0,0c0.1-0.1,0.2-0.2,0.4-0.2l0,0c0.2,0,0.3,0.1,0.4,0.2l0,0C22.1,232.3,22.2,232.4,22.2,232.5C22.2,232.5,22.2,232.5,22.2,232.5
				z M17.1,240.4L17.1,240.4c0.4,0.5,1,0.7,1.6,0.7l0,0c0.6,0,1.2-0.2,1.6-0.7l0,0c0.4-0.4,0.7-1,0.7-1.6l0,0c0-0.6-0.2-1.2-0.7-1.6
				l0,0c-0.4-0.4-1-0.7-1.6-0.7l0,0c-0.6,0-1.2,0.2-1.6,0.7l0,0c-0.4,0.5-0.7,1-0.7,1.6l0,0C16.5,239.4,16.7,239.9,17.1,240.4z
				 M27,242.1h-2.8l0,0c-0.2,0-0.3-0.1-0.4-0.2l0,0c-0.1-0.1-0.2-0.2-0.2-0.4v-8.4c0-0.1,0.1-0.3,0.2-0.4l0,0
				c0.1-0.1,0.2-0.2,0.4-0.2H27l0,0c0.9,0,1.7,0.3,2.4,1l0,0c0.7,0.7,1,1.5,1,2.4v2.7c0,0.9-0.3,1.7-1,2.4l0,0
				C28.7,241.8,27.9,242.1,27,242.1z M29.3,238.8v-2.7c0-0.6-0.2-1.2-0.7-1.6l0,0c-0.4-0.4-1-0.7-1.6-0.7h-2.3v7.3H27l0,0
				c0.6,0,1.2-0.2,1.6-0.7l0,0C29.1,239.9,29.3,239.4,29.3,238.8z M38.1,239.3H33l0,0c0.1,0.5,0.4,0.9,0.8,1.3l0,0
				c0.4,0.3,0.9,0.5,1.4,0.5l0,0c0.6,0,1.2-0.2,1.6-0.7l0,0c0.1-0.1,0.2-0.1,0.4-0.1l0,0c0.1,0,0.3,0,0.4,0.1l0,0
				c0.1,0.1,0.1,0.2,0.1,0.4l0,0c0,0.1,0,0.3-0.1,0.4l0,0c-0.7,0.7-1.5,1-2.4,1l0,0c-0.9,0-1.7-0.3-2.4-1l0,0c-0.7-0.7-1-1.5-1-2.4
				l0,0c0-0.9,0.3-1.7,1-2.4l0,0c0.7-0.7,1.5-1,2.4-1l0,0c0.9,0,1.7,0.3,2.4,1l0,0c0.7,0.7,1,1.5,1,2.4l0,0c0,0.1-0.1,0.3-0.2,0.4
				l0,0C38.4,239.2,38.3,239.3,38.1,239.3L38.1,239.3z M33,238.2h4.5l0,0c-0.1-0.5-0.4-0.9-0.8-1.3l0,0c-0.4-0.3-0.9-0.5-1.4-0.5
				l0,0c-0.5,0-1,0.2-1.4,0.5l0,0C33.4,237.3,33.2,237.7,33,238.2z M45.9,241.1L45.9,241.1c-0.7,0.7-1.5,1-2.4,1l0,0
				c-0.9,0-1.7-0.3-2.4-1l0,0c-0.7-0.7-1-1.5-1-2.4l0,0c0-0.9,0.3-1.7,1-2.4l0,0c0.7-0.7,1.5-1,2.4-1l0,0c0.9,0,1.7,0.3,2.4,1l0,0
				c0.1,0.1,0.1,0.2,0.1,0.4l0,0c0,0.1-0.1,0.3-0.1,0.4l0,0c-0.1,0.1-0.2,0.1-0.4,0.1l0,0c-0.1,0-0.3,0-0.4-0.1l0,0
				c-0.4-0.4-1-0.7-1.6-0.7l0,0c-0.6,0-1.2,0.2-1.6,0.7l0,0c-0.4,0.5-0.7,1-0.7,1.6l0,0c0,0.6,0.2,1.2,0.7,1.6l0,0
				c0.4,0.5,1,0.7,1.6,0.7l0,0c0.6,0,1.2-0.2,1.6-0.7l0,0c0.1-0.1,0.2-0.1,0.4-0.1l0,0c0.1,0,0.3,0,0.4,0.1l0,0
				c0.1,0.1,0.1,0.2,0.1,0.4l0,0C46.1,240.9,46,241,45.9,241.1z M53.8,239.3h-5.1l0,0c0.1,0.5,0.4,0.9,0.8,1.3l0,0
				c0.4,0.3,0.9,0.5,1.4,0.5l0,0c0.6,0,1.2-0.2,1.6-0.7l0,0c0.1-0.1,0.2-0.1,0.4-0.1l0,0c0.1,0,0.3,0,0.4,0.1l0,0
				c0.1,0.1,0.1,0.2,0.1,0.4l0,0c0,0.1,0,0.3-0.1,0.4l0,0c-0.7,0.7-1.5,1-2.4,1l0,0c-0.9,0-1.7-0.3-2.4-1l0,0c-0.7-0.7-1-1.5-1-2.4
				l0,0c0-0.9,0.3-1.7,1-2.4l0,0c0.7-0.7,1.5-1,2.4-1l0,0c0.9,0,1.7,0.3,2.4,1l0,0c0.7,0.7,1,1.5,1,2.4l0,0c0,0.1-0.1,0.3-0.2,0.4
				l0,0C54.1,239.2,53.9,239.3,53.8,239.3L53.8,239.3z M48.7,238.2h4.5l0,0c-0.1-0.5-0.4-0.9-0.8-1.3l0,0c-0.4-0.3-0.9-0.5-1.4-0.5
				l0,0c-0.5,0-1,0.2-1.4,0.5l0,0C49.1,237.3,48.8,237.7,48.7,238.2z M61.5,241.6v-2.8c0-0.6-0.2-1.2-0.7-1.6l0,0
				c-0.4-0.4-1-0.7-1.6-0.7l0,0c-0.6,0-1.2,0.2-1.6,0.7l0,0c-0.4,0.5-0.7,1-0.7,1.6v2.8c0,0.1-0.1,0.3-0.2,0.4l0,0
				c-0.1,0.1-0.2,0.2-0.4,0.2l0,0c-0.2,0-0.3-0.1-0.4-0.2l0,0c-0.1-0.1-0.2-0.2-0.2-0.4v-5.7c0-0.1,0.1-0.3,0.2-0.4l0,0
				c0.1-0.1,0.2-0.2,0.4-0.2l0,0c0.2,0,0.3,0.1,0.4,0.2l0,0c0.1,0.1,0.2,0.2,0.2,0.4v0.4c0.6-0.6,1.4-0.9,2.3-0.9l0,0
				c0.9,0,1.7,0.3,2.4,1l0,0c0.7,0.7,1,1.5,1,2.4v2.8c0,0.1-0.1,0.3-0.2,0.4l0,0c-0.1,0.1-0.2,0.2-0.4,0.2l0,0
				c-0.2,0-0.3-0.1-0.4-0.2l0,0C61.5,241.9,61.5,241.7,61.5,241.6z M66.6,236.5h-1.5v3.6c0,0.3,0.1,0.5,0.3,0.7l0,0
				c0.2,0.2,0.4,0.3,0.7,0.3l0,0c0.3,0,0.5-0.1,0.7-0.3l0,0c0.1-0.1,0.2-0.1,0.4-0.1l0,0c0.1,0,0.3,0,0.4,0.1l0,0
				c0.1,0.1,0.2,0.2,0.2,0.4l0,0c0,0.1-0.1,0.3-0.2,0.4l0,0c-0.4,0.4-0.9,0.6-1.4,0.6l0,0c-0.6,0-1-0.2-1.4-0.6l0,0
				c-0.4-0.4-0.6-0.9-0.6-1.4v-6.9c0-0.1,0.1-0.3,0.2-0.4l0,0c0.1-0.1,0.2-0.2,0.4-0.2l0,0c0.2,0,0.3,0.1,0.4,0.2l0,0
				c0.1,0.1,0.2,0.2,0.2,0.4v2.2h1.5l0,0c0.2,0,0.3,0.1,0.4,0.2l0,0c0.1,0.1,0.2,0.2,0.2,0.4l0,0c0,0.1-0.1,0.3-0.2,0.4l0,0
				C66.9,236.4,66.8,236.5,66.6,236.5L66.6,236.5z M69.2,241.6v-5.7c0-0.1,0.1-0.3,0.2-0.4l0,0c0.1-0.1,0.2-0.2,0.4-0.2l0,0
				c0.2,0,0.3,0.1,0.4,0.2l0,0c0.1,0.1,0.2,0.2,0.2,0.4v0.4c0.6-0.6,1.4-0.9,2.3-0.9l0,0c0.2,0,0.3,0.1,0.4,0.2l0,0
				c0.1,0.1,0.2,0.2,0.2,0.4l0,0c0,0.1-0.1,0.3-0.2,0.4l0,0c-0.1,0.1-0.2,0.2-0.4,0.2l0,0c-0.6,0-1.2,0.2-1.6,0.7l0,0
				c-0.4,0.5-0.7,1-0.7,1.6v2.8c0,0.1-0.1,0.3-0.2,0.4l0,0c-0.1,0.1-0.2,0.2-0.4,0.2l0,0c-0.2,0-0.3-0.1-0.4-0.2l0,0
				C69.2,241.9,69.2,241.7,69.2,241.6L69.2,241.6z M80.2,241.6v-0.4c-0.6,0.6-1.4,0.9-2.3,0.9l0,0c-0.9,0-1.7-0.3-2.4-1l0,0
				c-0.7-0.7-1-1.5-1-2.4l0,0c0-0.9,0.3-1.7,1-2.4l0,0c0.7-0.7,1.5-1,2.4-1l0,0c0.9,0,1.7,0.3,2.4,1l0,0c0.7,0.7,1,1.5,1,2.4v2.8
				c0,0.1-0.1,0.3-0.2,0.4l0,0c-0.1,0.1-0.2,0.2-0.4,0.2l0,0c-0.2,0-0.3-0.1-0.4-0.2l0,0C80.3,241.9,80.2,241.7,80.2,241.6z
				 M76.3,240.4L76.3,240.4c0.4,0.5,1,0.7,1.6,0.7l0,0c0.6,0,1.2-0.2,1.6-0.7l0,0c0.4-0.4,0.7-1,0.7-1.6l0,0c0-0.6-0.2-1.2-0.7-1.6
				l0,0c-0.4-0.4-1-0.7-1.6-0.7l0,0c-0.6,0-1.2,0.2-1.6,0.7l0,0c-0.4,0.5-0.7,1-0.7,1.6l0,0C75.6,239.4,75.9,239.9,76.3,240.4z
				 M83.9,232.5v9c0,0.1-0.1,0.3-0.2,0.4l0,0c-0.1,0.1-0.2,0.2-0.4,0.2l0,0c-0.2,0-0.3-0.1-0.4-0.2l0,0c-0.1-0.1-0.2-0.2-0.2-0.4v-9
				c0-0.1,0.1-0.3,0.2-0.4l0,0c0.1-0.1,0.2-0.2,0.4-0.2l0,0c0.2,0,0.3,0.1,0.4,0.2l0,0C83.8,232.3,83.9,232.4,83.9,232.5z
				 M86.4,232.9L86.4,232.9c0.1,0.1,0.2,0.3,0.2,0.4l0,0c0,0.2-0.1,0.3-0.2,0.4l0,0c-0.1,0.1-0.3,0.2-0.4,0.2l0,0
				c-0.2,0-0.3-0.1-0.4-0.2l0,0c-0.1-0.1-0.2-0.3-0.2-0.4l0,0c0-0.2,0.1-0.3,0.2-0.4l0,0c0.1-0.1,0.3-0.2,0.4-0.2l0,0
				C86.1,232.7,86.3,232.7,86.4,232.9z M85.4,241.6v-5.7c0-0.1,0.1-0.3,0.2-0.4l0,0c0.1-0.1,0.2-0.2,0.4-0.2l0,0
				c0.1,0,0.3,0.1,0.4,0.2l0,0c0.1,0.1,0.2,0.2,0.2,0.4v5.7c0,0.1-0.1,0.3-0.2,0.4l0,0c-0.1,0.1-0.2,0.2-0.4,0.2l0,0
				c-0.1,0-0.3-0.1-0.4-0.2l0,0C85.5,241.9,85.4,241.7,85.4,241.6z M94.3,242.1h-5.7l0,0c-0.2,0-0.3-0.1-0.4-0.2l0,0
				c-0.1-0.1-0.2-0.2-0.2-0.4l0,0c0-0.2,0.1-0.3,0.2-0.4l0,0l4.7-4.8h-4.4l0,0c-0.2,0-0.3-0.1-0.4-0.2l0,0c-0.1-0.1-0.2-0.2-0.2-0.4
				l0,0c0-0.1,0.1-0.3,0.2-0.4l0,0c0.1-0.1,0.2-0.2,0.4-0.2h5.7l0,0c0.1,0,0.3,0.1,0.4,0.2l0,0c0.1,0.1,0.2,0.2,0.2,0.4l0,0
				c0,0.2-0.1,0.3-0.2,0.4l0,0l-4.7,4.8h4.4l0,0c0.2,0,0.3,0.1,0.4,0.2l0,0c0.1,0.1,0.2,0.2,0.2,0.4l0,0c0,0.1-0.1,0.3-0.2,0.4l0,0
				C94.6,242.1,94.4,242.1,94.3,242.1z M102.5,239.3h-5.1l0,0c0.1,0.5,0.4,0.9,0.8,1.3l0,0c0.4,0.3,0.9,0.5,1.4,0.5l0,0
				c0.6,0,1.2-0.2,1.6-0.7l0,0c0.1-0.1,0.2-0.1,0.4-0.1l0,0c0.1,0,0.3,0,0.4,0.1l0,0c0.1,0.1,0.1,0.2,0.1,0.4l0,0
				c0,0.1,0,0.3-0.1,0.4l0,0c-0.7,0.7-1.5,1-2.4,1l0,0c-0.9,0-1.7-0.3-2.4-1l0,0c-0.7-0.7-1-1.5-1-2.4l0,0c0-0.9,0.3-1.7,1-2.4l0,0
				c0.7-0.7,1.5-1,2.4-1l0,0c0.9,0,1.7,0.3,2.4,1l0,0c0.7,0.7,1,1.5,1,2.4l0,0c0,0.1-0.1,0.3-0.2,0.4l0,0
				C102.8,239.2,102.7,239.3,102.5,239.3z M97.5,238.2h4.5l0,0c-0.1-0.5-0.4-0.9-0.8-1.3l0,0c-0.4-0.3-0.9-0.5-1.4-0.5l0,0
				c-0.5,0-1,0.2-1.4,0.5l0,0C97.9,237.3,97.6,237.7,97.5,238.2z M111.3,232.5v9c0,0.1-0.1,0.3-0.2,0.4l0,0
				c-0.1,0.1-0.2,0.2-0.4,0.2l0,0c-0.2,0-0.3-0.1-0.4-0.2l0,0c-0.1-0.1-0.2-0.2-0.2-0.4v-0.4c-0.6,0.6-1.4,0.9-2.3,0.9l0,0
				c-0.9,0-1.7-0.3-2.4-1l0,0c-0.7-0.7-1-1.5-1-2.4l0,0c0-0.9,0.3-1.7,1-2.4l0,0c0.7-0.7,1.5-1,2.4-1l0,0c0.9,0,1.6,0.3,2.3,0.9
				v-3.7c0-0.1,0.1-0.3,0.2-0.4l0,0c0.1-0.1,0.2-0.2,0.4-0.2l0,0c0.2,0,0.3,0.1,0.4,0.2l0,0C111.3,232.3,111.3,232.4,111.3,232.5
				C111.3,232.5,111.3,232.5,111.3,232.5z M106.3,240.4L106.3,240.4c0.4,0.5,1,0.7,1.6,0.7l0,0c0.6,0,1.2-0.2,1.6-0.7l0,0
				c0.4-0.4,0.7-1,0.7-1.6l0,0c0-0.6-0.2-1.2-0.7-1.6l0,0c-0.4-0.4-1-0.7-1.6-0.7l0,0c-0.6,0-1.2,0.2-1.6,0.7l0,0
				c-0.4,0.5-0.7,1-0.7,1.6l0,0C105.6,239.4,105.9,239.9,106.3,240.4z M116.3,239.3h-2.4v2.3c0,0.1-0.1,0.3-0.2,0.4l0,0
				c-0.1,0.1-0.2,0.2-0.4,0.2l0,0c-0.2,0-0.3-0.1-0.4-0.2l0,0c-0.1-0.1-0.2-0.2-0.2-0.4v-8.4c0-0.1,0.1-0.3,0.2-0.4l0,0
				c0.1-0.1,0.2-0.2,0.4-0.2h2.9l0,0c0.9,0,1.7,0.3,2.3,1l0,0c0.6,0.6,1,1.4,1,2.3l0,0c0,0.9-0.3,1.7-1,2.3l0,0
				C117.9,239,117.2,239.3,116.3,239.3z M113.9,233.8v4.5h2.4l0,0c0.6,0,1.1-0.2,1.6-0.7l0,0c0.4-0.4,0.7-1,0.7-1.6l0,0
				c0-0.6-0.2-1.1-0.7-1.6l0,0c-0.4-0.4-1-0.7-1.6-0.7C116.3,233.8,113.9,233.8,113.9,233.8z M122.1,232.5v9c0,0.1-0.1,0.3-0.2,0.4
				l0,0c-0.1,0.1-0.2,0.2-0.4,0.2l0,0c-0.2,0-0.3-0.1-0.4-0.2l0,0c-0.1-0.1-0.2-0.2-0.2-0.4v-9c0-0.1,0.1-0.3,0.2-0.4l0,0
				c0.1-0.1,0.2-0.2,0.4-0.2l0,0c0.2,0,0.3,0.1,0.4,0.2l0,0C122.1,232.3,122.1,232.4,122.1,232.5z M129.3,241.6v-0.4
				c-0.7,0.6-1.4,0.9-2.3,0.9l0,0c-0.9,0-1.7-0.3-2.4-1l0,0c-0.7-0.7-1-1.5-1-2.4l0,0c0-0.9,0.3-1.7,1-2.4l0,0c0.7-0.7,1.5-1,2.4-1
				l0,0c0.9,0,1.7,0.3,2.4,1l0,0c0.7,0.7,1,1.5,1,2.4v2.8c0,0.1-0.1,0.3-0.2,0.4l0,0c-0.1,0.1-0.2,0.2-0.4,0.2l0,0
				c-0.2,0-0.3-0.1-0.4-0.2l0,0C129.3,241.9,129.3,241.7,129.3,241.6L129.3,241.6z M125.4,240.4L125.4,240.4c0.4,0.5,1,0.7,1.6,0.7
				l0,0c0.6,0,1.2-0.2,1.6-0.7l0,0c0.4-0.4,0.7-1,0.7-1.6l0,0c0-0.6-0.2-1.2-0.7-1.6l0,0c-0.4-0.4-1-0.7-1.6-0.7l0,0
				c-0.6,0-1.2,0.2-1.6,0.7l0,0c-0.4,0.5-0.7,1-0.7,1.6l0,0C124.7,239.4,124.9,239.9,125.4,240.4z M134.4,236.5h-1.5v3.6
				c0,0.3,0.1,0.5,0.3,0.7l0,0c0.2,0.2,0.4,0.3,0.7,0.3l0,0c0.3,0,0.5-0.1,0.7-0.3l0,0c0.1-0.1,0.2-0.1,0.4-0.1l0,0
				c0.1,0,0.3,0,0.4,0.1l0,0c0.1,0.1,0.2,0.2,0.2,0.4l0,0c0,0.1-0.1,0.3-0.2,0.4l0,0c-0.4,0.4-0.9,0.6-1.4,0.6l0,0
				c-0.6,0-1-0.2-1.4-0.6l0,0c-0.4-0.4-0.6-0.9-0.6-1.4v-6.9c0-0.1,0.1-0.3,0.2-0.4l0,0c0.1-0.1,0.2-0.2,0.4-0.2l0,0
				c0.2,0,0.3,0.1,0.4,0.2l0,0c0.1,0.1,0.2,0.2,0.2,0.4v2.2h1.5l0,0c0.2,0,0.3,0.1,0.4,0.2l0,0c0.1,0.1,0.2,0.2,0.2,0.4l0,0
				c0,0.1-0.1,0.3-0.2,0.4l0,0C134.7,236.4,134.6,236.5,134.4,236.5L134.4,236.5L134.4,236.5z M140.1,236.5h-2v5.1
				c0,0.1-0.1,0.3-0.2,0.4l0,0c-0.1,0.1-0.2,0.2-0.4,0.2l0,0c-0.2,0-0.3-0.1-0.4-0.2l0,0c-0.1-0.1-0.2-0.2-0.2-0.4V234
				c0-0.6,0.2-1,0.6-1.4l0,0c0.4-0.4,0.9-0.6,1.4-0.6l0,0c0.6,0,1,0.2,1.4,0.6l0,0c0.1,0.1,0.2,0.2,0.2,0.4l0,0
				c0,0.1-0.1,0.3-0.2,0.4l0,0c-0.1,0.1-0.2,0.1-0.4,0.1l0,0c-0.1,0-0.3,0-0.4-0.1l0,0c-0.2-0.2-0.4-0.3-0.7-0.3l0,0
				c-0.3,0-0.5,0.1-0.7,0.3l0,0c-0.2,0.2-0.3,0.4-0.3,0.7v1.3h2l0,0c0.2,0,0.3,0.1,0.4,0.2l0,0c0.1,0.1,0.2,0.2,0.2,0.4l0,0
				c0,0.1-0.1,0.3-0.2,0.4l0,0C140.3,236.4,140.2,236.5,140.1,236.5L140.1,236.5L140.1,236.5z M147.8,241.1L147.8,241.1
				c-0.7,0.7-1.5,1-2.4,1l0,0c-0.9,0-1.7-0.3-2.4-1l0,0c-0.7-0.7-1-1.5-1-2.4l0,0c0-0.9,0.3-1.7,1-2.4l0,0c0.7-0.7,1.5-1,2.4-1l0,0
				c0.9,0,1.7,0.3,2.4,1l0,0c0.7,0.7,1,1.5,1,2.4l0,0C148.8,239.7,148.5,240.5,147.8,241.1L147.8,241.1z M143.8,240.4L143.8,240.4
				c0.4,0.5,1,0.7,1.6,0.7l0,0c0.6,0,1.2-0.2,1.6-0.7l0,0c0.4-0.4,0.7-1,0.7-1.6l0,0c0-0.6-0.2-1.2-0.7-1.6l0,0
				c-0.4-0.4-1-0.7-1.6-0.7l0,0c-0.6,0-1.2,0.2-1.6,0.7l0,0c-0.4,0.5-0.7,1-0.7,1.6l0,0C143.2,239.4,143.4,239.9,143.8,240.4z
				 M150.3,241.6v-5.7c0-0.1,0.1-0.3,0.2-0.4l0,0c0.1-0.1,0.2-0.2,0.4-0.2l0,0c0.2,0,0.3,0.1,0.4,0.2l0,0c0.1,0.1,0.2,0.2,0.2,0.4
				v0.4c0.6-0.6,1.4-0.9,2.3-0.9l0,0c0.2,0,0.3,0.1,0.4,0.2l0,0c0.1,0.1,0.2,0.2,0.2,0.4l0,0c0,0.1-0.1,0.3-0.2,0.4l0,0
				c-0.1,0.1-0.2,0.2-0.4,0.2l0,0c-0.6,0-1.2,0.2-1.6,0.7l0,0c-0.4,0.5-0.7,1-0.7,1.6v2.8c0,0.1-0.1,0.3-0.2,0.4l0,0
				c-0.1,0.1-0.2,0.2-0.4,0.2l0,0c-0.2,0-0.3-0.1-0.4-0.2l0,0C150.4,241.9,150.3,241.7,150.3,241.6L150.3,241.6z M165.5,241.6v-3.2
				c0-0.5-0.2-1-0.6-1.3l0,0c-0.4-0.4-0.8-0.6-1.3-0.6l0,0c-0.5,0-1,0.2-1.3,0.6l0,0c-0.4,0.4-0.6,0.8-0.6,1.3v3.2
				c0,0.1-0.1,0.3-0.2,0.4l0,0c-0.1,0.1-0.2,0.2-0.4,0.2l0,0c-0.2,0-0.3-0.1-0.4-0.2l0,0c-0.1-0.1-0.2-0.2-0.2-0.4v-3.2
				c0-0.5-0.2-1-0.6-1.3l0,0c-0.4-0.4-0.8-0.6-1.3-0.6l0,0c-0.5,0-1,0.2-1.3,0.6l0,0c-0.4,0.4-0.6,0.8-0.6,1.3v3.2
				c0,0.1-0.1,0.3-0.2,0.4l0,0c-0.1,0.1-0.2,0.2-0.4,0.2l0,0c-0.2,0-0.3-0.1-0.4-0.2l0,0c-0.1-0.1-0.2-0.2-0.2-0.4v-5.7
				c0-0.1,0.1-0.3,0.2-0.4l0,0c0.1-0.1,0.2-0.2,0.4-0.2l0,0c0.2,0,0.3,0.1,0.4,0.2l0,0c0.1,0.1,0.2,0.2,0.2,0.4v0.1
				c0.5-0.5,1.2-0.7,1.9-0.7l0,0c0.5,0,1,0.1,1.4,0.3l0,0c0.4,0.2,0.8,0.5,1.1,0.9l0,0c0.3-0.4,0.6-0.7,1.1-0.9l0,0
				c0.4-0.2,0.9-0.3,1.4-0.3l0,0c0.8,0,1.5,0.3,2.1,0.9l0,0c0.6,0.6,0.9,1.3,0.9,2.1v3.2c0,0.1-0.1,0.3-0.2,0.4l0,0
				c-0.1,0.1-0.2,0.2-0.4,0.2l0,0c-0.2,0-0.3-0.1-0.4-0.2l0,0C165.5,241.9,165.5,241.7,165.5,241.6"/>
		</g>
	</g>
</g>
</svg>
