<?xml version="1.0" encoding="utf-8"?>
<!-- Generator: Adobe Illustrator 19.0.0, SVG Export Plug-In . SVG Version: 6.00 Build 0)  -->
<svg version="1.1" id="Layer_1" xmlns="http://www.w3.org/2000/svg" xmlns:xlink="http://www.w3.org/1999/xlink" x="0px" y="0px"
	 viewBox="0 0 431.3 287" style="enable-background:new 0 0 431.3 287;" xml:space="preserve">
<style type="text/css">
	.st0{opacity:0.2;}
	.st1{fill:none;stroke:#00A6FF;stroke-width:0.273;stroke-miterlimit:10;}
	.st2{opacity:0.5;}
	.st3{opacity:0.2;fill:none;stroke:#00A6FF;stroke-width:0.273;stroke-miterlimit:10;}
	.st4{opacity:0.1;}
	.st5{fill:#00A6FF;}
	.st6{fill:#FFFFFF;}
	.st7{fill:none;stroke:#00A6FF;stroke-width:2.184;stroke-miterlimit:10;stroke-dasharray:0.2187,1.0936;}
	.st8{opacity:0.3;}
	.st9{fill:none;stroke:#00A6FF;stroke-width:2.184;stroke-miterlimit:10;}
	.st10{fill:none;stroke:#00A6FF;stroke-width:2.184;stroke-miterlimit:10;stroke-dasharray:0.2178,1.0891;}
	.st11{fill:none;stroke:#00A6FF;stroke-width:2.184;stroke-miterlimit:10;stroke-dasharray:0.4409,0.8818;}
	.st12{fill:none;}
	.st13{fill:#333333;}
	.st14{font-family:'OpenSansCondensed-Light';}
	.st15{font-size:8.7361px;}
	.st16{fill:none;stroke:#00A6FF;stroke-width:2.184;stroke-miterlimit:10;stroke-dasharray:0.2175,1.0873;}
	.st17{fill:none;stroke:#00A6FF;stroke-width:2.184;stroke-miterlimit:10;stroke-dasharray:0.4333,0.8665;}
	.st18{fill:none;stroke:#00A6FF;stroke-width:2.184;stroke-miterlimit:10;stroke-dasharray:0.4353,0.8707;}
	.st19{fill:none;stroke:#00A6FF;stroke-width:2.184;stroke-miterlimit:10;stroke-dasharray:0.2189,1.0945;}
	.st20{font-family:'OpenSansCondensed-Bold';}
	.st21{font-size:10px;}
	.st22{fill:none;stroke:#00A6FF;stroke-width:0.3504;stroke-miterlimit:10;}
	.st23{opacity:0.4;}
	.st24{opacity:0.2;fill:none;stroke:#00A6FF;stroke-width:0.3504;stroke-miterlimit:10;}
	.st25{font-size:12px;}
	.st26{font-size:11px;}
	.st27{font-size:9px;}
	.st28{font-size:8px;}
	.st29{fill:none;stroke:#00A6FF;stroke-width:0.6663;stroke-miterlimit:10;}
	.st30{fill:none;stroke:#00A6FF;stroke-width:0.6663;stroke-miterlimit:10;stroke-dasharray:0.2641,1.3206;}
	.st31{fill:none;stroke:#00A6FF;stroke-width:0.6663;stroke-miterlimit:10;stroke-dasharray:0.2658,1.3291;}
	.st32{fill:none;stroke:#00A6FF;stroke-width:2.6653;stroke-miterlimit:10;stroke-dasharray:0.2675,1.3376;}
	.st33{font-size:14.6592px;}
	.st34{fill:none;stroke:#00A6FF;stroke-width:2.184;stroke-miterlimit:10;stroke-dasharray:0.4368,0.8736;}
</style>
<g id="XMLID_127_">
	<g id="XMLID_2345_">
		<g id="XMLID_2409_" class="st0">
			<g id="XMLID_373_">
				<line id="XMLID_374_" class="st1" x1="198" y1="181.6" x2="271" y2="55.1"/>
			</g>
			<g id="XMLID_368_">
				<line id="XMLID_370_" class="st1" x1="171.2" y1="154.8" x2="297.7" y2="81.8"/>
			</g>
			<g id="XMLID_364_">
				<line id="XMLID_365_" class="st1" x1="161.5" y1="118.3" x2="307.5" y2="118.3"/>
			</g>
			<g id="XMLID_359_">
				<line id="XMLID_361_" class="st1" x1="171.2" y1="81.8" x2="297.7" y2="154.8"/>
			</g>
			<g id="XMLID_349_">
				<line id="XMLID_350_" class="st1" x1="198" y1="55.1" x2="271" y2="181.6"/>
			</g>
			<g id="XMLID_345_">
				<line id="XMLID_347_" class="st1" x1="234.5" y1="45.3" x2="234.5" y2="191.3"/>
			</g>
		</g>
		<g id="XMLID_2360_" class="st2">
			<circle id="XMLID_55_" class="st3" cx="234.5" cy="118.3" r="71.1"/>
			<circle id="XMLID_97_" class="st3" cx="234.5" cy="118.3" r="67.4"/>
			<circle id="XMLID_96_" class="st3" cx="234.5" cy="118.3" r="63.6"/>
			<circle id="XMLID_95_" class="st3" cx="234.5" cy="118.3" r="59.9"/>
			<circle id="XMLID_94_" class="st3" cx="234.5" cy="118.3" r="56.1"/>
			<circle id="XMLID_93_" class="st3" cx="234.5" cy="118.3" r="52.3"/>
			<circle id="XMLID_92_" class="st3" cx="234.5" cy="118.3" r="48.6"/>
			<circle id="XMLID_91_" class="st3" cx="234.5" cy="118.3" r="44.8"/>
			<circle id="XMLID_76_" class="st3" cx="234.5" cy="118.3" r="41"/>
			<circle id="XMLID_75_" class="st3" cx="234.5" cy="118.3" r="37.3"/>
			<circle id="XMLID_58_" class="st3" cx="234.5" cy="118.3" r="33.5"/>
			<circle id="XMLID_57_" class="st3" cx="234.5" cy="118.3" r="29.7"/>
			<circle id="XMLID_56_" class="st3" cx="234.5" cy="118.3" r="26"/>
			<circle id="XMLID_54_" class="st3" cx="234.5" cy="118.3" r="22.2"/>
		</g>
		<g id="XMLID_2358_" class="st4">
			<path id="XMLID_102_" class="st5" d="M286.1,146.1c-1.7,7-8.5,15.2-15,18.2l-17.3,8c-6.5,3-17.3,3.2-24,0.5l-45.9-19
				c-6.7-2.8-10.7-10.7-9.1-17.7l11.2-46.9c1.7-7,8.8-14,15.9-15.5l53.1-11.3c7-1.5,16.2,2.1,20.2,8.1l14.2,20.7
				c4.1,5.9,6,16.5,4.3,23.5L286.1,146.1z"/>
		</g>
		<g id="XMLID_2356_" class="st4">
			<path id="XMLID_107_" class="st5" d="M174,91.3c0.7-7.2,6.8-15,13.6-17.5l61.7-22.2c6.8-2.4,15.6,0.5,19.5,6.5l25.9,39.4
				c4,6,5.1,16.5,2.5,23.2l-3.8,9.8c-2.6,6.7-9.1,16.1-14.6,20.8L243,182.6c-5.4,4.7-14.4,4.8-19.8,0.1l-43.5-37.2
				c-5.5-4.7-9.4-14.4-8.7-21.6L174,91.3z"/>
		</g>
		<g id="XMLID_2354_" class="st4">
			<path id="XMLID_130_" class="st5" d="M291.5,154c-2,6.9-9.4,13.5-16.5,14.5l-42.5,6.1c-7.1,1-17.3-2.1-22.7-7l-36.1-32.8
				c-5.3-4.9-6.5-13.8-2.7-19.9l20.4-32.4c3.8-6.1,12.8-12.1,19.9-13.4l39.5-7.1c7.1-1.3,16.3,2.5,20.4,8.4l23.7,33.9
				c4.1,5.9,5.9,16.4,4,23.3L291.5,154z"/>
		</g>
		<g id="XMLID_2353_" class="st4">
			<path id="XMLID_136_" class="st5" d="M296.2,113.1c2.9,6.6,1.3,16.4-3.6,21.7l-29.5,32.3c-4.9,5.3-14.7,9.4-21.9,9l-49.6-2.5
				c-7.2-0.4-13.8-6.5-14.7-13.7l-4.9-38.7c-0.9-7.1,2.2-17.5,6.8-23l26.5-31.2c4.7-5.5,14.2-8.4,21.1-6.5L267.1,72
				c6.9,1.9,15,8.9,17.9,15.5L296.2,113.1z"/>
		</g>
		<circle id="XMLID_2352_" class="st6" cx="234.5" cy="118.3" r="49.9"/>
		<g id="XMLID_2349_">
			<circle id="XMLID_105_" class="st7" cx="234.5" cy="118.3" r="46.8"/>
		</g>
		<circle id="XMLID_2348_" class="st1" cx="234.5" cy="118.3" r="41.4"/>
		<circle id="XMLID_2347_" class="st1" cx="234.5" cy="118.3" r="41.4"/>
		<circle id="XMLID_2346_" class="st1" cx="234.5" cy="118.3" r="40.4"/>
	</g>
	<g id="XMLID_2343_" class="st4">
		<path id="XMLID_2344_" class="st5" d="M378.7,68.8c-2.1,8.4-9.8,18-17.1,21.4s-19.9,3.5-27.9,0.2l-16.5-6.8
			c-8-3.3-12.9-12.9-10.9-21.3l3.9-16.5c2-8.4,10.6-16.8,19-18.6l20.4-4.3c8.5-1.8,19.4,2.6,24.3,9.7l1.1,1.6
			c4.9,7.1,7.2,19.8,5.1,28.2L378.7,68.8z"/>
	</g>
	<g id="XMLID_2290_">
		<g id="XMLID_2309_" class="st0">
			<g id="XMLID_2341_">
				<line id="XMLID_2342_" class="st1" x1="319.1" y1="30.9" x2="367.9" y2="85.1"/>
			</g>
			<g id="XMLID_2320_">
				<line id="XMLID_2321_" class="st1" x1="358.9" y1="24.9" x2="328" y2="91.1"/>
			</g>
			<g id="XMLID_2318_">
				<line id="XMLID_2319_" class="st1" x1="379.9" y1="59.3" x2="307" y2="56.7"/>
			</g>
			<g id="XMLID_2316_">
				<line id="XMLID_2317_" class="st1" x1="356.5" y1="92" x2="330.4" y2="23.9"/>
			</g>
			<g id="XMLID_2314_">
				<line id="XMLID_2315_" class="st1" x1="317.2" y1="83.3" x2="369.7" y2="32.6"/>
			</g>
			<g id="XMLID_2312_">
				<line id="XMLID_2313_" class="st1" x1="309.9" y1="43.7" x2="377.1" y2="72.2"/>
			</g>
			<g id="XMLID_2310_">
				<line id="XMLID_2311_" class="st1" x1="343.5" y1="21.5" x2="343.5" y2="94.5"/>
			</g>
		</g>
		<g id="XMLID_2291_">
			<circle id="XMLID_2308_" class="st3" cx="343.5" cy="58" r="35.6"/>
			<circle id="XMLID_2307_" class="st3" cx="343.5" cy="58" r="33.7"/>
			<circle id="XMLID_2306_" class="st3" cx="343.5" cy="58" r="31.8"/>
			<circle id="XMLID_2305_" class="st3" cx="343.5" cy="58" r="29.9"/>
			<circle id="XMLID_2304_" class="st3" cx="343.5" cy="58" r="28"/>
			<circle id="XMLID_2303_" class="st3" cx="343.5" cy="58" r="26.2"/>
			<circle id="XMLID_2302_" class="st3" cx="343.5" cy="58" r="24.3"/>
			<circle id="XMLID_2301_" class="st3" cx="343.5" cy="58" r="22.4"/>
			<circle id="XMLID_2300_" class="st3" cx="343.5" cy="58" r="20.5"/>
			<circle id="XMLID_2299_" class="st3" cx="343.5" cy="58" r="18.6"/>
			<circle id="XMLID_2297_" class="st3" cx="343.5" cy="58" r="16.7"/>
			<circle id="XMLID_2296_" class="st3" cx="343.5" cy="58" r="14.9"/>
			<circle id="XMLID_2294_" class="st3" cx="343.5" cy="58" r="13"/>
			<circle id="XMLID_2293_" class="st3" cx="343.5" cy="58" r="11.1"/>
		</g>
	</g>
	<circle id="XMLID_2289_" class="st6" cx="343.5" cy="58" r="30.9"/>
	<g id="XMLID_2283_" class="st8">
		<path id="XMLID_2288_" class="st9" d="M371.8,58c0,0,0,0.1,0,0.1"/>
		<path id="XMLID_2287_" class="st10" d="M371.7,59.4c-0.7,15-13.1,26.9-28.3,26.9c-15.6,0-28.3-12.7-28.3-28.3
			c0-15.4,12.2-27.9,27.5-28.3"/>
		<path id="XMLID_2285_" class="st9" d="M343.3,29.7c0,0,0.1,0,0.1,0"/>
	</g>
	<g id="XMLID_2278_">
		<path id="XMLID_2281_" class="st9" d="M343.5,29.7c0.1,0,0.2,0,0.3,0"/>
		<path id="XMLID_2280_" class="st11" d="M344.8,29.7c14.8,0.7,26.6,12.7,27,27.5"/>
		<path id="XMLID_2279_" class="st9" d="M371.8,57.7c0,0.1,0,0.2,0,0.3"/>
	</g>
	<g id="XMLID_2276_">
		<rect id="XMLID_356_" x="251.5" y="192.7" class="st12" width="21.6" height="10.7"/>
		<text id="XMLID_342_" transform="matrix(1 0 0 1 252.4524 199.3067)" class="st13 st14 st15">3 week</text>
	</g>
	<g id="XMLID_2274_">
		<rect id="XMLID_372_" x="172.6" y="179.1" class="st12" width="24.3" height="10.7"/>
		<text id="XMLID_362_" transform="matrix(1 0 0 1 174.8582 185.7349)" class="st13 st14 st15">4 week</text>
	</g>
	<g id="XMLID_2272_">
		<rect id="XMLID_377_" x="306.2" y="145.2" class="st12" width="20.9" height="7.9"/>
		<text id="XMLID_376_" transform="matrix(1 0 0 1 306.1741 151.8807)" class="st13 st14 st15">2 week</text>
	</g>
	<g id="XMLID_2270_">
		<rect id="XMLID_382_" x="297.5" y="87.7" class="st12" width="24.3" height="7.9"/>
		<text id="XMLID_379_" transform="matrix(1 0 0 1 297.4876 94.3602)" class="st13 st14 st15">1 week</text>
	</g>
	<g id="XMLID_2236_">
		<g id="XMLID_2253_" class="st0">
			<g id="XMLID_2268_">
				<line id="XMLID_2269_" class="st1" x1="344.2" y1="129.8" x2="393" y2="184.1"/>
			</g>
			<g id="XMLID_2266_">
				<line id="XMLID_2267_" class="st1" x1="384" y1="123.9" x2="353.2" y2="190"/>
			</g>
			<g id="XMLID_2263_">
				<line id="XMLID_2264_" class="st1" x1="405.1" y1="158.2" x2="332.1" y2="155.7"/>
			</g>
			<g id="XMLID_2261_">
				<line id="XMLID_2262_" class="st1" x1="381.7" y1="191" x2="355.5" y2="122.9"/>
			</g>
			<g id="XMLID_2259_">
				<line id="XMLID_2260_" class="st1" x1="342.3" y1="182.3" x2="394.8" y2="131.6"/>
			</g>
			<g id="XMLID_2257_">
				<line id="XMLID_2258_" class="st1" x1="335" y1="142.7" x2="402.2" y2="171.2"/>
			</g>
			<g id="XMLID_2254_">
				<line id="XMLID_2256_" class="st1" x1="368.6" y1="120.4" x2="368.6" y2="193.4"/>
			</g>
		</g>
		<g id="XMLID_2237_">
			<circle id="XMLID_2252_" class="st3" cx="368.6" cy="156.9" r="35.6"/>
			<circle id="XMLID_2250_" class="st3" cx="368.6" cy="156.9" r="33.7"/>
			<circle id="XMLID_2249_" class="st3" cx="368.6" cy="156.9" r="31.8"/>
			<circle id="XMLID_2248_" class="st3" cx="368.6" cy="156.9" r="29.9"/>
			<circle id="XMLID_2247_" class="st3" cx="368.6" cy="156.9" r="28"/>
			<circle id="XMLID_2246_" class="st3" cx="368.6" cy="156.9" r="26.2"/>
			<circle id="XMLID_2245_" class="st3" cx="368.6" cy="156.9" r="24.3"/>
			<circle id="XMLID_2244_" class="st3" cx="368.6" cy="156.9" r="22.4"/>
			<circle id="XMLID_2243_" class="st3" cx="368.6" cy="156.9" r="20.5"/>
			<circle id="XMLID_2242_" class="st3" cx="368.6" cy="156.9" r="18.6"/>
			<circle id="XMLID_2241_" class="st3" cx="368.6" cy="156.9" r="16.7"/>
			<circle id="XMLID_2240_" class="st3" cx="368.6" cy="156.9" r="14.9"/>
			<circle id="XMLID_2239_" class="st3" cx="368.6" cy="156.9" r="13"/>
			<circle id="XMLID_2238_" class="st3" cx="368.6" cy="156.9" r="11.1"/>
		</g>
	</g>
	<g id="XMLID_2234_" class="st4">
		<path id="XMLID_2235_" class="st5" d="M389.1,189.2c-6.9,5.3-18.7,6.2-26.3,2l-9.5-5.2c-7.6-4.1-15.1-14.5-16.8-23l-2.7-14.1
			c-1.6-8.5,3.6-18,11.7-21.1l7.4-2.8c8.1-3.1,21-2.5,28.7,1.4l8.1,4.1c7.7,3.9,13.8,14.1,13.6,22.8l-0.3,9.8
			c-0.3,8.6-6.1,20-13,25.3L389.1,189.2z"/>
	</g>
	<circle id="XMLID_2233_" class="st6" cx="368.6" cy="156.9" r="30.9"/>
	<g id="XMLID_2222_">
		<g id="XMLID_2227_" class="st8">
			<path id="XMLID_2232_" class="st9" d="M391.4,174.1c0,0-0.1,0.1-0.1,0.1"/>
			<path id="XMLID_2229_" class="st16" d="M390.6,175.2c-5.2,6.5-13.1,10.7-22,10.7c-15.6,0-28.2-12.8-28.2-28.6
				c0-15.5,12.2-28.1,27.4-28.6"/>
			<path id="XMLID_2228_" class="st9" d="M368.5,128.8c0,0,0.1,0,0.1,0"/>
		</g>
		<g id="XMLID_2223_">
			<path id="XMLID_2226_" class="st9" d="M368.6,128.8c0.1,0,0.2,0,0.3,0"/>
			<path id="XMLID_2225_" class="st17" d="M369.9,128.8c15,0.7,26.9,13.2,26.9,28.6c0,6-1.8,11.5-4.9,16.1"/>
			<path id="XMLID_2224_" class="st9" d="M391.6,173.9c0,0.1-0.1,0.1-0.2,0.2"/>
		</g>
	</g>
	<g id="XMLID_2221_" class="st4">
		<path id="XMLID_313_" class="st5" d="M300,196.1c8.6-0.4,19.8,5.1,24.8,12.2l7.8,11c5,7.1,6.3,19.3,2.8,27.3l-3.6,8.3
			c-3.4,7.9-13.3,13.5-21.9,12.5l-15.7-2c-8.6-1.1-19-8.2-23.1-15.8l-3.7-6.9c-4.1-7.6-3.2-19.5,2-26.4l5.1-6.8
			c5.2-6.9,16.5-12.9,25.1-13.2L300,196.1z"/>
	</g>
	<g id="XMLID_2146_">
		<g id="XMLID_667_">
			<g id="XMLID_683_" class="st0">
				<g id="XMLID_696_">
					<line id="XMLID_697_" class="st1" x1="276.8" y1="206.3" x2="325.6" y2="260.5"/>
				</g>
				<g id="XMLID_694_">
					<line id="XMLID_695_" class="st1" x1="316.6" y1="200.3" x2="285.8" y2="266.4"/>
				</g>
				<g id="XMLID_692_">
					<line id="XMLID_693_" class="st1" x1="337.6" y1="234.6" x2="264.7" y2="232.1"/>
				</g>
				<g id="XMLID_690_">
					<line id="XMLID_691_" class="st1" x1="314.3" y1="267.4" x2="288.1" y2="199.3"/>
				</g>
				<g id="XMLID_688_">
					<line id="XMLID_689_" class="st1" x1="274.9" y1="258.7" x2="327.4" y2="208"/>
				</g>
				<g id="XMLID_686_">
					<line id="XMLID_687_" class="st1" x1="267.6" y1="219.1" x2="334.8" y2="247.6"/>
				</g>
				<g id="XMLID_684_">
					<line id="XMLID_685_" class="st1" x1="301.2" y1="196.9" x2="301.2" y2="269.9"/>
				</g>
			</g>
			<g id="XMLID_668_">
				<circle id="XMLID_682_" class="st3" cx="301.2" cy="233.4" r="35.6"/>
				<circle id="XMLID_681_" class="st3" cx="301.2" cy="233.4" r="33.7"/>
				<circle id="XMLID_680_" class="st3" cx="301.2" cy="233.4" r="31.8"/>
				<circle id="XMLID_679_" class="st3" cx="301.2" cy="233.4" r="29.9"/>
				<circle id="XMLID_678_" class="st3" cx="301.2" cy="233.4" r="28"/>
				<circle id="XMLID_677_" class="st3" cx="301.2" cy="233.4" r="26.2"/>
				<circle id="XMLID_676_" class="st3" cx="301.2" cy="233.4" r="24.3"/>
				<circle id="XMLID_675_" class="st3" cx="301.2" cy="233.4" r="22.4"/>
				<circle id="XMLID_674_" class="st3" cx="301.2" cy="233.4" r="20.5"/>
				<circle id="XMLID_673_" class="st3" cx="301.2" cy="233.4" r="18.6"/>
				<circle id="XMLID_672_" class="st3" cx="301.2" cy="233.4" r="16.7"/>
				<circle id="XMLID_671_" class="st3" cx="301.2" cy="233.4" r="14.9"/>
				<circle id="XMLID_670_" class="st3" cx="301.2" cy="233.4" r="13"/>
				<circle id="XMLID_669_" class="st3" cx="301.2" cy="233.4" r="11.1"/>
			</g>
		</g>
	</g>
	<g id="XMLID_2142_">
		<circle id="XMLID_167_" class="st6" cx="301.2" cy="233.4" r="30.9"/>
	</g>
	<g id="XMLID_126_">
		<g id="XMLID_2136_">
			<g id="XMLID_278_">
				<path id="XMLID_283_" class="st9" d="M301.2,205.1c0.1,0,0.1,0,0.2,0"/>
				<path id="XMLID_280_" class="st18" d="M302.3,205.1c15.5,0.6,27.8,13.2,27.8,28.6c0,15.8-12.9,28.6-28.9,28.6c-1,0-2-0.1-3-0.2"
					/>
				<path id="XMLID_279_" class="st9" d="M297.7,262.2c-0.1,0-0.1,0-0.2,0"/>
			</g>
		</g>
		<g id="XMLID_2121_" class="st8">
			<g id="XMLID_307_">
				<path id="XMLID_311_" class="st9" d="M297.5,262.1c0,0-0.1,0-0.1,0"/>
				<path id="XMLID_310_" class="st19" d="M296.3,262c-13.6-2.3-24-14.1-24-28.2c0-15.6,12.6-28.3,28.3-28.6"/>
				<path id="XMLID_308_" class="st9" d="M301.1,205.1c0,0,0.1,0,0.1,0"/>
			</g>
		</g>
	</g>
	<g id="XMLID_2098_">
		<circle id="XMLID_2107_" class="st5" cx="326" cy="141.5" r="1.1"/>
		<g id="XMLID_2099_">
			<circle id="XMLID_2106_" class="st5" cx="333.8" cy="143.6" r="1.8"/>
			<circle id="XMLID_2104_" class="st5" cx="316.4" cy="138.8" r="1.1"/>
			<circle id="XMLID_2103_" class="st5" cx="300.1" cy="134.4" r="1.1"/>
			<line id="XMLID_2100_" class="st1" x1="300.1" y1="134.4" x2="332.7" y2="143.3"/>
		</g>
	</g>
	<g id="XMLID_2065_">
		<circle id="XMLID_2080_" class="st5" cx="309.5" cy="74.4" r="1.8"/>
		<circle id="XMLID_2078_" class="st5" cx="300.5" cy="79.8" r="1.1"/>
		<circle id="XMLID_2071_" class="st5" cx="292.2" cy="84.8" r="1.1"/>
		<line id="XMLID_2066_" class="st1" x1="291.3" y1="85.4" x2="308.6" y2="74.9"/>
	</g>
	<rect id="XMLID_8_" x="161.3" y="20.6" class="st12" width="147.9" height="21.4"/>
	<text id="XMLID_1806_" transform="matrix(1 0 0 1 161.3276 28.1551)" class="st5 st20 st21">Open Presale</text>
	<rect id="XMLID_7_" x="26.3" y="20.6" class="st12" width="79" height="14.3"/>
	<text id="XMLID_1804_" transform="matrix(1 0 0 1 26.2691 28.1552)" class="st5 st20 st21">Closed Presale</text>
	<g id="XMLID_1803_" class="st0">
		<path id="XMLID_211_" class="st5" d="M33.6,132.4c-6.4-6.7-8.8-19.1-5.3-27.7l6.8-16.5c3.5-8.6,13.6-17.8,22.4-20.6L78.8,61
			c8.8-2.7,19.5,1.7,23.8,9.9l6.6,12.8c4.3,8.2,5.1,22,1.9,30.7l-5.5,14.8c-3.2,8.7-13.4,16.4-22.6,17.1l-16.7,1.3
			c-9.2,0.7-22-4.1-28.4-10.8L33.6,132.4z"/>
	</g>
	<g id="XMLID_1802_" class="st0">
		<path id="XMLID_270_" class="st5" d="M26.4,97c0.2-9.2,7.3-19.7,15.9-23.3l16.5-6.9c8.5-3.6,22.2-3,30.4,1.3l19.7,10.3
			c8.2,4.3,12.6,15,9.8,23.9l-4.4,13.7c-2.8,8.8-12,19.2-20.4,23.1l-14.3,6.6c-8.4,3.9-21,2.1-28.1-3.9l-12.7-10.8
			c-7-6-12.6-18.5-12.5-27.7L26.4,97z"/>
	</g>
	<g id="XMLID_1718_">
		<g id="XMLID_1763_" class="st0">
			<g id="XMLID_383_">
				<line id="XMLID_384_" class="st22" x1="41.8" y1="73.9" x2="101.3" y2="140"/>
			</g>
			<g id="XMLID_380_">
				<line id="XMLID_381_" class="st22" x1="90.4" y1="66.6" x2="52.8" y2="147.3"/>
			</g>
			<g id="XMLID_375_">
				<line id="XMLID_378_" class="st22" x1="116" y1="108.5" x2="27.1" y2="105.4"/>
			</g>
			<g id="XMLID_369_">
				<line id="XMLID_371_" class="st22" x1="87.5" y1="148.5" x2="55.6" y2="65.4"/>
			</g>
			<g id="XMLID_363_">
				<line id="XMLID_366_" class="st22" x1="39.5" y1="137.9" x2="103.6" y2="76"/>
			</g>
			<g id="XMLID_358_">
				<line id="XMLID_360_" class="st22" x1="30.6" y1="89.6" x2="112.5" y2="124.3"/>
			</g>
			<g id="XMLID_351_">
				<line id="XMLID_355_" class="st22" x1="71.6" y1="62.5" x2="71.6" y2="151.5"/>
			</g>
		</g>
		<g id="XMLID_1719_" class="st23">
			<circle id="XMLID_32_" class="st24" cx="71.6" cy="107" r="43.4"/>
			<circle id="XMLID_53_" class="st24" cx="71.6" cy="107" r="41.1"/>
			<circle id="XMLID_52_" class="st24" cx="71.6" cy="107" r="38.8"/>
			<circle id="XMLID_51_" class="st24" cx="71.6" cy="107" r="36.5"/>
			<circle id="XMLID_50_" class="st24" cx="71.6" cy="107" r="34.2"/>
			<circle id="XMLID_49_" class="st24" cx="71.6" cy="107" r="31.9"/>
			<circle id="XMLID_48_" class="st24" cx="71.6" cy="107" r="29.6"/>
			<circle id="XMLID_47_" class="st24" cx="71.6" cy="107" r="27.3"/>
			<circle id="XMLID_39_" class="st24" cx="71.6" cy="107" r="25"/>
			<circle id="XMLID_37_" class="st24" cx="71.6" cy="107" r="22.7"/>
			<circle id="XMLID_36_" class="st24" cx="71.6" cy="107" r="20.4"/>
			<circle id="XMLID_34_" class="st24" cx="71.6" cy="107" r="18.1"/>
			<circle id="XMLID_33_" class="st24" cx="71.6" cy="107" r="15.8"/>
			<circle id="XMLID_9_" class="st24" cx="71.6" cy="107" r="13.5"/>
		</g>
	</g>
	<circle id="XMLID_1717_" class="st6" cx="71.6" cy="107" r="37.6"/>
	<rect id="XMLID_6_" x="52.4" y="117.4" class="st12" width="34.2" height="15.9"/>
	<text id="XMLID_1715_" transform="matrix(1 0 0 1 52.3529 124.983)"><tspan x="0" y="0" class="st5 st14 st21">$10</tspan><tspan x="12" y="0" class="st13 st14 st15">/token</tspan></text>
	<rect id="XMLID_5_" x="41.1" y="97.8" class="st12" width="60.6" height="13.1"/>
	<text id="XMLID_1713_" transform="matrix(1 0 0 1 44.3457 106.8934)"><tspan x="0" y="0" class="st5 st20 st25">35.000</tspan><tspan x="31" y="0" class="st5 st20 st26"> </tspan><tspan x="33.7" y="0" class="st5 st14 st27">Weare</tspan></text>
	<rect id="XMLID_4_" x="316.7" y="51.2" class="st12" width="54.1" height="8.3"/>
	<text id="XMLID_1707_" transform="matrix(1 0 0 1 320.5424 58.809)"><tspan x="0" y="0" class="st5 st20 st21">75.000 </tspan><tspan x="28.3" y="0" class="st5 st14 st28">Weare</tspan></text>
	<rect id="XMLID_166_" x="341.3" y="149.6" class="st12" width="54.1" height="9.1"/>
	<text id="XMLID_1705_" transform="matrix(1 0 0 1 345.1672 157.1545)"><tspan x="0" y="0" class="st5 st20 st21">65.000 </tspan><tspan x="28.3" y="0" class="st5 st14 st28">Weare</tspan></text>
	<rect id="XMLID_164_" x="272.4" y="225.3" class="st12" width="54.1" height="10.2"/>
	<text id="XMLID_1702_" transform="matrix(1 0 0 1 276.2497 232.8963)"><tspan x="0" y="0" class="st5 st20 st21">55.000 </tspan><tspan x="28.3" y="0" class="st5 st14 st28">Weare</tspan></text>
	<g id="XMLID_1687_">
		<g id="XMLID_267_">
			<line id="XMLID_271_" class="st29" x1="43.2" y1="112.6" x2="43.3" y2="112.6"/>
			<line id="XMLID_269_" class="st30" x1="44.6" y1="112.6" x2="97.9" y2="112.6"/>
			<line id="XMLID_268_" class="st29" x1="98.5" y1="112.6" x2="98.7" y2="112.6"/>
		</g>
	</g>
	<g id="XMLID_1681_">
		<g id="XMLID_213_">
			<line id="XMLID_265_" class="st29" x1="276.4" y1="238.5" x2="276.5" y2="238.5"/>
			<line id="XMLID_264_" class="st31" x1="277.8" y1="238.5" x2="321.8" y2="238.5"/>
			<line id="XMLID_251_" class="st29" x1="322.5" y1="238.5" x2="322.6" y2="238.5"/>
		</g>
	</g>
	<g id="XMLID_1675_">
		<circle id="XMLID_137_" class="st32" cx="71.5" cy="107" r="34.2"/>
	</g>
	<rect id="XMLID_3_" x="199.3" y="110.9" class="st12" width="73.2" height="16.4"/>
	<text id="XMLID_1673_" transform="matrix(1 0 0 1 201.0618 122.0083)"><tspan x="0" y="0" class="st5 st20 st33">3,500,000</tspan><tspan x="55.4" y="0" class="st5 st20 st25">.00</tspan></text>
	<rect id="XMLID_2_" x="283.1" y="242.6" class="st12" width="34.2" height="15.9"/>
	<text id="XMLID_1670_" transform="matrix(1 0 0 1 283.0749 250.2205)"><tspan x="0" y="0" class="st5 st14 st21">$16</tspan><tspan x="12" y="0" class="st13 st14 st15">/token</tspan></text>
	<g id="XMLID_1646_">
		<g id="XMLID_173_">
			<line id="XMLID_177_" class="st29" x1="345.6" y1="162.2" x2="345.7" y2="162.2"/>
			<line id="XMLID_176_" class="st31" x1="347.1" y1="162.2" x2="391.1" y2="162.2"/>
			<line id="XMLID_175_" class="st29" x1="391.7" y1="162.2" x2="391.8" y2="162.2"/>
		</g>
	</g>
	<rect id="XMLID_1_" x="352.3" y="165.3" class="st12" width="34.2" height="15.9"/>
	<text id="XMLID_1643_" transform="matrix(1 0 0 1 352.3003 172.94)"><tspan x="0" y="0" class="st5 st14 st21">$14</tspan><tspan x="12" y="0" class="st13 st14 st15">/token</tspan></text>
	<g id="XMLID_1622_">
		<g id="XMLID_139_">
			<line id="XMLID_158_" class="st29" x1="321.3" y1="62.7" x2="321.4" y2="62.7"/>
			<line id="XMLID_157_" class="st31" x1="322.8" y1="62.7" x2="366.8" y2="62.7"/>
			<line id="XMLID_140_" class="st29" x1="367.4" y1="62.7" x2="367.6" y2="62.7"/>
		</g>
	</g>
	<rect id="XMLID_121_" x="328" y="65.9" class="st12" width="34.2" height="15.9"/>
	<text id="XMLID_1579_" transform="matrix(1 0 0 1 328.0122 73.4626)"><tspan x="0" y="0" class="st5 st14 st21">$12</tspan><tspan x="12" y="0" class="st13 st14 st15">/token</tspan></text>
	<g id="XMLID_1459_">
		<g id="XMLID_2051_" class="st4">
			<path id="XMLID_174_" class="st5" d="M137.5,218.5c0.8-8.6,8.1-18,16.3-21l22.2-8c8.1-2.9,18.7,0.6,23.4,7.8l6.9,10.5
				c4.7,7.2,6.9,17.8,4.7,23.4c-2.2,5.7-9.3,14.9-15.8,20.6l-9.6,8.3c-6.5,5.7-17.2,5.7-23.8,0.1l-14.1-12.1
				c-6.6-5.6-11.3-17.3-10.5-25.9L137.5,218.5z"/>
		</g>
		<g id="XMLID_1815_">
			<g id="XMLID_636_">
				<g id="XMLID_652_" class="st0">
					<g id="XMLID_665_">
						<line id="XMLID_666_" class="st1" x1="149.2" y1="199.3" x2="198.1" y2="253.5"/>
					</g>
					<g id="XMLID_663_">
						<line id="XMLID_664_" class="st1" x1="189.1" y1="193.4" x2="158.2" y2="259.5"/>
					</g>
					<g id="XMLID_661_">
						<line id="XMLID_662_" class="st1" x1="210.1" y1="227.7" x2="137.2" y2="225.1"/>
					</g>
					<g id="XMLID_659_">
						<line id="XMLID_660_" class="st1" x1="186.7" y1="260.5" x2="160.6" y2="192.4"/>
					</g>
					<g id="XMLID_657_">
						<line id="XMLID_658_" class="st1" x1="147.4" y1="251.8" x2="199.9" y2="201.1"/>
					</g>
					<g id="XMLID_655_">
						<line id="XMLID_656_" class="st1" x1="140" y1="212.2" x2="207.2" y2="240.7"/>
					</g>
					<g id="XMLID_653_">
						<line id="XMLID_654_" class="st1" x1="173.6" y1="189.9" x2="173.6" y2="262.9"/>
					</g>
				</g>
				<g id="XMLID_637_">
					<circle id="XMLID_651_" class="st3" cx="173.6" cy="226.4" r="35.6"/>
					<circle id="XMLID_650_" class="st3" cx="173.6" cy="226.4" r="33.7"/>
					<circle id="XMLID_649_" class="st3" cx="173.6" cy="226.4" r="31.8"/>
					<circle id="XMLID_648_" class="st3" cx="173.6" cy="226.4" r="29.9"/>
					<circle id="XMLID_647_" class="st3" cx="173.6" cy="226.4" r="28"/>
					<circle id="XMLID_646_" class="st3" cx="173.6" cy="226.4" r="26.2"/>
					<circle id="XMLID_645_" class="st3" cx="173.6" cy="226.4" r="24.3"/>
					<circle id="XMLID_644_" class="st3" cx="173.6" cy="226.4" r="22.4"/>
					<circle id="XMLID_643_" class="st3" cx="173.6" cy="226.4" r="20.5"/>
					<circle id="XMLID_642_" class="st3" cx="173.6" cy="226.4" r="18.6"/>
					<circle id="XMLID_641_" class="st3" cx="173.6" cy="226.4" r="16.7"/>
					<circle id="XMLID_640_" class="st3" cx="173.6" cy="226.4" r="14.9"/>
					<circle id="XMLID_639_" class="st3" cx="173.6" cy="226.4" r="13"/>
					<circle id="XMLID_638_" class="st3" cx="173.6" cy="226.4" r="11.1"/>
				</g>
			</g>
		</g>
		<g id="XMLID_1812_">
			<circle id="XMLID_144_" class="st6" cx="173.6" cy="226.4" r="30.9"/>
		</g>
		<g id="XMLID_1809_">
			<ellipse id="XMLID_128_" class="st34" cx="173.6" cy="226.5" rx="28.2" ry="28.2"/>
		</g>
		<rect id="XMLID_41_" x="146.5" y="218.1" class="st12" width="54.1" height="9.9"/>
		<text id="XMLID_1700_" transform="matrix(1 0 0 1 150.3031 225.6776)"><tspan x="0" y="0" class="st5 st20 st21">45.000 </tspan><tspan x="28.3" y="0" class="st5 st14 st28">Weare</tspan></text>
		<g id="XMLID_1694_">
			<g id="XMLID_112_">
				<line id="XMLID_124_" class="st29" x1="150.4" y1="230.4" x2="150.6" y2="230.4"/>
				<line id="XMLID_123_" class="st31" x1="151.9" y1="230.4" x2="195.9" y2="230.4"/>
				<line id="XMLID_120_" class="st29" x1="196.5" y1="230.4" x2="196.7" y2="230.4"/>
			</g>
		</g>
		<rect id="XMLID_31_" x="156.5" y="233.5" class="st12" width="34.2" height="15.9"/>
		<text id="XMLID_1565_" transform="matrix(1 0 0 1 156.4509 241.0585)"><tspan x="0" y="0" class="st5 st14 st21">$18</tspan><tspan x="12" y="0" class="st13 st14 st15">/token</tspan></text>
	</g>
	<g id="XMLID_1461_">
		<line id="XMLID_1564_" class="st1" x1="259.2" y1="170.8" x2="282.5" y2="208.2"/>
		<g id="XMLID_1474_">
			<circle id="XMLID_1563_" class="st5" cx="282.5" cy="208.2" r="1.8"/>
			<circle id="XMLID_1561_" class="st5" cx="276.2" cy="198.3" r="1.1"/>
			<circle id="XMLID_1548_" class="st5" cx="269.8" cy="187.5" r="1.1"/>
			<circle id="XMLID_1540_" class="st5" cx="264.2" cy="178.8" r="1.1"/>
			<circle id="XMLID_1513_" class="st5" cx="259.2" cy="170.8" r="1.1"/>
		</g>
	</g>
	<g id="XMLID_330_">
		<circle id="XMLID_357_" class="st5" cx="196.1" cy="192" r="1.1"/>
		<circle id="XMLID_354_" class="st5" cx="204.1" cy="179" r="1.1"/>
		<circle id="XMLID_353_" class="st5" cx="191.4" cy="199.8" r="1.8"/>
		<circle id="XMLID_352_" class="st5" cx="210" cy="169.3" r="1.1"/>
		<circle id="XMLID_346_" class="st5" cx="200.2" cy="185.4" r="1.1"/>
		<line id="XMLID_336_" class="st1" x1="191.4" y1="199.8" x2="209" y2="170.9"/>
	</g>
</g>
</svg>
