<?xml version="1.0" encoding="utf-8"?>
<!-- Generator: Adobe Illustrator 19.0.0, SVG Export Plug-In . SVG Version: 6.00 Build 0)  -->
<svg version="1.1" id="Layer_1" xmlns="http://www.w3.org/2000/svg" xmlns:xlink="http://www.w3.org/1999/xlink" x="0px" y="0px"
	 viewBox="0 0 431.3 287" style="enable-background:new 0 0 431.3 287;" xml:space="preserve">
<style type="text/css">
	.st0{opacity:0.1;fill:#00A6FF;}
	.st1{opacity:0.7;}
	.st2{opacity:0.2;fill:none;stroke:#00A6FF;stroke-width:0.4323;stroke-miterlimit:10;}
	.st3{opacity:0.2;}
	.st4{fill:#00A6FF;}
	.st5{fill:#FFFFFF;}
	.st6{fill:none;stroke:#00A6FF;stroke-miterlimit:10;stroke-dasharray:0.267,1.3325;}
	.st7{fill:none;}
	.st8{font-family:'OpenSans-Semibold';}
	.st9{font-size:10px;}
	.st10{fill:#CCCCCC;}
	.st11{fill:#666666;}
	.st12{opacity:0.6;}
	.st13{opacity:0.29;}
	.st14{fill:none;stroke:#666666;stroke-width:2;stroke-miterlimit:10;}
	.st15{fill:none;stroke:#CCCCCC;stroke-width:2;stroke-miterlimit:10;}
	.st16{opacity:0.3;fill:none;stroke:#00A6FF;stroke-width:2;stroke-miterlimit:10;}
	.st17{opacity:0.6;fill:none;stroke:#00A6FF;stroke-width:2;stroke-miterlimit:10;}
	.st18{fill:none;stroke:#00A6FF;stroke-width:2;stroke-miterlimit:10;}
	.st19{fill:none;stroke:#00A6FF;stroke-width:0.5;stroke-miterlimit:10;stroke-dasharray:0.997,1;}
	.st20{fill:none;stroke:#00A6FF;stroke-width:0.5;stroke-miterlimit:10;}
	.st21{font-family:'OpenSansCondensed-Light';}
	.st22{font-size:9.9942px;}
	.st23{font-family:'OpenSansCondensed-Bold';}
	.st24{font-size:9px;}
	.st25{fill:none;stroke:#00A6FF;stroke-miterlimit:10;stroke-dasharray:0.2668,1.3315;}
	.st26{fill:none;stroke:#666666;stroke-width:3;stroke-miterlimit:10;}
	.st27{fill:none;stroke:#B3B3B3;stroke-width:3;stroke-miterlimit:10;}
	.st28{fill:none;stroke:#F2F2F2;stroke-width:3;stroke-miterlimit:10;}
	.st29{opacity:0.3;fill:none;stroke:#00A6FF;stroke-width:3;stroke-miterlimit:10;}
	.st30{opacity:0.6;fill:none;stroke:#00A6FF;stroke-width:3;stroke-miterlimit:10;}
	.st31{fill:none;stroke:#00A6FF;stroke-width:3;stroke-miterlimit:10;}
	.st32{opacity:0.4;}
	.st33{fill:none;stroke:#CCCCCC;stroke-width:0.5;stroke-miterlimit:10;}
	.st34{fill:none;stroke:#B3B3B3;stroke-width:0.5;stroke-miterlimit:10;stroke-dasharray:0.997,1;}
	.st35{fill:none;stroke:#B3B3B3;stroke-width:0.5;stroke-linecap:round;stroke-linejoin:round;stroke-miterlimit:10;}
</style>
<g id="XMLID_1309_">
	<path id="XMLID_5989_" class="st0" d="M126.7,152.9l-13.7-23.7c-0.9-1.6-0.9-3.5,0-5.1l13.7-23.7c0.9-1.6,2.6-2.5,4.4-2.5h27.3
		c1.8,0,3.5,1,4.4,2.5l13.7,23.7c0.9,1.6,0.9,3.5,0,5.1l-13.7,23.7c-0.9,1.6-2.6,2.5-4.4,2.5h-27.3
		C129.3,155.5,127.7,154.5,126.7,152.9z"/>
	<path id="XMLID_5988_" class="st0" d="M132.3,141.2l-10.7-18.5c-0.7-1.2-0.7-2.7,0-4l10.7-18.5c0.7-1.2,2-2,3.4-2h21.4
		c1.4,0,2.7,0.8,3.4,2l10.7,18.5c0.7,1.2,0.7,2.7,0,4l-10.7,18.5c-0.7,1.2-2,2-3.4,2h-21.4C134.3,143.1,133,142.4,132.3,141.2z"/>
	<g id="XMLID_5969_" class="st1">
		<circle id="XMLID_26_" class="st2" cx="140.9" cy="127.3" r="81.5"/>
		<circle id="XMLID_62_" class="st2" cx="140.9" cy="127.3" r="77.2"/>
		<circle id="XMLID_60_" class="st2" cx="140.9" cy="127.3" r="72.9"/>
		<circle id="XMLID_58_" class="st2" cx="140.9" cy="127.3" r="68.5"/>
		<circle id="XMLID_57_" class="st2" cx="140.9" cy="127.3" r="64.2"/>
		<circle id="XMLID_55_" class="st2" cx="140.9" cy="127.3" r="59.9"/>
		<circle id="XMLID_54_" class="st2" cx="140.9" cy="127.3" r="55.6"/>
		<circle id="XMLID_52_" class="st2" cx="140.9" cy="127.3" r="51.3"/>
		<circle id="XMLID_50_" class="st2" cx="140.9" cy="127.3" r="47"/>
		<circle id="XMLID_49_" class="st2" cx="140.9" cy="127.3" r="42.7"/>
		<circle id="XMLID_44_" class="st2" cx="140.9" cy="127.3" r="38.4"/>
		<circle id="XMLID_38_" class="st2" cx="140.9" cy="127.3" r="34.1"/>
		<circle id="XMLID_31_" class="st2" cx="140.9" cy="127.3" r="29.8"/>
		<circle id="XMLID_25_" class="st2" cx="140.9" cy="127.3" r="25.4"/>
	</g>
	<g id="XMLID_5962_">
		<g id="XMLID_5966_" class="st3">
			<path id="XMLID_47_" class="st4" d="M73.6,165.5c-6.4-6.7-8.8-19.1-5.3-27.7l19.3-47.2C91.1,82,101.2,72.8,110,70l55.5-17.3
				c8.8-2.7,19.5,1.7,23.8,9.9l20.8,40.2c4.3,8.2,5.1,22,1.9,30.7l-16.4,44.6c-3.2,8.7-13.4,16.4-22.6,17.1l-48.9,3.9
				c-9.2,0.7-22-4.1-28.4-10.8L73.6,165.5z"/>
		</g>
		<g id="XMLID_5963_" class="st3">
			<path id="XMLID_45_" class="st4" d="M69.4,104.3c0.2-9.2,7.3-19.7,15.9-23.3l47-19.7c8.5-3.6,22.2-3,30.4,1.3l51.4,27
				c8.2,4.3,12.6,15,9.8,23.9l-13.7,43.1c-2.8,8.8-12,19.2-20.4,23.1l-43.2,19.9c-8.4,3.9-21,2.1-28.1-3.9l-37.4-31.8
				c-7-6-12.6-18.5-12.5-27.7L69.4,104.3z"/>
		</g>
	</g>
	<g id="XMLID_5958_">
		<circle id="XMLID_40_" class="st5" cx="140.9" cy="127.2" r="70"/>
		<circle id="XMLID_39_" class="st6" cx="140.9" cy="127.2" r="70"/>
	</g>
	<g id="XMLID_5954_">
		<rect id="XMLID_385_" x="127.9" y="226.1" class="st7" width="9.7" height="15.3"/>
		<text id="XMLID_5955_" transform="matrix(1 0 0 1 129.9441 233.7176)" class="st5 st8 st9">1</text>
	</g>
	<circle id="XMLID_5953_" class="st5" cx="144.7" cy="126.7" r="35"/>
	<g id="XMLID_1454_">
		<g id="XMLID_5930_">
			<path id="XMLID_5952_" class="st10" d="M109.7,175.5l0.2-0.3c-14.6-9.9-24.1-26.7-24.1-45.6c0-5.7,0.9-11.2,2.5-16.3l-0.4-0.1
				c-1.6,5.2-2.5,10.7-2.5,16.5C85.4,148.7,95,165.5,109.7,175.5z"/>
			<path id="XMLID_5951_" class="st10" d="M88.1,129.6c0-5.5,0.8-10.7,2.4-15.7l-0.4-0.1c-1.6,5-2.4,10.3-2.4,15.8
				c0,18.3,9.2,34.4,23.3,44l0.2-0.3C97.3,163.7,88.1,147.7,88.1,129.6z"/>
			<path id="XMLID_5950_" class="st10" d="M90.4,129.6c0-5.2,0.8-10.2,2.3-15l-0.4-0.1c-1.5,4.8-2.3,9.8-2.3,15.1
				c0,17.5,8.8,32.9,22.3,42.1l0.2-0.3C99.2,162.3,90.4,146.9,90.4,129.6z"/>
			<path id="XMLID_5949_" class="st10" d="M92.7,129.6c0-5,0.8-9.8,2.2-14.3l-0.4-0.1c-1.4,4.6-2.2,9.4-2.2,14.4
				c0,16.7,8.4,31.4,21.3,40.2l0.2-0.3C101.1,160.8,92.7,146.1,92.7,129.6z"/>
			<path id="XMLID_5948_" class="st10" d="M95,129.6c0-4.7,0.7-9.3,2.1-13.6l-0.4-0.1c-1.4,4.3-2.1,9-2.1,13.7
				c0,15.9,8,29.9,20.3,38.3l0.2-0.3C103,159.3,95,145.4,95,129.6z"/>
			<path id="XMLID_5947_" class="st10" d="M116.2,166l0.2-0.3c-11.5-7.9-19.1-21.1-19.1-36c0-4.5,0.7-8.8,2-12.9l-0.4-0.1
				c-1.3,4.1-2,8.5-2,13C96.9,144.7,104.6,158,116.2,166z"/>
			<path id="XMLID_5946_" class="st10" d="M99.6,129.6c0-4.3,0.6-8.4,1.9-12.2l-0.4-0.1c-1.2,3.9-1.9,8.1-1.9,12.4
				c0,14.3,7.2,26.9,18.3,34.5l0.2-0.3C106.8,156.3,99.6,143.8,99.6,129.6z"/>
			<path id="XMLID_5945_" class="st10" d="M101.9,129.6c0-4,0.6-7.9,1.8-11.6l-0.4-0.1c-1.1,3.7-1.8,7.6-1.8,11.7
				c0,13.5,6.8,25.5,17.2,32.5l0.2-0.3C108.7,154.8,101.9,143,101.9,129.6z"/>
			<path id="XMLID_5944_" class="st10" d="M104.2,129.6c0-3.8,0.6-7.4,1.6-10.9l-0.4-0.1c-1.1,3.5-1.7,7.2-1.7,11
				c0,12.7,6.4,24,16.2,30.6l0.2-0.3C110.6,153.3,104.2,142.2,104.2,129.6z"/>
			<path id="XMLID_5943_" class="st10" d="M106.5,129.6c0-3.5,0.5-7,1.5-10.2l-0.4-0.1c-1,3.3-1.6,6.7-1.6,10.3
				c0,11.9,6,22.5,15.2,28.7l0.2-0.3C112.5,151.8,106.5,141.4,106.5,129.6z"/>
			<path id="XMLID_5942_" class="st10" d="M122.7,156.4l0.2-0.3c-8.5-5.8-14-15.5-14-26.5c0-3.3,0.5-6.5,1.4-9.5l-0.4-0.1
				c-0.9,3-1.5,6.3-1.5,9.6C108.5,140.7,114.1,150.6,122.7,156.4z"/>
			<path id="XMLID_5941_" class="st10" d="M111.2,129.6c0-3.1,0.5-6,1.3-8.8l-0.4-0.1c-0.9,2.8-1.4,5.8-1.4,8.9
				c0,10.3,5.2,19.5,13.2,24.9l0.2-0.3C116.3,148.8,111.2,139.8,111.2,129.6z"/>
			<path id="XMLID_5940_" class="st10" d="M113.5,129.6c0-2.8,0.4-5.6,1.2-8.1l-0.4-0.1c-0.8,2.6-1.3,5.4-1.3,8.3
				c0,9.6,4.8,18,12.2,23l0.2-0.3C118.2,147.3,113.5,139,113.5,129.6z"/>
			<path id="XMLID_5939_" class="st10" d="M115.8,129.6c0-2.6,0.4-5.1,1.1-7.5l-0.4-0.1c-0.7,2.4-1.1,4.9-1.1,7.6
				c0,8.8,4.4,16.5,11.2,21.1l0.2-0.3C120.1,145.9,115.8,138.2,115.8,129.6z"/>
			<path id="XMLID_5938_" class="st10" d="M118.1,129.6c0-2.4,0.4-4.6,1-6.8l-0.4-0.1c-0.7,2.2-1,4.5-1,6.9c0,8,4,15,10.2,19.2
				l0.2-0.3C122,144.4,118.1,137.4,118.1,129.6z"/>
			<path id="XMLID_5937_" class="st10" d="M129.2,146.9l0.2-0.3c-5.4-3.7-9-9.9-9-17c0-2.1,0.3-4.2,0.9-6.1l-0.4-0.1
				c-0.6,2-0.9,4-0.9,6.2C120,136.8,123.6,143.1,129.2,146.9z"/>
			<path id="XMLID_5936_" class="st10" d="M122.7,129.6c0-1.9,0.3-3.7,0.8-5.4l-0.4-0.1c-0.5,1.7-0.8,3.6-0.8,5.5
				c0,6.4,3.2,12,8.2,15.4l0.2-0.3C125.9,141.4,122.7,135.9,122.7,129.6z"/>
			<path id="XMLID_5935_" class="st10" d="M125,129.6c0-1.6,0.3-3.2,0.7-4.7l-0.4-0.1c-0.5,1.5-0.7,3.2-0.7,4.8
				c0,5.6,2.8,10.5,7.1,13.5l0.2-0.3C127.8,139.9,125,135.1,125,129.6z"/>
			<path id="XMLID_5934_" class="st10" d="M127.3,129.6c0-1.4,0.2-2.8,0.6-4l-0.4-0.1c-0.4,1.3-0.6,2.7-0.6,4.2
				c0,4.8,2.4,9.1,6.1,11.6l0.2-0.3C129.7,138.4,127.3,134.3,127.3,129.6z"/>
			<path id="XMLID_5933_" class="st10" d="M129.6,129.6c0-1.2,0.2-2.3,0.5-3.4l-0.4-0.1c-0.3,1.1-0.5,2.3-0.5,3.5c0,4,2,7.6,5.1,9.7
				l0.2-0.3C131.6,136.9,129.6,133.5,129.6,129.6z"/>
			<path id="XMLID_5932_" class="st10" d="M135.6,137.4l0.2-0.3c-2.4-1.6-3.9-4.4-3.9-7.4c0-0.9,0.1-1.8,0.4-2.7l-0.4-0.1
				c-0.3,0.9-0.4,1.8-0.4,2.8C131.5,132.8,133.2,135.7,135.6,137.4z"/>
			<path id="XMLID_5931_" class="st10" d="M134.2,129.6c0-0.7,0.1-1.3,0.3-2l-0.4-0.1c-0.2,0.7-0.4,1.4-0.4,2.1
				c0,2.4,1.2,4.6,3.1,5.9l0.2-0.3C135.4,133.9,134.2,131.9,134.2,129.6z"/>
		</g>
		<g id="XMLID_5906_">
			<path id="XMLID_5929_" class="st11" d="M140.9,74.5c0,0,0.1,0,0.1,0l0-0.4c0,0-0.1,0-0.1,0c-24.9,0-46,16.5-53,39.1l0.4,0.1
				C95.3,90.8,116.2,74.5,140.9,74.5z"/>
			<path id="XMLID_5928_" class="st11" d="M140.9,76.8c0,0,0.1,0,0.1,0l0-0.4c0,0-0.1,0-0.1,0c-23.9,0-44.1,15.8-50.8,37.4l0.4,0.1
				C97.2,92.4,117.2,76.8,140.9,76.8z"/>
			<path id="XMLID_5927_" class="st11" d="M92.3,114.5l0.4,0.1c6.4-20.6,25.6-35.5,48.2-35.5c0,0,0.1,0,0.1,0l0-0.4c0,0-0.1,0-0.1,0
				C118.1,78.7,98.7,93.8,92.3,114.5z"/>
			<path id="XMLID_5926_" class="st11" d="M140.9,81.4c0,0,0.1,0,0.1,0l0-0.4c0,0-0.1,0-0.1,0c-21.8,0-40.3,14.4-46.4,34.2l0.4,0.1
				C101,95.7,119.3,81.4,140.9,81.4z"/>
			<path id="XMLID_5925_" class="st11" d="M140.9,83.7c0,0,0.1,0,0.1,0l0-0.4c0,0-0.1,0-0.1,0c-20.7,0-38.4,13.7-44.2,32.6l0.4,0.1
				C102.9,97.3,120.3,83.7,140.9,83.7z"/>
			<path id="XMLID_5924_" class="st11" d="M140.9,86c0,0,0.1,0,0.1,0l0-0.4c0,0-0.1,0-0.1,0c-19.7,0-36.4,13-42,30.9l0.4,0.1
				C104.8,98.9,121.4,86,140.9,86z"/>
			<path id="XMLID_5923_" class="st11" d="M140.9,88.3c0,0,0.1,0,0.1,0l0-0.4c0,0-0.1,0-0.1,0c-18.7,0-34.5,12.4-39.8,29.3l0.4,0.1
				C106.7,100.5,122.4,88.3,140.9,88.3z"/>
			<path id="XMLID_5922_" class="st11" d="M103.3,117.9l0.4,0.1c4.9-15.9,19.8-27.4,37.2-27.4c0,0,0.1,0,0.1,0l0-0.4
				c0,0-0.1,0-0.1,0C123.3,90.2,108.3,101.9,103.3,117.9z"/>
			<path id="XMLID_5921_" class="st11" d="M140.9,92.9C141,92.9,141,92.9,140.9,92.9l0.1-0.4c0,0-0.1,0-0.1,0
				c-16.6,0-30.7,11-35.4,26.1l0.4,0.1C110.5,103.8,124.5,92.9,140.9,92.9z"/>
			<path id="XMLID_5920_" class="st11" d="M140.9,95.2C141,95.2,141,95.2,140.9,95.2l0.1-0.4c0,0-0.1,0-0.1,0
				c-15.6,0-28.8,10.3-33.2,24.5l0.4,0.1C112.4,105.4,125.5,95.2,140.9,95.2z"/>
			<path id="XMLID_5919_" class="st11" d="M140.9,97.5C141,97.5,141,97.5,140.9,97.5l0.1-0.4c0,0-0.1,0-0.1,0
				c-14.5,0-26.9,9.6-31,22.8l0.4,0.1C114.4,107,126.5,97.5,140.9,97.5z"/>
			<path id="XMLID_5918_" class="st11" d="M140.9,99.8C140.9,99.8,141,99.8,140.9,99.8l0.1-0.4c0,0-0.1,0-0.1,0
				c-13.5,0-25,8.9-28.8,21.2l0.4,0.1C116.3,108.7,127.6,99.8,140.9,99.8z"/>
			<path id="XMLID_5917_" class="st11" d="M114.3,121.3l0.4,0.1c3.5-11.2,13.9-19.3,26.2-19.3c0,0,0,0,0.1,0l0-0.4c0,0,0,0-0.1,0
				C128.4,101.8,117.9,110,114.3,121.3z"/>
			<path id="XMLID_5916_" class="st11" d="M140.9,104.5C140.9,104.5,141,104.5,140.9,104.5l0.1-0.4c0,0,0,0-0.1,0
				c-11.4,0-21.2,7.6-24.4,18l0.4,0.1C120.1,111.9,129.6,104.5,140.9,104.5z"/>
			<path id="XMLID_5915_" class="st11" d="M140.9,106.8C140.9,106.8,141,106.8,140.9,106.8l0.1-0.4c0,0,0,0-0.1,0
				c-10.4,0-19.3,6.9-22.2,16.3l0.4,0.1C122,113.5,130.7,106.8,140.9,106.8z"/>
			<path id="XMLID_5914_" class="st11" d="M140.9,109.1C140.9,109.1,141,109.1,140.9,109.1l0.1-0.4c0,0,0,0-0.1,0
				c-9.4,0-17.3,6.2-20,14.7l0.4,0.1C123.9,115.1,131.7,109.1,140.9,109.1z"/>
			<path id="XMLID_5913_" class="st11" d="M140.9,111.4C140.9,111.4,141,111.4,140.9,111.4l0-0.4c0,0,0,0,0,0
				c-8.3,0-15.4,5.5-17.8,13.1l0.4,0.1C125.8,116.8,132.7,111.4,140.9,111.4z"/>
			<path id="XMLID_5912_" class="st11" d="M125.3,124.8l0.4,0.1c2-6.5,8.1-11.2,15.2-11.2c0,0,0,0,0,0l0-0.4c0,0,0,0,0,0
				C133.6,113.3,127.4,118.1,125.3,124.8z"/>
			<path id="XMLID_5911_" class="st11" d="M140.9,116C140.9,116,140.9,116,140.9,116l0-0.4c0,0,0,0,0,0c-6.3,0-11.6,4.2-13.4,9.9
				l0.4,0.1C129.6,120,134.8,116,140.9,116z"/>
			<path id="XMLID_5910_" class="st11" d="M140.9,118.3C140.9,118.3,140.9,118.3,140.9,118.3l0-0.4c0,0,0,0,0,0
				c-5.2,0-9.7,3.5-11.2,8.2l0.4,0.1C131.5,121.6,135.9,118.3,140.9,118.3z"/>
			<path id="XMLID_5909_" class="st11" d="M140.9,120.6C140.9,120.6,140.9,120.6,140.9,120.6l0-0.4c0,0,0,0,0,0
				c-4.2,0-7.8,2.8-9,6.6l0.4,0.1C133.5,123.3,136.9,120.6,140.9,120.6z"/>
			<path id="XMLID_5908_" class="st11" d="M140.9,122.9C140.9,122.9,140.9,122.9,140.9,122.9l0-0.4c0,0,0,0,0,0
				c-3.2,0-5.8,2.1-6.7,5l0.4,0.1C135.4,124.9,137.9,122.9,140.9,122.9z"/>
			<path id="XMLID_5907_" class="st11" d="M136.4,128.2l0.4,0.1c0.6-1.8,2.2-3.1,4.2-3.1l0,0l0-0.4l0,0
				C138.8,124.8,137,126.2,136.4,128.2z"/>
		</g>
		<g id="XMLID_5880_" class="st12">
			<path id="XMLID_5905_" class="st4" d="M196.1,129.6c0,18.9-9.6,35.6-24.1,45.5l0.2,0.3c14.6-10,24.3-26.8,24.3-45.9
				c0-5.6-0.8-11-2.4-16.1l-0.4,0.1C195.2,118.7,196.1,124.1,196.1,129.6z"/>
			<path id="XMLID_5904_" class="st4" d="M194.1,129.6c0-5.4-0.8-10.5-2.3-15.4l-0.4,0.1c1.5,4.8,2.3,10,2.3,15.3
				c0,18.1-9.2,34.1-23.1,43.6l0.2,0.3C184.9,164,194.1,147.8,194.1,129.6z"/>
			<path id="XMLID_5903_" class="st4" d="M191.4,129.6c0,17.3-8.8,32.6-22.1,41.7l0.2,0.3c13.4-9.2,22.3-24.6,22.3-42.1
				c0-5.1-0.8-10.1-2.2-14.7l-0.4,0.1C190.7,119.6,191.4,124.5,191.4,129.6z"/>
			<path id="XMLID_5902_" class="st4" d="M189.1,129.6c0,16.5-8.4,31.1-21.1,39.8l0.2,0.3c12.8-8.8,21.3-23.5,21.3-40.2
				c0-4.9-0.7-9.6-2.1-14.1l-0.4,0.1C188.4,120.1,189.1,124.7,189.1,129.6z"/>
			<path id="XMLID_5901_" class="st4" d="M186.8,129.6c0,15.7-8,29.7-20.1,37.9l0.2,0.3c12.2-8.3,20.2-22.4,20.2-38.2
				c0-4.7-0.7-9.2-2-13.4l-0.4,0.1C186.1,120.5,186.8,125,186.8,129.6z"/>
			<path id="XMLID_5900_" class="st4" d="M184.5,129.6c0,14.9-7.6,28.2-19.1,36l0.2,0.3c11.6-7.9,19.2-21.3,19.2-36.3
				c0-4.4-0.7-8.7-1.9-12.7l-0.4,0.1C183.9,121,184.5,125.2,184.5,129.6z"/>
			<path id="XMLID_5899_" class="st4" d="M182.6,129.6c0-4.2-0.6-8.2-1.8-12.1l-0.4,0.1c1.1,3.8,1.8,7.8,1.8,12
				c0,14.2-7.2,26.7-18.1,34.1l0.2,0.3C175.4,156.5,182.6,143.9,182.6,129.6z"/>
			<path id="XMLID_5898_" class="st4" d="M179.9,129.6c0,13.4-6.8,25.2-17,32.2l0.2,0.3c10.4-7.1,17.2-19,17.2-32.5
				c0-4-0.6-7.8-1.7-11.4l-0.4,0.1C179.3,121.9,179.9,125.7,179.9,129.6z"/>
			<path id="XMLID_5897_" class="st4" d="M177.6,129.6c0,12.6-6.4,23.7-16,30.3l0.2,0.3c9.8-6.7,16.2-17.9,16.2-30.6
				c0-3.7-0.6-7.3-1.6-10.7L176,119C177,122.3,177.6,125.9,177.6,129.6z"/>
			<path id="XMLID_5896_" class="st4" d="M175.3,129.6c0,11.8-6,22.2-15,28.4l0.2,0.3c9.2-6.3,15.2-16.8,15.2-28.7
				c0-3.5-0.5-6.9-1.5-10.1l-0.4,0.1C174.8,122.8,175.3,126.1,175.3,129.6z"/>
			<path id="XMLID_5895_" class="st4" d="M173,129.6c0,11-5.6,20.7-14,26.5l0.2,0.3c8.6-5.9,14.2-15.7,14.2-26.8
				c0-3.3-0.5-6.4-1.4-9.4l-0.4,0.1C172.5,123.3,173,126.4,173,129.6z"/>
			<path id="XMLID_5894_" class="st4" d="M171.1,129.6c0-3-0.5-6-1.3-8.7l-0.4,0.1c0.8,2.7,1.3,5.6,1.3,8.6c0,10.2-5.2,19.2-13,24.6
				l0.2,0.3C165.8,149.1,171.1,139.9,171.1,129.6z"/>
			<path id="XMLID_5893_" class="st4" d="M168.4,129.6c0,9.4-4.8,17.7-12,22.7l0.2,0.3c7.3-5,12.2-13.5,12.2-23
				c0-2.8-0.4-5.5-1.2-8.1l-0.4,0.1C168,124.2,168.4,126.8,168.4,129.6z"/>
			<path id="XMLID_5892_" class="st4" d="M166.1,129.6c0,8.6-4.4,16.2-11,20.8l0.2,0.3c6.7-4.6,11.2-12.3,11.2-21.1
				c0-2.6-0.4-5.1-1.1-7.4l-0.4,0.1C165.7,124.6,166.1,127.1,166.1,129.6z"/>
			<path id="XMLID_5891_" class="st4" d="M163.8,129.6c0,7.8-4,14.8-10,18.9l0.2,0.3c6.1-4.2,10.2-11.2,10.2-19.2
				c0-2.3-0.4-4.6-1-6.7l-0.4,0.1C163.4,125.1,163.8,127.3,163.8,129.6z"/>
			<path id="XMLID_5890_" class="st4" d="M161.5,129.6c0,7-3.6,13.3-9,17l0.2,0.3c5.5-3.8,9.2-10.1,9.2-17.3c0-2.1-0.3-4.1-0.9-6.1
				l-0.4,0.1C161.1,125.5,161.5,127.5,161.5,129.6z"/>
			<path id="XMLID_5889_" class="st4" d="M159.5,129.6c0-1.9-0.3-3.7-0.8-5.4l-0.4,0.1c0.5,1.7,0.8,3.4,0.8,5.3
				c0,6.3-3.2,11.8-8,15.1l0.2,0.3C156.3,141.6,159.5,136,159.5,129.6z"/>
			<path id="XMLID_5888_" class="st4" d="M156.8,129.6c0,5.5-2.8,10.3-7,13.2l0.2,0.3c4.3-2.9,7.1-7.9,7.1-13.5
				c0-1.6-0.2-3.2-0.7-4.7l-0.4,0.1C156.6,126.5,156.8,128,156.8,129.6z"/>
			<path id="XMLID_5887_" class="st4" d="M154.5,129.6c0,4.7-2.4,8.8-6,11.3l0.2,0.3c3.7-2.5,6.1-6.8,6.1-11.6
				c0-1.4-0.2-2.8-0.6-4.1l-0.4,0.1C154.3,126.9,154.5,128.2,154.5,129.6z"/>
			<path id="XMLID_5886_" class="st4" d="M152.2,129.6c0,3.9-2,7.3-4.9,9.3l0.2,0.3c3.1-2.1,5.1-5.7,5.1-9.7c0-1.2-0.2-2.3-0.5-3.4
				l-0.4,0.1C152.1,127.4,152.2,128.5,152.2,129.6z"/>
			<path id="XMLID_5885_" class="st4" d="M149.9,129.6c0,3.1-1.6,5.8-3.9,7.4l0.2,0.3c2.5-1.7,4.1-4.5,4.1-7.8
				c0-0.9-0.1-1.9-0.4-2.7l-0.4,0.1C149.8,127.8,149.9,128.7,149.9,129.6z"/>
			<path id="XMLID_5882_" class="st4" d="M148,129.6c0-0.7-0.1-1.4-0.3-2l-0.4,0.1c0.2,0.6,0.3,1.3,0.3,1.9c0,2.3-1.2,4.3-2.9,5.5
				l0.2,0.3C146.8,134.2,148,132,148,129.6z"/>
			<path id="XMLID_5881_" class="st4" d="M145.3,129.6c0,1.5-0.8,2.8-1.9,3.6l0.2,0.3c1.3-0.9,2.1-2.3,2.1-4c0-0.5-0.1-0.9-0.2-1.4
				l-0.4,0.1C145.2,128.7,145.3,129.2,145.3,129.6z"/>
		</g>
		<g id="XMLID_4246_">
			<path id="XMLID_5879_" class="st4" d="M193.7,113.6l0.4-0.1c-6.9-22.8-28-39.4-53-39.4l0,0.4C165.8,74.5,186.8,91,193.7,113.6z"
				/>
			<path id="XMLID_5878_" class="st4" d="M191.5,114.3l0.4-0.1c-6.6-21.8-26.9-37.7-50.8-37.8l0,0.4
				C164.8,76.8,184.9,92.7,191.5,114.3z"/>
			<path id="XMLID_5877_" class="st4" d="M189.3,115l0.4-0.1c-6.3-20.9-25.7-36.1-48.6-36.2l0,0.4C163.8,79.1,183,94.3,189.3,115z"
				/>
			<path id="XMLID_5876_" class="st4" d="M187.1,115.6l0.4-0.1c-6-19.9-24.5-34.5-46.4-34.5l0,0.4
				C162.7,81.4,181.1,95.9,187.1,115.6z"/>
			<path id="XMLID_5875_" class="st4" d="M141,83.3l0,0.4c20.6,0.1,38.1,13.8,43.8,32.6l0.4-0.1C179.5,97.2,161.9,83.4,141,83.3z"/>
			<path id="XMLID_5874_" class="st4" d="M182.7,117l0.4-0.1c-5.5-18-22.2-31.2-42-31.2l0,0.4C160.6,86.1,177.2,99.1,182.7,117z"/>
			<path id="XMLID_5873_" class="st4" d="M180.4,117.6l0.4-0.1c-5.2-17.1-21-29.6-39.8-29.6l0,0.4
				C159.6,88.4,175.3,100.7,180.4,117.6z"/>
			<path id="XMLID_5872_" class="st4" d="M178.2,118.3l0.4-0.1c-4.9-16.1-19.9-27.9-37.6-28l0,0.4
				C158.6,90.7,173.4,102.3,178.2,118.3z"/>
			<path id="XMLID_5871_" class="st4" d="M176,119l0.4-0.1c-4.6-15.2-18.7-26.3-35.4-26.3l0,0.4C157.5,93,171.5,103.9,176,119z"/>
			<path id="XMLID_5870_" class="st4" d="M141,94.8l0,0.4c15.5,0,28.5,10.3,32.8,24.4l0.4-0.1C169.9,105.3,156.6,94.9,141,94.8z"/>
			<path id="XMLID_5869_" class="st4" d="M171.6,120.3l0.4-0.1c-4-13.3-16.4-23-31-23.1l0,0.4C155.4,97.6,167.6,107.2,171.6,120.3z"
				/>
			<path id="XMLID_5868_" class="st4" d="M169.4,121l0.4-0.1c-3.7-12.4-15.2-21.4-28.8-21.4l0,0.4C154.4,99.9,165.7,108.8,169.4,121
				z"/>
			<path id="XMLID_5867_" class="st4" d="M167.2,121.7l0.4-0.1c-3.5-11.4-14.1-19.7-26.6-19.8l0,0.4
				C153.3,102.2,163.8,110.4,167.2,121.7z"/>
			<path id="XMLID_5866_" class="st4" d="M165,122.3l0.4-0.1c-3.2-10.5-12.9-18.1-24.4-18.1l0,0.4C152.3,104.5,161.9,112,165,122.3z
				"/>
			<path id="XMLID_5865_" class="st4" d="M141,106.4l0,0.4c10.3,0,19,6.9,21.8,16.2l0.4-0.1C160.3,113.4,151.4,106.4,141,106.4z"/>
			<path id="XMLID_5864_" class="st4" d="M160.6,123.7l0.4-0.1c-2.6-8.6-10.6-14.8-20-14.9l0,0.4C150.2,109.1,158,115.2,160.6,123.7
				z"/>
			<path id="XMLID_5863_" class="st4" d="M158.4,124.3l0.4-0.1c-2.3-7.6-9.4-13.2-17.8-13.2l0,0.4
				C149.2,111.4,156.1,116.8,158.4,124.3z"/>
			<path id="XMLID_5862_" class="st4" d="M156.2,125l0.4-0.1c-2-6.7-8.2-11.6-15.6-11.6l0,0.4C148.1,113.7,154.2,118.5,156.2,125z"
				/>
			<path id="XMLID_5861_" class="st4" d="M154,125.7l0.4-0.1c-1.7-5.7-7.1-9.9-13.4-10l0,0.4C147.1,116,152.3,120.1,154,125.7z"/>
			<path id="XMLID_5860_" class="st4" d="M141,117.9l0,0.4c5.1,0,9.4,3.4,10.8,8l0.4-0.1C150.7,121.4,146.2,117.9,141,117.9z"/>
			<path id="XMLID_5859_" class="st4" d="M149.5,127l0.4-0.1c-1.2-3.9-4.7-6.7-9-6.7l0,0.4C145,120.6,148.4,123.3,149.5,127z"/>
			<path id="XMLID_5858_" class="st4" d="M147.3,127.7l0.4-0.1c-0.9-2.9-3.6-5-6.7-5l0,0.4C144,122.9,146.5,124.9,147.3,127.7z"/>
			<path id="XMLID_5857_" class="st4" d="M145.1,128.3l0.4-0.1c-0.6-2-2.4-3.4-4.5-3.4l0,0.4C142.9,125.2,144.6,126.5,145.1,128.3z"
				/>
		</g>
		<g id="XMLID_2480_" class="st13">
			<path id="XMLID_4245_" class="st4" d="M171.9,175.1c-8.8,6-19.5,9.6-31,9.6c-11.5,0-22.2-3.5-31-9.6l-0.2,0.3
				c8.9,6.1,19.6,9.6,31.2,9.6c11.6,0,22.3-3.6,31.2-9.7L171.9,175.1"/>
			<path id="XMLID_4244_" class="st4" d="M140.9,182.4c-11,0-21.2-3.4-29.7-9.2l-0.2,0.3c8.5,5.8,18.8,9.2,29.9,9.2
				c11.1,0,21.4-3.4,29.9-9.3l-0.2-0.3C162.2,179,151.9,182.4,140.9,182.4z"/>
			<path id="XMLID_4243_" class="st4" d="M140.9,180.1c-10.5,0-20.3-3.2-28.4-8.8l-0.2,0.3c8.2,5.6,18,8.8,28.6,8.8
				c10.6,0,20.5-3.3,28.6-8.9l-0.2-0.3C161.2,176.9,151.5,180.1,140.9,180.1z"/>
			<path id="XMLID_4242_" class="st4" d="M168.3,169.8l-0.2-0.3c-7.7,5.3-17.1,8.4-27.1,8.4c-10,0-19.4-3.1-27.1-8.4l-0.2,0.3
				c7.8,5.3,17.2,8.4,27.3,8.4C151.1,178.2,160.5,175.1,168.3,169.8z"/>
			<path id="XMLID_4241_" class="st4" d="M140.9,175.5c-9.6,0-18.4-2.9-25.8-8l-0.2,0.3c7.4,5.1,16.4,8,26,8c9.7,0,18.6-3,26.1-8
				l-0.2-0.3C159.4,172.6,150.5,175.5,140.9,175.5z"/>
			<path id="XMLID_4239_" class="st4" d="M140.9,173.2c-9.1,0-17.5-2.8-24.5-7.6l-0.2,0.3c7.1,4.8,15.6,7.6,24.7,7.6
				c9.2,0,17.7-2.8,24.8-7.6l-0.2-0.3C158.5,170.4,150,173.2,140.9,173.2z"/>
			<path id="XMLID_4235_" class="st4" d="M140.9,170.9c-8.6,0-16.6-2.6-23.2-7.2l-0.2,0.3c6.7,4.6,14.8,7.2,23.4,7.2
				c8.7,0,16.8-2.7,23.5-7.2l-0.2-0.3C157.5,168.2,149.5,170.9,140.9,170.9z"/>
			<path id="XMLID_4234_" class="st4" d="M140.9,168.6c-8.1,0-15.7-2.5-21.9-6.8l-0.2,0.3c6.3,4.3,13.9,6.8,22.1,6.8
				c8.2,0,15.8-2.5,22.2-6.8l-0.2-0.3C156.6,166.1,149.1,168.6,140.9,168.6z"/>
			<path id="XMLID_4233_" class="st4" d="M161.8,160.2l-0.2-0.3c-5.9,4-13,6.4-20.6,6.4c-7.6,0-14.7-2.4-20.6-6.4l-0.2,0.3
				c5.9,4.1,13.1,6.4,20.8,6.4C148.7,166.7,155.8,164.3,161.8,160.2z"/>
			<path id="XMLID_4232_" class="st4" d="M140.9,164c-7.2,0-13.8-2.2-19.3-6l-0.2,0.3c5.6,3.8,12.3,6,19.5,6c7.3,0,14-2.2,19.6-6
				l-0.2-0.3C154.8,161.8,148.1,164,140.9,164z"/>
			<path id="XMLID_3966_" class="st4" d="M140.9,161.7c-6.7,0-12.9-2.1-18-5.6l-0.2,0.3c5.2,3.6,11.5,5.6,18.2,5.6
				c6.8,0,13.1-2.1,18.3-5.6l-0.2-0.3C153.8,159.6,147.6,161.7,140.9,161.7z"/>
			<path id="XMLID_3949_" class="st4" d="M140.9,159.4c-6.2,0-12-1.9-16.7-5.2l-0.2,0.3c4.8,3.3,10.7,5.2,16.9,5.2
				c6.3,0,12.1-1.9,17-5.2l-0.2-0.3C152.9,157.4,147.1,159.4,140.9,159.4z"/>
			<path id="XMLID_3684_" class="st4" d="M140.9,157.1c-5.7,0-11-1.8-15.4-4.8l-0.2,0.3c4.5,3,9.9,4.8,15.7,4.8
				c5.8,0,11.2-1.8,15.7-4.8l-0.2-0.3C152,155.3,146.6,157.1,140.9,157.1z"/>
			<path id="XMLID_3683_" class="st4" d="M155.3,150.7l-0.2-0.3c-4,2.8-8.9,4.4-14.2,4.4c-5.2,0-10.1-1.6-14.1-4.4l-0.2,0.3
				c4.1,2.8,9,4.4,14.4,4.4C146.2,155.1,151.2,153.5,155.3,150.7z"/>
			<path id="XMLID_3682_" class="st4" d="M140.9,152.4c-4.8,0-9.2-1.5-12.8-4l-0.2,0.3c3.7,2.5,8.2,4,13.1,4c4.8,0,9.3-1.5,13.1-4
				l-0.2-0.3C150.1,151,145.7,152.4,140.9,152.4z"/>
			<path id="XMLID_3672_" class="st4" d="M140.9,150.1c-4.3,0-8.3-1.3-11.5-3.6l-0.2,0.3c3.4,2.3,7.4,3.6,11.8,3.6
				c4.4,0,8.4-1.3,11.8-3.6l-0.2-0.3C149.2,148.8,145.2,150.1,140.9,150.1z"/>
			<path id="XMLID_3671_" class="st4" d="M140.9,147.8c-3.8,0-7.3-1.2-10.2-3.2l-0.2,0.3c3,2,6.6,3.2,10.5,3.2
				c3.9,0,7.5-1.2,10.5-3.2l-0.2-0.3C148.3,146.7,144.7,147.8,140.9,147.8z"/>
			<path id="XMLID_2909_" class="st4" d="M140.9,145.5c-3.3,0-6.4-1-9-2.8l-0.2,0.3c2.6,1.8,5.8,2.8,9.2,2.8c3.4,0,6.6-1.1,9.2-2.8
				l-0.2-0.3C147.3,144.5,144.2,145.5,140.9,145.5z"/>
			<path id="XMLID_2859_" class="st4" d="M148.8,141.2l-0.2-0.3c-2.2,1.5-4.8,2.4-7.7,2.4c-2.8,0-5.5-0.9-7.7-2.4l-0.2,0.3
				c2.2,1.5,5,2.4,7.9,2.4C143.8,143.6,146.6,142.7,148.8,141.2z"/>
			<path id="XMLID_2708_" class="st4" d="M140.9,140.9c-2.4,0-4.5-0.7-6.4-2l-0.2,0.3c1.9,1.3,4.1,2,6.6,2c2.4,0,4.7-0.8,6.6-2
				l-0.2-0.3C145.5,140.2,143.3,140.9,140.9,140.9z"/>
			<path id="XMLID_2655_" class="st4" d="M140.9,138.6c-1.9,0-3.6-0.6-5.1-1.6l-0.2,0.3c1.5,1,3.3,1.6,5.3,1.6c2,0,3.8-0.6,5.3-1.6
				L146,137C144.5,138,142.8,138.6,140.9,138.6z"/>
			<path id="XMLID_2484_" class="st4" d="M140.9,136.3c-1.4,0-2.7-0.4-3.8-1.2l-0.2,0.3c1.1,0.8,2.5,1.2,4,1.2c1.5,0,2.9-0.5,4-1.2
				l-0.2-0.3C143.6,135.9,142.3,136.3,140.9,136.3z"/>
			<path id="XMLID_2483_" class="st4" d="M140.9,134c-0.9,0-1.8-0.3-2.5-0.8l-0.2,0.3c0.8,0.5,1.7,0.8,2.7,0.8c1,0,1.9-0.3,2.7-0.8
				l-0.2-0.3C142.7,133.7,141.8,134,140.9,134z"/>
		</g>
		<path id="XMLID_2465_" class="st14" d="M87.9,113.1c7-22.6,28.1-39.1,53-39.1"/>
		<path id="XMLID_2463_" class="st15" d="M109.9,175.6c-14.8-10-24.5-26.9-24.5-46c0-5.7,0.9-11.3,2.5-16.5"/>
		<path id="XMLID_2446_" class="st16" d="M172.2,175.5c-8.9,6.1-19.7,9.6-31.3,9.6c-11.5,0-22.2-3.5-31-9.5"/>
		<path id="XMLID_2445_" class="st17" d="M193.9,113.1c1.6,5.2,2.5,10.8,2.5,16.5c0,19.1-9.6,35.9-24.3,45.9"/>
		<path id="XMLID_2444_" class="st18" d="M140.9,74.1c24.9,0,46,16.4,53,39"/>
	</g>
	<circle id="XMLID_1453_" class="st4" cx="141.1" cy="185.1" r="1.3"/>
	<circle id="XMLID_1443_" class="st4" cx="192.3" cy="152.7" r="1.3"/>
	<circle id="XMLID_1437_" class="st4" cx="89.3" cy="152.6" r="1.3"/>
	<circle id="XMLID_1408_" class="st4" cx="191" cy="102.6" r="1.3"/>
	<circle id="XMLID_1406_" class="st4" cx="93.1" cy="99.4" r="1.3"/>
	<circle id="XMLID_1402_" class="st5" cx="140.9" cy="129.8" r="29.3"/>
	<g id="XMLID_1382_">
		<line id="XMLID_1393_" class="st19" x1="115.6" y1="223.8" x2="168.3" y2="223.8"/>
		<line id="XMLID_1383_" class="st20" x1="140.9" y1="223.8" x2="140.9" y2="185.1"/>
	</g>
	<g id="XMLID_1378_">
		<line id="XMLID_1381_" class="st19" x1="215.9" y1="192.2" x2="239.4" y2="145"/>
		<line id="XMLID_1380_" class="st20" x1="226.9" y1="170" x2="192.3" y2="152.7"/>
	</g>
	<g id="XMLID_1364_">
		<line id="XMLID_1376_" class="st19" x1="44" y1="148.8" x2="66.6" y2="193.5"/>
		<line id="XMLID_1374_" class="st20" x1="54.7" y1="170" x2="89.3" y2="152.6"/>
	</g>
	<g id="XMLID_1338_">
		<g id="XMLID_70_">
			<circle id="XMLID_71_" cx="141.1" cy="208.8" r="7"/>
		</g>
	</g>
	<g id="XMLID_1335_">
		<rect id="XMLID_11_" x="136.3" y="204.6" class="st7" width="9.7" height="15.3"/>
		<text id="XMLID_1336_" transform="matrix(1 0 0 1 138.2912 212.1689)" class="st5 st8 st9">3</text>
	</g>
	<g id="XMLID_1303_">
		<g id="XMLID_74_">
			<circle id="XMLID_75_" cx="206.1" cy="159.8" r="7"/>
		</g>
	</g>
	<g id="XMLID_1227_">
		<rect id="XMLID_10_" x="201.3" y="155.6" class="st7" width="9.7" height="15.3"/>
		<text id="XMLID_1241_" transform="matrix(1 0 0 1 203.2917 163.1689)" class="st5 st8 st9">2</text>
	</g>
	<g id="XMLID_1197_">
		<g id="XMLID_94_">
			<circle id="XMLID_97_" cx="74.1" cy="161.8" r="7"/>
		</g>
	</g>
	<g id="XMLID_1174_">
		<rect id="XMLID_9_" x="69.3" y="157.6" class="st7" width="9.7" height="15.3"/>
		<text id="XMLID_1195_" transform="matrix(1 0 0 1 71.2913 165.1689)" class="st5 st8 st9">4</text>
	</g>
	<rect id="XMLID_212_" x="113.5" y="229.9" class="st7" width="55.3" height="11.5"/>
	<text id="XMLID_1172_" transform="matrix(1 0 0 1 116.7136 237.5033)" class="st21 st9">Private Token 3</text>
	
		<rect id="XMLID_8_" x="198.9" y="63.9" transform="matrix(0.7071 0.7071 -0.7071 0.7071 114.9058 -138.1608)" class="st7" width="50.7" height="11.5"/>
	<text id="XMLID_1151_" transform="matrix(0.7071 0.7071 -0.7071 0.7071 205.6543 53.6376)" class="st21 st9">Private Token 1</text>
	<polygon id="XMLID_7_" class="st7" points="252.3,152.7 229.3,200 218.9,194.9 242,147.7 	"/>
	<text id="XMLID_1118_" transform="matrix(0.4383 -0.8995 0.899 0.4379 226.6245 196.5766)" class="st21 st22">Private Token 2</text>
	
		<rect id="XMLID_6_" x="20" y="170.2" transform="matrix(0.4594 0.8882 -0.8882 0.4594 181.1553 54.1971)" class="st7" width="52.2" height="11.5"/>
	<text id="XMLID_1111_" transform="matrix(0.4594 0.8882 -0.8882 0.4595 33.213 155.1156)" class="st21 st9">Private Token 2</text>
	
		<rect id="XMLID_5_" x="26.7" y="68.3" transform="matrix(0.5329 -0.8462 0.8462 0.5329 -38.0392 79.2614)" class="st7" width="52.1" height="11.5"/>
	<text id="XMLID_1070_" transform="matrix(0.5328 -0.8462 0.8463 0.5328 41.317 95.792)" class="st21 st9">Private Token 5</text>
	<g id="XMLID_1067_">
		<line id="XMLID_1069_" class="st19" x1="74.1" y1="56.9" x2="46.5" y2="100.7"/>
		<line id="XMLID_1068_" class="st20" x1="60.4" y1="78.7" x2="93.1" y2="99.4"/>
	</g>
	<g id="XMLID_1063_">
		<line id="XMLID_1066_" class="st19" x1="235.4" y1="92.8" x2="200.7" y2="57.1"/>
		<line id="XMLID_1064_" class="st20" x1="218.7" y1="75.6" x2="191" y2="102.6"/>
	</g>
	<g id="XMLID_968_">
		<g id="XMLID_1034_">
			<g id="XMLID_101_">
				<circle id="XMLID_102_" cx="81.1" cy="91.8" r="7"/>
			</g>
		</g>
		<g id="XMLID_991_">
			<rect id="XMLID_4_" x="76.3" y="87.6" class="st7" width="9.7" height="15.3"/>
			<text id="XMLID_992_" transform="matrix(1 0 0 1 78.2913 95.1689)" class="st5 st8 st9">5</text>
		</g>
	</g>
	<g id="XMLID_53_">
		<g id="XMLID_961_">
			<g id="XMLID_103_">
				<circle id="XMLID_105_" cx="203.1" cy="90.8" r="7"/>
			</g>
		</g>
		<g id="XMLID_56_">
			<rect id="XMLID_173_" x="198.3" y="86.6" class="st7" width="9.7" height="15.3"/>
			<text id="XMLID_3_" transform="matrix(1 0 0 1 200.2917 94.1689)" class="st5 st8 st9">1</text>
		</g>
	</g>
	<rect id="XMLID_168_" x="112.4" y="129.1" class="st7" width="59.2" height="10.7"/>
	<text id="XMLID_51_" transform="matrix(1 0 0 1 119.7625 135.9723)" class="st4 st23 st24">Public Token</text>
	<g id="XMLID_6047_" class="st1">
		<circle id="XMLID_12_" class="st2" cx="346.3" cy="128.3" r="55.1"/>
		<circle id="XMLID_24_" class="st2" cx="346.3" cy="128.3" r="52.2"/>
		<circle id="XMLID_23_" class="st2" cx="346.3" cy="128.3" r="49.3"/>
		<circle id="XMLID_22_" class="st2" cx="346.3" cy="128.3" r="46.3"/>
		<circle id="XMLID_21_" class="st2" cx="346.3" cy="128.3" r="43.4"/>
		<circle id="XMLID_20_" class="st2" cx="346.3" cy="128.3" r="40.5"/>
		<circle id="XMLID_19_" class="st2" cx="346.3" cy="128.3" r="37.6"/>
		<circle id="XMLID_18_" class="st2" cx="346.3" cy="128.3" r="34.7"/>
		<circle id="XMLID_17_" class="st2" cx="346.3" cy="128.3" r="31.8"/>
		<circle id="XMLID_16_" class="st2" cx="346.3" cy="128.3" r="28.9"/>
		<circle id="XMLID_15_" class="st2" cx="346.3" cy="128.3" r="25.9"/>
		<circle id="XMLID_14_" class="st2" cx="346.3" cy="128.3" r="23"/>
		<circle id="XMLID_13_" class="st2" cx="346.3" cy="128.3" r="20.1"/>
		<circle id="XMLID_1_" class="st2" cx="346.3" cy="128.3" r="17.2"/>
	</g>
	<g id="XMLID_6044_">
		<g id="XMLID_6046_" class="st3">
			<path id="XMLID_95_" class="st4" d="M292.2,112.5c1.2-9.2,9.4-18.9,18.3-21.5l26.2-7.8c8.9-2.6,22.4-0.6,30.1,4.6l26.9,18.1
				c7.7,5.2,10.9,16.3,7.2,24.8l-9.3,21.2c-3.7,8.5-13.9,17.8-22.7,20.8l-23.5,7.9c-8.8,3-21.1-0.1-27.5-6.8l-17.8-18.8
				c-6.4-6.7-10.6-19.7-9.4-28.9L292.2,112.5z"/>
		</g>
		<g id="XMLID_6045_" class="st3">
			<path id="XMLID_96_" class="st4" d="M321.5,80.7c7.3-5.7,20-6.7,28.1-2.3l24,13c8.1,4.4,16.3,15.4,18,24.5l6.3,31.8
				c1.8,9.1-3.8,19.2-12.4,22.6l-21.6,8.4c-8.6,3.4-22.5,2.7-30.7-1.4l-22.2-11c-8.3-4.1-14.9-15-14.6-24.3L297,116
				c0.3-9.2,6.5-21.4,13.8-27.1L321.5,80.7z"/>
		</g>
	</g>
	<g id="XMLID_6040_">
		<circle id="XMLID_89_" class="st5" cx="346.3" cy="129" r="47.3"/>
		<circle id="XMLID_81_" class="st25" cx="346.3" cy="129" r="47.3"/>
	</g>
	<rect id="XMLID_2_" x="316.8" y="127.5" class="st7" width="59.2" height="14"/>
	<text id="XMLID_5883_" transform="matrix(1 0 0 1 324.0769 134.3089)" class="st4 st23 st24">Public Token</text>
	<g id="XMLID_5850_">
		<path id="XMLID_5856_" class="st26" d="M307.3,127.4c0.8-13.5,8.5-26.2,21.4-32.7"/>
		<path id="XMLID_5855_" class="st27" d="M324.9,162.3c-5.6-3.6-10.3-8.7-13.5-15.1c-3.2-6.3-4.5-13.2-4.1-19.8"/>
		<path id="XMLID_5854_" class="st28" d="M363.9,164.5c-12.9,6.5-27.7,5.2-39-2.2"/>
		<path id="XMLID_5853_" class="st29" d="M385.3,131.9c-0.8,13.5-8.5,26.2-21.4,32.7"/>
		<path id="XMLID_5852_" class="st30" d="M367.8,97c5.6,3.6,10.3,8.7,13.5,15.1c3.2,6.4,4.5,13.2,4.1,19.8"/>
		<path id="XMLID_5851_" class="st31" d="M328.8,94.8c12.9-6.5,27.7-5.2,39,2.2"/>
	</g>
	<g id="XMLID_3722_">
		<g id="XMLID_5827_">
			<g id="XMLID_5839_">
				<g id="XMLID_5848_">
					<circle id="XMLID_5849_" class="st4" cx="331.7" cy="194.4" r="1.3"/>
				</g>
				<g id="XMLID_5846_">
					<circle id="XMLID_5847_" class="st4" cx="328.2" cy="194.4" r="1.3"/>
				</g>
				<g id="XMLID_5844_">
					<circle id="XMLID_5845_" class="st4" cx="324.7" cy="194.4" r="1.3"/>
				</g>
				<g id="XMLID_5842_">
					<circle id="XMLID_5843_" class="st4" cx="321.2" cy="194.4" r="1.3"/>
				</g>
				<g id="XMLID_5840_">
					<circle id="XMLID_5841_" class="st4" cx="317.7" cy="194.4" r="1.3"/>
				</g>
			</g>
			<g id="XMLID_5828_">
				<g id="XMLID_5837_">
					<circle id="XMLID_5838_" class="st4" cx="331.7" cy="190.9" r="1.3"/>
				</g>
				<g id="XMLID_5835_">
					<circle id="XMLID_5836_" class="st4" cx="328.2" cy="190.9" r="1.3"/>
				</g>
				<g id="XMLID_5833_">
					<circle id="XMLID_5834_" class="st4" cx="324.7" cy="190.9" r="1.3"/>
				</g>
				<g id="XMLID_5831_">
					<circle id="XMLID_5832_" class="st4" cx="321.2" cy="190.9" r="1.3"/>
				</g>
				<g id="XMLID_5829_">
					<circle id="XMLID_5830_" class="st4" cx="317.7" cy="190.9" r="1.3"/>
				</g>
			</g>
		</g>
		<g id="XMLID_5808_" class="st32">
			<g id="XMLID_5818_">
				<g id="XMLID_5825_">
					<circle id="XMLID_5826_" class="st4" cx="346.2" cy="194.4" r="1.3"/>
				</g>
				<g id="XMLID_5823_">
					<circle id="XMLID_5824_" class="st4" cx="342.7" cy="194.4" r="1.3"/>
				</g>
				<g id="XMLID_5821_">
					<circle id="XMLID_5822_" class="st4" cx="339.2" cy="194.4" r="1.3"/>
				</g>
				<g id="XMLID_5819_">
					<circle id="XMLID_5820_" class="st4" cx="335.7" cy="194.4" r="1.3"/>
				</g>
			</g>
			<g id="XMLID_5809_">
				<g id="XMLID_5816_">
					<circle id="XMLID_5817_" class="st4" cx="346.2" cy="190.9" r="1.3"/>
				</g>
				<g id="XMLID_5814_">
					<circle id="XMLID_5815_" class="st4" cx="342.7" cy="190.9" r="1.3"/>
				</g>
				<g id="XMLID_5812_">
					<circle id="XMLID_5813_" class="st4" cx="339.2" cy="190.9" r="1.3"/>
				</g>
				<g id="XMLID_5810_">
					<circle id="XMLID_5811_" class="st4" cx="335.7" cy="190.9" r="1.3"/>
				</g>
			</g>
		</g>
		<g id="XMLID_5745_">
			<g id="XMLID_5789_">
				<g id="XMLID_5806_">
					<circle id="XMLID_5807_" class="st11" cx="378.2" cy="194.5" r="1.3"/>
				</g>
				<g id="XMLID_5804_">
					<circle id="XMLID_5805_" class="st11" cx="374.7" cy="194.5" r="1.3"/>
				</g>
				<g id="XMLID_5802_">
					<circle id="XMLID_5803_" class="st11" cx="371.2" cy="194.5" r="1.3"/>
				</g>
				<g id="XMLID_5800_">
					<circle id="XMLID_5801_" class="st11" cx="367.7" cy="194.4" r="1.3"/>
				</g>
				<g id="XMLID_5798_">
					<circle id="XMLID_5799_" class="st11" cx="364.2" cy="194.4" r="1.3"/>
				</g>
				<g id="XMLID_5796_">
					<circle id="XMLID_5797_" class="st11" cx="360.7" cy="194.4" r="1.3"/>
				</g>
				<g id="XMLID_5794_">
					<circle id="XMLID_5795_" class="st11" cx="357.2" cy="194.4" r="1.3"/>
				</g>
				<g id="XMLID_5792_">
					<circle id="XMLID_5793_" class="st11" cx="353.7" cy="194.4" r="1.3"/>
				</g>
				<g id="XMLID_5790_">
					<circle id="XMLID_5791_" class="st11" cx="350.2" cy="194.4" r="1.3"/>
				</g>
			</g>
			<g id="XMLID_5748_">
				<g id="XMLID_5787_">
					<circle id="XMLID_5788_" class="st11" cx="378.2" cy="191" r="1.3"/>
				</g>
				<g id="XMLID_5785_">
					<circle id="XMLID_5786_" class="st11" cx="374.7" cy="191" r="1.3"/>
				</g>
				<g id="XMLID_5783_">
					<circle id="XMLID_5784_" class="st11" cx="371.2" cy="191" r="1.3"/>
				</g>
				<g id="XMLID_5781_">
					<circle id="XMLID_5782_" class="st11" cx="367.7" cy="190.9" r="1.3"/>
				</g>
				<g id="XMLID_5779_">
					<circle id="XMLID_5780_" class="st11" cx="364.2" cy="190.9" r="1.3"/>
				</g>
				<g id="XMLID_5777_">
					<circle id="XMLID_5778_" class="st11" cx="360.7" cy="190.9" r="1.3"/>
				</g>
				<g id="XMLID_5775_">
					<circle id="XMLID_5776_" class="st11" cx="357.2" cy="190.9" r="1.3"/>
				</g>
				<g id="XMLID_5773_">
					<circle id="XMLID_5774_" class="st11" cx="353.7" cy="190.9" r="1.3"/>
				</g>
				<g id="XMLID_5771_">
					<circle id="XMLID_5772_" class="st11" cx="350.2" cy="190.9" r="1.3"/>
				</g>
			</g>
		</g>
	</g>
	<g id="XMLID_3703_">
		<rect id="XMLID_118_" x="311.4" y="200.7" class="st7" width="72.5" height="20"/>
		<text id="XMLID_117_" transform="matrix(1 0 0 1 319.4492 208.2933)"><tspan x="0" y="0" class="st21 st9">Additional Shares </tspan><tspan x="5.7" y="12" class="st21 st9">Issuance IPCO</tspan></text>
	</g>
	<line id="XMLID_3695_" class="st33" x1="346.3" y1="189.9" x2="346.2" y2="168.8"/>
	<circle id="XMLID_3685_" class="st4" cx="346.3" cy="168.8" r="1.3"/>
	<g id="XMLID_6039_">
		<path id="XMLID_3707_" class="st34" d="M301.9,163.5c-5.6,13.2-18.7,21.9-34.3,21.9c-10.3,0-19.7-4.1-26.4-10.7"/>
		<polyline id="XMLID_3667_" class="st35" points="300.2,164.2 302.1,163.5 302.6,165.3 		"/>
	</g>
</g>
</svg>
