<?xml version="1.0" encoding="utf-8"?>
<!-- Generator: Adobe Illustrator 19.0.0, SVG Export Plug-In . SVG Version: 6.00 Build 0)  -->
<svg version="1.1" id="Layer_1" xmlns="http://www.w3.org/2000/svg" xmlns:xlink="http://www.w3.org/1999/xlink" x="0px" y="0px"
	 viewBox="0 0 877 189" style="enable-background:new 0 0 877 189;" xml:space="preserve">
<style type="text/css">
	.st0{fill:none;stroke:#00A6FF;stroke-miterlimit:10;}
	.st1{opacity:0.37;fill:#00A6FF;}
	.st2{fill:none;stroke:#333333;stroke-width:0.5;stroke-miterlimit:10;}
	.st3{fill:#00A6FF;}
	.st4{fill:none;}
	.st5{fill:#999999;}
	.st6{font-family:'OpenSansCondensed-Light';}
	.st7{font-size:10px;}
	.st8{fill:#FFFFFF;}
	.st9{fill:none;stroke:#00A6FF;stroke-width:0.75;stroke-miterlimit:10;}
	.st10{opacity:0.3;}
	.st11{opacity:0.2;}
	.st12{opacity:0.1;}
	.st13{font-size:20.7635px;}
	.st14{fill:none;stroke:#B3B3B3;stroke-width:0.5;stroke-miterlimit:10;}
	.st15{font-family:'OpenSans-Semibold';}
</style>
<g id="XMLID_87_">
	<g id="XMLID_447_">
		<g id="XMLID_940_">
			<g id="XMLID_377_">
				<g id="XMLID_380_">
					<path id="XMLID_381_" class="st0" d="M341.4,106.8l-14.5,8.5c-1.4,0.8-3.1,0.8-4.5,0l-14.5-8.5c-1.4-0.8-2.2-2.3-2.2-3.9V85.8
						c0-1.6,0.8-3.1,2.2-3.9l14.5-8.5c1.4-0.8,3.1-0.8,4.5,0l14.5,8.5c1.4,0.8,2.2,2.3,2.2,3.9v17.1
						C343.6,104.5,342.7,106,341.4,106.8z"/>
				</g>
			</g>
			<g id="XMLID_370_">
				<g id="XMLID_373_">
					<path id="XMLID_374_" class="st0" d="M269.4,106.8l-14.5,8.5c-1.4,0.8-3.1,0.8-4.5,0l-14.5-8.5c-1.4-0.8-2.2-2.3-2.2-3.9V85.8
						c0-1.6,0.8-3.1,2.2-3.9l14.5-8.5c1.4-0.8,3.1-0.8,4.5,0l14.5,8.5c1.4,0.8,2.2,2.3,2.2,3.9v17.1
						C271.6,104.5,270.7,106,269.4,106.8z"/>
				</g>
			</g>
			<g id="XMLID_361_">
				<g id="XMLID_365_">
					<path id="XMLID_366_" class="st0" d="M197.4,106.8l-14.5,8.5c-1.4,0.8-3.1,0.8-4.5,0l-14.5-8.5c-1.4-0.8-2.2-2.3-2.2-3.9V85.8
						c0-1.6,0.8-3.1,2.2-3.9l14.5-8.5c1.4-0.8,3.1-0.8,4.5,0l14.5,8.5c1.4,0.8,2.2,2.3,2.2,3.9v17.1
						C199.6,104.5,198.7,106,197.4,106.8z"/>
				</g>
			</g>
			<g id="XMLID_353_">
				<g id="XMLID_356_">
					<path id="XMLID_357_" class="st0" d="M125.4,106.8l-14.5,8.5c-1.4,0.8-3.1,0.8-4.5,0l-14.5-8.5c-1.4-0.8-2.2-2.3-2.2-3.9V85.8
						c0-1.6,0.8-3.1,2.2-3.9l14.5-8.5c1.4-0.8,3.1-0.8,4.5,0l14.5,8.5c1.4,0.8,2.2,2.3,2.2,3.9v17.1
						C127.6,104.5,126.7,106,125.4,106.8z"/>
				</g>
			</g>
			<g id="XMLID_346_">
				<g id="XMLID_349_">
					<path id="XMLID_350_" class="st0" d="M53.4,106.8l-14.5,8.5c-1.4,0.8-3.1,0.8-4.5,0l-14.5-8.5c-1.4-0.8-2.2-2.3-2.2-3.9V85.8
						c0-1.6,0.8-3.1,2.2-3.9l14.5-8.5c1.4-0.8,3.1-0.8,4.5,0l14.5,8.5c1.4,0.8,2.2,2.3,2.2,3.9v17.1C55.6,104.5,54.7,106,53.4,106.8
						z"/>
				</g>
			</g>
		</g>
		<g id="XMLID_448_">
			<g id="XMLID_845_">
				<g id="XMLID_862_">
					<g id="XMLID_871_">
						<path id="XMLID_877_" class="st1" d="M327.4,99.5h-5.6v-2c-1.4-0.9-2.3-2.5-2.3-4.2c0-2.8,2.3-5.1,5.1-5.1s5.1,2.3,5.1,5.1
							c0,1.7-0.9,3.3-2.3,4.2V99.5z"/>
						<g id="XMLID_874_">
							<path id="XMLID_876_" class="st2" d="M327.6,101.3h-6c-0.4,0-0.8-0.4-0.8-0.8v-0.2c0-0.4,0.4-0.8,0.8-0.8h6
								c0.4,0,0.8,0.4,0.8,0.8v0.2C328.4,101,328,101.3,327.6,101.3z"/>
							<path id="XMLID_875_" class="st2" d="M326.9,103.2h-4.5c-0.4,0-0.8-0.4-0.8-0.8v-0.2c0-0.4,0.4-0.8,0.8-0.8h4.5
								c0.4,0,0.8,0.4,0.8,0.8v0.2C327.7,102.8,327.3,103.2,326.9,103.2z"/>
						</g>
						<line id="XMLID_873_" class="st2" x1="324.6" y1="99.8" x2="324.6" y2="94.3"/>
						<circle id="XMLID_872_" class="st2" cx="324.6" cy="93.4" r="0.9"/>
					</g>
					<g id="XMLID_863_">
						<path id="XMLID_870_" class="st3" d="M316.9,89.3l-0.3,0.5l1.7,1c0.1-0.2,0.2-0.3,0.3-0.5L316.9,89.3z"/>
						<path id="XMLID_869_" class="st3" d="M320.3,86.1l-0.5,0.3l1,1.7c0.2-0.1,0.3-0.2,0.5-0.3L320.3,86.1z"/>
						<path id="XMLID_868_" class="st3" d="M324.9,87l0-2h-0.6l0,2c0.1,0,0.2,0,0.3,0C324.7,87,324.8,87,324.9,87z"/>
						<path id="XMLID_867_" class="st3" d="M329.3,86.4l-0.5-0.3l-1,1.7c0.2,0.1,0.3,0.2,0.5,0.3L329.3,86.4z"/>
						<path id="XMLID_866_" class="st3" d="M332.5,89.8l-0.3-0.5l-1.7,1c0.1,0.2,0.2,0.3,0.3,0.5L332.5,89.8z"/>
						<path id="XMLID_865_" class="st3" d="M331.6,94.3l2,0v-0.6l-2,0c0,0.1,0,0.2,0,0.3C331.6,94.1,331.6,94.2,331.6,94.3z"/>
						<path id="XMLID_864_" class="st3" d="M317.5,93.8l-2,0v0.6l2,0c0-0.1,0-0.2,0-0.3C317.5,94,317.5,93.9,317.5,93.8z"/>
					</g>
				</g>
			</g>
			<g id="XMLID_796_">
				<g id="XMLID_813_">
					<g id="XMLID_822_">
						<path id="XMLID_828_" class="st1" d="M255.4,99.5h-5.6v-2c-1.4-0.9-2.3-2.5-2.3-4.2c0-2.8,2.3-5.1,5.1-5.1s5.1,2.3,5.1,5.1
							c0,1.7-0.9,3.3-2.3,4.2V99.5z"/>
						<g id="XMLID_825_">
							<path id="XMLID_827_" class="st2" d="M255.6,101.3h-6c-0.4,0-0.8-0.4-0.8-0.8v-0.2c0-0.4,0.4-0.8,0.8-0.8h6
								c0.4,0,0.8,0.4,0.8,0.8v0.2C256.4,101,256,101.3,255.6,101.3z"/>
							<path id="XMLID_826_" class="st2" d="M254.9,103.2h-4.5c-0.4,0-0.8-0.4-0.8-0.8v-0.2c0-0.4,0.4-0.8,0.8-0.8h4.5
								c0.4,0,0.8,0.4,0.8,0.8v0.2C255.7,102.8,255.3,103.2,254.9,103.2z"/>
						</g>
						<line id="XMLID_824_" class="st2" x1="252.6" y1="99.8" x2="252.6" y2="94.3"/>
						<circle id="XMLID_823_" class="st2" cx="252.6" cy="93.4" r="0.9"/>
					</g>
					<g id="XMLID_814_">
						<path id="XMLID_821_" class="st3" d="M244.9,89.3l-0.3,0.5l1.7,1c0.1-0.2,0.2-0.3,0.3-0.5L244.9,89.3z"/>
						<path id="XMLID_820_" class="st3" d="M248.3,86.1l-0.5,0.3l1,1.7c0.2-0.1,0.3-0.2,0.5-0.3L248.3,86.1z"/>
						<path id="XMLID_819_" class="st3" d="M252.9,87l0-2h-0.6l0,2c0.1,0,0.2,0,0.3,0C252.7,87,252.8,87,252.9,87z"/>
						<path id="XMLID_818_" class="st3" d="M257.3,86.4l-0.5-0.3l-1,1.7c0.2,0.1,0.3,0.2,0.5,0.3L257.3,86.4z"/>
						<path id="XMLID_817_" class="st3" d="M260.5,89.8l-0.3-0.5l-1.7,1c0.1,0.2,0.2,0.3,0.3,0.5L260.5,89.8z"/>
						<path id="XMLID_816_" class="st3" d="M259.6,94.3l2,0v-0.6l-2,0c0,0.1,0,0.2,0,0.3C259.6,94.1,259.6,94.2,259.6,94.3z"/>
						<path id="XMLID_815_" class="st3" d="M245.5,93.8l-2,0v0.6l2,0c0-0.1,0-0.2,0-0.3C245.5,94,245.5,93.9,245.5,93.8z"/>
					</g>
				</g>
			</g>
			<g id="XMLID_747_">
				<g id="XMLID_764_">
					<g id="XMLID_773_">
						<path id="XMLID_779_" class="st1" d="M183.4,99.5h-5.6v-2c-1.4-0.9-2.3-2.5-2.3-4.2c0-2.8,2.3-5.1,5.1-5.1s5.1,2.3,5.1,5.1
							c0,1.7-0.9,3.3-2.3,4.2V99.5z"/>
						<g id="XMLID_776_">
							<path id="XMLID_778_" class="st2" d="M183.6,101.3h-6c-0.4,0-0.8-0.4-0.8-0.8v-0.2c0-0.4,0.4-0.8,0.8-0.8h6
								c0.4,0,0.8,0.4,0.8,0.8v0.2C184.4,101,184,101.3,183.6,101.3z"/>
							<path id="XMLID_777_" class="st2" d="M182.9,103.2h-4.5c-0.4,0-0.8-0.4-0.8-0.8v-0.2c0-0.4,0.4-0.8,0.8-0.8h4.5
								c0.4,0,0.8,0.4,0.8,0.8v0.2C183.7,102.8,183.3,103.2,182.9,103.2z"/>
						</g>
						<line id="XMLID_775_" class="st2" x1="180.6" y1="99.8" x2="180.6" y2="94.3"/>
						<circle id="XMLID_774_" class="st2" cx="180.6" cy="93.4" r="0.9"/>
					</g>
					<g id="XMLID_765_">
						<path id="XMLID_772_" class="st3" d="M172.9,89.3l-0.3,0.5l1.7,1c0.1-0.2,0.2-0.3,0.3-0.5L172.9,89.3z"/>
						<path id="XMLID_771_" class="st3" d="M176.3,86.1l-0.5,0.3l1,1.7c0.2-0.1,0.3-0.2,0.5-0.3L176.3,86.1z"/>
						<path id="XMLID_770_" class="st3" d="M180.9,87l0-2h-0.6l0,2c0.1,0,0.2,0,0.3,0C180.7,87,180.8,87,180.9,87z"/>
						<path id="XMLID_769_" class="st3" d="M185.3,86.4l-0.5-0.3l-1,1.7c0.2,0.1,0.3,0.2,0.5,0.3L185.3,86.4z"/>
						<path id="XMLID_768_" class="st3" d="M188.5,89.8l-0.3-0.5l-1.7,1c0.1,0.2,0.2,0.3,0.3,0.5L188.5,89.8z"/>
						<path id="XMLID_767_" class="st3" d="M187.6,94.3l2,0v-0.6l-2,0c0,0.1,0,0.2,0,0.3C187.6,94.1,187.6,94.2,187.6,94.3z"/>
						<path id="XMLID_766_" class="st3" d="M173.5,93.8l-2,0v0.6l2,0c0-0.1,0-0.2,0-0.3C173.5,94,173.5,93.9,173.5,93.8z"/>
					</g>
				</g>
			</g>
			<g id="XMLID_698_">
				<g id="XMLID_715_">
					<g id="XMLID_724_">
						<path id="XMLID_730_" class="st1" d="M111.4,99.5h-5.6v-2c-1.4-0.9-2.3-2.5-2.3-4.2c0-2.8,2.3-5.1,5.1-5.1
							c2.8,0,5.1,2.3,5.1,5.1c0,1.7-0.9,3.3-2.3,4.2V99.5z"/>
						<g id="XMLID_727_">
							<path id="XMLID_729_" class="st2" d="M111.6,101.3h-6c-0.4,0-0.8-0.4-0.8-0.8v-0.2c0-0.4,0.4-0.8,0.8-0.8h6
								c0.4,0,0.8,0.4,0.8,0.8v0.2C112.4,101,112,101.3,111.6,101.3z"/>
							<path id="XMLID_728_" class="st2" d="M110.9,103.2h-4.5c-0.4,0-0.8-0.4-0.8-0.8v-0.2c0-0.4,0.4-0.8,0.8-0.8h4.5
								c0.4,0,0.8,0.4,0.8,0.8v0.2C111.7,102.8,111.3,103.2,110.9,103.2z"/>
						</g>
						<line id="XMLID_726_" class="st2" x1="108.6" y1="99.8" x2="108.6" y2="94.3"/>
						<circle id="XMLID_725_" class="st2" cx="108.6" cy="93.4" r="0.9"/>
					</g>
					<g id="XMLID_716_">
						<path id="XMLID_723_" class="st3" d="M100.9,89.3l-0.3,0.5l1.7,1c0.1-0.2,0.2-0.3,0.3-0.5L100.9,89.3z"/>
						<path id="XMLID_722_" class="st3" d="M104.3,86.1l-0.5,0.3l1,1.7c0.2-0.1,0.3-0.2,0.5-0.3L104.3,86.1z"/>
						<path id="XMLID_721_" class="st3" d="M108.9,87l0-2h-0.6l0,2c0.1,0,0.2,0,0.3,0C108.7,87,108.8,87,108.9,87z"/>
						<path id="XMLID_720_" class="st3" d="M113.3,86.4l-0.5-0.3l-1,1.7c0.2,0.1,0.3,0.2,0.5,0.3L113.3,86.4z"/>
						<path id="XMLID_719_" class="st3" d="M116.5,89.8l-0.3-0.5l-1.7,1c0.1,0.2,0.2,0.3,0.3,0.5L116.5,89.8z"/>
						<path id="XMLID_718_" class="st3" d="M115.6,94.3l2,0v-0.6l-2,0c0,0.1,0,0.2,0,0.3C115.6,94.1,115.6,94.2,115.6,94.3z"/>
						<path id="XMLID_717_" class="st3" d="M101.5,93.8l-2,0v0.6l2,0c0-0.1,0-0.2,0-0.3C101.5,94,101.5,93.9,101.5,93.8z"/>
					</g>
				</g>
			</g>
			<g id="XMLID_649_">
				<g id="XMLID_666_">
					<g id="XMLID_675_">
						<path id="XMLID_681_" class="st1" d="M39.4,99.5h-5.6v-2c-1.4-0.9-2.3-2.5-2.3-4.2c0-2.8,2.3-5.1,5.1-5.1s5.1,2.3,5.1,5.1
							c0,1.7-0.9,3.3-2.3,4.2V99.5z"/>
						<g id="XMLID_678_">
							<path id="XMLID_680_" class="st2" d="M39.6,101.3h-6c-0.4,0-0.8-0.4-0.8-0.8v-0.2c0-0.4,0.4-0.8,0.8-0.8h6
								c0.4,0,0.8,0.4,0.8,0.8v0.2C40.4,101,40,101.3,39.6,101.3z"/>
							<path id="XMLID_679_" class="st2" d="M38.9,103.2h-4.5c-0.4,0-0.8-0.4-0.8-0.8v-0.2c0-0.4,0.4-0.8,0.8-0.8h4.5
								c0.4,0,0.8,0.4,0.8,0.8v0.2C39.7,102.8,39.3,103.2,38.9,103.2z"/>
						</g>
						<line id="XMLID_677_" class="st2" x1="36.6" y1="99.8" x2="36.6" y2="94.3"/>
						<circle id="XMLID_676_" class="st2" cx="36.6" cy="93.4" r="0.9"/>
					</g>
					<g id="XMLID_667_">
						<path id="XMLID_674_" class="st3" d="M28.9,89.3l-0.3,0.5l1.7,1c0.1-0.2,0.2-0.3,0.3-0.5L28.9,89.3z"/>
						<path id="XMLID_673_" class="st3" d="M32.3,86.1l-0.5,0.3l1,1.7c0.2-0.1,0.3-0.2,0.5-0.3L32.3,86.1z"/>
						<path id="XMLID_672_" class="st3" d="M36.9,87l0-2h-0.6l0,2c0.1,0,0.2,0,0.3,0C36.7,87,36.8,87,36.9,87z"/>
						<path id="XMLID_671_" class="st3" d="M41.3,86.4l-0.5-0.3l-1,1.7c0.2,0.1,0.3,0.2,0.5,0.3L41.3,86.4z"/>
						<path id="XMLID_670_" class="st3" d="M44.5,89.8l-0.3-0.5l-1.7,1c0.1,0.2,0.2,0.3,0.3,0.5L44.5,89.8z"/>
						<path id="XMLID_669_" class="st3" d="M43.6,94.3l2,0v-0.6l-2,0c0,0.1,0,0.2,0,0.3C43.6,94.1,43.6,94.2,43.6,94.3z"/>
						<path id="XMLID_668_" class="st3" d="M29.5,93.8l-2,0v0.6l2,0c0-0.1,0-0.2,0-0.3C29.5,94,29.5,93.9,29.5,93.8z"/>
					</g>
				</g>
			</g>
		</g>
	</g>
	<g id="XMLID_427_">
		<g id="XMLID_440_">
			<rect id="XMLID_276_" x="310" y="61.3" class="st4" width="37.2" height="11"/>
			<text id="XMLID_445_" transform="matrix(1 0 0 1 313.6656 68.9167)" class="st5 st6 st7">Project  1</text>
		</g>
		<g id="XMLID_437_">
			<rect id="XMLID_273_" x="237" y="61.3" class="st4" width="37.2" height="11"/>
			<text id="XMLID_438_" transform="matrix(1 0 0 1 241.6056 68.9167)" class="st5 st6 st7">Project 2</text>
		</g>
		<g id="XMLID_434_">
			<rect id="XMLID_270_" x="164" y="61.3" class="st4" width="37.2" height="11"/>
			<text id="XMLID_435_" transform="matrix(1 0 0 1 168.6054 68.9167)" class="st5 st6 st7">Project 3</text>
		</g>
		<g id="XMLID_431_">
			<rect id="XMLID_262_" x="91" y="61.3" class="st4" width="37.2" height="11"/>
			<text id="XMLID_432_" transform="matrix(1 0 0 1 94.6655 68.9167)" class="st5 st6 st7">Project  4</text>
		</g>
		<g id="XMLID_428_">
			<rect id="XMLID_259_" x="18" y="61.3" class="st4" width="37.2" height="11"/>
			<text id="XMLID_429_" transform="matrix(1 0 0 1 22.6054 68.9167)" class="st5 st6 st7">Project 5</text>
		</g>
	</g>
	<g id="XMLID_424_">
		<path id="XMLID_426_" class="st8" d="M811.9,78.5L830,67.9c1.8-1,3.9-1,5.7,0l18.1,10.6c1.7,1,2.8,2.9,2.8,4.9v21.3
			c0,2-1.1,3.9-2.8,4.9l-18.1,10.6c-1.8,1-3.9,1-5.7,0l-18.1-10.6c-1.7-1-2.8-2.9-2.8-4.9V83.3C809.1,81.3,810.2,79.5,811.9,78.5z"
			/>
		<path id="XMLID_425_" class="st9" d="M811.9,78.5L830,67.9c1.8-1,3.9-1,5.7,0l18.1,10.6c1.7,1,2.8,2.9,2.8,4.9v21.3
			c0,2-1.1,3.9-2.8,4.9l-18.1,10.6c-1.8,1-3.9,1-5.7,0l-18.1-10.6c-1.7-1-2.8-2.9-2.8-4.9V83.3C809.1,81.3,810.2,79.5,811.9,78.5z"
			/>
	</g>
	<g id="XMLID_422_">
		<path id="XMLID_423_" class="st9" d="M823,69.8l21,0.4c2,0,3.9,1.2,4.8,3l10,18.5c0.9,1.8,0.9,3.9-0.1,5.6l-11.1,18.2
			c-1,1.7-2.9,2.7-4.9,2.7l-21-0.4c-2,0-3.9-1.2-4.8-3l-10-18.5c-0.9-1.8-0.9-3.9,0.1-5.6l11.1-18.2C819.2,70.8,821,69.8,823,69.8z"
			/>
	</g>
	<g id="XMLID_409_">
		<rect id="XMLID_249_" x="822.2" y="85" class="st4" width="35.4" height="24.6"/>
		<text id="XMLID_412_" transform="matrix(1 0 0 1 822.2071 92.6065)"><tspan x="0" y="0" class="st5 st6 st7">Private  </tspan><tspan x="0" y="12" class="st5 st6 st7">Token 5</tspan></text>
	</g>
	<g id="XMLID_368_">
		<path id="XMLID_402_" class="st8" d="M743.5,78.5l18.1-10.6c1.8-1,3.9-1,5.7,0l18.1,10.6c1.7,1,2.8,2.9,2.8,4.9v21.3
			c0,2-1.1,3.9-2.8,4.9l-18.1,10.6c-1.8,1-3.9,1-5.7,0l-18.1-10.6c-1.7-1-2.8-2.9-2.8-4.9V83.3C740.7,81.3,741.8,79.5,743.5,78.5z"
			/>
		<path id="XMLID_401_" class="st9" d="M743.5,78.5l18.1-10.6c1.8-1,3.9-1,5.7,0l18.1,10.6c1.7,1,2.8,2.9,2.8,4.9v21.3
			c0,2-1.1,3.9-2.8,4.9l-18.1,10.6c-1.8,1-3.9,1-5.7,0l-18.1-10.6c-1.7-1-2.8-2.9-2.8-4.9V83.3C740.7,81.3,741.8,79.5,743.5,78.5z"
			/>
	</g>
	<g id="XMLID_359_">
		<path id="XMLID_362_" class="st9" d="M754.6,69.8l21,0.4c2,0,3.9,1.2,4.8,3l10,18.5c0.9,1.8,0.9,3.9-0.1,5.6l-11.1,18.2
			c-1,1.7-2.9,2.7-4.9,2.7l-21-0.4c-2,0-3.9-1.2-4.8-3l-10-18.5c-0.9-1.8-0.9-3.9,0.1-5.6l11.1-18.2
			C750.8,70.8,752.6,69.8,754.6,69.8z"/>
	</g>
	<g id="XMLID_340_">
		<rect id="XMLID_236_" x="752.9" y="85" class="st4" width="39.6" height="24.6"/>
		<text id="XMLID_342_" transform="matrix(1 0 0 1 752.8746 92.6065)"><tspan x="0" y="0" class="st5 st6 st7">Private  </tspan><tspan x="0" y="12" class="st5 st6 st7">Token 4</tspan></text>
	</g>
	<g id="XMLID_331_">
		<path id="XMLID_335_" class="st8" d="M675.1,78.5l18.1-10.6c1.8-1,3.9-1,5.7,0l18.1,10.6c1.7,1,2.8,2.9,2.8,4.9v21.3
			c0,2-1.1,3.9-2.8,4.9l-18.1,10.6c-1.8,1-3.9,1-5.7,0l-18.1-10.6c-1.7-1-2.8-2.9-2.8-4.9V83.3C672.3,81.3,673.4,79.5,675.1,78.5z"
			/>
		<path id="XMLID_332_" class="st9" d="M675.1,78.5l18.1-10.6c1.8-1,3.9-1,5.7,0l18.1,10.6c1.7,1,2.8,2.9,2.8,4.9v21.3
			c0,2-1.1,3.9-2.8,4.9l-18.1,10.6c-1.8,1-3.9,1-5.7,0l-18.1-10.6c-1.7-1-2.8-2.9-2.8-4.9V83.3C672.3,81.3,673.4,79.5,675.1,78.5z"
			/>
	</g>
	<g id="XMLID_59_">
		<path id="XMLID_69_" class="st9" d="M686.2,69.8l21,0.4c2,0,3.9,1.2,4.8,3l10,18.5c0.9,1.8,0.9,3.9-0.1,5.6l-11.1,18.2
			c-1,1.7-2.9,2.7-4.9,2.7l-21-0.4c-2,0-3.9-1.2-4.8-3l-10-18.5c-0.9-1.8-0.9-3.9,0.1-5.6l11.1-18.2
			C682.4,70.8,684.2,69.8,686.2,69.8z"/>
	</g>
	<g id="XMLID_56_">
		<rect id="XMLID_226_" x="684.9" y="85" class="st4" width="43.2" height="24.6"/>
		<text id="XMLID_57_" transform="matrix(1 0 0 1 684.8743 92.6065)"><tspan x="0" y="0" class="st5 st6 st7">Private  </tspan><tspan x="0" y="12" class="st5 st6 st7">Token 3</tspan></text>
	</g>
	<g id="XMLID_304_">
		<path id="XMLID_311_" class="st8" d="M606.7,78.5l18.1-10.6c1.8-1,3.9-1,5.7,0l18.1,10.6c1.7,1,2.8,2.9,2.8,4.9v21.3
			c0,2-1.1,3.9-2.8,4.9l-18.1,10.6c-1.8,1-3.9,1-5.7,0l-18.1-10.6c-1.7-1-2.8-2.9-2.8-4.9V83.3C603.9,81.3,605,79.5,606.7,78.5z"/>
		<path id="XMLID_55_" class="st9" d="M606.7,78.5l18.1-10.6c1.8-1,3.9-1,5.7,0l18.1,10.6c1.7,1,2.8,2.9,2.8,4.9v21.3
			c0,2-1.1,3.9-2.8,4.9l-18.1,10.6c-1.8,1-3.9,1-5.7,0l-18.1-10.6c-1.7-1-2.8-2.9-2.8-4.9V83.3C603.9,81.3,605,79.5,606.7,78.5z"/>
	</g>
	<g id="XMLID_302_">
		<path id="XMLID_53_" class="st9" d="M617.8,69.8l21,0.4c2,0,3.9,1.2,4.8,3l10,18.5c0.9,1.8,0.9,3.9-0.1,5.6l-11.1,18.2
			c-1,1.7-2.9,2.7-4.9,2.7l-21-0.4c-2,0-3.9-1.2-4.8-3l-10-18.5c-0.9-1.8-0.9-3.9,0.1-5.6l11.1-18.2C614,70.8,615.8,69.8,617.8,69.8
			z"/>
	</g>
	<g id="XMLID_294_">
		<rect id="XMLID_214_" x="616.8" y="85" class="st4" width="41.7" height="24.6"/>
		<text id="XMLID_298_" transform="matrix(1 0 0 1 616.836 92.6065)"><tspan x="0" y="0" class="st5 st6 st7">Private  </tspan><tspan x="0" y="12" class="st5 st6 st7">Token 2</tspan></text>
	</g>
	<g id="XMLID_267_">
		<g id="XMLID_284_">
			<path id="XMLID_287_" class="st8" d="M538.3,78.5l18.1-10.6c1.8-1,3.9-1,5.7,0l18.1,10.6c1.7,1,2.8,2.9,2.8,4.9v21.3
				c0,2-1.1,3.9-2.8,4.9l-18.1,10.6c-1.8,1-3.9,1-5.7,0l-18.1-10.6c-1.7-1-2.8-2.9-2.8-4.9V83.3C535.5,81.3,536.6,79.5,538.3,78.5z"
				/>
			<path id="XMLID_285_" class="st9" d="M538.3,78.5l18.1-10.6c1.8-1,3.9-1,5.7,0l18.1,10.6c1.7,1,2.8,2.9,2.8,4.9v21.3
				c0,2-1.1,3.9-2.8,4.9l-18.1,10.6c-1.8,1-3.9,1-5.7,0l-18.1-10.6c-1.7-1-2.8-2.9-2.8-4.9V83.3C535.5,81.3,536.6,79.5,538.3,78.5z"
				/>
		</g>
		<g id="XMLID_50_">
			<path id="XMLID_51_" class="st9" d="M549.4,69.8l21,0.4c2,0,3.9,1.2,4.8,3l10,18.5c0.9,1.8,0.9,3.9-0.1,5.6L574,115.5
				c-1,1.7-2.9,2.7-4.9,2.7l-21-0.4c-2,0-3.9-1.2-4.8-3l-10-18.5c-0.9-1.8-0.9-3.9,0.1-5.6l11.1-18.2
				C545.6,70.8,547.4,69.8,549.4,69.8z"/>
		</g>
		<rect id="XMLID_49_" x="547.6" y="85" class="st4" width="34.4" height="24.6"/>
		<text id="XMLID_277_" transform="matrix(1 0 0 1 547.6055 92.6065)"><tspan x="0" y="0" class="st5 st6 st7">Private  </tspan><tspan x="0" y="12" class="st5 st6 st7">Token 1</tspan></text>
	</g>
	<g id="XMLID_266_" class="st10">
		<path id="XMLID_258_" class="st3" d="M493.4,126c-1.6,6.4-7.8,13.9-13.8,16.7l-23,10.6c-6,2.8-15.9,3-22,0.4l-54.2-22.4
			c-6.1-2.5-9.8-9.8-8.3-16.3l13.3-55.5c1.5-6.4,8.1-12.8,14.5-14.2l62.4-13.3c6.5-1.4,14.8,2,18.5,7.4L499,65.8
			c3.7,5.4,5.5,15.1,3.9,21.5L493.4,126z"/>
	</g>
	<g id="XMLID_265_" class="st11">
		<path id="XMLID_257_" class="st3" d="M386.7,46.8c2.4-6.1,9.8-11.5,16.3-12l68.7-4.5c6.6-0.4,13.6,4.4,15.5,10.7l14.9,48
			c2,6.3,0.3,15.8-3.7,21l-7.9,10.5c-4,5.3-12.1,11.9-18.1,14.7l-45.8,21.4c-6,2.8-13.9,0.6-17.5-4.9l-33.3-50.4
			c-3.6-5.5-4.6-15-2.2-21.2L386.7,46.8z"/>
	</g>
	<g id="XMLID_264_" class="st11">
		<path id="XMLID_256_" class="st3" d="M507.6,90.8c2.7,6,1.2,15-3.3,19.9L467.6,151c-4.4,4.9-13.5,8.6-20.1,8.3l-61.2-3.1
			c-6.6-0.3-12.7-6-13.5-12.5l-6.2-48.9c-0.8-6.5,2-16,6.3-21l33.3-39.2c4.3-5,13-7.7,19.3-5.9l50.9,14.2
			c6.4,1.8,13.7,8.2,16.4,14.2L507.6,90.8z"/>
	</g>
	<g id="XMLID_263_" class="st12">
		<path id="XMLID_254_" class="st3" d="M500.6,135.6c-1.8,6.4-8.6,12.3-15.1,13.3l-52,7.5c-6.5,0.9-15.9-1.9-20.8-6.4l-43.6-39.7
			c-4.9-4.4-6-12.6-2.5-18.2L391.8,52c3.5-5.6,11.7-11.1,18.2-12.3l48.6-8.7c6.5-1.2,14.9,2.3,18.7,7.7l29.1,41.6
			c3.8,5.4,5.4,15,3.6,21.4L500.6,135.6z"/>
	</g>
	<g id="XMLID_238_">
		<rect id="XMLID_292_" x="393.2" y="82.4" class="st4" width="88.9" height="24.6"/>
		<text id="XMLID_291_" transform="matrix(1 0 0 1 409.2095 98.1315)" class="st8 st6 st13">Platform</text>
	</g>
	<path id="XMLID_233_" class="st14" d="M493.3,72.7l14.5-14.5c2.8-2.8,6.6-4.4,10.6-4.4l99.3,0c5.5,0,10,4.5,10,10l0,4.1"/>
	<path id="XMLID_218_" class="st14" d="M491.1,114.1l16.7,16.9c2.8,2.9,6.7,4.5,10.7,4.5h168.8c5,0,9-4,9-9l0-5.1"/>
	<path id="XMLID_217_" class="st14" d="M482.3,60.7l16.7-17.6c2.8-3,6.8-4.7,10.9-4.7h245c5.5,0,10,4.5,10,10l0,18.7"/>
	<path id="XMLID_215_" class="st14" d="M482.3,129l16.7,16.9c2.8,2.9,6.7,4.5,10.7,4.5h313.4c5.5,0,10-4.5,10-10l0-18.7"/>
	<path id="XMLID_45_" class="st14" d="M385.9,129l-16.7,16.9c-2.8,2.9-6.7,4.5-10.7,4.5H45.1c-5.5,0-10-4.5-10-10l0-17.3"/>
	<line id="XMLID_44_" class="st14" x1="504.3" y1="94.5" x2="533.3" y2="94.5"/>
	<g id="XMLID_38_">
		<g id="XMLID_40_">
			<circle id="XMLID_43_" cx="519.9" cy="93.8" r="7"/>
		</g>
		<rect id="XMLID_154_" x="515.3" y="89.3" class="st4" width="9.7" height="15.3"/>
		<text id="XMLID_39_" transform="matrix(1 0 0 1 517.2648 96.8814)" class="st8 st15 st7">1</text>
	</g>
	<line id="XMLID_31_" class="st14" x1="341.7" y1="94.5" x2="370.7" y2="94.5"/>
	<g id="XMLID_26_">
		<g id="XMLID_29_">
			<circle id="XMLID_30_" cx="356.2" cy="94.3" r="7"/>
		</g>
		<rect id="XMLID_28_" x="351.5" y="89.8" class="st4" width="9.7" height="15.3"/>
		<text id="XMLID_27_" transform="matrix(1 0 0 1 353.4801 97.3728)" class="st8 st15 st7">1</text>
	</g>
	<g id="XMLID_23_">
		<g id="XMLID_166_">
			<circle id="XMLID_25_" cx="588.1" cy="53.7" r="7"/>
		</g>
		<g id="XMLID_24_">
			<rect id="XMLID_120_" x="583.3" y="49.2" class="st4" width="9.7" height="15.3"/>
			<text id="XMLID_164_" transform="matrix(1 0 0 1 585.2828 56.7552)" class="st8 st15 st7">2</text>
		</g>
	</g>
	<path id="XMLID_22_" class="st14" d="M380.2,72.7l-14.5-14.5c-2.8-2.8-6.6-4.4-10.6-4.4l-97.7,0c-3.1,0-5.6,2.5-5.6,5.6v0"/>
	<g id="XMLID_147_">
		<g id="XMLID_20_">
			<circle id="XMLID_21_" cx="293.3" cy="54.9" r="7"/>
		</g>
		<g id="XMLID_148_">
			<rect id="XMLID_107_" x="288.5" y="50.4" class="st4" width="9.7" height="15.3"/>
			<text id="XMLID_152_" transform="matrix(1 0 0 1 290.5047 58.0164)" class="st8 st15 st7">2</text>
		</g>
	</g>
	<g id="XMLID_17_">
		<g id="XMLID_145_">
			<circle id="XMLID_146_" cx="798.2" cy="150.2" r="7"/>
		</g>
		<g id="XMLID_18_">
			<rect id="XMLID_94_" x="793.4" y="145.6" class="st4" width="9.7" height="15.3"/>
			<text id="XMLID_19_" transform="matrix(1 0 0 1 795.3812 153.232)" class="st8 st15 st7">5</text>
		</g>
	</g>
	<g id="XMLID_12_">
		<g id="XMLID_15_">
			<circle id="XMLID_16_" cx="75.2" cy="150.2" r="7"/>
		</g>
		<g id="XMLID_13_">
			<rect id="XMLID_85_" x="70.4" y="145.6" class="st4" width="9.7" height="15.3"/>
			<text id="XMLID_14_" transform="matrix(1 0 0 1 72.354 153.232)" class="st8 st15 st7">5</text>
		</g>
	</g>
	<g id="XMLID_7_">
		<g id="XMLID_10_">
			<circle id="XMLID_11_" cx="726.9" cy="39.3" r="7"/>
		</g>
		<g id="XMLID_8_">
			<rect id="XMLID_78_" x="721.7" y="34.8" class="st4" width="9.7" height="15.3"/>
			<text id="XMLID_9_" transform="matrix(1 0 0 1 723.7418 42.3551)" class="st8 st15 st7">4</text>
		</g>
	</g>
	<path id="XMLID_6_" class="st14" d="M390.6,60.7L374,43.2c-2.8-3-6.8-4.7-10.9-4.7H118c-5.5,0-10,4.5-10,10l0,7.9"/>
	<g id="XMLID_110_">
		<g id="XMLID_124_">
			<circle id="XMLID_125_" cx="148.7" cy="39.3" r="7"/>
		</g>
		<g id="XMLID_112_">
			<rect id="XMLID_61_" x="143.5" y="34.8" class="st4" width="9.7" height="15.3"/>
			<text id="XMLID_121_" transform="matrix(1 0 0 1 145.545 42.3551)" class="st8 st15 st7">4</text>
		</g>
	</g>
	<g id="XMLID_102_">
		<g id="XMLID_108_">
			<circle id="XMLID_109_" cx="669.4" cy="135.1" r="7"/>
		</g>
		<g id="XMLID_103_">
			<rect id="XMLID_52_" x="664.8" y="130.6" class="st4" width="9.7" height="15.3"/>
			<text id="XMLID_105_" transform="matrix(1 0 0 1 666.7545 138.1507)" class="st8 st15 st7">3</text>
		</g>
	</g>
	<path id="XMLID_101_" class="st14" d="M380.2,114.1L363.5,131c-2.8,2.9-6.7,4.5-10.7,4.5H190.3c-5.5,0-10-4.5-10-10l0-3.8"/>
	<g id="XMLID_76_">
		<g id="XMLID_97_">
			<circle id="XMLID_100_" cx="217.6" cy="135.1" r="7"/>
		</g>
		<g id="XMLID_88_">
			<rect id="XMLID_41_" x="212.9" y="130.6" class="st4" width="9.7" height="15.3"/>
			<text id="XMLID_90_" transform="matrix(1 0 0 1 214.9356 138.1507)" class="st8 st15 st7">3</text>
		</g>
	</g>
	<circle id="XMLID_75_" class="st3" cx="627.7" cy="67.1" r="1.3"/>
	<circle id="XMLID_48_" class="st3" cx="696.1" cy="120.9" r="1.3"/>
	<circle id="XMLID_5_" class="st3" cx="764.8" cy="67.1" r="1.3"/>
	<circle id="XMLID_4_" class="st3" cx="833.1" cy="120.9" r="1.3"/>
	<circle id="XMLID_3_" class="st3" cx="533.3" cy="95" r="1.3"/>
	<circle id="XMLID_2_" class="st3" cx="482.3" cy="60.7" r="1.3"/>
	<circle id="XMLID_64_" class="st3" cx="370.7" cy="94.5" r="1.3"/>
	<circle id="XMLID_63_" class="st3" cx="380.2" cy="72.7" r="1.3"/>
	<circle id="XMLID_1_" class="st3" cx="390.6" cy="60.8" r="1.3"/>
	<circle id="XMLID_58_" class="st3" cx="341.7" cy="94.5" r="1.3"/>
	<circle id="XMLID_54_" class="st3" cx="251.8" cy="59.4" r="1.3"/>
	<circle id="XMLID_42_" class="st3" cx="108" cy="56.4" r="1.3"/>
	<circle id="XMLID_37_" class="st3" cx="180.3" cy="121.7" r="1.3"/>
	<circle id="XMLID_36_" class="st3" cx="35.1" cy="121.7" r="1.3"/>
	<circle id="XMLID_35_" class="st3" cx="380.2" cy="114.1" r="1.3"/>
	<circle id="XMLID_89_" class="st3" cx="385.9" cy="129" r="1.3"/>
	<circle id="XMLID_34_" class="st3" cx="493.3" cy="72.7" r="1.3"/>
	<circle id="XMLID_33_" class="st3" cx="491.1" cy="114.1" r="1.3"/>
	<circle id="XMLID_32_" class="st3" cx="482.3" cy="129" r="1.3"/>
</g>
</svg>
