<?xml version="1.0" encoding="utf-8"?>
<!-- Generator: Adobe Illustrator 19.0.0, SVG Export Plug-In . SVG Version: 6.00 Build 0)  -->
<svg version="1.1" id="Layer_1" xmlns="http://www.w3.org/2000/svg" xmlns:xlink="http://www.w3.org/1999/xlink" x="0px" y="0px"
	 viewBox="0 0 431.3 287" style="enable-background:new 0 0 431.3 287;" xml:space="preserve">
<style type="text/css">
	.st0{opacity:0.2;}
	.st1{fill:none;stroke:#00A6FF;stroke-width:0.273;stroke-miterlimit:10;}
	.st2{opacity:0.4;}
	.st3{opacity:0.2;fill:none;stroke:#00A6FF;stroke-width:0.273;stroke-miterlimit:10;}
	.st4{opacity:0.1;}
	.st5{fill:#00A6FF;}
	.st6{fill:#FFFFFF;}
	.st7{fill:none;}
	.st8{font-family:'OpenSansCondensed-Bold';}
	.st9{font-size:21.1207px;}
	.st10{fill:#333333;}
	.st11{font-family:'OpenSansCondensed-Light';}
	.st12{font-size:14.0215px;}
	.st13{fill:none;stroke:#00A6FF;stroke-width:2.184;stroke-miterlimit:10;stroke-dasharray:0.2183,1.0913;}
	.st14{opacity:0.3;}
	.st15{fill:none;stroke:#00A6FF;stroke-width:2.184;stroke-miterlimit:10;}
	.st16{fill:none;stroke:#00A6FF;stroke-width:2.184;stroke-miterlimit:10;stroke-dasharray:0.2178,1.0891;}
	.st17{fill:none;stroke:#00A6FF;stroke-width:2.184;stroke-miterlimit:10;stroke-dasharray:0.4409,0.8818;}
	.st18{font-size:10px;}
	.st19{font-size:8.7361px;}
	.st20{font-size:12.0121px;}
	.st21{fill:none;stroke:#00A6FF;stroke-width:0.546;stroke-miterlimit:10;}
	.st22{fill:none;stroke:#00A6FF;stroke-width:0.546;stroke-miterlimit:10;stroke-dasharray:0.2216,1.1082;}
	.st23{fill:none;stroke:#00A6FF;stroke-width:2.184;stroke-miterlimit:10;stroke-dasharray:0.4368,0.8736;}
	.st24{opacity:0.3;fill:none;stroke:#00A6FF;stroke-width:2.184;stroke-miterlimit:10;stroke-dasharray:0.2184,1.092;}
	.st25{fill:none;stroke:#00A6FF;stroke-width:2.5791;stroke-miterlimit:10;stroke-dasharray:0.5158,1.0316;}
</style>
<g id="XMLID_4852_">
	<g id="XMLID_4477_" class="st0">
		<g id="XMLID_364_">
			<line id="XMLID_365_" class="st1" x1="180.8" y1="199.5" x2="245.9" y2="86.8"/>
		</g>
		<g id="XMLID_360_">
			<line id="XMLID_361_" class="st1" x1="157" y1="175.7" x2="269.7" y2="110.6"/>
		</g>
		<g id="XMLID_354_">
			<line id="XMLID_356_" class="st1" x1="148.3" y1="143.2" x2="278.4" y2="143.2"/>
		</g>
		<g id="XMLID_349_">
			<line id="XMLID_351_" class="st1" x1="157" y1="110.6" x2="269.7" y2="175.7"/>
		</g>
		<g id="XMLID_346_">
			<line id="XMLID_347_" class="st1" x1="180.8" y1="86.8" x2="245.9" y2="199.5"/>
		</g>
		<g id="XMLID_341_">
			<line id="XMLID_343_" class="st1" x1="213.3" y1="78.1" x2="213.3" y2="208.2"/>
		</g>
	</g>
	<g id="XMLID_4444_">
		<g id="XMLID_4458_" class="st2">
			<circle id="XMLID_129_" class="st3" cx="213.3" cy="143.2" r="63.4"/>
			<circle id="XMLID_163_" class="st3" cx="213.3" cy="143.2" r="60"/>
			<circle id="XMLID_160_" class="st3" cx="213.3" cy="143.2" r="56.7"/>
			<circle id="XMLID_159_" class="st3" cx="213.3" cy="143.2" r="53.3"/>
			<circle id="XMLID_158_" class="st3" cx="213.3" cy="143.2" r="50"/>
			<circle id="XMLID_157_" class="st3" cx="213.3" cy="143.2" r="46.6"/>
			<circle id="XMLID_144_" class="st3" cx="213.3" cy="143.2" r="43.3"/>
			<circle id="XMLID_140_" class="st3" cx="213.3" cy="143.2" r="39.9"/>
			<circle id="XMLID_136_" class="st3" cx="213.3" cy="143.2" r="36.6"/>
			<circle id="XMLID_134_" class="st3" cx="213.3" cy="143.2" r="33.2"/>
			<circle id="XMLID_133_" class="st3" cx="213.3" cy="143.2" r="29.9"/>
			<circle id="XMLID_131_" class="st3" cx="213.3" cy="143.2" r="26.5"/>
			<circle id="XMLID_130_" class="st3" cx="213.3" cy="143.2" r="23.1"/>
			<circle id="XMLID_128_" class="st3" cx="213.3" cy="143.2" r="19.8"/>
		</g>
		<g id="XMLID_4457_" class="st4">
			<path id="XMLID_53_" class="st5" d="M259.7,166.8c-1.7,7-8.5,15.2-15,18.2l-12.8,5.9c-6.5,3-17.3,3.2-24,0.5l-38.2-15.8
				c-6.7-2.8-10.7-10.7-9.1-17.7l9.3-39c1.7-7,8.8-14,15.9-15.5l44.5-9.5c7-1.5,16.2,2.1,20.2,8.1l11,16c4.1,5.9,6,16.5,4.3,23.5
				L259.7,166.8z"/>
		</g>
		<g id="XMLID_4456_" class="st4">
			<path id="XMLID_251_" class="st5" d="M159.3,120.7c0.7-7.2,6.8-15,13.6-17.5l52.3-18.8c6.8-2.4,15.6,0.5,19.5,6.5l21.5,32.8
				c4,6,5.1,16.5,2.5,23.2l-2.3,6.1c-2.6,6.7-9.1,16.1-14.6,20.8L222,199.8c-5.4,4.7-14.4,4.8-19.8,0.1l-36.6-31.3
				c-5.5-4.7-9.4-14.4-8.7-21.6L159.3,120.7z"/>
		</g>
		<g id="XMLID_4455_" class="st4">
			<path id="XMLID_268_" class="st5" d="M264.6,173.8c-2,6.9-9.4,13.5-16.5,14.5l-35,5c-7.1,1-17.3-2.1-22.7-7l-30-27.3
				c-5.3-4.9-6.5-13.8-2.7-19.9l16.6-26.4c3.8-6.1,12.8-12.1,19.9-13.4l32.4-5.8c7.1-1.3,16.3,2.5,20.4,8.4l19.5,27.9
				c4.1,5.9,5.9,16.4,4,23.3L264.6,173.8z"/>
		</g>
		<g id="XMLID_4454_" class="st4">
			<path id="XMLID_270_" class="st5" d="M267.8,137.5c2.9,6.6,1.3,16.4-3.6,21.7l-24.4,26.7c-4.9,5.3-14.7,9.4-21.9,9l-41.3-2.1
				c-7.2-0.4-13.8-6.5-14.7-13.7l-4-31.7c-0.9-7.1,2.2-17.5,6.8-23l21.8-25.6c4.7-5.5,14.2-8.4,21.1-6.5l33.5,9.3
				c6.9,1.9,15,8.9,17.9,15.5L267.8,137.5z"/>
		</g>
		<circle id="XMLID_4453_" class="st6" cx="213.3" cy="143.2" r="44.5"/>
		<rect id="XMLID_12_" x="177.9" y="126.4" class="st7" width="70.8" height="41.7"/>
		<text id="XMLID_4451_" transform="matrix(1 0 0 1 190.6706 142.4613)"><tspan x="0" y="0" class="st5 st8 st9">100%</tspan><tspan x="-3.7" y="16.8" class="st10 st11 st12">(3.500,000)</tspan></text>
		<g id="XMLID_4448_">
			<circle id="XMLID_48_" class="st13" cx="213.3" cy="143.2" r="41.7"/>
		</g>
		<circle id="XMLID_4447_" class="st1" cx="213.3" cy="143.2" r="36.9"/>
		<circle id="XMLID_4446_" class="st1" cx="213.3" cy="143.2" r="36.9"/>
		<circle id="XMLID_4445_" class="st1" cx="213.3" cy="143.2" r="36"/>
	</g>
	<g id="XMLID_4312_">
		<g id="XMLID_4443_" class="st4">
			<path id="XMLID_269_" class="st5" d="M242.7,50.1c-1.7,7-8.1,15-14.3,17.9c-6.1,2.8-16.6,2.9-23.2,0.1l-13.7-5.7
				c-6.7-2.8-10.7-10.7-9.1-17.7l3.3-13.7c1.7-7,8.8-14,15.9-15.5l17-3.6c7-1.5,16.2,2.1,20.2,8.1l0.9,1.3c4.1,5.9,6,16.5,4.3,23.5
				L242.7,50.1z"/>
		</g>
		<g id="XMLID_4394_">
			<g id="XMLID_4425_" class="st0">
				<g id="XMLID_411_">
					<line id="XMLID_414_" class="st1" x1="193" y1="18.2" x2="233.7" y2="63.4"/>
				</g>
				<g id="XMLID_393_">
					<line id="XMLID_394_" class="st1" x1="226.2" y1="13.2" x2="200.5" y2="68.4"/>
				</g>
				<g id="XMLID_379_">
					<line id="XMLID_380_" class="st1" x1="243.7" y1="41.9" x2="183" y2="39.7"/>
				</g>
				<g id="XMLID_371_">
					<line id="XMLID_375_" class="st1" x1="224.2" y1="69.2" x2="202.5" y2="12.4"/>
				</g>
				<g id="XMLID_367_">
					<line id="XMLID_368_" class="st1" x1="191.5" y1="61.9" x2="235.2" y2="19.7"/>
				</g>
				<g id="XMLID_355_">
					<line id="XMLID_358_" class="st1" x1="185.4" y1="28.9" x2="241.3" y2="52.7"/>
				</g>
				<g id="XMLID_350_">
					<line id="XMLID_352_" class="st1" x1="213.3" y1="10.4" x2="213.3" y2="71.2"/>
				</g>
			</g>
			<g id="XMLID_4395_" class="st2">
				<circle id="XMLID_106_" class="st3" cx="213.3" cy="40.8" r="29.6"/>
				<circle id="XMLID_127_" class="st3" cx="213.3" cy="40.8" r="28.1"/>
				<circle id="XMLID_126_" class="st3" cx="213.3" cy="40.8" r="26.5"/>
				<circle id="XMLID_125_" class="st3" cx="213.3" cy="40.8" r="24.9"/>
				<circle id="XMLID_124_" class="st3" cx="213.3" cy="40.8" r="23.4"/>
				<circle id="XMLID_123_" class="st3" cx="213.3" cy="40.8" r="21.8"/>
				<circle id="XMLID_121_" class="st3" cx="213.3" cy="40.8" r="20.2"/>
				<circle id="XMLID_120_" class="st3" cx="213.3" cy="40.8" r="18.7"/>
				<circle id="XMLID_112_" class="st3" cx="213.3" cy="40.8" r="17.1"/>
				<circle id="XMLID_110_" class="st3" cx="213.3" cy="40.8" r="15.5"/>
				<circle id="XMLID_109_" class="st3" cx="213.3" cy="40.8" r="14"/>
				<circle id="XMLID_108_" class="st3" cx="213.3" cy="40.8" r="12.4"/>
				<circle id="XMLID_107_" class="st3" cx="213.3" cy="40.8" r="10.8"/>
				<circle id="XMLID_105_" class="st3" cx="213.3" cy="40.8" r="9.3"/>
			</g>
		</g>
		<circle id="XMLID_4393_" class="st6" cx="213.3" cy="40.8" r="25.7"/>
		<g id="XMLID_4387_" class="st14">
			<g id="XMLID_177_">
				<path id="XMLID_265_" class="st15" d="M236.9,40.8c0,0,0,0.1,0,0.1"/>
				<path id="XMLID_212_" class="st16" d="M236.9,42c-0.6,12.5-10.9,22.4-23.6,22.4c-13,0-23.6-10.6-23.6-23.6
					c0-12.8,10.2-23.2,22.9-23.6"/>
				<path id="XMLID_211_" class="st15" d="M213.2,17.2c0,0,0.1,0,0.1,0"/>
			</g>
		</g>
		<g id="XMLID_4328_">
			<g id="XMLID_165_">
				<path id="XMLID_175_" class="st15" d="M213.3,17.2c0.1,0,0.1,0,0.2,0"/>
				<path id="XMLID_167_" class="st17" d="M214.4,17.3c12.3,0.6,22.1,10.5,22.5,22.9"/>
				<path id="XMLID_166_" class="st15" d="M236.9,40.6c0,0.1,0,0.1,0,0.2"/>
			</g>
		</g>
		<rect id="XMLID_11_" x="192.9" y="44.3" class="st7" width="40.7" height="11.4"/>
		<text id="XMLID_4326_" transform="matrix(1 0 0 1 197.8865 51.9432)"><tspan x="0" y="0" class="st5 st11 st18">12$</tspan><tspan x="12" y="0" class="st10 st11 st19">/token</tspan></text>
		<rect id="XMLID_10_" x="193" y="28.1" class="st7" width="40.7" height="11.4"/>
		<text id="XMLID_4322_" transform="matrix(1 0 0 1 203.2302 37.1791)" class="st5 st8 st20">25%</text>
		<g id="XMLID_4314_">
			<g id="XMLID_169_">
				<line id="XMLID_174_" class="st21" x1="196.7" y1="41.9" x2="196.8" y2="41.9"/>
				<line id="XMLID_171_" class="st22" x1="197.9" y1="41.9" x2="229.3" y2="41.9"/>
				<line id="XMLID_170_" class="st21" x1="229.9" y1="41.9" x2="230" y2="41.9"/>
			</g>
		</g>
	</g>
	<g id="XMLID_4306_">
		<rect id="XMLID_338_" x="219.2" y="205.7" class="st7" width="33.3" height="10.7"/>
		<text id="XMLID_333_" transform="matrix(1 0 0 1 219.1726 212.2968)" class="st10 st11 st19">3 week</text>
	</g>
	<g id="XMLID_4303_">
		<rect id="XMLID_337_" x="130.3" y="130.6" class="st7" width="26.5" height="10.7"/>
		<text id="XMLID_336_" transform="matrix(1 0 0 1 133.6616 137.2589)" class="st10 st11 st19">4 week</text>
	</g>
	<g id="XMLID_4301_">
		<rect id="XMLID_335_" x="277" y="132.2" class="st7" width="26.7" height="7.9"/>
		<text id="XMLID_334_" transform="matrix(1 0 0 1 276.9575 138.8299)" class="st10 st11 st19">2 week</text>
	</g>
	<g id="XMLID_4299_">
		<rect id="XMLID_332_" x="219.2" y="74.2" class="st7" width="33.3" height="7.9"/>
		<text id="XMLID_331_" transform="matrix(1 0 0 1 219.1728 80.8241)" class="st10 st11 st19">1 week</text>
	</g>
	<g id="XMLID_4292_">
		<circle id="XMLID_4298_" class="st5" cx="138.9" cy="143.2" r="1.1"/>
		<circle id="XMLID_4297_" class="st5" cx="154.1" cy="143.1" r="1.1"/>
		<circle id="XMLID_4296_" class="st5" cx="129.7" cy="143.2" r="1.8"/>
		<circle id="XMLID_4295_" class="st5" cx="165.5" cy="143" r="1.1"/>
		<circle id="XMLID_4294_" class="st5" cx="146.7" cy="143.1" r="1.1"/>
		<line id="XMLID_4293_" class="st1" x1="129.7" y1="143.2" x2="163.6" y2="143"/>
	</g>
	<g id="XMLID_4282_">
		<circle id="XMLID_4290_" class="st5" cx="295.8" cy="143.2" r="1.1"/>
		<g id="XMLID_4283_">
			<circle id="XMLID_4289_" class="st5" cx="305.6" cy="143.2" r="1.8"/>
			<circle id="XMLID_4288_" class="st5" cx="287.6" cy="143.2" r="1.1"/>
			<circle id="XMLID_4287_" class="st5" cx="270.6" cy="143.2" r="1.1"/>
			<line id="XMLID_4286_" class="st1" x1="270.6" y1="143.2" x2="304.5" y2="143.2"/>
		</g>
	</g>
	<g id="XMLID_4274_">
		<circle id="XMLID_4281_" class="st5" cx="213.3" cy="71.5" r="1.8"/>
		<circle id="XMLID_4280_" class="st5" cx="213.3" cy="82.1" r="1.1"/>
		<circle id="XMLID_4278_" class="st5" cx="213.3" cy="91.7" r="1.1"/>
		<line id="XMLID_4275_" class="st1" x1="213.3" y1="92.8" x2="213.3" y2="72.6"/>
	</g>
	<g id="XMLID_4258_">
		<circle id="XMLID_4273_" class="st5" cx="213.3" cy="216.3" r="1.8"/>
		<circle id="XMLID_4269_" class="st5" cx="213.3" cy="205.7" r="1.1"/>
		<circle id="XMLID_4262_" class="st5" cx="213.3" cy="196.1" r="1.1"/>
		<line id="XMLID_4259_" class="st1" x1="213.3" y1="195" x2="213.3" y2="215.2"/>
	</g>
	<g id="XMLID_3352_">
		<g id="XMLID_3354_">
			<g id="XMLID_4257_" class="st4">
				<path id="XMLID_318_" class="st5" d="M66.2,136.8c0.7-7.2,6.8-15,13.6-17.5l18.5-6.6c6.8-2.4,15.6,0.5,19.5,6.5l5.7,8.7
					c4,6,5.7,14.8,3.9,19.5c-1.8,4.7-7.7,12.4-13.2,17.2l-8,7c-5.4,4.7-14.4,4.8-19.8,0.1l-11.8-10c-5.5-4.7-9.4-14.4-8.7-21.6
					L66.2,136.8z"/>
			</g>
			<g id="XMLID_3366_">
				<g id="XMLID_3946_" class="st0">
					<g id="XMLID_416_">
						<line id="XMLID_417_" class="st1" x1="75.8" y1="120.6" x2="116.5" y2="165.8"/>
					</g>
					<g id="XMLID_408_">
						<line id="XMLID_412_" class="st1" x1="109" y1="115.6" x2="83.3" y2="170.7"/>
					</g>
					<g id="XMLID_400_">
						<line id="XMLID_403_" class="st1" x1="126.5" y1="144.2" x2="65.8" y2="142.1"/>
					</g>
					<g id="XMLID_387_">
						<line id="XMLID_388_" class="st1" x1="107" y1="171.6" x2="85.2" y2="114.8"/>
					</g>
					<g id="XMLID_381_">
						<line id="XMLID_383_" class="st1" x1="74.3" y1="164.3" x2="118" y2="122"/>
					</g>
					<g id="XMLID_376_">
						<line id="XMLID_378_" class="st1" x1="68.2" y1="131.3" x2="124.1" y2="155"/>
					</g>
					<g id="XMLID_372_">
						<line id="XMLID_373_" class="st1" x1="96.1" y1="112.8" x2="96.1" y2="173.6"/>
					</g>
				</g>
				<g id="XMLID_3367_" class="st2">
					<circle id="XMLID_76_" class="st3" cx="96.1" cy="143.2" r="29.6"/>
					<circle id="XMLID_103_" class="st3" cx="96.1" cy="143.2" r="28.1"/>
					<circle id="XMLID_102_" class="st3" cx="96.1" cy="143.2" r="26.5"/>
					<circle id="XMLID_101_" class="st3" cx="96.1" cy="143.2" r="24.9"/>
					<circle id="XMLID_99_" class="st3" cx="96.1" cy="143.2" r="23.4"/>
					<circle id="XMLID_97_" class="st3" cx="96.1" cy="143.2" r="21.8"/>
					<circle id="XMLID_96_" class="st3" cx="96.1" cy="143.2" r="20.2"/>
					<circle id="XMLID_95_" class="st3" cx="96.1" cy="143.2" r="18.7"/>
					<circle id="XMLID_94_" class="st3" cx="96.1" cy="143.2" r="17.1"/>
					<circle id="XMLID_93_" class="st3" cx="96.1" cy="143.2" r="15.5"/>
					<circle id="XMLID_92_" class="st3" cx="96.1" cy="143.2" r="14"/>
					<circle id="XMLID_91_" class="st3" cx="96.1" cy="143.2" r="12.4"/>
					<circle id="XMLID_89_" class="st3" cx="96.1" cy="143.2" r="10.8"/>
					<circle id="XMLID_75_" class="st3" cx="96.1" cy="143.2" r="9.3"/>
				</g>
			</g>
			<circle id="XMLID_3365_" class="st6" cx="96.1" cy="143.2" r="25.7"/>
			<rect id="XMLID_139_" x="75.7" y="146.7" class="st7" width="40.7" height="11.4"/>
			<text id="XMLID_3363_" transform="matrix(1 0 0 1 80.6824 154.3021)"><tspan x="0" y="0" class="st5 st11 st18">18$</tspan><tspan x="12" y="0" class="st10 st11 st19">/token</tspan></text>
			<rect id="XMLID_137_" x="75.8" y="130.4" class="st7" width="40.7" height="11.4"/>
			<text id="XMLID_3361_" transform="matrix(1 0 0 1 83.2463 139.5398)" class="st5 st8 st20">100%</text>
			<g id="XMLID_3355_">
				<g id="XMLID_311_">
					<line id="XMLID_315_" class="st21" x1="79.5" y1="144.3" x2="79.6" y2="144.3"/>
					<line id="XMLID_314_" class="st22" x1="80.7" y1="144.3" x2="112.1" y2="144.3"/>
					<line id="XMLID_312_" class="st21" x1="112.7" y1="144.3" x2="112.8" y2="144.3"/>
				</g>
			</g>
		</g>
		<ellipse id="XMLID_3353_" class="st23" cx="96.1" cy="143.2" rx="23.5" ry="23.5"/>
	</g>
	<path id="XMLID_3351_" class="st24" d="M335.1,166.7c-12.9,0-23.3-10.5-23.3-23.4s10.4-23.4,23.3-23.4"/>
	<g id="XMLID_3301_">
		<g id="XMLID_3315_">
			<g id="XMLID_3335_" class="st0">
				<g id="XMLID_418_">
					<line id="XMLID_419_" class="st1" x1="314.8" y1="120.4" x2="355.5" y2="165.6"/>
				</g>
				<g id="XMLID_413_">
					<line id="XMLID_415_" class="st1" x1="348" y1="115.4" x2="322.3" y2="170.6"/>
				</g>
				<g id="XMLID_409_">
					<line id="XMLID_410_" class="st1" x1="365.6" y1="144.1" x2="304.8" y2="141.9"/>
				</g>
				<g id="XMLID_402_">
					<line id="XMLID_406_" class="st1" x1="346.1" y1="171.4" x2="324.3" y2="114.6"/>
				</g>
				<g id="XMLID_397_">
					<line id="XMLID_398_" class="st1" x1="313.3" y1="164.1" x2="357.1" y2="121.9"/>
				</g>
				<g id="XMLID_389_">
					<line id="XMLID_391_" class="st1" x1="307.2" y1="131.1" x2="363.2" y2="154.9"/>
				</g>
				<g id="XMLID_366_">
					<line id="XMLID_382_" class="st1" x1="335.2" y1="112.6" x2="335.2" y2="173.4"/>
				</g>
			</g>
			<g id="XMLID_3316_" class="st2">
				<circle id="XMLID_26_" class="st3" cx="335.2" cy="143" r="29.6"/>
				<circle id="XMLID_58_" class="st3" cx="335.2" cy="143" r="28.1"/>
				<circle id="XMLID_57_" class="st3" cx="335.2" cy="143" r="26.5"/>
				<circle id="XMLID_56_" class="st3" cx="335.2" cy="143" r="24.9"/>
				<circle id="XMLID_55_" class="st3" cx="335.2" cy="143" r="23.4"/>
				<circle id="XMLID_49_" class="st3" cx="335.2" cy="143" r="21.8"/>
				<circle id="XMLID_40_" class="st3" cx="335.2" cy="143" r="20.2"/>
				<circle id="XMLID_35_" class="st3" cx="335.2" cy="143" r="18.7"/>
				<circle id="XMLID_34_" class="st3" cx="335.2" cy="143" r="17.1"/>
				<circle id="XMLID_32_" class="st3" cx="335.2" cy="143" r="15.5"/>
				<circle id="XMLID_30_" class="st3" cx="335.2" cy="143" r="14"/>
				<circle id="XMLID_29_" class="st3" cx="335.2" cy="143" r="12.4"/>
				<circle id="XMLID_27_" class="st3" cx="335.2" cy="143" r="10.8"/>
				<circle id="XMLID_25_" class="st3" cx="335.2" cy="143" r="9.3"/>
			</g>
		</g>
		<g id="XMLID_3314_" class="st4">
			<path id="XMLID_264_" class="st5" d="M352.3,170.1c-5.7,4.4-15.6,5.2-21.9,1.7l-7.9-4.3c-6.3-3.4-12.6-12.1-14-19.1l-2.3-11.7
				c-1.4-7.1,3-15,9.8-17.6l6.2-2.4c6.7-2.6,17.5-2.1,23.9,1.2l6.8,3.4c6.4,3.2,11.5,11.8,11.3,19l-0.3,8.2
				c-0.2,7.2-5.1,16.7-10.8,21.1L352.3,170.1z"/>
		</g>
		<circle id="XMLID_3313_" class="st6" cx="335.2" cy="143" r="25.7"/>
		<rect id="XMLID_2_" x="314.7" y="146.5" class="st7" width="40.7" height="11.4"/>
		<text id="XMLID_3311_" transform="matrix(1 0 0 1 319.7278 154.1337)"><tspan x="0" y="0" class="st5 st11 st18">14$</tspan><tspan x="12" y="0" class="st10 st11 st19">/token</tspan></text>
		<rect id="XMLID_1_" x="314.8" y="130.2" class="st7" width="40.7" height="11.4"/>
		<text id="XMLID_3309_" transform="matrix(1 0 0 1 325.072 139.3705)" class="st5 st8 st20">50%</text>
		<g id="XMLID_3303_">
			<g id="XMLID_293_">
				<line id="XMLID_308_" class="st21" x1="318.6" y1="144.1" x2="318.7" y2="144.1"/>
				<line id="XMLID_307_" class="st22" x1="319.8" y1="144.1" x2="351.1" y2="144.1"/>
				<line id="XMLID_303_" class="st21" x1="351.7" y1="144.1" x2="351.8" y2="144.1"/>
			</g>
		</g>
		<path id="XMLID_3302_" class="st23" d="M335.1,119.8c12.9,0,23.3,10.5,23.3,23.4s-10.4,23.4-23.3,23.4"/>
	</g>
	<path id="XMLID_3300_" class="st24" d="M190.1,246.6c0-12.9,10.4-23.4,23.2-23.4"/>
	<g id="XMLID_865_">
		<g id="XMLID_3299_" class="st4">
			<path id="XMLID_306_" class="st5" d="M212.4,215.1c7.2-0.3,16.5,4.3,20.7,10.1l6.5,9.2c4.2,5.9,5.2,16.1,2.4,22.7l-3,6.9
				c-2.9,6.6-11.1,11.3-18.2,10.4l-13.1-1.7c-7.2-0.9-15.8-6.8-19.2-13.2l-3.1-5.7c-3.4-6.3-2.7-16.3,1.6-22l4.3-5.7
				c4.3-5.8,13.7-10.7,20.9-11L212.4,215.1z"/>
		</g>
		<g id="XMLID_3261_">
			<g id="XMLID_3283_" class="st0">
				<g id="XMLID_404_">
					<line id="XMLID_405_" class="st1" x1="193" y1="223.6" x2="233.7" y2="268.8"/>
				</g>
				<g id="XMLID_399_">
					<line id="XMLID_401_" class="st1" x1="226.2" y1="218.6" x2="200.5" y2="273.8"/>
				</g>
				<g id="XMLID_395_">
					<line id="XMLID_396_" class="st1" x1="243.7" y1="247.3" x2="183" y2="245.1"/>
				</g>
				<g id="XMLID_390_">
					<line id="XMLID_392_" class="st1" x1="224.2" y1="274.6" x2="202.5" y2="217.8"/>
				</g>
				<g id="XMLID_384_">
					<line id="XMLID_385_" class="st1" x1="191.5" y1="267.3" x2="235.2" y2="225.1"/>
				</g>
				<g id="XMLID_369_">
					<line id="XMLID_374_" class="st1" x1="185.4" y1="234.3" x2="241.3" y2="258.1"/>
				</g>
				<g id="XMLID_359_">
					<line id="XMLID_363_" class="st1" x1="213.3" y1="215.8" x2="213.3" y2="276.6"/>
				</g>
			</g>
			<g id="XMLID_3264_" class="st2">
				<circle id="XMLID_6_" class="st3" cx="213.3" cy="246.2" r="29.6"/>
				<circle id="XMLID_23_" class="st3" cx="213.3" cy="246.2" r="28.1"/>
				<circle id="XMLID_22_" class="st3" cx="213.3" cy="246.2" r="26.5"/>
				<circle id="XMLID_21_" class="st3" cx="213.3" cy="246.2" r="24.9"/>
				<circle id="XMLID_20_" class="st3" cx="213.3" cy="246.2" r="23.4"/>
				<circle id="XMLID_19_" class="st3" cx="213.3" cy="246.2" r="21.8"/>
				<circle id="XMLID_18_" class="st3" cx="213.3" cy="246.2" r="20.2"/>
				<circle id="XMLID_17_" class="st3" cx="213.3" cy="246.2" r="18.7"/>
				<circle id="XMLID_16_" class="st3" cx="213.3" cy="246.2" r="17.1"/>
				<circle id="XMLID_15_" class="st3" cx="213.3" cy="246.2" r="15.5"/>
				<circle id="XMLID_14_" class="st3" cx="213.3" cy="246.2" r="14"/>
				<circle id="XMLID_13_" class="st3" cx="213.3" cy="246.2" r="12.4"/>
				<circle id="XMLID_8_" class="st3" cx="213.3" cy="246.2" r="10.8"/>
				<circle id="XMLID_4_" class="st3" cx="213.3" cy="246.2" r="9.3"/>
			</g>
		</g>
		<circle id="XMLID_3260_" class="st6" cx="213.3" cy="246.2" r="25.7"/>
		<rect id="XMLID_28_" x="194" y="249.7" class="st7" width="40.7" height="11.4"/>
		<text id="XMLID_3257_" transform="matrix(1 0 0 1 198.9785 257.3314)"><tspan x="0" y="0" class="st5 st11 st18">12$</tspan><tspan x="12" y="0" class="st10 st11 st19">/token</tspan></text>
		<rect id="XMLID_24_" x="194.1" y="233.4" class="st7" width="40.7" height="11.4"/>
		<text id="XMLID_1493_" transform="matrix(1 0 0 1 204.3223 242.5687)" class="st5 st8 st20">75%</text>
		<g id="XMLID_988_">
			<g id="XMLID_272_">
				<line id="XMLID_278_" class="st21" x1="197.8" y1="247.3" x2="197.9" y2="247.3"/>
				<line id="XMLID_274_" class="st22" x1="199" y1="247.3" x2="230.4" y2="247.3"/>
				<line id="XMLID_273_" class="st21" x1="231" y1="247.3" x2="231.1" y2="247.3"/>
			</g>
		</g>
		<path id="XMLID_957_" class="st25" d="M213.3,223.1c12.8,0,23.2,10.5,23.2,23.4S226.2,270,213.3,270c-12.8,0-23.2-10.5-23.2-23.4"
			/>
	</g>
</g>
</svg>
