<?xml version="1.0" encoding="utf-8"?>
<!-- Generator: Adobe Illustrator 19.0.0, SVG Export Plug-In . SVG Version: 6.00 Build 0)  -->
<svg version="1.1" id="Layer_1" xmlns="http://www.w3.org/2000/svg" xmlns:xlink="http://www.w3.org/1999/xlink" x="0px" y="0px"
	 viewBox="0 0 431.3 287" style="enable-background:new 0 0 431.3 287;" xml:space="preserve">
<style type="text/css">
	.st0{opacity:0.1;fill:#00A6FF;}
	.st1{opacity:0.7;}
	.st2{opacity:0.2;fill:none;stroke:#00A6FF;stroke-width:0.4323;stroke-miterlimit:10;}
	.st3{opacity:0.2;}
	.st4{fill:#00A6FF;}
	.st5{fill:#FFFFFF;}
	.st6{fill:none;stroke:#00A6FF;stroke-miterlimit:10;stroke-dasharray:0.267,1.3325;}
	.st7{fill:none;}
	.st8{font-family:'OpenSans-Semibold';}
	.st9{font-size:10px;}
	.st10{fill:#CCCCCC;}
	.st11{fill:#666666;}
	.st12{opacity:0.6;}
	.st13{opacity:0.29;}
	.st14{fill:none;stroke:#666666;stroke-width:2;stroke-miterlimit:10;}
	.st15{fill:none;stroke:#CCCCCC;stroke-width:2;stroke-miterlimit:10;}
	.st16{opacity:0.3;fill:none;stroke:#00A6FF;stroke-width:2;stroke-miterlimit:10;}
	.st17{opacity:0.6;fill:none;stroke:#00A6FF;stroke-width:2;stroke-miterlimit:10;}
	.st18{fill:none;stroke:#00A6FF;stroke-width:2;stroke-miterlimit:10;}
	.st19{fill:none;stroke:#00A6FF;stroke-width:0.5;stroke-miterlimit:10;stroke-dasharray:0.997,1;}
	.st20{fill:none;stroke:#00A6FF;stroke-width:0.5;stroke-miterlimit:10;}
	.st21{font-family:'OpenSansCondensed-Light';}
	.st22{font-size:9.9942px;}
	.st23{font-family:'OpenSansCondensed-Bold';}
	.st24{font-size:9px;}
</style>
<g id="XMLID_31_">
	<path id="XMLID_5698_" class="st0" d="M201.8,152.9l-13.7-23.7c-0.9-1.6-0.9-3.5,0-5.1l13.7-23.7c0.9-1.6,2.6-2.5,4.4-2.5h27.3
		c1.8,0,3.5,1,4.4,2.5l13.7,23.7c0.9,1.6,0.9,3.5,0,5.1l-13.7,23.7c-0.9,1.6-2.6,2.5-4.4,2.5h-27.3
		C204.4,155.5,202.7,154.5,201.8,152.9z"/>
	<path id="XMLID_5697_" class="st0" d="M207.3,141.2l-10.7-18.5c-0.7-1.2-0.7-2.7,0-4l10.7-18.5c0.7-1.2,2-2,3.4-2h21.4
		c1.4,0,2.7,0.8,3.4,2l10.7,18.5c0.7,1.2,0.7,2.7,0,4l-10.7,18.5c-0.7,1.2-2,2-3.4,2h-21.4C209.4,143.1,208.1,142.4,207.3,141.2z"/>
	<g id="XMLID_5662_" class="st1">
		<circle id="XMLID_7_" class="st2" cx="216" cy="127.3" r="81.5"/>
		<circle id="XMLID_20_" class="st2" cx="216" cy="127.3" r="77.2"/>
		<circle id="XMLID_19_" class="st2" cx="216" cy="127.3" r="72.9"/>
		<circle id="XMLID_18_" class="st2" cx="216" cy="127.3" r="68.5"/>
		<circle id="XMLID_17_" class="st2" cx="216" cy="127.3" r="64.2"/>
		<circle id="XMLID_15_" class="st2" cx="216" cy="127.3" r="59.9"/>
		<circle id="XMLID_14_" class="st2" cx="216" cy="127.3" r="55.6"/>
		<circle id="XMLID_13_" class="st2" cx="216" cy="127.3" r="51.3"/>
		<circle id="XMLID_12_" class="st2" cx="216" cy="127.3" r="47"/>
		<circle id="XMLID_11_" class="st2" cx="216" cy="127.3" r="42.7"/>
		<circle id="XMLID_10_" class="st2" cx="216" cy="127.3" r="38.4"/>
		<circle id="XMLID_9_" class="st2" cx="216" cy="127.3" r="34.1"/>
		<circle id="XMLID_8_" class="st2" cx="216" cy="127.3" r="29.8"/>
		<circle id="XMLID_6_" class="st2" cx="216" cy="127.3" r="25.4"/>
	</g>
	<g id="XMLID_5658_">
		<g id="XMLID_5660_" class="st3">
			<path id="XMLID_38_" class="st4" d="M148.7,165.5c-6.4-6.7-8.8-19.1-5.3-27.7l19.3-47.2c3.5-8.6,13.6-17.8,22.4-20.6l55.5-17.3
				c8.8-2.7,19.5,1.7,23.8,9.9l20.8,40.2c4.3,8.2,5.1,22,1.9,30.7l-16.4,44.6c-3.2,8.7-13.4,16.4-22.6,17.1l-48.9,3.9
				c-9.2,0.7-22-4.1-28.4-10.8L148.7,165.5z"/>
		</g>
		<g id="XMLID_5659_" class="st3">
			<path id="XMLID_39_" class="st4" d="M144.5,104.3c0.2-9.2,7.3-19.7,15.9-23.3l47-19.7c8.5-3.6,22.2-3,30.4,1.3l51.4,27
				c8.2,4.3,12.6,15,9.8,23.9l-13.7,43.1c-2.8,8.8-12,19.2-20.4,23.1l-43.2,19.9c-8.4,3.9-21,2.1-28.1-3.9l-37.4-31.8
				c-7-6-12.6-18.5-12.5-27.7L144.5,104.3z"/>
		</g>
	</g>
	<g id="XMLID_5654_">
		<circle id="XMLID_34_" class="st5" cx="216" cy="127.2" r="70"/>
		<circle id="XMLID_32_" class="st6" cx="216" cy="127.2" r="70"/>
	</g>
	<g id="XMLID_5650_">
		<rect id="XMLID_5_" x="203" y="226.1" class="st7" width="9.7" height="15.3"/>
		<text id="XMLID_5651_" transform="matrix(1 0 0 1 204.9733 233.7176)" class="st5 st8 st9">1</text>
	</g>
	<circle id="XMLID_5649_" class="st5" cx="219.8" cy="126.7" r="35"/>
	<g id="XMLID_5332_">
		<g id="XMLID_5609_">
			<path id="XMLID_5648_" class="st10" d="M184.7,175.5l0.2-0.3c-14.6-9.9-24.1-26.7-24.1-45.6c0-5.7,0.9-11.2,2.5-16.3l-0.4-0.1
				c-1.6,5.2-2.5,10.7-2.5,16.5C160.4,148.7,170.1,165.5,184.7,175.5z"/>
			<path id="XMLID_5647_" class="st10" d="M163.1,129.6c0-5.5,0.8-10.7,2.4-15.7l-0.4-0.1c-1.6,5-2.4,10.3-2.4,15.8
				c0,18.3,9.2,34.4,23.3,44l0.2-0.3C172.3,163.7,163.1,147.7,163.1,129.6z"/>
			<path id="XMLID_5646_" class="st10" d="M165.4,129.6c0-5.2,0.8-10.2,2.3-15l-0.4-0.1c-1.5,4.8-2.3,9.8-2.3,15.1
				c0,17.5,8.8,32.9,22.3,42.1l0.2-0.3C174.2,162.3,165.4,146.9,165.4,129.6z"/>
			<path id="XMLID_5645_" class="st10" d="M167.7,129.6c0-5,0.8-9.8,2.2-14.3l-0.4-0.1c-1.4,4.6-2.2,9.4-2.2,14.4
				c0,16.7,8.4,31.4,21.3,40.2l0.2-0.3C176.1,160.8,167.7,146.1,167.7,129.6z"/>
			<path id="XMLID_5628_" class="st10" d="M170,129.6c0-4.7,0.7-9.3,2.1-13.6l-0.4-0.1c-1.4,4.3-2.1,9-2.1,13.7
				c0,15.9,8,29.9,20.3,38.3l0.2-0.3C178,159.3,170,145.4,170,129.6z"/>
			<path id="XMLID_5627_" class="st10" d="M191.2,166l0.2-0.3c-11.5-7.9-19.1-21.1-19.1-36c0-4.5,0.7-8.8,2-12.9l-0.4-0.1
				c-1.3,4.1-2,8.5-2,13C172,144.7,179.6,158,191.2,166z"/>
			<path id="XMLID_5626_" class="st10" d="M174.7,129.6c0-4.3,0.6-8.4,1.9-12.2l-0.4-0.1c-1.2,3.9-1.9,8.1-1.9,12.4
				c0,14.3,7.2,26.9,18.3,34.5l0.2-0.3C181.8,156.3,174.7,143.8,174.7,129.6z"/>
			<path id="XMLID_5625_" class="st10" d="M177,129.6c0-4,0.6-7.9,1.8-11.6l-0.4-0.1c-1.1,3.7-1.8,7.6-1.8,11.7
				c0,13.5,6.8,25.5,17.2,32.5l0.2-0.3C183.7,154.8,177,143,177,129.6z"/>
			<path id="XMLID_5624_" class="st10" d="M179.3,129.6c0-3.8,0.6-7.4,1.6-10.9l-0.4-0.1c-1.1,3.5-1.7,7.2-1.7,11
				c0,12.7,6.4,24,16.2,30.6l0.2-0.3C185.6,153.3,179.3,142.2,179.3,129.6z"/>
			<path id="XMLID_5623_" class="st10" d="M181.6,129.6c0-3.5,0.5-7,1.5-10.2l-0.4-0.1c-1,3.3-1.6,6.7-1.6,10.3
				c0,11.9,6,22.5,15.2,28.7l0.2-0.3C187.5,151.8,181.6,141.4,181.6,129.6z"/>
			<path id="XMLID_5622_" class="st10" d="M197.7,156.4l0.2-0.3c-8.5-5.8-14-15.5-14-26.5c0-3.3,0.5-6.5,1.4-9.5l-0.4-0.1
				c-0.9,3-1.5,6.3-1.5,9.6C183.5,140.7,189.1,150.6,197.7,156.4z"/>
			<path id="XMLID_5621_" class="st10" d="M186.2,129.6c0-3.1,0.5-6,1.3-8.8l-0.4-0.1c-0.9,2.8-1.4,5.8-1.4,8.9
				c0,10.3,5.2,19.5,13.2,24.9l0.2-0.3C191.4,148.8,186.2,139.8,186.2,129.6z"/>
			<path id="XMLID_5620_" class="st10" d="M188.5,129.6c0-2.8,0.4-5.6,1.2-8.1l-0.4-0.1c-0.8,2.6-1.3,5.4-1.3,8.3
				c0,9.6,4.8,18,12.2,23l0.2-0.3C193.3,147.3,188.5,139,188.5,129.6z"/>
			<path id="XMLID_5619_" class="st10" d="M190.8,129.6c0-2.6,0.4-5.1,1.1-7.5l-0.4-0.1c-0.7,2.4-1.1,4.9-1.1,7.6
				c0,8.8,4.4,16.5,11.2,21.1l0.2-0.3C195.2,145.9,190.8,138.2,190.8,129.6z"/>
			<path id="XMLID_5618_" class="st10" d="M193.1,129.6c0-2.4,0.4-4.6,1-6.8l-0.4-0.1c-0.7,2.2-1,4.5-1,6.9c0,8,4,15,10.2,19.2
				l0.2-0.3C197.1,144.4,193.1,137.4,193.1,129.6z"/>
			<path id="XMLID_5617_" class="st10" d="M204.2,146.9l0.2-0.3c-5.4-3.7-9-9.9-9-17c0-2.1,0.3-4.2,0.9-6.1l-0.4-0.1
				c-0.6,2-0.9,4-0.9,6.2C195,136.8,198.7,143.1,204.2,146.9z"/>
			<path id="XMLID_5616_" class="st10" d="M197.7,129.6c0-1.9,0.3-3.7,0.8-5.4l-0.4-0.1c-0.5,1.7-0.8,3.6-0.8,5.5
				c0,6.4,3.2,12,8.2,15.4l0.2-0.3C200.9,141.4,197.7,135.9,197.7,129.6z"/>
			<path id="XMLID_5615_" class="st10" d="M200,129.6c0-1.6,0.3-3.2,0.7-4.7l-0.4-0.1c-0.5,1.5-0.7,3.2-0.7,4.8
				c0,5.6,2.8,10.5,7.1,13.5l0.2-0.3C202.8,139.9,200,135.1,200,129.6z"/>
			<path id="XMLID_5614_" class="st10" d="M202.3,129.6c0-1.4,0.2-2.8,0.6-4l-0.4-0.1c-0.4,1.3-0.6,2.7-0.6,4.2
				c0,4.8,2.4,9.1,6.1,11.6l0.2-0.3C204.7,138.4,202.3,134.3,202.3,129.6z"/>
			<path id="XMLID_5613_" class="st10" d="M204.6,129.6c0-1.2,0.2-2.3,0.5-3.4l-0.4-0.1c-0.3,1.1-0.5,2.3-0.5,3.5c0,4,2,7.6,5.1,9.7
				l0.2-0.3C206.6,136.9,204.6,133.5,204.6,129.6z"/>
			<path id="XMLID_5611_" class="st10" d="M210.7,137.4l0.2-0.3c-2.4-1.6-3.9-4.4-3.9-7.4c0-0.9,0.1-1.8,0.4-2.7l-0.4-0.1
				c-0.3,0.9-0.4,1.8-0.4,2.8C206.6,132.8,208.2,135.7,210.7,137.4z"/>
			<path id="XMLID_5610_" class="st10" d="M209.2,129.6c0-0.7,0.1-1.3,0.3-2l-0.4-0.1c-0.2,0.7-0.4,1.4-0.4,2.1
				c0,2.4,1.2,4.6,3.1,5.9l0.2-0.3C210.4,133.9,209.2,131.9,209.2,129.6z"/>
		</g>
		<g id="XMLID_5569_">
			<path id="XMLID_5608_" class="st11" d="M216,74.5c0,0,0.1,0,0.1,0l0-0.4c0,0-0.1,0-0.1,0c-24.9,0-46,16.5-53,39.1l0.4,0.1
				C170.3,90.8,191.2,74.5,216,74.5z"/>
			<path id="XMLID_5607_" class="st11" d="M216,76.8c0,0,0.1,0,0.1,0l0-0.4c0,0-0.1,0-0.1,0c-23.9,0-44.1,15.8-50.8,37.4l0.4,0.1
				C172.2,92.4,192.3,76.8,216,76.8z"/>
			<path id="XMLID_5606_" class="st11" d="M167.3,114.5l0.4,0.1c6.4-20.6,25.6-35.5,48.2-35.5c0,0,0.1,0,0.1,0l0-0.4
				c0,0-0.1,0-0.1,0C193.1,78.7,173.8,93.8,167.3,114.5z"/>
			<path id="XMLID_5605_" class="st11" d="M216,81.4c0,0,0.1,0,0.1,0l0-0.4c0,0-0.1,0-0.1,0c-21.8,0-40.3,14.4-46.4,34.2l0.4,0.1
				C176,95.7,194.3,81.4,216,81.4z"/>
			<path id="XMLID_5604_" class="st11" d="M216,83.7c0,0,0.1,0,0.1,0l0-0.4c0,0-0.1,0-0.1,0c-20.7,0-38.4,13.7-44.2,32.6l0.4,0.1
				C177.9,97.3,195.4,83.7,216,83.7z"/>
			<path id="XMLID_5603_" class="st11" d="M216,86c0,0,0.1,0,0.1,0l0-0.4c0,0-0.1,0-0.1,0c-19.7,0-36.4,13-42,30.9l0.4,0.1
				C179.8,98.9,196.4,86,216,86z"/>
			<path id="XMLID_5602_" class="st11" d="M216,88.3c0,0,0.1,0,0.1,0l0-0.4c0,0-0.1,0-0.1,0c-18.7,0-34.5,12.4-39.8,29.3l0.4,0.1
				C181.7,100.5,197.4,88.3,216,88.3z"/>
			<path id="XMLID_5601_" class="st11" d="M178.3,117.9l0.4,0.1c4.9-15.9,19.8-27.4,37.2-27.4c0,0,0.1,0,0.1,0l0-0.4
				c0,0-0.1,0-0.1,0C198.3,90.2,183.3,101.9,178.3,117.9z"/>
			<path id="XMLID_5600_" class="st11" d="M216,92.9C216,92.9,216,92.9,216,92.9l0.1-0.4c0,0-0.1,0-0.1,0c-16.6,0-30.7,11-35.4,26.1
				l0.4,0.1C185.6,103.8,199.5,92.9,216,92.9z"/>
			<path id="XMLID_5599_" class="st11" d="M216,95.2C216,95.2,216,95.2,216,95.2l0.1-0.4c0,0-0.1,0-0.1,0
				c-15.6,0-28.8,10.3-33.2,24.5l0.4,0.1C187.5,105.4,200.5,95.2,216,95.2z"/>
			<path id="XMLID_5598_" class="st11" d="M216,97.5C216,97.5,216,97.5,216,97.5l0.1-0.4c0,0-0.1,0-0.1,0c-14.5,0-26.9,9.6-31,22.8
				l0.4,0.1C189.4,107,201.6,97.5,216,97.5z"/>
			<path id="XMLID_5597_" class="st11" d="M216,99.8C216,99.8,216,99.8,216,99.8l0.1-0.4c0,0-0.1,0-0.1,0c-13.5,0-25,8.9-28.8,21.2
				l0.4,0.1C191.3,108.7,202.6,99.8,216,99.8z"/>
			<path id="XMLID_5596_" class="st11" d="M189.4,121.3l0.4,0.1c3.5-11.2,13.9-19.3,26.2-19.3c0,0,0,0,0.1,0l0-0.4c0,0,0,0-0.1,0
				C203.5,101.8,192.9,110,189.4,121.3z"/>
			<path id="XMLID_5579_" class="st11" d="M216,104.5C216,104.5,216,104.5,216,104.5l0.1-0.4c0,0,0,0-0.1,0
				c-11.4,0-21.2,7.6-24.4,18l0.4,0.1C195.1,111.9,204.7,104.5,216,104.5z"/>
			<path id="XMLID_5578_" class="st11" d="M216,106.8C216,106.8,216,106.8,216,106.8l0.1-0.4c0,0,0,0-0.1,0
				c-10.4,0-19.3,6.9-22.2,16.3l0.4,0.1C197,113.5,205.7,106.8,216,106.8z"/>
			<path id="XMLID_5577_" class="st11" d="M216,109.1C216,109.1,216,109.1,216,109.1l0.1-0.4c0,0,0,0-0.1,0c-9.4,0-17.3,6.2-20,14.7
				l0.4,0.1C198.9,115.1,206.7,109.1,216,109.1z"/>
			<path id="XMLID_5576_" class="st11" d="M216,111.4C216,111.4,216,111.4,216,111.4l0-0.4c0,0,0,0,0,0c-8.3,0-15.4,5.5-17.8,13.1
				l0.4,0.1C200.8,116.8,207.8,111.4,216,111.4z"/>
			<path id="XMLID_5575_" class="st11" d="M200.4,124.8l0.4,0.1c2-6.5,8.1-11.2,15.2-11.2c0,0,0,0,0,0l0-0.4c0,0,0,0,0,0
				C208.6,113.3,202.4,118.1,200.4,124.8z"/>
			<path id="XMLID_5574_" class="st11" d="M216,116C216,116,216,116,216,116l0-0.4c0,0,0,0,0,0c-6.3,0-11.6,4.2-13.4,9.9l0.4,0.1
				C204.7,120,209.8,116,216,116z"/>
			<path id="XMLID_5573_" class="st11" d="M216,118.3C216,118.3,216,118.3,216,118.3l0-0.4c0,0,0,0,0,0c-5.2,0-9.7,3.5-11.2,8.2
				l0.4,0.1C206.6,121.6,210.9,118.3,216,118.3z"/>
			<path id="XMLID_5572_" class="st11" d="M216,120.6C216,120.6,216,120.6,216,120.6l0-0.4c0,0,0,0,0,0c-4.2,0-7.8,2.8-9,6.6
				l0.4,0.1C208.5,123.3,211.9,120.6,216,120.6z"/>
			<path id="XMLID_5571_" class="st11" d="M216,122.9C216,122.9,216,122.9,216,122.9l0-0.4c0,0,0,0,0,0c-3.2,0-5.8,2.1-6.7,5
				l0.4,0.1C210.4,124.9,212.9,122.9,216,122.9z"/>
			<path id="XMLID_5570_" class="st11" d="M211.4,128.2l0.4,0.1c0.6-1.8,2.2-3.1,4.2-3.1c0,0,0,0,0,0l0-0.4c0,0,0,0,0,0
				C213.8,124.8,212,126.2,211.4,128.2z"/>
		</g>
		<g id="XMLID_5528_" class="st12">
			<path id="XMLID_5568_" class="st4" d="M271.1,129.6c0,18.9-9.6,35.6-24.1,45.5l0.2,0.3c14.6-10,24.3-26.8,24.3-45.9
				c0-5.6-0.8-11-2.4-16.1l-0.4,0.1C270.2,118.7,271.1,124.1,271.1,129.6z"/>
			<path id="XMLID_5567_" class="st4" d="M269.2,129.6c0-5.4-0.8-10.5-2.3-15.4l-0.4,0.1c1.5,4.8,2.3,10,2.3,15.3
				c0,18.1-9.2,34.1-23.1,43.6l0.2,0.3C259.9,164,269.2,147.8,269.2,129.6z"/>
			<path id="XMLID_5566_" class="st4" d="M266.5,129.6c0,17.3-8.8,32.6-22.1,41.7l0.2,0.3c13.4-9.2,22.3-24.6,22.3-42.1
				c0-5.1-0.8-10.1-2.2-14.7l-0.4,0.1C265.7,119.6,266.5,124.5,266.5,129.6z"/>
			<path id="XMLID_5565_" class="st4" d="M264.2,129.6c0,16.5-8.4,31.1-21.1,39.8l0.2,0.3c12.8-8.8,21.3-23.5,21.3-40.2
				c0-4.9-0.7-9.6-2.1-14.1l-0.4,0.1C263.4,120.1,264.2,124.7,264.2,129.6z"/>
			<path id="XMLID_5564_" class="st4" d="M261.9,129.6c0,15.7-8,29.7-20.1,37.9l0.2,0.3c12.2-8.3,20.2-22.4,20.2-38.2
				c0-4.7-0.7-9.2-2-13.4l-0.4,0.1C261.2,120.5,261.9,125,261.9,129.6z"/>
			<path id="XMLID_5562_" class="st4" d="M259.6,129.6c0,14.9-7.6,28.2-19.1,36l0.2,0.3c11.6-7.9,19.2-21.3,19.2-36.3
				c0-4.4-0.7-8.7-1.9-12.7l-0.4,0.1C258.9,121,259.6,125.2,259.6,129.6z"/>
			<path id="XMLID_5561_" class="st4" d="M257.6,129.6c0-4.2-0.6-8.2-1.8-12.1l-0.4,0.1c1.1,3.8,1.8,7.8,1.8,12
				c0,14.2-7.2,26.7-18.1,34.1l0.2,0.3C250.4,156.5,257.6,143.9,257.6,129.6z"/>
			<path id="XMLID_5560_" class="st4" d="M254.9,129.6c0,13.4-6.8,25.2-17,32.2l0.2,0.3c10.4-7.1,17.2-19,17.2-32.5
				c0-4-0.6-7.8-1.7-11.4l-0.4,0.1C254.3,121.9,254.9,125.7,254.9,129.6z"/>
			<path id="XMLID_5559_" class="st4" d="M252.6,129.6c0,12.6-6.4,23.7-16,30.3l0.2,0.3c9.8-6.7,16.2-17.9,16.2-30.6
				c0-3.7-0.6-7.3-1.6-10.7l-0.4,0.1C252.1,122.3,252.6,125.9,252.6,129.6z"/>
			<path id="XMLID_5558_" class="st4" d="M250.3,129.6c0,11.8-6,22.2-15,28.4l0.2,0.3c9.2-6.3,15.2-16.8,15.2-28.7
				c0-3.5-0.5-6.9-1.5-10.1l-0.4,0.1C249.8,122.8,250.3,126.1,250.3,129.6z"/>
			<path id="XMLID_5557_" class="st4" d="M248,129.6c0,11-5.6,20.7-14,26.5l0.2,0.3c8.6-5.9,14.2-15.7,14.2-26.8
				c0-3.3-0.5-6.4-1.4-9.4l-0.4,0.1C247.5,123.3,248,126.4,248,129.6z"/>
			<path id="XMLID_5556_" class="st4" d="M246.1,129.6c0-3-0.5-6-1.3-8.7l-0.4,0.1c0.8,2.7,1.3,5.6,1.3,8.6c0,10.2-5.2,19.2-13,24.6
				l0.2,0.3C240.9,149.1,246.1,139.9,246.1,129.6z"/>
			<path id="XMLID_5555_" class="st4" d="M243.4,129.6c0,9.4-4.8,17.7-12,22.7l0.2,0.3c7.3-5,12.2-13.5,12.2-23
				c0-2.8-0.4-5.5-1.2-8.1l-0.4,0.1C243,124.2,243.4,126.8,243.4,129.6z"/>
			<path id="XMLID_5554_" class="st4" d="M241.1,129.6c0,8.6-4.4,16.2-11,20.8l0.2,0.3c6.7-4.6,11.2-12.3,11.2-21.1
				c0-2.6-0.4-5.1-1.1-7.4l-0.4,0.1C240.7,124.6,241.1,127.1,241.1,129.6z"/>
			<path id="XMLID_5553_" class="st4" d="M238.8,129.6c0,7.8-4,14.8-10,18.9l0.2,0.3c6.1-4.2,10.2-11.2,10.2-19.2
				c0-2.3-0.4-4.6-1-6.7l-0.4,0.1C238.4,125.1,238.8,127.3,238.8,129.6z"/>
			<path id="XMLID_5552_" class="st4" d="M236.5,129.6c0,7-3.6,13.3-9,17l0.2,0.3c5.5-3.8,9.2-10.1,9.2-17.3c0-2.1-0.3-4.1-0.9-6.1
				l-0.4,0.1C236.2,125.5,236.5,127.5,236.5,129.6z"/>
			<path id="XMLID_5551_" class="st4" d="M234.6,129.6c0-1.9-0.3-3.7-0.8-5.4l-0.4,0.1c0.5,1.7,0.8,3.4,0.8,5.3
				c0,6.3-3.2,11.8-8,15.1l0.2,0.3C231.3,141.6,234.6,136,234.6,129.6z"/>
			<path id="XMLID_5550_" class="st4" d="M231.9,129.6c0,5.5-2.8,10.3-7,13.2l0.2,0.3c4.3-2.9,7.1-7.9,7.1-13.5
				c0-1.6-0.2-3.2-0.7-4.7l-0.4,0.1C231.6,126.5,231.9,128,231.9,129.6z"/>
			<path id="XMLID_5549_" class="st4" d="M229.6,129.6c0,4.7-2.4,8.8-6,11.3l0.2,0.3c3.7-2.5,6.1-6.8,6.1-11.6
				c0-1.4-0.2-2.8-0.6-4.1l-0.4,0.1C229.4,126.9,229.6,128.2,229.6,129.6z"/>
			<path id="XMLID_5548_" class="st4" d="M227.3,129.6c0,3.9-2,7.3-4.9,9.3l0.2,0.3c3.1-2.1,5.1-5.7,5.1-9.7c0-1.2-0.2-2.3-0.5-3.4
				l-0.4,0.1C227.1,127.4,227.3,128.5,227.3,129.6z"/>
			<path id="XMLID_5547_" class="st4" d="M225,129.6c0,3.1-1.6,5.8-3.9,7.4l0.2,0.3c2.5-1.7,4.1-4.5,4.1-7.8c0-0.9-0.1-1.9-0.4-2.7
				l-0.4,0.1C224.8,127.8,225,128.7,225,129.6z"/>
			<path id="XMLID_5530_" class="st4" d="M223,129.6c0-0.7-0.1-1.4-0.3-2l-0.4,0.1c0.2,0.6,0.3,1.3,0.3,1.9c0,2.3-1.2,4.3-2.9,5.5
				l0.2,0.3C221.8,134.2,223,132,223,129.6z"/>
			<path id="XMLID_5529_" class="st4" d="M220.3,129.6c0,1.5-0.8,2.8-1.9,3.6l0.2,0.3c1.3-0.9,2.1-2.3,2.1-4c0-0.5-0.1-0.9-0.2-1.4
				l-0.4,0.1C220.3,128.7,220.3,129.2,220.3,129.6z"/>
		</g>
		<g id="XMLID_5503_">
			<path id="XMLID_5527_" class="st4" d="M268.7,113.6l0.4-0.1c-6.9-22.8-28-39.4-53-39.4l0,0.4C240.9,74.5,261.9,91,268.7,113.6z"
				/>
			<path id="XMLID_5526_" class="st4" d="M266.5,114.3l0.4-0.1c-6.6-21.8-26.9-37.7-50.8-37.8l0,0.4
				C239.8,76.8,259.9,92.7,266.5,114.3z"/>
			<path id="XMLID_5525_" class="st4" d="M264.3,115l0.4-0.1C258.4,94,239,78.8,216.1,78.7l0,0.4C238.8,79.1,258,94.3,264.3,115z"/>
			<path id="XMLID_5524_" class="st4" d="M262.1,115.6l0.4-0.1c-6-19.9-24.5-34.5-46.4-34.5l0,0.4
				C237.8,81.4,256.1,95.9,262.1,115.6z"/>
			<path id="XMLID_5523_" class="st4" d="M216.1,83.3l0,0.4c20.6,0.1,38.1,13.8,43.8,32.6l0.4-0.1C254.5,97.2,236.9,83.4,216.1,83.3
				z"/>
			<path id="XMLID_5522_" class="st4" d="M257.7,117l0.4-0.1c-5.5-18-22.2-31.2-42-31.2l0,0.4C235.7,86.1,252.3,99.1,257.7,117z"/>
			<path id="XMLID_5521_" class="st4" d="M255.5,117.6l0.4-0.1c-5.2-17.1-21-29.6-39.8-29.6l0,0.4
				C234.6,88.4,250.3,100.7,255.5,117.6z"/>
			<path id="XMLID_5520_" class="st4" d="M253.3,118.3l0.4-0.1c-4.9-16.1-19.9-27.9-37.6-28l0,0.4
				C233.6,90.7,248.4,102.3,253.3,118.3z"/>
			<path id="XMLID_5519_" class="st4" d="M251.1,119l0.4-0.1c-4.6-15.2-18.7-26.3-35.4-26.3l0,0.4C232.5,93,246.5,103.9,251.1,119z"
				/>
			<path id="XMLID_5518_" class="st4" d="M216,94.8l0,0.4c15.5,0,28.5,10.3,32.8,24.4l0.4-0.1C244.9,105.3,231.7,94.9,216,94.8z"/>
			<path id="XMLID_5517_" class="st4" d="M246.6,120.3l0.4-0.1c-4-13.3-16.4-23-31-23.1l0,0.4C230.5,97.6,242.7,107.2,246.6,120.3z"
				/>
			<path id="XMLID_5516_" class="st4" d="M244.4,121l0.4-0.1c-3.7-12.4-15.2-21.4-28.8-21.4l0,0.4C229.4,99.9,240.7,108.8,244.4,121
				z"/>
			<path id="XMLID_5515_" class="st4" d="M242.2,121.7l0.4-0.1c-3.5-11.4-14.1-19.7-26.6-19.8l0,0.4
				C228.4,102.2,238.8,110.4,242.2,121.7z"/>
			<path id="XMLID_5513_" class="st4" d="M240,122.3l0.4-0.1c-3.2-10.5-12.9-18.1-24.4-18.1l0,0.4C227.3,104.5,236.9,112,240,122.3z
				"/>
			<path id="XMLID_5512_" class="st4" d="M216,106.4l0,0.4c10.3,0,19,6.9,21.8,16.2l0.4-0.1C235.3,113.4,226.5,106.4,216,106.4z"/>
			<path id="XMLID_5511_" class="st4" d="M235.6,123.7l0.4-0.1c-2.6-8.6-10.6-14.8-20-14.9l0,0.4
				C225.2,109.1,233.1,115.2,235.6,123.7z"/>
			<path id="XMLID_5510_" class="st4" d="M233.4,124.3l0.4-0.1c-2.3-7.6-9.4-13.2-17.8-13.2l0,0.4
				C224.2,111.4,231.1,116.8,233.4,124.3z"/>
			<path id="XMLID_5509_" class="st4" d="M231.2,125l0.4-0.1c-2-6.7-8.2-11.6-15.6-11.6l0,0.4C223.2,113.7,229.2,118.5,231.2,125z"
				/>
			<path id="XMLID_5508_" class="st4" d="M229,125.7l0.4-0.1c-1.7-5.7-7.1-9.9-13.4-10l0,0.4C222.1,116,227.3,120.1,229,125.7z"/>
			<path id="XMLID_5507_" class="st4" d="M216,117.9l0,0.4c5.1,0,9.4,3.4,10.8,8l0.4-0.1C225.7,121.4,221.2,117.9,216,117.9z"/>
			<path id="XMLID_5506_" class="st4" d="M224.6,127l0.4-0.1c-1.2-3.9-4.7-6.7-9-6.7l0,0.4C220,120.6,223.5,123.3,224.6,127z"/>
			<path id="XMLID_5505_" class="st4" d="M222.3,127.7l0.4-0.1c-0.9-2.9-3.6-5-6.7-5l0,0.4C219,122.9,221.5,124.9,222.3,127.7z"/>
			<path id="XMLID_5504_" class="st4" d="M220.1,128.3l0.4-0.1c-0.6-2-2.4-3.4-4.5-3.4l0,0.4C217.9,125.2,219.6,126.5,220.1,128.3z"
				/>
		</g>
		<g id="XMLID_5462_" class="st13">
			<path id="XMLID_5502_" class="st4" d="M247,175.1c-8.8,6-19.5,9.6-31,9.6c-11.5,0-22.2-3.5-31-9.6l-0.2,0.3
				c8.9,6.1,19.6,9.6,31.2,9.6c11.6,0,22.3-3.6,31.2-9.7L247,175.1"/>
			<path id="XMLID_5501_" class="st4" d="M216,182.4c-11,0-21.2-3.4-29.7-9.2l-0.2,0.3c8.5,5.8,18.8,9.2,29.9,9.2
				c11.1,0,21.4-3.4,29.9-9.3l-0.2-0.3C237.2,179,227,182.4,216,182.4z"/>
			<path id="XMLID_5500_" class="st4" d="M216,180.1c-10.5,0-20.3-3.2-28.4-8.8l-0.2,0.3c8.2,5.6,18,8.8,28.6,8.8
				c10.6,0,20.5-3.3,28.6-8.9l-0.2-0.3C236.3,176.9,226.5,180.1,216,180.1z"/>
			<path id="XMLID_5499_" class="st4" d="M243.3,169.8l-0.2-0.3c-7.7,5.3-17.1,8.4-27.1,8.4c-10,0-19.4-3.1-27.1-8.4l-0.2,0.3
				c7.8,5.3,17.2,8.4,27.3,8.4C226.1,178.2,235.5,175.1,243.3,169.8z"/>
			<path id="XMLID_5498_" class="st4" d="M216,175.5c-9.6,0-18.4-2.9-25.8-8l-0.2,0.3c7.4,5.1,16.4,8,26,8c9.7,0,18.6-3,26.1-8
				l-0.2-0.3C234.4,172.6,225.5,175.5,216,175.5z"/>
			<path id="XMLID_5481_" class="st4" d="M216,173.2c-9.1,0-17.5-2.8-24.5-7.6l-0.2,0.3c7.1,4.8,15.6,7.6,24.7,7.6
				c9.2,0,17.7-2.8,24.8-7.6l-0.2-0.3C233.5,170.4,225,173.2,216,173.2z"/>
			<path id="XMLID_5480_" class="st4" d="M216,170.9c-8.6,0-16.6-2.6-23.2-7.2l-0.2,0.3c6.7,4.6,14.8,7.2,23.4,7.2
				c8.7,0,16.8-2.7,23.5-7.2l-0.2-0.3C232.6,168.2,224.6,170.9,216,170.9z"/>
			<path id="XMLID_5479_" class="st4" d="M216,168.6c-8.1,0-15.7-2.5-21.9-6.8l-0.2,0.3c6.3,4.3,13.9,6.8,22.1,6.8
				c8.2,0,15.8-2.5,22.2-6.8l-0.2-0.3C231.6,166.1,224.1,168.6,216,168.6z"/>
			<path id="XMLID_5478_" class="st4" d="M236.8,160.2l-0.2-0.3c-5.9,4-13,6.4-20.6,6.4c-7.6,0-14.7-2.4-20.6-6.4l-0.2,0.3
				c5.9,4.1,13.1,6.4,20.8,6.4C223.7,166.7,230.9,164.3,236.8,160.2z"/>
			<path id="XMLID_5477_" class="st4" d="M216,164c-7.2,0-13.8-2.2-19.3-6l-0.2,0.3c5.6,3.8,12.3,6,19.5,6c7.3,0,14-2.2,19.6-6
				l-0.2-0.3C229.8,161.8,223.1,164,216,164z"/>
			<path id="XMLID_5476_" class="st4" d="M216,161.7c-6.7,0-12.9-2.1-18-5.6l-0.2,0.3c5.2,3.6,11.5,5.6,18.2,5.6
				c6.8,0,13.1-2.1,18.3-5.6l-0.2-0.3C228.9,159.6,222.6,161.7,216,161.7z"/>
			<path id="XMLID_5475_" class="st4" d="M216,159.4c-6.2,0-12-1.9-16.7-5.2l-0.2,0.3c4.8,3.3,10.7,5.2,16.9,5.2
				c6.3,0,12.1-1.9,17-5.2l-0.2-0.3C227.9,157.4,222.2,159.4,216,159.4z"/>
			<path id="XMLID_5474_" class="st4" d="M216,157.1c-5.7,0-11-1.8-15.4-4.8l-0.2,0.3c4.5,3,9.9,4.8,15.7,4.8
				c5.8,0,11.2-1.8,15.7-4.8l-0.2-0.3C227,155.3,221.7,157.1,216,157.1z"/>
			<path id="XMLID_5473_" class="st4" d="M230.3,150.7l-0.2-0.3c-4,2.8-8.9,4.4-14.2,4.4c-5.2,0-10.1-1.6-14.1-4.4l-0.2,0.3
				c4.1,2.8,9,4.4,14.4,4.4C221.3,155.1,226.2,153.5,230.3,150.7z"/>
			<path id="XMLID_5472_" class="st4" d="M216,152.4c-4.8,0-9.2-1.5-12.8-4l-0.2,0.3c3.7,2.5,8.2,4,13.1,4c4.8,0,9.3-1.5,13.1-4
				l-0.2-0.3C225.1,151,220.7,152.4,216,152.4z"/>
			<path id="XMLID_5471_" class="st4" d="M216,150.1c-4.3,0-8.3-1.3-11.5-3.6l-0.2,0.3c3.4,2.3,7.4,3.6,11.8,3.6
				c4.4,0,8.4-1.3,11.8-3.6l-0.2-0.3C224.2,148.8,220.2,150.1,216,150.1z"/>
			<path id="XMLID_5470_" class="st4" d="M216,147.8c-3.8,0-7.3-1.2-10.2-3.2l-0.2,0.3c3,2,6.6,3.2,10.5,3.2c3.9,0,7.5-1.2,10.5-3.2
				l-0.2-0.3C223.3,146.7,219.8,147.8,216,147.8z"/>
			<path id="XMLID_5469_" class="st4" d="M216,145.5c-3.3,0-6.4-1-9-2.8l-0.2,0.3c2.6,1.8,5.8,2.8,9.2,2.8c3.4,0,6.6-1.1,9.2-2.8
				l-0.2-0.3C222.4,144.5,219.3,145.5,216,145.5z"/>
			<path id="XMLID_5468_" class="st4" d="M223.8,141.2l-0.2-0.3c-2.2,1.5-4.8,2.4-7.7,2.4c-2.8,0-5.5-0.9-7.7-2.4l-0.2,0.3
				c2.2,1.5,5,2.4,7.9,2.4C218.9,143.6,221.6,142.7,223.8,141.2z"/>
			<path id="XMLID_5467_" class="st4" d="M216,140.9c-2.4,0-4.5-0.7-6.4-2l-0.2,0.3c1.9,1.3,4.1,2,6.6,2c2.4,0,4.7-0.8,6.6-2
				l-0.2-0.3C220.5,140.2,218.3,140.9,216,140.9z"/>
			<path id="XMLID_5466_" class="st4" d="M216,138.6c-1.9,0-3.6-0.6-5.1-1.6l-0.2,0.3c1.5,1,3.3,1.6,5.3,1.6c2,0,3.8-0.6,5.3-1.6
				L221,137C219.6,138,217.8,138.6,216,138.6z"/>
			<path id="XMLID_5464_" class="st4" d="M216,136.3c-1.4,0-2.7-0.4-3.8-1.2l-0.2,0.3c1.1,0.8,2.5,1.2,4,1.2c1.5,0,2.9-0.5,4-1.2
				l-0.2-0.3C218.6,135.9,217.3,136.3,216,136.3z"/>
			<path id="XMLID_5463_" class="st4" d="M216,134c-0.9,0-1.8-0.3-2.5-0.8l-0.2,0.3c0.8,0.5,1.7,0.8,2.7,0.8c1,0,1.9-0.3,2.7-0.8
				l-0.2-0.3C217.7,133.7,216.9,134,216,134z"/>
		</g>
		<path id="XMLID_5461_" class="st14" d="M162.9,113.1c7-22.6,28.1-39.1,53-39.1"/>
		<path id="XMLID_5336_" class="st15" d="M184.9,175.6c-14.8-10-24.5-26.9-24.5-46c0-5.7,0.9-11.3,2.5-16.5"/>
		<path id="XMLID_5335_" class="st16" d="M247.2,175.5c-8.9,6.1-19.7,9.6-31.3,9.6c-11.5,0-22.2-3.5-31-9.5"/>
		<path id="XMLID_5334_" class="st17" d="M269,113.1c1.6,5.2,2.5,10.8,2.5,16.5c0,19.1-9.6,35.9-24.3,45.9"/>
		<path id="XMLID_5333_" class="st18" d="M216,74.1c24.9,0,46,16.4,53,39"/>
	</g>
	<circle id="XMLID_5331_" class="st4" cx="216.2" cy="185.1" r="1.3"/>
	<circle id="XMLID_5330_" class="st4" cx="267.3" cy="152.7" r="1.3"/>
	<circle id="XMLID_5329_" class="st4" cx="164.3" cy="152.6" r="1.3"/>
	<circle id="XMLID_5328_" class="st4" cx="266" cy="102.6" r="1.3"/>
	<circle id="XMLID_5327_" class="st4" cx="168.2" cy="99.4" r="1.3"/>
	<circle id="XMLID_5326_" class="st5" cx="216" cy="129.8" r="29.3"/>
	<g id="XMLID_5323_">
		<line id="XMLID_5325_" class="st19" x1="190.6" y1="223.8" x2="243.3" y2="223.8"/>
		<line id="XMLID_5324_" class="st20" x1="216" y1="223.8" x2="216" y2="185.1"/>
	</g>
	<g id="XMLID_5320_">
		<line id="XMLID_5322_" class="st19" x1="290.9" y1="192.2" x2="314.4" y2="145"/>
		<line id="XMLID_5321_" class="st20" x1="302" y1="170" x2="267.3" y2="152.7"/>
	</g>
	<g id="XMLID_5313_">
		<line id="XMLID_5316_" class="st19" x1="119" y1="148.8" x2="141.6" y2="193.5"/>
		<line id="XMLID_5314_" class="st20" x1="129.8" y1="170" x2="164.3" y2="152.6"/>
	</g>
	<g id="XMLID_5311_">
		<g id="XMLID_45_">
			<circle id="XMLID_47_" cx="216.2" cy="208.8" r="7"/>
		</g>
	</g>
	<g id="XMLID_5287_">
		<rect id="XMLID_4_" x="211.3" y="204.6" class="st7" width="9.7" height="15.3"/>
		<text id="XMLID_5288_" transform="matrix(1 0 0 1 213.3207 212.1689)" class="st5 st8 st9">3</text>
	</g>
	<g id="XMLID_5274_">
		<g id="XMLID_50_">
			<circle id="XMLID_54_" cx="281.2" cy="159.8" r="7"/>
		</g>
	</g>
	<g id="XMLID_5271_">
		<rect id="XMLID_3_" x="276.3" y="155.6" class="st7" width="9.7" height="15.3"/>
		<text id="XMLID_5272_" transform="matrix(1 0 0 1 278.321 163.1689)" class="st5 st8 st9">2</text>
	</g>
	<g id="XMLID_5265_">
		<g id="XMLID_55_">
			<circle id="XMLID_57_" cx="149.2" cy="161.8" r="7"/>
		</g>
	</g>
	<g id="XMLID_5247_">
		<rect id="XMLID_2_" x="144.3" y="157.6" class="st7" width="9.7" height="15.3"/>
		<text id="XMLID_5254_" transform="matrix(1 0 0 1 146.3207 165.1689)" class="st5 st8 st9">4</text>
	</g>
	<rect id="XMLID_1_" x="188.5" y="229.9" class="st7" width="55.3" height="11.5"/>
	<text id="XMLID_5104_" transform="matrix(1 0 0 1 191.7428 237.5033)" class="st21 st9">Private Token 3</text>
	
		<rect id="XMLID_58_" x="273.9" y="63.9" transform="matrix(0.7071 0.7071 -0.7071 0.7071 136.8796 -191.2128)" class="st7" width="50.7" height="11.5"/>
	<text id="XMLID_5101_" transform="matrix(0.7071 0.7071 -0.7071 0.7071 280.6836 53.6376)" class="st21 st9">Private Token 1</text>
	<polygon id="XMLID_56_" class="st7" points="327.3,152.7 304.3,200 294,194.9 317,147.7 	"/>
	<text id="XMLID_5098_" transform="matrix(0.4383 -0.8995 0.899 0.4379 301.654 196.5766)" class="st21 st22">Private Token 2</text>
	
		<rect id="XMLID_53_" x="95" y="170.2" transform="matrix(0.4594 0.8882 -0.8882 0.4594 221.7155 -12.4459)" class="st7" width="52.2" height="11.5"/>
	<text id="XMLID_5095_" transform="matrix(0.4594 0.8882 -0.8882 0.4595 108.2433 155.1156)" class="st21 st9">Private Token 2</text>
	
		<rect id="XMLID_49_" x="101.7" y="68.3" transform="matrix(0.5329 -0.8462 0.8462 0.5329 -2.9894 142.7518)" class="st7" width="52.1" height="11.5"/>
	<text id="XMLID_5092_" transform="matrix(0.5328 -0.8462 0.8463 0.5328 116.3463 95.792)" class="st21 st9">Private Token 5</text>
	<g id="XMLID_4558_">
		<line id="XMLID_5090_" class="st19" x1="149.2" y1="56.9" x2="121.6" y2="100.7"/>
		<line id="XMLID_5088_" class="st20" x1="135.4" y1="78.7" x2="168.2" y2="99.4"/>
	</g>
	<g id="XMLID_4026_">
		<line id="XMLID_4227_" class="st19" x1="310.4" y1="92.8" x2="275.8" y2="57.1"/>
		<line id="XMLID_4163_" class="st20" x1="293.7" y1="75.6" x2="266" y2="102.6"/>
	</g>
	<g id="XMLID_3726_">
		<g id="XMLID_3732_">
			<g id="XMLID_75_">
				<circle id="XMLID_76_" cx="156.2" cy="91.8" r="7"/>
			</g>
		</g>
		<g id="XMLID_3727_">
			<rect id="XMLID_33_" x="151.3" y="87.6" class="st7" width="9.7" height="15.3"/>
			<text id="XMLID_3729_" transform="matrix(1 0 0 1 153.3207 95.1689)" class="st5 st8 st9">5</text>
		</g>
	</g>
	<g id="XMLID_2337_">
		<g id="XMLID_3720_">
			<g id="XMLID_89_">
				<circle id="XMLID_91_" cx="278.2" cy="90.8" r="7"/>
			</g>
		</g>
		<g id="XMLID_3717_">
			<rect id="XMLID_22_" x="273.3" y="86.6" class="st7" width="9.7" height="15.3"/>
			<text id="XMLID_3718_" transform="matrix(1 0 0 1 275.321 94.1689)" class="st5 st8 st9">1</text>
		</g>
	</g>
	<rect id="XMLID_16_" x="187.5" y="127.6" class="st7" width="59.2" height="10.7"/>
	<text id="XMLID_2334_" transform="matrix(1 0 0 1 194.7916 134.4148)" class="st4 st23 st24">Public Token</text>
</g>
</svg>
