<?xml version="1.0" encoding="utf-8"?>
<!-- Generator: Adobe Illustrator 19.0.0, SVG Export Plug-In . SVG Version: 6.00 Build 0)  -->
<svg version="1.1" id="Layer_1" xmlns="http://www.w3.org/2000/svg" xmlns:xlink="http://www.w3.org/1999/xlink" x="0px" y="0px"
	 viewBox="0 0 398 287.9" style="enable-background:new 0 0 398 287.9;" xml:space="preserve">
<style type="text/css">
	.st0{opacity:0.2;}
	.st1{fill:none;stroke:#00A6FF;stroke-width:0.273;stroke-miterlimit:10;}
	.st2{opacity:0.5;}
	.st3{opacity:0.2;fill:none;stroke:#00A6FF;stroke-width:0.273;stroke-miterlimit:10;}
	.st4{opacity:0.1;}
	.st5{fill:#00A6FF;}
	.st6{fill:#FFFFFF;}
	.st7{fill:none;stroke:#00A6FF;stroke-width:2.184;stroke-miterlimit:10;stroke-dasharray:0.2187,1.0936;}
	.st8{opacity:0.3;}
	.st9{fill:none;stroke:#00A6FF;stroke-width:2.184;stroke-miterlimit:10;}
	.st10{fill:none;stroke:#00A6FF;stroke-width:2.184;stroke-miterlimit:10;stroke-dasharray:0.2178,1.0891;}
	.st11{fill:none;stroke:#00A6FF;stroke-width:2.184;stroke-miterlimit:10;stroke-dasharray:0.4409,0.8818;}
	.st12{fill:none;}
	.st13{fill:#333333;}
	.st14{font-family:'OpenSansCondensed-Light';}
	.st15{font-size:8.7361px;}
	.st16{fill:none;stroke:#00A6FF;stroke-width:2.184;stroke-miterlimit:10;stroke-dasharray:0.2175,1.0873;}
	.st17{fill:none;stroke:#00A6FF;stroke-width:2.184;stroke-miterlimit:10;stroke-dasharray:0.4333,0.8665;}
	.st18{fill:none;stroke:#00A6FF;stroke-width:2.184;stroke-miterlimit:10;stroke-dasharray:0.4362,0.8725;}
	.st19{fill:none;stroke:#00A6FF;stroke-width:2.184;stroke-miterlimit:10;stroke-dasharray:0.2199,1.0996;}
	.st20{fill:none;stroke:#00A6FF;stroke-width:2.184;stroke-miterlimit:10;stroke-dasharray:0.4368,0.8736;}
	.st21{font-family:'OpenSansCondensed-Bold';}
	.st22{font-size:10px;}
	.st23{fill:none;stroke:#00A6FF;stroke-width:0.3504;stroke-miterlimit:10;}
	.st24{opacity:0.4;}
	.st25{opacity:0.2;fill:none;stroke:#00A6FF;stroke-width:0.3504;stroke-miterlimit:10;}
	.st26{font-size:12px;}
	.st27{font-size:11px;}
	.st28{font-size:9px;}
	.st29{font-size:8px;}
	.st30{fill:none;stroke:#00A6FF;stroke-width:0.6663;stroke-miterlimit:10;}
	.st31{fill:none;stroke:#00A6FF;stroke-width:0.6663;stroke-miterlimit:10;stroke-dasharray:0.2658,1.3291;}
	.st32{fill:none;stroke:#00A6FF;stroke-width:0.6663;stroke-miterlimit:10;stroke-dasharray:0.2641,1.3206;}
	.st33{fill:none;stroke:#00A6FF;stroke-width:2.6653;stroke-miterlimit:10;stroke-dasharray:0.2675,1.3376;}
	.st34{font-size:14.6592px;}
</style>
<g id="XMLID_327_">
	<g id="XMLID_192_">
		<g id="XMLID_675_" class="st0">
			<g id="XMLID_301_">
				<line id="XMLID_305_" class="st1" x1="172.8" y1="182" x2="245.8" y2="55.6"/>
			</g>
			<g id="XMLID_296_">
				<line id="XMLID_297_" class="st1" x1="146.1" y1="155.3" x2="272.5" y2="82.3"/>
			</g>
			<g id="XMLID_288_">
				<line id="XMLID_289_" class="st1" x1="136.3" y1="118.8" x2="282.3" y2="118.8"/>
			</g>
			<g id="XMLID_285_">
				<line id="XMLID_286_" class="st1" x1="146.1" y1="82.3" x2="272.5" y2="155.3"/>
			</g>
			<g id="XMLID_276_">
				<line id="XMLID_282_" class="st1" x1="172.8" y1="55.6" x2="245.8" y2="182"/>
			</g>
			<g id="XMLID_267_">
				<line id="XMLID_268_" class="st1" x1="209.3" y1="45.8" x2="209.3" y2="191.8"/>
			</g>
		</g>
		<g id="XMLID_78_" class="st2">
			<circle id="XMLID_82_" class="st3" cx="209.3" cy="118.8" r="71.1"/>
			<circle id="XMLID_113_" class="st3" cx="209.3" cy="118.8" r="67.4"/>
			<circle id="XMLID_111_" class="st3" cx="209.3" cy="118.8" r="63.6"/>
			<circle id="XMLID_109_" class="st3" cx="209.3" cy="118.8" r="59.9"/>
			<circle id="XMLID_107_" class="st3" cx="209.3" cy="118.8" r="56.1"/>
			<circle id="XMLID_106_" class="st3" cx="209.3" cy="118.8" r="52.3"/>
			<circle id="XMLID_104_" class="st3" cx="209.3" cy="118.8" r="48.6"/>
			<circle id="XMLID_103_" class="st3" cx="209.3" cy="118.8" r="44.8"/>
			<circle id="XMLID_102_" class="st3" cx="209.3" cy="118.8" r="41"/>
			<circle id="XMLID_101_" class="st3" cx="209.3" cy="118.8" r="37.3"/>
			<circle id="XMLID_95_" class="st3" cx="209.3" cy="118.8" r="33.5"/>
			<circle id="XMLID_85_" class="st3" cx="209.3" cy="118.8" r="29.7"/>
			<circle id="XMLID_84_" class="st3" cx="209.3" cy="118.8" r="26"/>
			<circle id="XMLID_19_" class="st3" cx="209.3" cy="118.8" r="22.2"/>
		</g>
		<g id="XMLID_568_" class="st4">
			<path id="XMLID_180_" class="st5" d="M260.9,146.6c-1.7,7-8.5,15.2-15,18.2l-17.3,8c-6.5,3-17.3,3.2-24,0.5l-45.9-19
				c-6.7-2.8-10.7-10.7-9.1-17.7l11.2-46.9c1.7-7,8.8-14,15.9-15.5l53.1-11.3c7-1.5,16.2,2.1,20.2,8.1l14.2,20.7
				c4.1,5.9,6,16.5,4.3,23.5L260.9,146.6z"/>
		</g>
		<g id="XMLID_560_" class="st4">
			<path id="XMLID_182_" class="st5" d="M148.8,91.7c0.7-7.2,6.8-15,13.6-17.5l61.7-22.2c6.8-2.4,15.6,0.5,19.5,6.5l25.9,39.4
				c4,6,5.1,16.5,2.5,23.2l-3.8,9.8c-2.6,6.7-9.1,16.1-14.6,20.8l-35.8,31.2c-5.4,4.7-14.4,4.8-19.8,0.1L154.5,146
				c-5.5-4.7-9.4-14.4-8.7-21.6L148.8,91.7z"/>
		</g>
		<g id="XMLID_553_" class="st4">
			<path id="XMLID_198_" class="st5" d="M266.4,154.5c-2,6.9-9.4,13.5-16.5,14.5l-42.5,6.1c-7.1,1-17.3-2.1-22.7-7l-36.1-32.8
				c-5.3-4.9-6.5-13.8-2.7-19.9L166.3,83c3.8-6.1,12.8-12.1,19.9-13.4l39.5-7.1c7.1-1.3,16.3,2.5,20.4,8.4l23.7,33.9
				c4.1,5.9,5.9,16.4,4,23.3L266.4,154.5z"/>
		</g>
		<g id="XMLID_557_" class="st4">
			<path id="XMLID_215_" class="st5" d="M271,113.6c2.9,6.6,1.3,16.4-3.6,21.7L238,167.6c-4.9,5.3-14.7,9.4-21.9,9l-49.6-2.5
				c-7.2-0.4-13.8-6.5-14.7-13.7l-4.9-38.7c-0.9-7.1,2.2-17.5,6.8-23l26.5-31.2c4.7-5.5,14.2-8.4,21.1-6.5l40.7,11.3
				c6.9,1.9,15,8.9,17.9,15.5L271,113.6z"/>
		</g>
		<circle id="XMLID_676_" class="st6" cx="209.3" cy="118.8" r="49.9"/>
		<g id="XMLID_69_">
			<circle id="XMLID_135_" class="st7" cx="209.3" cy="118.8" r="46.8"/>
		</g>
		<circle id="XMLID_372_" class="st1" cx="209.3" cy="118.8" r="41.4"/>
		<circle id="XMLID_375_" class="st1" cx="209.3" cy="118.8" r="41.4"/>
		<circle id="XMLID_383_" class="st1" cx="209.3" cy="118.8" r="40.4"/>
	</g>
	<g id="XMLID_3595_" class="st4">
		<path id="XMLID_3596_" class="st5" d="M353.5,69.2c-2.1,8.4-9.8,18-17.1,21.4s-19.9,3.5-27.9,0.2L292,84
			c-8-3.3-12.9-12.9-10.9-21.3l3.9-16.5c2-8.4,10.6-16.8,19-18.6l20.4-4.3c8.5-1.8,19.4,2.6,24.3,9.7l1.1,1.6
			c4.9,7.1,7.2,19.8,5.1,28.2L353.5,69.2z"/>
	</g>
	<g id="XMLID_3424_">
		<g id="XMLID_3563_" class="st0">
			<g id="XMLID_3592_">
				<line id="XMLID_3594_" class="st1" x1="293.9" y1="31.3" x2="342.7" y2="85.6"/>
			</g>
			<g id="XMLID_3590_">
				<line id="XMLID_3591_" class="st1" x1="333.7" y1="25.4" x2="302.9" y2="91.5"/>
			</g>
			<g id="XMLID_3588_">
				<line id="XMLID_3589_" class="st1" x1="354.8" y1="59.7" x2="281.8" y2="57.2"/>
			</g>
			<g id="XMLID_3582_">
				<line id="XMLID_3585_" class="st1" x1="331.4" y1="92.5" x2="305.2" y2="24.4"/>
			</g>
			<g id="XMLID_3576_">
				<line id="XMLID_3579_" class="st1" x1="292.1" y1="83.8" x2="344.6" y2="33.1"/>
			</g>
			<g id="XMLID_3570_">
				<line id="XMLID_3573_" class="st1" x1="284.7" y1="44.2" x2="351.9" y2="72.7"/>
			</g>
			<g id="XMLID_3564_">
				<line id="XMLID_3565_" class="st1" x1="318.3" y1="21.9" x2="318.3" y2="94.9"/>
			</g>
		</g>
		<g id="XMLID_3425_">
			<circle id="XMLID_3442_" class="st3" cx="318.3" cy="58.4" r="35.6"/>
			<circle id="XMLID_3441_" class="st3" cx="318.3" cy="58.4" r="33.7"/>
			<circle id="XMLID_3440_" class="st3" cx="318.3" cy="58.4" r="31.8"/>
			<circle id="XMLID_3439_" class="st3" cx="318.3" cy="58.4" r="29.9"/>
			<circle id="XMLID_3438_" class="st3" cx="318.3" cy="58.4" r="28"/>
			<circle id="XMLID_3437_" class="st3" cx="318.3" cy="58.4" r="26.2"/>
			<circle id="XMLID_3436_" class="st3" cx="318.3" cy="58.4" r="24.3"/>
			<circle id="XMLID_3435_" class="st3" cx="318.3" cy="58.4" r="22.4"/>
			<circle id="XMLID_3434_" class="st3" cx="318.3" cy="58.4" r="20.5"/>
			<circle id="XMLID_3430_" class="st3" cx="318.3" cy="58.4" r="18.6"/>
			<circle id="XMLID_3429_" class="st3" cx="318.3" cy="58.4" r="16.7"/>
			<circle id="XMLID_3428_" class="st3" cx="318.3" cy="58.4" r="14.9"/>
			<circle id="XMLID_3427_" class="st3" cx="318.3" cy="58.4" r="13"/>
			<circle id="XMLID_3426_" class="st3" cx="318.3" cy="58.4" r="11.1"/>
		</g>
	</g>
	<circle id="XMLID_3422_" class="st6" cx="318.3" cy="58.4" r="30.9"/>
	<g id="XMLID_395_" class="st8">
		<path id="XMLID_3421_" class="st9" d="M346.6,58.4c0,0,0,0.1,0,0.1"/>
		<path id="XMLID_3420_" class="st10" d="M346.6,59.9c-0.7,15-13.1,26.9-28.3,26.9c-15.6,0-28.3-12.7-28.3-28.3
			c0-15.4,12.2-27.9,27.5-28.3"/>
		<path id="XMLID_3419_" class="st9" d="M318.2,30.1c0,0,0.1,0,0.1,0"/>
	</g>
	<g id="XMLID_317_">
		<path id="XMLID_394_" class="st9" d="M318.3,30.1c0.1,0,0.2,0,0.3,0"/>
		<path id="XMLID_393_" class="st11" d="M319.6,30.2c14.8,0.7,26.6,12.7,27,27.5"/>
		<path id="XMLID_377_" class="st9" d="M346.6,58.2c0,0.1,0,0.2,0,0.3"/>
	</g>
	<g id="XMLID_704_">
		<rect id="XMLID_271_" x="218.4" y="193.1" class="st12" width="33.3" height="10.7"/>
		<text id="XMLID_269_" transform="matrix(1 0 0 1 218.3662 199.7601)" class="st13 st14 st15">3 неделя</text>
	</g>
	<g id="XMLID_621_">
		<rect id="XMLID_272_" x="142.3" y="179.5" class="st12" width="26.5" height="10.7"/>
		<text id="XMLID_270_" transform="matrix(1 0 0 1 142.5816 186.1873)" class="st13 st14 st15">4 неделя</text>
	</g>
	<g id="XMLID_388_">
		<rect id="XMLID_266_" x="276.6" y="146.7" class="st12" width="26.3" height="7.9"/>
		<text id="XMLID_265_" transform="matrix(1 0 0 1 276.5732 153.3331)" class="st13 st14 st15">2 неделя</text>
	</g>
	<g id="XMLID_396_">
		<rect id="XMLID_264_" x="273.7" y="89.9" class="st12" width="27.9" height="7.9"/>
		<text id="XMLID_263_" transform="matrix(1 0 0 1 273.6504 96.5413)" class="st13 st14 st15">1 неделя</text>
	</g>
	<g id="XMLID_3731_">
		<g id="XMLID_3764_" class="st0">
			<g id="XMLID_3777_">
				<line id="XMLID_3778_" class="st1" x1="319" y1="130.3" x2="367.8" y2="184.5"/>
			</g>
			<g id="XMLID_3775_">
				<line id="XMLID_3776_" class="st1" x1="358.8" y1="124.3" x2="328" y2="190.5"/>
			</g>
			<g id="XMLID_3773_">
				<line id="XMLID_3774_" class="st1" x1="379.9" y1="158.7" x2="307" y2="156.1"/>
			</g>
			<g id="XMLID_3771_">
				<line id="XMLID_3772_" class="st1" x1="356.5" y1="191.5" x2="330.3" y2="123.3"/>
			</g>
			<g id="XMLID_3769_">
				<line id="XMLID_3770_" class="st1" x1="317.2" y1="182.7" x2="369.7" y2="132"/>
			</g>
			<g id="XMLID_3767_">
				<line id="XMLID_3768_" class="st1" x1="309.8" y1="143.1" x2="377" y2="171.6"/>
			</g>
			<g id="XMLID_3765_">
				<line id="XMLID_3766_" class="st1" x1="343.4" y1="120.9" x2="343.4" y2="193.9"/>
			</g>
		</g>
		<g id="XMLID_3734_">
			<circle id="XMLID_3763_" class="st3" cx="343.4" cy="157.4" r="35.6"/>
			<circle id="XMLID_3762_" class="st3" cx="343.4" cy="157.4" r="33.7"/>
			<circle id="XMLID_3759_" class="st3" cx="343.4" cy="157.4" r="31.8"/>
			<circle id="XMLID_3756_" class="st3" cx="343.4" cy="157.4" r="29.9"/>
			<circle id="XMLID_3753_" class="st3" cx="343.4" cy="157.4" r="28"/>
			<circle id="XMLID_3750_" class="st3" cx="343.4" cy="157.4" r="26.2"/>
			<circle id="XMLID_3747_" class="st3" cx="343.4" cy="157.4" r="24.3"/>
			<circle id="XMLID_3744_" class="st3" cx="343.4" cy="157.4" r="22.4"/>
			<circle id="XMLID_3741_" class="st3" cx="343.4" cy="157.4" r="20.5"/>
			<circle id="XMLID_3740_" class="st3" cx="343.4" cy="157.4" r="18.6"/>
			<circle id="XMLID_3739_" class="st3" cx="343.4" cy="157.4" r="16.7"/>
			<circle id="XMLID_3738_" class="st3" cx="343.4" cy="157.4" r="14.9"/>
			<circle id="XMLID_3737_" class="st3" cx="343.4" cy="157.4" r="13"/>
			<circle id="XMLID_3735_" class="st3" cx="343.4" cy="157.4" r="11.1"/>
		</g>
	</g>
	<g id="XMLID_3716_" class="st4">
		<path id="XMLID_3728_" class="st5" d="M363.9,189.6c-6.9,5.3-18.7,6.2-26.3,2l-9.5-5.2c-7.6-4.1-15.1-14.5-16.8-23l-2.7-14.1
			c-1.6-8.5,3.6-18,11.7-21.1l7.4-2.8c8.1-3.1,21-2.5,28.7,1.4l8.1,4.1c7.7,3.9,13.8,14.1,13.6,22.8l-0.3,9.8
			c-0.3,8.6-6.1,20-13,25.3L363.9,189.6z"/>
	</g>
	<circle id="XMLID_3715_" class="st6" cx="343.4" cy="157.4" r="30.9"/>
	<g id="XMLID_3674_">
		<g id="XMLID_3680_" class="st8">
			<path id="XMLID_3701_" class="st9" d="M366.3,174.5c0,0-0.1,0.1-0.1,0.1"/>
			<path id="XMLID_3700_" class="st16" d="M365.4,175.7c-5.2,6.5-13.1,10.7-22,10.7c-15.6,0-28.2-12.8-28.2-28.6
				c0-15.5,12.2-28.1,27.4-28.6"/>
			<path id="XMLID_3696_" class="st9" d="M343.3,129.2c0,0,0.1,0,0.1,0"/>
		</g>
		<g id="XMLID_3675_">
			<path id="XMLID_3679_" class="st9" d="M343.4,129.2c0.1,0,0.2,0,0.3,0"/>
			<path id="XMLID_3678_" class="st17" d="M344.7,129.2c15,0.7,26.9,13.2,26.9,28.6c0,6-1.8,11.5-4.9,16.1"/>
			<path id="XMLID_3677_" class="st9" d="M366.4,174.3c0,0.1-0.1,0.1-0.2,0.2"/>
		</g>
	</g>
	<g id="XMLID_194_" class="st4">
		<path id="XMLID_241_" class="st5" d="M274.8,196.6c8.6-0.4,19.8,5.1,24.8,12.2l7.8,11c5,7.1,6.3,19.3,2.8,27.3l-3.6,8.3
			c-3.4,7.9-13.3,13.5-21.9,12.5l-15.7-2c-8.6-1.1-19-8.2-23.1-15.8l-3.7-6.9c-4.1-7.6-3.2-19.5,2-26.4l5.1-6.8
			c5.2-6.9,16.5-12.9,25.1-13.2L274.8,196.6z"/>
	</g>
	<g id="XMLID_650_">
		<g id="XMLID_623_">
			<g id="XMLID_640_" class="st0">
				<g id="XMLID_658_">
					<line id="XMLID_661_" class="st1" x1="251.6" y1="206.7" x2="300.4" y2="260.9"/>
				</g>
				<g id="XMLID_655_">
					<line id="XMLID_657_" class="st1" x1="291.4" y1="200.8" x2="260.6" y2="266.9"/>
				</g>
				<g id="XMLID_652_">
					<line id="XMLID_654_" class="st1" x1="312.5" y1="235.1" x2="239.5" y2="232.5"/>
				</g>
				<g id="XMLID_647_">
					<line id="XMLID_648_" class="st1" x1="289.1" y1="267.9" x2="262.9" y2="199.8"/>
				</g>
				<g id="XMLID_645_">
					<line id="XMLID_646_" class="st1" x1="249.8" y1="259.2" x2="302.3" y2="208.5"/>
				</g>
				<g id="XMLID_643_">
					<line id="XMLID_644_" class="st1" x1="242.4" y1="219.6" x2="309.6" y2="248.1"/>
				</g>
				<g id="XMLID_641_">
					<line id="XMLID_642_" class="st1" x1="276" y1="197.3" x2="276" y2="270.3"/>
				</g>
			</g>
			<g id="XMLID_624_">
				<circle id="XMLID_639_" class="st3" cx="276" cy="233.8" r="35.6"/>
				<circle id="XMLID_638_" class="st3" cx="276" cy="233.8" r="33.7"/>
				<circle id="XMLID_637_" class="st3" cx="276" cy="233.8" r="31.8"/>
				<circle id="XMLID_636_" class="st3" cx="276" cy="233.8" r="29.9"/>
				<circle id="XMLID_635_" class="st3" cx="276" cy="233.8" r="28"/>
				<circle id="XMLID_634_" class="st3" cx="276" cy="233.8" r="26.2"/>
				<circle id="XMLID_633_" class="st3" cx="276" cy="233.8" r="24.3"/>
				<circle id="XMLID_632_" class="st3" cx="276" cy="233.8" r="22.4"/>
				<circle id="XMLID_631_" class="st3" cx="276" cy="233.8" r="20.5"/>
				<circle id="XMLID_630_" class="st3" cx="276" cy="233.8" r="18.6"/>
				<circle id="XMLID_629_" class="st3" cx="276" cy="233.8" r="16.7"/>
				<circle id="XMLID_628_" class="st3" cx="276" cy="233.8" r="14.9"/>
				<circle id="XMLID_627_" class="st3" cx="276" cy="233.8" r="13"/>
				<circle id="XMLID_626_" class="st3" cx="276" cy="233.8" r="11.1"/>
			</g>
		</g>
	</g>
	<g id="XMLID_619_">
		<circle id="XMLID_235_" class="st6" cx="276" cy="233.8" r="30.9"/>
	</g>
	<g id="XMLID_91_">
		<g id="XMLID_204_">
			<g id="XMLID_249_">
				<path id="XMLID_255_" class="st9" d="M276,206.3c0.1,0,0.1,0,0.2,0"/>
				<path id="XMLID_253_" class="st18" d="M277.1,206.3c15.1,0.6,27.1,12.8,27.1,27.9c0,15.4-12.6,27.9-28.2,27.9
					c-1,0-2-0.1-2.9-0.1"/>
				<path id="XMLID_252_" class="st9" d="M272.6,261.9c-0.1,0-0.1,0-0.2,0"/>
			</g>
		</g>
		<g id="XMLID_202_" class="st8">
			<g id="XMLID_250_">
				<path id="XMLID_256_" class="st9" d="M272.4,261.8c0,0-0.1,0-0.1,0"/>
				<path id="XMLID_254_" class="st19" d="M271.2,261.7c-13.3-2.2-23.4-13.7-23.4-27.5c0-15.2,12.3-27.5,27.5-27.9"/>
				<path id="XMLID_251_" class="st9" d="M275.9,206.3c0,0,0.1,0,0.1,0"/>
			</g>
		</g>
	</g>
	<g id="XMLID_295_">
		<circle id="XMLID_200_" class="st5" cx="300.9" cy="141.9" r="1.1"/>
		<g id="XMLID_517_">
			<circle id="XMLID_472_" class="st5" cx="308.6" cy="144.1" r="1.8"/>
			<circle id="XMLID_651_" class="st5" cx="291.2" cy="139.3" r="1.1"/>
			<circle id="XMLID_588_" class="st5" cx="274.9" cy="134.8" r="1.1"/>
			<line id="XMLID_625_" class="st1" x1="274.9" y1="134.8" x2="307.6" y2="143.8"/>
		</g>
	</g>
	<g id="XMLID_382_">
		<circle id="XMLID_1361_" class="st5" cx="284.3" cy="74.8" r="1.8"/>
		<circle id="XMLID_1357_" class="st5" cx="275.3" cy="80.3" r="1.1"/>
		<circle id="XMLID_663_" class="st5" cx="267" cy="85.3" r="1.1"/>
		<line id="XMLID_660_" class="st1" x1="266.1" y1="85.8" x2="283.4" y2="75.4"/>
	</g>
	<g id="XMLID_17_" class="st4">
		<path id="XMLID_245_" class="st5" d="M112.3,218.9c0.8-8.6,8.1-18,16.3-21l22.2-8c8.1-2.9,18.7,0.6,23.4,7.8l6.9,10.5
			c4.7,7.2,6.9,17.8,4.7,23.4c-2.2,5.7-9.3,14.9-15.8,20.6l-9.6,8.3c-6.5,5.7-17.2,5.7-23.8,0.1l-14.1-12.1
			c-6.6-5.6-11.3-17.3-10.5-25.9L112.3,218.9z"/>
	</g>
	<g id="XMLID_700_">
		<g id="XMLID_664_">
			<g id="XMLID_683_" class="st0">
				<g id="XMLID_698_">
					<line id="XMLID_699_" class="st1" x1="124.1" y1="199.8" x2="172.9" y2="254"/>
				</g>
				<g id="XMLID_696_">
					<line id="XMLID_697_" class="st1" x1="163.9" y1="193.8" x2="133" y2="259.9"/>
				</g>
				<g id="XMLID_694_">
					<line id="XMLID_695_" class="st1" x1="184.9" y1="228.1" x2="112" y2="225.6"/>
				</g>
				<g id="XMLID_691_">
					<line id="XMLID_692_" class="st1" x1="161.5" y1="260.9" x2="135.4" y2="192.8"/>
				</g>
				<g id="XMLID_689_">
					<line id="XMLID_690_" class="st1" x1="122.2" y1="252.2" x2="174.7" y2="201.5"/>
				</g>
				<g id="XMLID_687_">
					<line id="XMLID_688_" class="st1" x1="114.9" y1="212.6" x2="182.1" y2="241.1"/>
				</g>
				<g id="XMLID_684_">
					<line id="XMLID_685_" class="st1" x1="148.5" y1="190.4" x2="148.5" y2="263.4"/>
				</g>
			</g>
			<g id="XMLID_666_">
				<circle id="XMLID_682_" class="st3" cx="148.5" cy="226.9" r="35.6"/>
				<circle id="XMLID_681_" class="st3" cx="148.5" cy="226.9" r="33.7"/>
				<circle id="XMLID_680_" class="st3" cx="148.5" cy="226.9" r="31.8"/>
				<circle id="XMLID_679_" class="st3" cx="148.5" cy="226.9" r="29.9"/>
				<circle id="XMLID_678_" class="st3" cx="148.5" cy="226.9" r="28"/>
				<circle id="XMLID_677_" class="st3" cx="148.5" cy="226.9" r="26.2"/>
				<circle id="XMLID_674_" class="st3" cx="148.5" cy="226.9" r="24.3"/>
				<circle id="XMLID_673_" class="st3" cx="148.5" cy="226.9" r="22.4"/>
				<circle id="XMLID_672_" class="st3" cx="148.5" cy="226.9" r="20.5"/>
				<circle id="XMLID_671_" class="st3" cx="148.5" cy="226.9" r="18.6"/>
				<circle id="XMLID_670_" class="st3" cx="148.5" cy="226.9" r="16.7"/>
				<circle id="XMLID_669_" class="st3" cx="148.5" cy="226.9" r="14.9"/>
				<circle id="XMLID_668_" class="st3" cx="148.5" cy="226.9" r="13"/>
				<circle id="XMLID_667_" class="st3" cx="148.5" cy="226.9" r="11.1"/>
			</g>
		</g>
	</g>
	<g id="XMLID_693_">
		<circle id="XMLID_236_" class="st6" cx="148.5" cy="226.9" r="30.9"/>
	</g>
	<g id="XMLID_608_">
		<ellipse id="XMLID_227_" class="st20" cx="148.4" cy="226.9" rx="28.2" ry="28.2"/>
	</g>
	<rect id="XMLID_166_" x="168.9" y="21" class="st12" width="80.6" height="21.4"/>
	<text id="XMLID_1632_" transform="matrix(1 0 0 1 168.8855 28.6075)" class="st5 st21 st22">Открытый пресейл</text>
	<rect id="XMLID_164_" x="23.9" y="21" class="st12" width="79" height="14.3"/>
	<text id="XMLID_1615_" transform="matrix(1 0 0 1 23.8911 28.6076)" class="st5 st21 st22">Закрытый пресейл</text>
	<g id="XMLID_1655_" class="st0">
		<path id="XMLID_199_" class="st5" d="M25.5,132.8c-6.4-6.7-8.8-19.1-5.3-27.7L27,88.6C30.5,80,40.5,70.8,49.4,68l21.2-6.6
			c8.8-2.7,19.5,1.7,23.8,9.9l6.6,12.8c4.3,8.2,5.1,22,1.9,30.7l-5.5,14.8c-3.2,8.7-13.4,16.4-22.6,17.1l-16.7,1.3
			c-9.2,0.7-22-4.1-28.4-10.8L25.5,132.8z"/>
	</g>
	<g id="XMLID_463_" class="st0">
		<path id="XMLID_201_" class="st5" d="M18.2,97.4c0.2-9.2,7.3-19.7,15.9-23.3l16.5-6.9c8.5-3.6,22.2-3,30.4,1.3l19.7,10.3
			c8.2,4.3,12.6,15,9.8,23.9l-4.4,13.7c-2.8,8.8-12,19.2-20.4,23.1l-14.3,6.6c-8.4,3.9-21,2.1-28.1-3.9l-12.7-10.8
			c-7-6-12.6-18.5-12.5-27.7L18.2,97.4z"/>
	</g>
	<g id="XMLID_1658_">
		<g id="XMLID_1678_" class="st0">
			<g id="XMLID_338_">
				<line id="XMLID_341_" class="st23" x1="33.6" y1="74.3" x2="93.2" y2="140.5"/>
			</g>
			<g id="XMLID_334_">
				<line id="XMLID_335_" class="st23" x1="82.2" y1="67.1" x2="44.6" y2="147.7"/>
			</g>
			<g id="XMLID_331_">
				<line id="XMLID_332_" class="st23" x1="107.9" y1="109" x2="18.9" y2="105.9"/>
			</g>
			<g id="XMLID_328_">
				<line id="XMLID_329_" class="st23" x1="79.3" y1="149" x2="47.4" y2="65.9"/>
			</g>
			<g id="XMLID_307_">
				<line id="XMLID_311_" class="st23" x1="31.4" y1="138.3" x2="95.4" y2="76.5"/>
			</g>
			<g id="XMLID_302_">
				<line id="XMLID_304_" class="st23" x1="22.4" y1="90" x2="104.4" y2="124.8"/>
			</g>
			<g id="XMLID_299_">
				<line id="XMLID_300_" class="st23" x1="63.4" y1="62.9" x2="63.4" y2="151.9"/>
			</g>
		</g>
		<g id="XMLID_1659_" class="st24">
			<circle id="XMLID_13_" class="st25" cx="63.4" cy="107.4" r="43.4"/>
			<circle id="XMLID_100_" class="st25" cx="63.4" cy="107.4" r="41.1"/>
			<circle id="XMLID_99_" class="st25" cx="63.4" cy="107.4" r="38.8"/>
			<circle id="XMLID_97_" class="st25" cx="63.4" cy="107.4" r="36.5"/>
			<circle id="XMLID_94_" class="st25" cx="63.4" cy="107.4" r="34.2"/>
			<circle id="XMLID_72_" class="st25" cx="63.4" cy="107.4" r="31.9"/>
			<circle id="XMLID_63_" class="st25" cx="63.4" cy="107.4" r="29.6"/>
			<circle id="XMLID_60_" class="st25" cx="63.4" cy="107.4" r="27.3"/>
			<circle id="XMLID_59_" class="st25" cx="63.4" cy="107.4" r="25"/>
			<circle id="XMLID_58_" class="st25" cx="63.4" cy="107.4" r="22.7"/>
			<circle id="XMLID_23_" class="st25" cx="63.4" cy="107.4" r="20.4"/>
			<circle id="XMLID_15_" class="st25" cx="63.4" cy="107.4" r="18.1"/>
			<circle id="XMLID_14_" class="st25" cx="63.4" cy="107.4" r="15.8"/>
			<circle id="XMLID_12_" class="st25" cx="63.4" cy="107.4" r="13.5"/>
		</g>
	</g>
	<circle id="XMLID_1654_" class="st6" cx="63.4" cy="107.4" r="37.6"/>
	<rect id="XMLID_117_" x="44.2" y="117.8" class="st12" width="34.2" height="15.9"/>
	<text id="XMLID_1652_" transform="matrix(1 0 0 1 44.1862 125.4354)"><tspan x="0" y="0" class="st5 st14 st22">$10</tspan><tspan x="12" y="0" class="st13 st14 st15">/токен</tspan></text>
	<rect id="XMLID_115_" x="33" y="98.2" class="st12" width="60.6" height="13.1"/>
	<text id="XMLID_1650_" transform="matrix(1 0 0 1 36.179 107.3457)"><tspan x="0" y="0" class="st5 st21 st26">35.000</tspan><tspan x="31" y="0" class="st5 st21 st27"> </tspan><tspan x="33.7" y="0" class="st5 st14 st28">Weare</tspan></text>
	<rect id="XMLID_112_" x="291.6" y="51.7" class="st12" width="54.1" height="8.3"/>
	<text id="XMLID_290_" transform="matrix(1 0 0 1 295.3758 59.2614)"><tspan x="0" y="0" class="st5 st21 st22">75.000 </tspan><tspan x="28.3" y="0" class="st5 st14 st29">Weare</tspan></text>
	<rect id="XMLID_110_" x="316.2" y="150" class="st12" width="54.1" height="9.1"/>
	<text id="XMLID_11_" transform="matrix(1 0 0 1 320.0005 157.6069)"><tspan x="0" y="0" class="st5 st21 st22">65.000 </tspan><tspan x="28.3" y="0" class="st5 st14 st29">Weare</tspan></text>
	<rect id="XMLID_108_" x="247.3" y="225.7" class="st12" width="54.1" height="10.2"/>
	<text id="XMLID_590_" transform="matrix(1 0 0 1 251.083 233.3486)"><tspan x="0" y="0" class="st5 st21 st22">55.000 </tspan><tspan x="28.3" y="0" class="st5 st14 st29">Weare</tspan></text>
	<rect id="XMLID_105_" x="121.3" y="218.5" class="st12" width="54.1" height="9.9"/>
	<text id="XMLID_203_" transform="matrix(1 0 0 1 125.1364 226.13)"><tspan x="0" y="0" class="st5 st21 st22">45.000 </tspan><tspan x="28.3" y="0" class="st5 st14 st29">Weare</tspan></text>
	<g id="XMLID_1641_">
		<g id="XMLID_231_">
			<line id="XMLID_234_" class="st30" x1="125.3" y1="230.8" x2="125.4" y2="230.8"/>
			<line id="XMLID_233_" class="st31" x1="126.7" y1="230.8" x2="170.7" y2="230.8"/>
			<line id="XMLID_232_" class="st30" x1="171.4" y1="230.8" x2="171.5" y2="230.8"/>
		</g>
	</g>
	<g id="XMLID_220_">
		<g id="XMLID_219_">
			<line id="XMLID_223_" class="st30" x1="35" y1="113.1" x2="35.2" y2="113.1"/>
			<line id="XMLID_222_" class="st32" x1="36.5" y1="113.1" x2="89.7" y2="113.1"/>
			<line id="XMLID_221_" class="st30" x1="90.4" y1="113.1" x2="90.5" y2="113.1"/>
		</g>
	</g>
	<g id="XMLID_546_">
		<g id="XMLID_207_">
			<line id="XMLID_224_" class="st30" x1="251.2" y1="238.9" x2="251.3" y2="238.9"/>
			<line id="XMLID_216_" class="st31" x1="252.7" y1="238.9" x2="296.7" y2="238.9"/>
			<line id="XMLID_208_" class="st30" x1="297.3" y1="238.9" x2="297.5" y2="238.9"/>
		</g>
	</g>
	<g id="XMLID_344_">
		<circle id="XMLID_190_" class="st33" cx="63.4" cy="107.4" r="34.2"/>
	</g>
	<rect id="XMLID_64_" x="174.2" y="111.3" class="st12" width="73.2" height="16.4"/>
	<text id="XMLID_569_" transform="matrix(1 0 0 1 175.895 122.4607)"><tspan x="0" y="0" class="st5 st21 st34">3,500,000</tspan><tspan x="55.4" y="0" class="st5 st21 st26">.00</tspan></text>
	<rect id="XMLID_61_" x="257.9" y="243.1" class="st12" width="34.2" height="15.9"/>
	<text id="XMLID_614_" transform="matrix(1 0 0 1 257.9082 250.6729)"><tspan x="0" y="0" class="st5 st14 st22">$16</tspan><tspan x="12" y="0" class="st13 st14 st15">/токен</tspan></text>
	<g id="XMLID_612_">
		<g id="XMLID_196_">
			<line id="XMLID_214_" class="st30" x1="320.4" y1="162.6" x2="320.6" y2="162.6"/>
			<line id="XMLID_210_" class="st31" x1="321.9" y1="162.6" x2="365.9" y2="162.6"/>
			<line id="XMLID_209_" class="st30" x1="366.5" y1="162.6" x2="366.7" y2="162.6"/>
		</g>
	</g>
	<rect id="XMLID_10_" x="327.1" y="165.8" class="st12" width="34.2" height="15.9"/>
	<text id="XMLID_345_" transform="matrix(1 0 0 1 327.1335 173.3924)"><tspan x="0" y="0" class="st5 st14 st22">$14</tspan><tspan x="12" y="0" class="st13 st14 st15">/токен</tspan></text>
	<g id="XMLID_842_">
		<g id="XMLID_183_">
			<line id="XMLID_193_" class="st30" x1="296.1" y1="63.2" x2="296.3" y2="63.2"/>
			<line id="XMLID_187_" class="st31" x1="297.6" y1="63.2" x2="341.6" y2="63.2"/>
			<line id="XMLID_184_" class="st30" x1="342.3" y1="63.2" x2="342.4" y2="63.2"/>
		</g>
	</g>
	<rect id="XMLID_38_" x="302.8" y="66.3" class="st12" width="34.2" height="15.9"/>
	<text id="XMLID_826_" transform="matrix(1 0 0 1 302.8455 73.915)"><tspan x="0" y="0" class="st5 st14 st22">$12</tspan><tspan x="12" y="0" class="st13 st14 st15">/токен</tspan></text>
	<rect id="XMLID_9_" x="131.3" y="233.9" class="st12" width="34.2" height="15.9"/>
	<text id="XMLID_380_" transform="matrix(1 0 0 1 131.2842 241.5109)"><tspan x="0" y="0" class="st5 st14 st22">$18</tspan><tspan x="12" y="0" class="st13 st14 st15">/токен</tspan></text>
	<g id="XMLID_371_">
		<line id="XMLID_496_" class="st1" x1="234.1" y1="171.3" x2="257.3" y2="208.7"/>
		<g id="XMLID_195_">
			<circle id="XMLID_703_" class="st5" cx="257.3" cy="208.7" r="1.8"/>
			<circle id="XMLID_705_" class="st5" cx="251" cy="198.7" r="1.1"/>
			<circle id="XMLID_206_" class="st5" cx="244.6" cy="188" r="1.1"/>
			<circle id="XMLID_197_" class="st5" cx="239" cy="179.3" r="1.1"/>
			<circle id="XMLID_706_" class="st5" cx="234.1" cy="171.3" r="1.1"/>
		</g>
	</g>
	<g id="XMLID_381_">
		<circle id="XMLID_520_" class="st5" cx="171" cy="192.5" r="1.1"/>
		<circle id="XMLID_378_" class="st5" cx="178.9" cy="179.4" r="1.1"/>
		<circle id="XMLID_649_" class="st5" cx="166.2" cy="200.3" r="1.8"/>
		<circle id="XMLID_468_" class="st5" cx="184.8" cy="169.8" r="1.1"/>
		<circle id="XMLID_536_" class="st5" cx="175" cy="185.8" r="1.1"/>
		<line id="XMLID_583_" class="st1" x1="166.2" y1="200.3" x2="183.9" y2="171.4"/>
	</g>
</g>
</svg>
