<?xml version="1.0" encoding="utf-8"?>
<!-- Generator: Adobe Illustrator 19.0.0, SVG Export Plug-In . SVG Version: 6.00 Build 0)  -->
<svg version="1.1" id="Layer_1" xmlns="http://www.w3.org/2000/svg" xmlns:xlink="http://www.w3.org/1999/xlink" x="0px" y="0px"
	 viewBox="-115 93.7 408.7 235.3" style="enable-background:new -115 93.7 408.7 235.3;" xml:space="preserve">
<style type="text/css">
	.st0{opacity:0.1;}
	.st1{fill:#666666;}
	.st2{opacity:0.2;}
	.st3{fill:none;stroke:#666666;stroke-width:0.273;stroke-miterlimit:10;}
	.st4{opacity:0.2;fill:none;stroke:#666666;stroke-width:0.273;stroke-miterlimit:10;enable-background:new    ;}
	.st5{fill:#FFFFFF;}
	.st6{fill:none;stroke:#666666;stroke-width:2.184;stroke-miterlimit:10;stroke-dasharray:0.4368,0.8736;}
	.st7{fill:none;}
	.st8{fill:#333333;}
	.st9{font-family:'OpenSansCondensed-Light';}
	.st10{font-size:10px;}
	.st11{fill:#00A6FF;}
	.st12{fill:none;stroke:#00A6FF;stroke-width:0.273;stroke-miterlimit:10;}
	.st13{opacity:0.2;fill:none;stroke:#00A6FF;stroke-width:0.273;stroke-miterlimit:10;enable-background:new    ;}
	.st14{fill:none;stroke:#00A6FF;stroke-width:2.184;stroke-miterlimit:10;stroke-dasharray:0.4368,0.8736;}
	.st15{fill:none;stroke:#CCEDFF;stroke-width:0.273;stroke-miterlimit:10;}
	.st16{opacity:0.2;fill:none;stroke:#CCEDFF;stroke-width:0.273;stroke-miterlimit:10;enable-background:new    ;}
	.st17{fill:none;stroke:#CCEDFF;stroke-width:2.184;stroke-miterlimit:10;stroke-dasharray:0.4368,0.8736;}
	.st18{fill:#B3B3B3;}
	.st19{fill:none;stroke:#B3B3B3;stroke-width:0.273;stroke-miterlimit:10;}
	.st20{opacity:0.2;fill:none;stroke:#B3B3B3;stroke-width:0.273;stroke-miterlimit:10;enable-background:new    ;}
	.st21{fill:none;stroke:#B3B3B3;stroke-width:2.184;stroke-miterlimit:10;stroke-dasharray:0.4368,0.8736;}
	.st22{fill:none;stroke:#CCCCCC;stroke-width:0.5;stroke-miterlimit:10;}
	.st23{fill:#66CAFF;}
	.st24{font-size:8px;}
	.st25{font-size:7px;}
	.st26{font-family:'OpenSansCondensed-Bold';}
	.st27{fill:none;stroke:#00A6FF;stroke-miterlimit:10;}
</style>
<g id="XMLID_1_">
	<g id="XMLID_4624_" class="st0">
		<path id="XMLID_121_" class="st1" d="M-59.2,273.7c0.8-8.4,8.1-17.6,16.2-20.5l15.1-5.4c8.1-2.9,18.7,0.6,23.4,7.8l3.6,5.4
			c4.7,7.2,7.1,17.1,5.2,22s-8.7,13.5-15.3,19.2l-5,4.4c-6.5,5.7-17.2,5.7-23.8,0.1l-8.9-7.6C-55.2,293.5-60,282.1-59.2,273.7z"/>
	</g>
	<g id="XMLID_3958_">
		<g id="XMLID_638_">
			<g id="XMLID_665_" class="st2">
				<g id="XMLID_680_">
					<line id="XMLID_681_" class="st3" x1="-48.2" y1="255.8" x2="-6.1" y2="302.6"/>
				</g>
				<g id="XMLID_678_">
					<line id="XMLID_679_" class="st3" x1="-13.8" y1="250.7" x2="-40.5" y2="307.8"/>
				</g>
				<g id="XMLID_676_">
					<line id="XMLID_677_" class="st3" x1="4.3" y1="280.3" x2="-58.6" y2="278.1"/>
				</g>
				<g id="XMLID_674_">
					<line id="XMLID_675_" class="st3" x1="-15.9" y1="308.6" x2="-38.4" y2="249.8"/>
				</g>
				<g id="XMLID_671_">
					<line id="XMLID_672_" class="st3" x1="-49.8" y1="301.1" x2="-4.5" y2="257.3"/>
				</g>
				<g id="XMLID_668_">
					<line id="XMLID_669_" class="st3" x1="-56.1" y1="266.9" x2="1.8" y2="291.5"/>
				</g>
				<g id="XMLID_666_">
					<line id="XMLID_667_" class="st3" x1="-27.2" y1="247.7" x2="-27.2" y2="310.7"/>
				</g>
			</g>
			<g id="XMLID_639_">
				<circle id="XMLID_653_" class="st4" cx="-27.2" cy="279.2" r="30.7"/>
				<circle id="XMLID_652_" class="st4" cx="-27.2" cy="279.2" r="29.1"/>
				<circle id="XMLID_651_" class="st4" cx="-27.2" cy="279.2" r="27.4"/>
				<circle id="XMLID_650_" class="st4" cx="-27.2" cy="279.2" r="25.8"/>
				<circle id="XMLID_649_" class="st4" cx="-27.2" cy="279.2" r="24.2"/>
				<circle id="XMLID_648_" class="st4" cx="-27.2" cy="279.2" r="22.6"/>
				<circle id="XMLID_647_" class="st4" cx="-27.2" cy="279.2" r="20.9"/>
				<circle id="XMLID_646_" class="st4" cx="-27.2" cy="279.2" r="19.3"/>
				<circle id="XMLID_645_" class="st4" cx="-27.2" cy="279.2" r="17.7"/>
				<circle id="XMLID_644_" class="st4" cx="-27.2" cy="279.2" r="16.1"/>
				<circle id="XMLID_643_" class="st4" cx="-27.2" cy="279.2" r="14.5"/>
				<circle id="XMLID_642_" class="st4" cx="-27.2" cy="279.2" r="12.8"/>
				<circle id="XMLID_641_" class="st4" cx="-27.2" cy="279.2" r="11.2"/>
				<circle id="XMLID_640_" class="st4" cx="-27.2" cy="279.2" r="9.6"/>
			</g>
		</g>
	</g>
	<g id="XMLID_3955_">
		<circle id="XMLID_101_" class="st5" cx="-27.2" cy="279.2" r="26.6"/>
	</g>
	<g id="XMLID_3947_">
		<ellipse id="XMLID_98_" class="st6" cx="-27.2" cy="279.2" rx="24.3" ry="24.3"/>
	</g>
	<g id="XMLID_3940_">
		<rect id="XMLID_216_" x="-47.5" y="274" class="st7" width="40.7" height="11.4"/>
		<text id="XMLID_215_" transform="matrix(1 0 0 1 -45.841 281.58)" class="st8 st9 st10">Инвестор 3</text>
	</g>
	<g id="XMLID_3849_">
		<g id="XMLID_3852_">
			<g id="XMLID_3938_" class="st0">
				<path id="XMLID_119_" class="st11" d="M-62.2,138.7c0.8-8.4,8.1-17.6,16.2-20.5l15.1-5.4c8.1-2.9,18.7,0.6,23.4,7.8l3.6,5.4
					c4.7,7.2,7.1,17.1,5.2,22s-8.7,13.5-15.3,19.2l-5,4.5c-6.5,5.7-17.2,5.7-23.8,0.1l-8.9-7.6C-58.2,158.5-63,147.1-62.2,138.7z"/>
			</g>
			<g id="XMLID_3859_">
				<g id="XMLID_605_">
					<g id="XMLID_633_" class="st2">
						<g id="XMLID_663_">
							<line id="XMLID_664_" class="st12" x1="-51.7" y1="120.5" x2="-9.6" y2="167.3"/>
						</g>
						<g id="XMLID_661_">
							<line id="XMLID_662_" class="st12" x1="-17.4" y1="115.4" x2="-44" y2="172.4"/>
						</g>
						<g id="XMLID_659_">
							<line id="XMLID_660_" class="st12" x1="0.8" y1="145" x2="-62.1" y2="142.8"/>
						</g>
						<g id="XMLID_657_">
							<line id="XMLID_658_" class="st12" x1="-19.4" y1="173.3" x2="-42" y2="114.5"/>
						</g>
						<g id="XMLID_654_">
							<line id="XMLID_656_" class="st12" x1="-53.3" y1="165.8" x2="-8" y2="122"/>
						</g>
						<g id="XMLID_636_">
							<line id="XMLID_637_" class="st12" x1="-59.7" y1="131.6" x2="-1.7" y2="156.2"/>
						</g>
						<g id="XMLID_634_">
							<line id="XMLID_635_" class="st12" x1="-30.7" y1="112.4" x2="-30.7" y2="175.4"/>
						</g>
					</g>
					<g id="XMLID_606_">
						<circle id="XMLID_632_" class="st13" cx="-30.7" cy="143.9" r="30.7"/>
						<circle id="XMLID_631_" class="st13" cx="-30.7" cy="143.9" r="29.1"/>
						<circle id="XMLID_630_" class="st13" cx="-30.7" cy="143.9" r="27.4"/>
						<circle id="XMLID_629_" class="st13" cx="-30.7" cy="143.9" r="25.8"/>
						<circle id="XMLID_628_" class="st13" cx="-30.7" cy="143.9" r="24.2"/>
						<circle id="XMLID_627_" class="st13" cx="-30.7" cy="143.9" r="22.6"/>
						<circle id="XMLID_626_" class="st13" cx="-30.7" cy="143.9" r="20.9"/>
						<circle id="XMLID_625_" class="st13" cx="-30.7" cy="143.9" r="19.3"/>
						<circle id="XMLID_624_" class="st13" cx="-30.7" cy="143.9" r="17.7"/>
						<circle id="XMLID_623_" class="st13" cx="-30.7" cy="143.9" r="16.1"/>
						<circle id="XMLID_622_" class="st13" cx="-30.7" cy="143.9" r="14.5"/>
						<circle id="XMLID_621_" class="st13" cx="-30.7" cy="143.9" r="12.8"/>
						<circle id="XMLID_620_" class="st13" cx="-30.7" cy="143.9" r="11.2"/>
						<circle id="XMLID_619_" class="st13" cx="-30.7" cy="143.9" r="9.6"/>
					</g>
				</g>
			</g>
			<g id="XMLID_3856_">
				<circle id="XMLID_108_" class="st5" cx="-30.7" cy="143.9" r="26.6"/>
			</g>
			<g id="XMLID_3853_">
				<ellipse id="XMLID_107_" class="st14" cx="-30.7" cy="144" rx="24.3" ry="24.3"/>
			</g>
		</g>
		<g id="XMLID_3850_">
			<rect id="XMLID_218_" x="-50.3" y="140.2" class="st7" width="40.7" height="11.4"/>
			<text id="XMLID_217_" transform="matrix(1 0 0 1 -48.6478 147.7883)" class="st8 st9 st10">Инвестор 1</text>
		</g>
	</g>
	<g id="XMLID_3836_" class="st0">
		<path id="XMLID_152_" class="st11" d="M176.8,271.7c0.8-8.4,8.1-17.6,16.2-20.5l15.1-5.4c8.1-2.9,18.7,0.6,23.4,7.8l3.6,5.4
			c4.7,7.2,7.1,17.1,5.2,22s-8.7,13.5-15.3,19.2l-5,4.4c-6.5,5.7-17.2,5.7-23.8,0.1l-8.9-7.6C180.8,291.5,176,280.1,176.8,271.7z"/>
	</g>
	<g id="XMLID_3587_">
		<g id="XMLID_553_">
			<g id="XMLID_569_" class="st2">
				<g id="XMLID_583_">
					<line id="XMLID_584_" class="st15" x1="188.2" y1="253.8" x2="230.3" y2="300.6"/>
				</g>
				<g id="XMLID_581_">
					<line id="XMLID_582_" class="st15" x1="222.6" y1="248.7" x2="195.9" y2="305.8"/>
				</g>
				<g id="XMLID_578_">
					<line id="XMLID_579_" class="st15" x1="240.7" y1="278.3" x2="177.8" y2="276.1"/>
				</g>
				<g id="XMLID_576_">
					<line id="XMLID_577_" class="st15" x1="220.5" y1="306.6" x2="198" y2="247.8"/>
				</g>
				<g id="XMLID_574_">
					<line id="XMLID_575_" class="st15" x1="186.6" y1="299.1" x2="231.9" y2="255.3"/>
				</g>
				<g id="XMLID_572_">
					<line id="XMLID_573_" class="st15" x1="180.3" y1="264.9" x2="238.2" y2="289.5"/>
				</g>
				<g id="XMLID_570_">
					<line id="XMLID_571_" class="st15" x1="209.2" y1="245.7" x2="209.2" y2="308.7"/>
				</g>
			</g>
			<g id="XMLID_554_">
				<circle id="XMLID_568_" class="st16" cx="209.2" cy="277.2" r="30.7"/>
				<circle id="XMLID_567_" class="st16" cx="209.2" cy="277.2" r="29.1"/>
				<circle id="XMLID_566_" class="st16" cx="209.2" cy="277.2" r="27.4"/>
				<circle id="XMLID_565_" class="st16" cx="209.2" cy="277.2" r="25.8"/>
				<circle id="XMLID_564_" class="st16" cx="209.2" cy="277.2" r="24.2"/>
				<circle id="XMLID_563_" class="st16" cx="209.2" cy="277.2" r="22.6"/>
				<circle id="XMLID_562_" class="st16" cx="209.2" cy="277.2" r="20.9"/>
				<circle id="XMLID_561_" class="st16" cx="209.2" cy="277.2" r="19.3"/>
				<circle id="XMLID_560_" class="st16" cx="209.2" cy="277.2" r="17.7"/>
				<circle id="XMLID_559_" class="st16" cx="209.2" cy="277.2" r="16.1"/>
				<circle id="XMLID_558_" class="st16" cx="209.2" cy="277.2" r="14.5"/>
				<circle id="XMLID_557_" class="st16" cx="209.2" cy="277.2" r="12.8"/>
				<circle id="XMLID_556_" class="st16" cx="209.2" cy="277.2" r="11.2"/>
				<circle id="XMLID_555_" class="st16" cx="209.2" cy="277.2" r="9.6"/>
			</g>
		</g>
	</g>
	<g id="XMLID_3583_">
		<circle id="XMLID_148_" class="st5" cx="209.2" cy="277.2" r="26.6"/>
	</g>
	<g id="XMLID_3572_">
		<ellipse id="XMLID_144_" class="st17" cx="209.2" cy="277.2" rx="24.3" ry="24.3"/>
	</g>
	<g id="XMLID_3566_">
		<rect id="XMLID_224_" x="188.9" y="272" class="st7" width="40.7" height="11.4"/>
		<text id="XMLID_223_" transform="matrix(1 0 0 1 190.5587 279.5799)" class="st8 st9 st10">Инвестор 4</text>
	</g>
	<g id="XMLID_1481_">
		<g id="XMLID_3552_" class="st0">
			<path id="XMLID_156_" class="st18" d="M176.8,141.7c0.8-8.4,8.1-17.6,16.2-20.5l15.1-5.4c8.1-2.9,18.7,0.6,23.4,7.8l3.6,5.4
				c4.7,7.2,7.1,17.1,5.2,22s-8.7,13.5-15.3,19.2l-5,4.4c-6.5,5.7-17.2,5.7-23.8,0.1l-8.9-7.6C180.8,161.5,176,150.1,176.8,141.7z"
				/>
		</g>
		<g id="XMLID_1626_">
			<g id="XMLID_585_">
				<g id="XMLID_601_" class="st2">
					<g id="XMLID_617_">
						<line id="XMLID_618_" class="st19" x1="187.8" y1="123.8" x2="229.9" y2="170.6"/>
					</g>
					<g id="XMLID_615_">
						<line id="XMLID_616_" class="st19" x1="222.1" y1="118.7" x2="195.5" y2="175.8"/>
					</g>
					<g id="XMLID_613_">
						<line id="XMLID_614_" class="st19" x1="240.3" y1="148.3" x2="177.4" y2="146.1"/>
					</g>
					<g id="XMLID_611_">
						<line id="XMLID_612_" class="st19" x1="220.1" y1="176.6" x2="197.5" y2="117.8"/>
					</g>
					<g id="XMLID_609_">
						<line id="XMLID_610_" class="st19" x1="186.2" y1="169.1" x2="231.5" y2="125.3"/>
					</g>
					<g id="XMLID_604_">
						<line id="XMLID_608_" class="st19" x1="179.8" y1="134.9" x2="237.8" y2="159.5"/>
					</g>
					<g id="XMLID_602_">
						<line id="XMLID_603_" class="st19" x1="208.8" y1="115.7" x2="208.8" y2="178.7"/>
					</g>
				</g>
				<g id="XMLID_586_">
					<circle id="XMLID_600_" class="st20" cx="208.8" cy="147.2" r="30.7"/>
					<circle id="XMLID_599_" class="st20" cx="208.8" cy="147.2" r="29.1"/>
					<circle id="XMLID_598_" class="st20" cx="208.8" cy="147.2" r="27.4"/>
					<circle id="XMLID_597_" class="st20" cx="208.8" cy="147.2" r="25.8"/>
					<circle id="XMLID_596_" class="st20" cx="208.8" cy="147.2" r="24.2"/>
					<circle id="XMLID_595_" class="st20" cx="208.8" cy="147.2" r="22.6"/>
					<circle id="XMLID_594_" class="st20" cx="208.8" cy="147.2" r="20.9"/>
					<circle id="XMLID_593_" class="st20" cx="208.8" cy="147.2" r="19.3"/>
					<circle id="XMLID_592_" class="st20" cx="208.8" cy="147.2" r="17.7"/>
					<circle id="XMLID_591_" class="st20" cx="208.8" cy="147.2" r="16.1"/>
					<circle id="XMLID_590_" class="st20" cx="208.8" cy="147.2" r="14.5"/>
					<circle id="XMLID_589_" class="st20" cx="208.8" cy="147.2" r="12.8"/>
					<circle id="XMLID_588_" class="st20" cx="208.8" cy="147.2" r="11.2"/>
					<circle id="XMLID_587_" class="st20" cx="208.8" cy="147.2" r="9.6"/>
				</g>
			</g>
		</g>
		<g id="XMLID_1617_">
			<circle id="XMLID_149_" class="st5" cx="208.8" cy="147.2" r="26.6"/>
		</g>
		<g id="XMLID_1485_">
			<ellipse id="XMLID_146_" class="st21" cx="208.8" cy="147.2" rx="24.3" ry="24.3"/>
		</g>
		<g id="XMLID_1482_">
			<rect id="XMLID_225_" x="188.5" y="142" class="st7" width="40.7" height="11.4"/>
			<text id="XMLID_219_" transform="matrix(1 0 0 1 190.1469 149.58)" class="st8 st9 st10">Инвестор 2</text>
		</g>
	</g>
	<path id="XMLID_1479_" class="st22" d="M208.9,245.8v-22.4c0-5.5-4.5-10-10-10h-21.7"/>
	<path id="XMLID_1478_" class="st23" d="M214.4,234.1h-11c-2.5,0-4.5-2-4.5-4.5l0,0c0-2.5,2-4.5,4.5-4.5h11c2.5,0,4.5,2,4.5,4.5l0,0
		C218.9,232,216.9,234.1,214.4,234.1z"/>
	<rect id="XMLID_57_" x="200.7" y="226.2" class="st7" width="16.3" height="7.5"/>
	<text transform="matrix(1 0 0 1 202.0004 232.2891)" class="st5 st9 st24">100</text>
	<text transform="matrix(1 0 0 1 211.6004 232.2891)" class="st5 st9 st25">%</text>
	<circle id="XMLID_1475_" class="st23" cx="177.1" cy="213.4" r="1.3"/>
	<path id="XMLID_1473_" class="st22" d="M132.3,193.2v-30.1c0-5.5,4.5-10,10-10h12.4"/>
	<path id="XMLID_1472_" class="st22" d="M168.6,193.2v-30.1c0-5.5-4.5-10-10-10h-12.4"/>
	<circle id="XMLID_1469_" class="st18" cx="132.3" cy="193.2" r="1.3"/>
	<circle id="XMLID_1467_" class="st18" cx="168.6" cy="193.2" r="1.3"/>
	<g id="XMLID_1328_">
		<rect id="XMLID_54_" x="14.5" y="208.6" class="st7" width="25.9" height="11.4"/>
		<text id="XMLID_1457_" transform="matrix(1 0 0 1 16.6341 216.2487)" class="st11 st26 st10">IPC01</text>
		<rect id="XMLID_49_" x="46.9" y="208.6" class="st7" width="26.2" height="11.4"/>
		<text id="XMLID_1450_" transform="matrix(1 0 0 1 49.1556 216.2487)" class="st11 st26 st10">IPC02</text>
		<rect id="XMLID_46_" x="78.1" y="208.6" class="st7" width="29.4" height="11.4"/>
		<text id="XMLID_1424_" transform="matrix(1 0 0 1 81.932 216.2487)" class="st11 st26 st10">IPC03</text>
		<rect id="XMLID_36_" x="111.1" y="209" class="st7" width="29.1" height="11.4"/>
		<text id="XMLID_1388_" transform="matrix(1 0 0 1 114.8553 216.5944)" class="st11 st26 st10">IPC04</text>
		<rect id="XMLID_33_" x="145.1" y="208.6" class="st7" width="28.2" height="11.4"/>
		<text id="XMLID_1372_" transform="matrix(1 0 0 1 148.3558 216.2487)" class="st11 st26 st10">IPC05</text>
		<g id="XMLID_1329_">
			<g id="XMLID_1370_">
				<path id="XMLID_1371_" class="st27" d="M172,223.2l-11.3,6.7c-1.1,0.6-2.4,0.6-3.5,0l-11.3-6.7c-1.1-0.6-1.7-1.8-1.7-3.1v-13.5
					c0-1.3,0.7-2.4,1.7-3.1l11.3-6.7c1.1-0.6,2.4-0.6,3.5,0l11.3,6.7c1.1,0.6,1.7,1.8,1.7,3.1v13.5C173.7,221.4,173,222.5,172,223.2
					z"/>
			</g>
			<g id="XMLID_1367_">
				<path id="XMLID_1368_" class="st27" d="M139,223.2l-11.3,6.7c-1.1,0.6-2.4,0.6-3.5,0l-11.3-6.7c-1.1-0.6-1.7-1.8-1.7-3.1v-13.5
					c0-1.3,0.7-2.4,1.7-3.1l11.3-6.7c1.1-0.6,2.4-0.6,3.5,0l11.3,6.7c1.1,0.6,1.7,1.8,1.7,3.1v13.5C140.7,221.4,140,222.5,139,223.2
					z"/>
			</g>
			<g id="XMLID_1362_">
				<path id="XMLID_1366_" class="st27" d="M106,223.2l-11.3,6.7c-1.1,0.6-2.4,0.6-3.5,0l-11.3-6.7c-1.1-0.6-1.7-1.8-1.7-3.1v-13.5
					c0-1.3,0.7-2.4,1.7-3.1l11.3-6.7c1.1-0.6,2.4-0.6,3.5,0l11.3,6.7c1.1,0.6,1.7,1.8,1.7,3.1v13.5C107.7,221.4,107,222.5,106,223.2
					z"/>
			</g>
			<g id="XMLID_1334_">
				<path id="XMLID_1354_" class="st27" d="M73,223.2l-11.3,6.7c-1.1,0.6-2.4,0.6-3.5,0l-11.3-6.7c-1.1-0.6-1.7-1.8-1.7-3.1v-13.5
					c0-1.3,0.7-2.4,1.7-3.1l11.3-6.7c1.1-0.6,2.4-0.6,3.5,0l11.3,6.7c1.1,0.6,1.7,1.8,1.7,3.1v13.5C74.7,221.4,74,222.5,73,223.2z"
					/>
			</g>
			<g id="XMLID_1330_">
				<path id="XMLID_1331_" class="st27" d="M40,223.2l-11.3,6.7c-1.1,0.6-2.4,0.6-3.5,0l-11.3-6.7c-1.1-0.6-1.7-1.8-1.7-3.1v-13.5
					c0-1.3,0.7-2.4,1.7-3.1l11.3-6.7c1.1-0.6,2.4-0.6,3.5,0l11.3,6.7c1.1,0.6,1.7,1.8,1.7,3.1v13.5C41.7,221.4,41,222.5,40,223.2z"
					/>
			</g>
		</g>
	</g>
	<path id="XMLID_1325_" class="st22" d="M76.7,272.6l-0.1,3.6c0,3.3-2.7,5.9-6,5.9H1.4"/>
	<path id="XMLID_1323_" class="st1" d="M55.3,286.7h-12c-2.5,0-4.5-2-4.5-4.5l0,0c0-2.5,2-4.5,4.5-4.5h12c2.5,0,4.5,2,4.5,4.5l0,0
		C59.8,284.7,57.8,286.7,55.3,286.7z"/>
	<g id="XMLID_1301_">
		<rect id="XMLID_227_" x="39" y="278.8" class="st7" width="19.6" height="7.5"/>
		<text transform="matrix(1 0 0 1 41.9598 284.9173)" class="st5 st9 st24">100</text>
		<text transform="matrix(1 0 0 1 51.5598 284.9173)" class="st5 st9 st25">%</text>
	</g>
	<path id="XMLID_1300_" class="st22" d="M27.3,232.9v26c0,3.3,2.7,6,6,6h38.4c2.8,0,5,2.2,5,5v2.7"/>
	<path id="XMLID_1299_" class="st22" d="M158.8,232.9v26c0,3.3-2.7,6-6,6H81.7c-2.8,0-5,2.2-5,5v2.7"/>
	<g id="XMLID_1236_">
		<path id="XMLID_1265_" class="st1" d="M30.3,249.8h-6c-2.5,0-4.5-2-4.5-4.5l0,0c0-2.5,2-4.5,4.5-4.5h6c2.5,0,4.5,2,4.5,4.5l0,0
			C34.8,247.7,32.8,249.8,30.3,249.8z"/>
		<rect id="XMLID_109_" x="21.1" y="241.9" class="st7" width="12.2" height="7.5"/>
		<text transform="matrix(1 0 0 1 21.9845 247.9813)" class="st5 st9 st24">50</text>
		<text transform="matrix(1 0 0 1 28.3845 247.9813)" class="st5 st9 st25">%</text>
	</g>
	<path id="XMLID_1235_" class="st22" d="M125.8,232.9v23.6c0,2.2-1.8,4-4,4H80.7c-2.2,0-4,1.8-4,4v8.1"/>
	<path id="XMLID_1234_" class="st22" d="M92.9,232.9v20c0,1.7-1.3,3-3,3H79.7c-1.7,0-3,1.3-3,3v9.1"/>
	<path id="XMLID_1224_" class="st22" d="M60,232.9v24.6c0,1.7,1.3,3,3,3h10.7c1.7,0,3,1.3,3,3v9.1"/>
	<g id="XMLID_1077_">
		<circle id="XMLID_1222_" class="st1" cx="27.2" cy="232.9" r="1.3"/>
		<circle id="XMLID_1218_" class="st1" cx="92.9" cy="232.9" r="1.3"/>
		<circle id="XMLID_1213_" class="st1" cx="60" cy="232.9" r="1.3"/>
		<circle id="XMLID_1097_" class="st1" cx="125.7" cy="232.9" r="1.3"/>
		<circle id="XMLID_1094_" class="st1" cx="158.8" cy="232.9" r="1.3"/>
	</g>
	<g id="XMLID_1053_">
		<path id="XMLID_1071_" class="st1" d="M63.5,249.8h-6c-2.5,0-4.5-2-4.5-4.5l0,0c0-2.5,2-4.5,4.5-4.5h6c2.5,0,4.5,2,4.5,4.5l0,0
			C68,247.7,66,249.8,63.5,249.8z"/>
		<rect id="XMLID_94_" x="53.5" y="241.9" class="st7" width="14.1" height="7.5"/>
		<text transform="matrix(1 0 0 1 55.254 247.9818)" class="st5 st9 st24">10</text>
		<text transform="matrix(1 0 0 1 61.654 247.9818)" class="st5 st9 st25">%</text>
	</g>
	<g id="XMLID_1014_">
		<path id="XMLID_1051_" class="st1" d="M94.8,249.8h-6c-2.5,0-4.5-2-4.5-4.5l0,0c0-2.5,2-4.5,4.5-4.5h6c2.5,0,4.5,2,4.5,4.5l0,0
			C99.3,247.7,97.3,249.8,94.8,249.8z"/>
		<rect id="XMLID_89_" x="84.7" y="241.9" class="st7" width="14.1" height="7.5"/>
		<text transform="matrix(1 0 0 1 86.4901 247.9818)" class="st5 st9 st24">10</text>
		<text transform="matrix(1 0 0 1 92.8901 247.9818)" class="st5 st9 st25">%</text>
	</g>
	<g id="XMLID_1003_">
		<path id="XMLID_1011_" class="st1" d="M128.7,249.8h-6c-2.5,0-4.5-2-4.5-4.5l0,0c0-2.5,2-4.5,4.5-4.5h6c2.5,0,4.5,2,4.5,4.5l0,0
			C133.2,247.7,131.2,249.8,128.7,249.8z"/>
		<rect id="XMLID_85_" x="118.6" y="241.9" class="st7" width="14.1" height="7.5"/>
		<text transform="matrix(1 0 0 1 120.4105 247.9818)" class="st5 st9 st24">15</text>
		<text transform="matrix(1 0 0 1 126.8105 247.9818)" class="st5 st9 st25">%</text>
	</g>
	<g id="XMLID_989_">
		<path id="XMLID_1001_" class="st1" d="M161.8,249.8h-6c-2.5,0-4.5-2-4.5-4.5l0,0c0-2.5,2-4.5,4.5-4.5h6c2.5,0,4.5,2,4.5,4.5l0,0
			C166.3,247.7,164.3,249.8,161.8,249.8z"/>
		<rect id="XMLID_19_" x="151.7" y="241.9" class="st7" width="14.1" height="7.5"/>
		<text transform="matrix(1 0 0 1 153.4969 247.9818)" class="st5 st9 st24">15</text>
		<text transform="matrix(1 0 0 1 159.8969 247.9818)" class="st5 st9 st25">%</text>
	</g>
	<path id="XMLID_969_" class="st22" d="M76.7,153.7l-0.1-3.6c0-3.3-2.7-5.9-6-5.9H1.4"/>
	<path id="XMLID_845_" class="st22" d="M150.5,153.7l0.1-3.6c0-3.3,2.7-5.9,6-5.9h20.5"/>
	<path id="XMLID_821_" class="st11" d="M55.3,139.7h-12c-2.5,0-4.5,2-4.5,4.5l0,0c0,2.5,2,4.5,4.5,4.5h12c2.5,0,4.5-2,4.5-4.5l0,0
		C59.8,141.7,57.8,139.7,55.3,139.7z"/>
	<g id="XMLID_812_">
		<rect id="XMLID_221_" x="39" y="141" class="st7" width="19.6" height="7.5"/>
		<text transform="matrix(1 0 0 1 41.9598 147.0576)" class="st5 st9 st24">100</text>
		<text transform="matrix(1 0 0 1 51.5598 147.0576)" class="st5 st9 st25">%</text>
	</g>
	<path id="XMLID_811_" class="st22" d="M27.3,193.5v-26c0-3.3,2.7-6,6-6h38.4c2.8,0,5-2.2,5-5v-2.8"/>
	<path id="XMLID_805_" class="st22" d="M150.5,193.5v-26c0-3.3-2.7-6-6-6H81.7c-2.8,0-5-2.2-5-5v-2.8"/>
	<path id="XMLID_802_" class="st22" d="M118.6,193.5v-23.6c0-2.2-1.8-4-4-4H80.7c-2.2,0-4-1.8-4-4v-8.2"/>
	<path id="XMLID_795_" class="st22" d="M92.9,193.5v-20c0-1.7-1.3-3-3-3H79.7c-1.7,0-3-1.3-3-3v-9.1"/>
	<path id="XMLID_794_" class="st22" d="M60,193.5v-24.6c0-1.7,1.3-3,3-3h10.7c1.7,0,3-1.3,3-3v-9.2"/>
	<g id="XMLID_755_">
		<circle id="XMLID_790_" class="st11" cx="27.2" cy="193.5" r="1.3"/>
		<circle id="XMLID_768_" class="st11" cx="92.9" cy="193.5" r="1.3"/>
		<circle id="XMLID_764_" class="st11" cx="60" cy="193.5" r="1.3"/>
		<circle id="XMLID_762_" class="st11" cx="118.6" cy="193.5" r="1.3"/>
		<circle id="XMLID_757_" class="st11" cx="150.5" cy="193.5" r="1.3"/>
	</g>
	<g id="XMLID_749_">
		<path id="XMLID_752_" class="st11" d="M121.2,178.6h-6c-2.5,0-4.5,2-4.5,4.5l0,0c0,2.5,2,4.5,4.5,4.5h6c2.5,0,4.5-2,4.5-4.5l0,0
			C125.7,180.6,123.7,178.6,121.2,178.6z"/>
		<rect id="XMLID_15_" x="111.1" y="179.9" class="st7" width="14.1" height="7.5"/>
		<text transform="matrix(1 0 0 1 112.9105 185.9929)" class="st5 st9 st24">20</text>
		<text transform="matrix(1 0 0 1 119.3105 185.9929)" class="st5 st9 st25">%</text>
	</g>
	<g id="XMLID_717_">
		<path id="XMLID_746_" class="st11" d="M155.8,179.2h-6c-2.5,0-4.5,2-4.5,4.5l0,0c0,2.5,2,4.5,4.5,4.5h6c2.5,0,4.5-2,4.5-4.5l0,0
			C160.3,181.2,158.3,179.2,155.8,179.2z"/>
		<rect id="XMLID_14_" x="145.7" y="180.5" class="st7" width="14.1" height="7.5"/>
		<text transform="matrix(1 0 0 1 147.4969 186.575)" class="st5 st9 st24">20</text>
		<text transform="matrix(1 0 0 1 153.8969 186.575)" class="st5 st9 st25">%</text>
	</g>
	<g id="XMLID_701_">
		<path id="XMLID_716_" class="st18" d="M135.3,166.1h-6c-2.5,0-4.5,2-4.5,4.5l0,0c0,2.5,2,4.5,4.5,4.5h6c2.5,0,4.5-2,4.5-4.5l0,0
			C139.8,168.1,137.8,166.1,135.3,166.1z"/>
		<rect id="XMLID_13_" x="125.2" y="167.4" class="st7" width="14.1" height="7.5"/>
		<text transform="matrix(1 0 0 1 127.0338 173.4876)" class="st5 st9 st24">40</text>
		<text transform="matrix(1 0 0 1 133.4338 173.4876)" class="st5 st9 st25">%</text>
	</g>
	<g id="XMLID_670_">
		<path id="XMLID_698_" class="st18" d="M171.6,166.1h-6c-2.5,0-4.5,2-4.5,4.5l0,0c0,2.5,2,4.5,4.5,4.5h6c2.5,0,4.5-2,4.5-4.5l0,0
			C176.1,168.1,174.1,166.1,171.6,166.1z"/>
		<rect id="XMLID_38_" x="161.6" y="167.4" class="st7" width="14.1" height="7.5"/>
		<text transform="matrix(1 0 0 1 163.3573 173.4876)" class="st5 st9 st24">60</text>
		<text transform="matrix(1 0 0 1 169.7573 173.4876)" class="st5 st9 st25">%</text>
	</g>
	<g id="XMLID_580_">
		<path id="XMLID_655_" class="st11" d="M95.8,178.6h-6c-2.5,0-4.5,2-4.5,4.5l0,0c0,2.5,2,4.5,4.5,4.5h6c2.5,0,4.5-2,4.5-4.5l0,0
			C100.3,180.6,98.3,178.6,95.8,178.6z"/>
		<rect id="XMLID_12_" x="85.7" y="179.9" class="st7" width="14.1" height="7.5"/>
		<text transform="matrix(1 0 0 1 87.4872 185.9929)" class="st5 st9 st24">20</text>
		<text transform="matrix(1 0 0 1 93.8872 185.9929)" class="st5 st9 st25">%</text>
	</g>
	<g id="XMLID_374_">
		<path id="XMLID_387_" class="st11" d="M62.9,178.6h-6c-2.5,0-4.5,2-4.5,4.5l0,0c0,2.5,2,4.5,4.5,4.5h6c2.5,0,4.5-2,4.5-4.5l0,0
			C67.4,180.6,65.4,178.6,62.9,178.6z"/>
		<rect id="XMLID_11_" x="52.9" y="179.9" class="st7" width="14.1" height="7.5"/>
		<text transform="matrix(1 0 0 1 54.6539 185.9929)" class="st5 st9 st24">20</text>
		<text transform="matrix(1 0 0 1 61.0539 185.9929)" class="st5 st9 st25">%</text>
	</g>
	<g id="XMLID_349_">
		<path id="XMLID_363_" class="st11" d="M30.2,178.6h-6c-2.5,0-4.5,2-4.5,4.5l0,0c0,2.5,2,4.5,4.5,4.5h6c2.5,0,4.5-2,4.5-4.5l0,0
			C34.7,180.6,32.7,178.6,30.2,178.6z"/>
		<rect id="XMLID_10_" x="20.1" y="179.9" class="st7" width="14.1" height="7.5"/>
		<text transform="matrix(1 0 0 1 21.9039 185.9929)" class="st5 st9 st24">20</text>
		<text transform="matrix(1 0 0 1 28.3039 185.9929)" class="st5 st9 st25">%</text>
	</g>
	<g id="XMLID_329_">
		<path id="XMLID_341_" class="st18" d="M169.3,139.7h-11c-2.5,0-4.5,2-4.5,4.5l0,0c0,2.5,2,4.5,4.5,4.5h11c2.5,0,4.5-2,4.5-4.5l0,0
			C173.8,141.7,171.8,139.7,169.3,139.7z"/>
		<rect id="XMLID_9_" x="155.7" y="141" class="st7" width="16.3" height="7.5"/>
		<text transform="matrix(1 0 0 1 156.9479 147.0534)" class="st5 st9 st24">100</text>
		<text transform="matrix(1 0 0 1 166.5479 147.0534)" class="st5 st9 st25">%</text>
	</g>
</g>
</svg>
