<?xml version="1.0" encoding="utf-8"?>
<!-- Generator: Adobe Illustrator 19.0.0, SVG Export Plug-In . SVG Version: 6.00 Build 0)  -->
<svg version="1.1" id="Layer_1" xmlns="http://www.w3.org/2000/svg" xmlns:xlink="http://www.w3.org/1999/xlink" x="0px" y="0px"
	 viewBox="0 0 324.7 287.9" style="enable-background:new 0 0 324.7 287.9;" xml:space="preserve">
<style type="text/css">
	.st0{opacity:0.1;fill:#00A6FF;}
	.st1{opacity:0.7;}
	.st2{opacity:0.2;fill:none;stroke:#00A6FF;stroke-width:0.4323;stroke-miterlimit:10;}
	.st3{opacity:0.2;}
	.st4{fill:#00A6FF;}
	.st5{fill:#FFFFFF;}
	.st6{fill:none;stroke:#00A6FF;stroke-miterlimit:10;stroke-dasharray:0.267,1.3325;}
	.st7{fill:none;}
	.st8{font-family:'OpenSans-Semibold';}
	.st9{font-size:10px;}
	.st10{fill:#CCCCCC;}
	.st11{fill:#666666;}
	.st12{opacity:0.6;}
	.st13{opacity:0.29;}
	.st14{fill:none;stroke:#666666;stroke-width:2;stroke-miterlimit:10;}
	.st15{fill:none;stroke:#CCCCCC;stroke-width:2;stroke-miterlimit:10;}
	.st16{opacity:0.3;fill:none;stroke:#00A6FF;stroke-width:2;stroke-miterlimit:10;}
	.st17{opacity:0.6;fill:none;stroke:#00A6FF;stroke-width:2;stroke-miterlimit:10;}
	.st18{fill:none;stroke:#00A6FF;stroke-width:2;stroke-miterlimit:10;}
	.st19{fill:none;stroke:#00A6FF;stroke-width:0.5;stroke-miterlimit:10;stroke-dasharray:0.997,1;}
	.st20{fill:none;stroke:#00A6FF;stroke-width:0.5;stroke-miterlimit:10;}
	.st21{font-family:'OpenSansCondensed-Light';}
	.st22{font-family:'OpenSansCondensed-Bold';}
	.st23{font-size:9px;}
</style>
<g id="XMLID_1873_">
	<path id="XMLID_2895_" class="st0" d="M147.1,155.3l-13.7-23.7c-0.9-1.6-0.9-3.5,0-5.1l13.7-23.7c0.9-1.6,2.6-2.5,4.4-2.5h27.3
		c1.8,0,3.5,1,4.4,2.5l13.7,23.7c0.9,1.6,0.9,3.5,0,5.1l-13.7,23.7c-0.9,1.6-2.6,2.5-4.4,2.5h-27.3
		C149.7,157.8,148,156.8,147.1,155.3z"/>
	<path id="XMLID_2894_" class="st0" d="M152.7,143.5L142,125c-0.7-1.2-0.7-2.7,0-4l10.7-18.5c0.7-1.2,2-2,3.4-2h21.4
		c1.4,0,2.7,0.8,3.4,2l10.7,18.5c0.7,1.2,0.7,2.7,0,4l-10.7,18.5c-0.7,1.2-2,2-3.4,2h-21.4C154.7,145.5,153.4,144.7,152.7,143.5z"/>
	<g id="XMLID_2875_" class="st1">
		<circle id="XMLID_19_" class="st2" cx="161.3" cy="129.6" r="81.5"/>
		<circle id="XMLID_69_" class="st2" cx="161.3" cy="129.6" r="77.2"/>
		<circle id="XMLID_64_" class="st2" cx="161.3" cy="129.6" r="72.9"/>
		<circle id="XMLID_61_" class="st2" cx="161.3" cy="129.6" r="68.5"/>
		<circle id="XMLID_58_" class="st2" cx="161.3" cy="129.6" r="64.2"/>
		<circle id="XMLID_54_" class="st2" cx="161.3" cy="129.6" r="59.9"/>
		<circle id="XMLID_49_" class="st2" cx="161.3" cy="129.6" r="55.6"/>
		<circle id="XMLID_46_" class="st2" cx="161.3" cy="129.6" r="51.3"/>
		<circle id="XMLID_38_" class="st2" cx="161.3" cy="129.6" r="47"/>
		<circle id="XMLID_36_" class="st2" cx="161.3" cy="129.6" r="42.7"/>
		<circle id="XMLID_33_" class="st2" cx="161.3" cy="129.6" r="38.4"/>
		<circle id="XMLID_24_" class="st2" cx="161.3" cy="129.6" r="34.1"/>
		<circle id="XMLID_23_" class="st2" cx="161.3" cy="129.6" r="29.8"/>
		<circle id="XMLID_17_" class="st2" cx="161.3" cy="129.6" r="25.4"/>
	</g>
	<g id="XMLID_2872_">
		<g id="XMLID_2874_" class="st3">
			<path id="XMLID_90_" class="st4" d="M94,167.8c-6.4-6.7-8.8-19.1-5.3-27.7L108,92.9c3.5-8.6,13.6-17.8,22.4-20.6l55.5-17.3
				c8.8-2.7,19.5,1.7,23.8,9.9l20.8,40.2c4.3,8.2,5.1,22,1.9,30.7L216,180.5c-3.2,8.7-13.4,16.4-22.6,17.1l-48.9,3.9
				c-9.2,0.7-22-4.1-28.4-10.8L94,167.8z"/>
		</g>
		<g id="XMLID_2873_" class="st3">
			<path id="XMLID_91_" class="st4" d="M89.8,106.6c0.2-9.2,7.3-19.7,15.9-23.3l47-19.7c8.5-3.6,22.2-3,30.4,1.3l51.4,27
				c8.2,4.3,12.6,15,9.8,23.9l-13.7,43.1c-2.8,8.8-12,19.2-20.4,23.1L167,201.9c-8.4,3.9-21,2.1-28.1-3.9l-37.4-31.8
				c-7-6-12.6-18.5-12.5-27.7L89.8,106.6z"/>
		</g>
	</g>
	<g id="XMLID_2868_">
		<circle id="XMLID_86_" class="st5" cx="161.3" cy="129.5" r="70"/>
		<circle id="XMLID_85_" class="st6" cx="161.3" cy="129.5" r="70"/>
	</g>
	<g id="XMLID_2843_">
		<rect id="XMLID_230_" x="148.3" y="228.4" class="st7" width="9.7" height="15.3"/>
		<text id="XMLID_2844_" transform="matrix(1 0 0 1 150.2847 236.0398)" class="st5 st8 st9">1</text>
	</g>
	<circle id="XMLID_2842_" class="st5" cx="165.1" cy="129" r="35"/>
	<g id="XMLID_2717_">
		<g id="XMLID_2819_">
			<path id="XMLID_2841_" class="st10" d="M130.1,177.8l0.2-0.3c-14.6-9.9-24.1-26.7-24.1-45.6c0-5.7,0.9-11.2,2.5-16.3l-0.4-0.1
				c-1.6,5.2-2.5,10.7-2.5,16.5C105.7,151,115.4,167.8,130.1,177.8z"/>
			<path id="XMLID_2840_" class="st10" d="M108.4,131.9c0-5.5,0.8-10.7,2.4-15.7l-0.4-0.1c-1.6,5-2.4,10.3-2.4,15.8
				c0,18.3,9.2,34.4,23.3,44l0.2-0.3C117.6,166.1,108.4,150,108.4,131.9z"/>
			<path id="XMLID_2839_" class="st10" d="M110.7,131.9c0-5.2,0.8-10.2,2.3-15l-0.4-0.1c-1.5,4.8-2.3,9.8-2.3,15.1
				c0,17.5,8.8,32.9,22.3,42.1l0.2-0.3C119.5,164.6,110.7,149.3,110.7,131.9z"/>
			<path id="XMLID_2838_" class="st10" d="M113.1,131.9c0-5,0.8-9.8,2.2-14.3l-0.4-0.1c-1.4,4.6-2.2,9.4-2.2,14.4
				c0,16.7,8.4,31.4,21.3,40.2l0.2-0.3C121.4,163.1,113.1,148.5,113.1,131.9z"/>
			<path id="XMLID_2837_" class="st10" d="M115.4,131.9c0-4.7,0.7-9.3,2.1-13.6l-0.4-0.1c-1.4,4.3-2.1,9-2.1,13.7
				c0,15.9,8,29.9,20.3,38.3l0.2-0.3C123.3,161.6,115.4,147.7,115.4,131.9z"/>
			<path id="XMLID_2836_" class="st10" d="M136.5,168.3l0.2-0.3c-11.5-7.9-19.1-21.1-19.1-36c0-4.5,0.7-8.8,2-12.9l-0.4-0.1
				c-1.3,4.1-2,8.5-2,13C117.3,147,124.9,160.4,136.5,168.3z"/>
			<path id="XMLID_2835_" class="st10" d="M120,131.9c0-4.3,0.6-8.4,1.9-12.2l-0.4-0.1c-1.2,3.9-1.9,8.1-1.9,12.4
				c0,14.3,7.2,26.9,18.3,34.5l0.2-0.3C127.1,158.6,120,146.1,120,131.9z"/>
			<path id="XMLID_2834_" class="st10" d="M122.3,131.9c0-4,0.6-7.9,1.8-11.6l-0.4-0.1c-1.1,3.7-1.8,7.6-1.8,11.7
				c0,13.5,6.8,25.5,17.2,32.5l0.2-0.3C129.1,157.1,122.3,145.3,122.3,131.9z"/>
			<path id="XMLID_2833_" class="st10" d="M124.6,131.9c0-3.8,0.6-7.4,1.6-10.9l-0.4-0.1c-1.1,3.5-1.7,7.2-1.7,11
				c0,12.7,6.4,24,16.2,30.6l0.2-0.3C131,155.6,124.6,144.5,124.6,131.9z"/>
			<path id="XMLID_2832_" class="st10" d="M126.9,131.9c0-3.5,0.5-7,1.5-10.2l-0.4-0.1c-1,3.3-1.6,6.7-1.6,10.3
				c0,11.9,6,22.5,15.2,28.7l0.2-0.3C132.9,154.1,126.9,143.7,126.9,131.9z"/>
			<path id="XMLID_2831_" class="st10" d="M143,158.8l0.2-0.3c-8.5-5.8-14-15.5-14-26.5c0-3.3,0.5-6.5,1.4-9.5l-0.4-0.1
				c-0.9,3-1.5,6.3-1.5,9.6C128.8,143.1,134.4,152.9,143,158.8z"/>
			<path id="XMLID_2830_" class="st10" d="M131.5,131.9c0-3.1,0.5-6,1.3-8.8l-0.4-0.1c-0.9,2.8-1.4,5.8-1.4,8.9
				c0,10.3,5.2,19.5,13.2,24.9l0.2-0.3C136.7,151.2,131.5,142.1,131.5,131.9z"/>
			<path id="XMLID_2829_" class="st10" d="M133.8,131.9c0-2.8,0.4-5.6,1.2-8.1l-0.4-0.1c-0.8,2.6-1.3,5.4-1.3,8.3
				c0,9.6,4.8,18,12.2,23l0.2-0.3C138.6,149.7,133.8,141.3,133.8,131.9z"/>
			<path id="XMLID_2828_" class="st10" d="M136.1,131.9c0-2.6,0.4-5.1,1.1-7.5l-0.4-0.1c-0.7,2.4-1.1,4.9-1.1,7.6
				c0,8.8,4.4,16.5,11.2,21.1l0.2-0.3C140.5,148.2,136.1,140.6,136.1,131.9z"/>
			<path id="XMLID_2827_" class="st10" d="M138.4,131.9c0-2.4,0.4-4.6,1-6.8l-0.4-0.1c-0.7,2.2-1,4.5-1,6.9c0,8,4,15,10.2,19.2
				l0.2-0.3C142.4,146.7,138.4,139.8,138.4,131.9z"/>
			<path id="XMLID_2826_" class="st10" d="M149.5,149.2l0.2-0.3c-5.4-3.7-9-9.9-9-17c0-2.1,0.3-4.2,0.9-6.1l-0.4-0.1
				c-0.6,2-0.9,4-0.9,6.2C140.3,139.1,144,145.5,149.5,149.2z"/>
			<path id="XMLID_2825_" class="st10" d="M143,131.9c0-1.9,0.3-3.7,0.8-5.4l-0.4-0.1c-0.5,1.7-0.8,3.6-0.8,5.5
				c0,6.4,3.2,12,8.2,15.4l0.2-0.3C146.2,143.7,143,138.2,143,131.9z"/>
			<path id="XMLID_2824_" class="st10" d="M145.3,131.9c0-1.6,0.3-3.2,0.7-4.7l-0.4-0.1c-0.5,1.5-0.7,3.2-0.7,4.8
				c0,5.6,2.8,10.5,7.1,13.5l0.2-0.3C148.1,142.2,145.3,137.4,145.3,131.9z"/>
			<path id="XMLID_2823_" class="st10" d="M147.6,131.9c0-1.4,0.2-2.8,0.6-4l-0.4-0.1c-0.4,1.3-0.6,2.7-0.6,4.2
				c0,4.8,2.4,9.1,6.1,11.6l0.2-0.3C150,140.7,147.6,136.6,147.6,131.9z"/>
			<path id="XMLID_2822_" class="st10" d="M149.9,131.9c0-1.2,0.2-2.3,0.5-3.4l-0.4-0.1c-0.3,1.1-0.5,2.3-0.5,3.5c0,4,2,7.6,5.1,9.7
				l0.2-0.3C151.9,139.2,149.9,135.8,149.9,131.9z"/>
			<path id="XMLID_2821_" class="st10" d="M156,139.7l0.2-0.3c-2.4-1.6-3.9-4.4-3.9-7.4c0-0.9,0.1-1.8,0.4-2.7l-0.4-0.1
				c-0.3,0.9-0.4,1.8-0.4,2.8C151.9,135.1,153.5,138,156,139.7z"/>
			<path id="XMLID_2820_" class="st10" d="M154.6,131.9c0-0.7,0.1-1.3,0.3-2l-0.4-0.1c-0.2,0.7-0.4,1.4-0.4,2.1
				c0,2.4,1.2,4.6,3.1,5.9l0.2-0.3C155.7,136.3,154.6,134.2,154.6,131.9z"/>
		</g>
		<g id="XMLID_2795_">
			<path id="XMLID_2818_" class="st11" d="M161.3,76.8c0,0,0.1,0,0.1,0l0-0.4c0,0-0.1,0-0.1,0c-24.9,0-46,16.5-53,39.1l0.4,0.1
				C115.6,93.1,136.6,76.8,161.3,76.8z"/>
			<path id="XMLID_2817_" class="st11" d="M161.3,79.1c0,0,0.1,0,0.1,0l0-0.4c0,0-0.1,0-0.1,0c-23.9,0-44.1,15.8-50.8,37.4l0.4,0.1
				C117.5,94.8,137.6,79.1,161.3,79.1z"/>
			<path id="XMLID_2816_" class="st11" d="M112.6,116.8l0.4,0.1c6.4-20.6,25.6-35.5,48.2-35.5c0,0,0.1,0,0.1,0l0-0.4
				c0,0-0.1,0-0.1,0C138.4,81,119.1,96.1,112.6,116.8z"/>
			<path id="XMLID_2815_" class="st11" d="M161.3,83.7c0,0,0.1,0,0.1,0l0-0.4c0,0-0.1,0-0.1,0c-21.8,0-40.3,14.4-46.4,34.2l0.4,0.1
				C121.3,98,139.7,83.7,161.3,83.7z"/>
			<path id="XMLID_2814_" class="st11" d="M161.3,86c0,0,0.1,0,0.1,0l0-0.4c0,0-0.1,0-0.1,0c-20.7,0-38.4,13.7-44.2,32.6l0.4,0.1
				C123.2,99.6,140.7,86,161.3,86z"/>
			<path id="XMLID_2813_" class="st11" d="M161.3,88.3c0,0,0.1,0,0.1,0l0-0.4c0,0-0.1,0-0.1,0c-19.7,0-36.4,13-42,30.9l0.4,0.1
				C125.1,101.2,141.7,88.3,161.3,88.3z"/>
			<path id="XMLID_2812_" class="st11" d="M161.3,90.6c0,0,0.1,0,0.1,0l0-0.4c0,0-0.1,0-0.1,0c-18.7,0-34.5,12.4-39.8,29.3l0.4,0.1
				C127.1,102.9,142.8,90.6,161.3,90.6z"/>
			<path id="XMLID_2811_" class="st11" d="M123.7,120.2l0.4,0.1c4.9-15.9,19.8-27.4,37.2-27.4c0,0,0.1,0,0.1,0l0-0.4
				c0,0-0.1,0-0.1,0C143.6,92.5,128.6,104.2,123.7,120.2z"/>
			<path id="XMLID_2810_" class="st11" d="M161.3,95.2C161.3,95.2,161.3,95.2,161.3,95.2l0.1-0.4c0,0-0.1,0-0.1,0
				c-16.6,0-30.7,11-35.4,26.1l0.4,0.1C130.9,106.1,144.8,95.2,161.3,95.2z"/>
			<path id="XMLID_2809_" class="st11" d="M161.3,97.5C161.3,97.5,161.3,97.6,161.3,97.5l0.1-0.4c0,0-0.1,0-0.1,0
				c-15.6,0-28.8,10.3-33.2,24.5l0.4,0.1C132.8,107.7,145.9,97.5,161.3,97.5z"/>
			<path id="XMLID_2808_" class="st11" d="M161.3,99.9C161.3,99.9,161.3,99.9,161.3,99.9l0.1-0.4c0,0-0.1,0-0.1,0
				c-14.5,0-26.9,9.6-31,22.8l0.4,0.1C134.7,109.4,146.9,99.9,161.3,99.9z"/>
			<path id="XMLID_2807_" class="st11" d="M161.3,102.2C161.3,102.2,161.3,102.2,161.3,102.2l0.1-0.4c0,0-0.1,0-0.1,0
				c-13.5,0-25,8.9-28.8,21.2l0.4,0.1C136.6,111,147.9,102.2,161.3,102.2z"/>
			<path id="XMLID_2806_" class="st11" d="M134.7,123.7l0.4,0.1c3.5-11.2,13.9-19.3,26.2-19.3c0,0,0,0,0.1,0l0-0.4c0,0,0,0-0.1,0
				C148.8,104.1,138.2,112.3,134.7,123.7z"/>
			<path id="XMLID_2805_" class="st11" d="M161.3,106.8C161.3,106.8,161.3,106.8,161.3,106.8l0.1-0.4c0,0,0,0-0.1,0
				c-11.4,0-21.2,7.6-24.4,18l0.4,0.1C140.4,114.2,150,106.8,161.3,106.8z"/>
			<path id="XMLID_2804_" class="st11" d="M161.3,109.1C161.3,109.1,161.3,109.1,161.3,109.1l0.1-0.4c0,0,0,0-0.1,0
				c-10.4,0-19.3,6.9-22.2,16.3l0.4,0.1C142.3,115.8,151,109.1,161.3,109.1z"/>
			<path id="XMLID_2803_" class="st11" d="M161.3,111.4C161.3,111.4,161.3,111.4,161.3,111.4l0.1-0.4c0,0,0,0-0.1,0
				c-9.4,0-17.3,6.2-20,14.7l0.4,0.1C144.2,117.5,152.1,111.4,161.3,111.4z"/>
			<path id="XMLID_2802_" class="st11" d="M161.3,113.7C161.3,113.7,161.3,113.7,161.3,113.7l0-0.4c0,0,0,0,0,0
				c-8.3,0-15.4,5.5-17.8,13.1l0.4,0.1C146.2,119.1,153.1,113.7,161.3,113.7z"/>
			<path id="XMLID_2801_" class="st11" d="M145.7,127.1l0.4,0.1c2-6.5,8.1-11.2,15.2-11.2c0,0,0,0,0,0l0-0.4c0,0,0,0,0,0
				C153.9,115.6,147.7,120.4,145.7,127.1z"/>
			<path id="XMLID_2800_" class="st11" d="M161.3,118.3C161.3,118.3,161.3,118.3,161.3,118.3l0-0.4c0,0,0,0,0,0
				c-6.3,0-11.6,4.2-13.4,9.9l0.4,0.1C150,122.3,155.2,118.3,161.3,118.3z"/>
			<path id="XMLID_2799_" class="st11" d="M161.3,120.6C161.3,120.6,161.3,120.6,161.3,120.6l0-0.4c0,0,0,0,0,0
				c-5.2,0-9.7,3.5-11.2,8.2l0.4,0.1C151.9,124,156.2,120.6,161.3,120.6z"/>
			<path id="XMLID_2798_" class="st11" d="M161.3,122.9C161.3,122.9,161.3,122.9,161.3,122.9l0-0.4c0,0,0,0,0,0
				c-4.2,0-7.8,2.8-9,6.6l0.4,0.1C153.8,125.6,157.2,122.9,161.3,122.9z"/>
			<path id="XMLID_2797_" class="st11" d="M161.3,125.2C161.3,125.2,161.3,125.2,161.3,125.2l0-0.4c0,0,0,0,0,0
				c-3.2,0-5.8,2.1-6.7,5l0.4,0.1C155.7,127.2,158.3,125.2,161.3,125.2z"/>
			<path id="XMLID_2796_" class="st11" d="M156.7,130.5l0.4,0.1c0.6-1.8,2.2-3.1,4.2-3.1c0,0,0,0,0,0l0-0.4c0,0,0,0,0,0
				C159.1,127.1,157.3,128.6,156.7,130.5z"/>
		</g>
		<g id="XMLID_2771_" class="st12">
			<path id="XMLID_2794_" class="st4" d="M216.4,131.9c0,18.9-9.6,35.6-24.1,45.5l0.2,0.3c14.6-10,24.3-26.8,24.3-45.9
				c0-5.6-0.8-11-2.4-16.1L214,116C215.6,121,216.4,126.4,216.4,131.9z"/>
			<path id="XMLID_2793_" class="st4" d="M214.5,131.9c0-5.4-0.8-10.5-2.3-15.4l-0.4,0.1c1.5,4.8,2.3,10,2.3,15.3
				c0,18.1-9.2,34.1-23.1,43.6l0.2,0.3C205.2,166.3,214.5,150.2,214.5,131.9z"/>
			<path id="XMLID_2792_" class="st4" d="M211.8,131.9c0,17.3-8.8,32.6-22.1,41.7l0.2,0.3c13.4-9.2,22.3-24.6,22.3-42.1
				c0-5.1-0.8-10.1-2.2-14.7l-0.4,0.1C211,121.9,211.8,126.8,211.8,131.9z"/>
			<path id="XMLID_2791_" class="st4" d="M209.5,131.9c0,16.5-8.4,31.1-21.1,39.8l0.2,0.3c12.8-8.8,21.3-23.5,21.3-40.2
				c0-4.9-0.7-9.6-2.1-14.1l-0.4,0.1C208.7,122.4,209.5,127.1,209.5,131.9z"/>
			<path id="XMLID_2790_" class="st4" d="M207.2,131.9c0,15.7-8,29.7-20.1,37.9l0.2,0.3c12.2-8.3,20.2-22.4,20.2-38.2
				c0-4.7-0.7-9.2-2-13.4l-0.4,0.1C206.5,122.8,207.2,127.3,207.2,131.9z"/>
			<path id="XMLID_2789_" class="st4" d="M204.9,131.9c0,14.9-7.6,28.2-19.1,36l0.2,0.3c11.6-7.9,19.2-21.3,19.2-36.3
				c0-4.4-0.7-8.7-1.9-12.7l-0.4,0.1C204.2,123.3,204.9,127.5,204.9,131.9z"/>
			<path id="XMLID_2788_" class="st4" d="M202.9,131.9c0-4.2-0.6-8.2-1.8-12.1l-0.4,0.1c1.1,3.8,1.8,7.8,1.8,12
				c0,14.2-7.2,26.7-18.1,34.1l0.2,0.3C195.7,158.8,202.9,146.2,202.9,131.9z"/>
			<path id="XMLID_2787_" class="st4" d="M200.2,131.9c0,13.4-6.8,25.2-17,32.2l0.2,0.3c10.4-7.1,17.2-19,17.2-32.5
				c0-4-0.6-7.8-1.7-11.4l-0.4,0.1C199.7,124.2,200.2,128,200.2,131.9z"/>
			<path id="XMLID_2786_" class="st4" d="M197.9,131.9c0,12.6-6.4,23.7-16,30.3l0.2,0.3c9.8-6.7,16.2-17.9,16.2-30.6
				c0-3.7-0.6-7.3-1.6-10.7l-0.4,0.1C197.4,124.7,197.9,128.2,197.9,131.9z"/>
			<path id="XMLID_2785_" class="st4" d="M195.6,131.9c0,11.8-6,22.2-15,28.4l0.2,0.3c9.2-6.3,15.2-16.8,15.2-28.7
				c0-3.5-0.5-6.9-1.5-10.1l-0.4,0.1C195.1,125.1,195.6,128.5,195.6,131.9z"/>
			<path id="XMLID_2784_" class="st4" d="M193.3,131.9c0,11-5.6,20.7-14,26.5l0.2,0.3c8.6-5.9,14.2-15.7,14.2-26.8
				c0-3.3-0.5-6.4-1.4-9.4l-0.4,0.1C192.8,125.6,193.3,128.7,193.3,131.9z"/>
			<path id="XMLID_2783_" class="st4" d="M191.4,131.9c0-3-0.5-6-1.3-8.7l-0.4,0.1c0.8,2.7,1.3,5.6,1.3,8.6c0,10.2-5.2,19.2-13,24.6
				l0.2,0.3C186.2,151.4,191.4,142.3,191.4,131.9z"/>
			<path id="XMLID_2782_" class="st4" d="M188.7,131.9c0,9.4-4.8,17.7-12,22.7l0.2,0.3c7.3-5,12.2-13.5,12.2-23
				c0-2.8-0.4-5.5-1.2-8.1l-0.4,0.1C188.3,126.5,188.7,129.2,188.7,131.9z"/>
			<path id="XMLID_2781_" class="st4" d="M186.4,131.9c0,8.6-4.4,16.2-11,20.8l0.2,0.3c6.7-4.6,11.2-12.3,11.2-21.1
				c0-2.6-0.4-5.1-1.1-7.4l-0.4,0.1C186,126.9,186.4,129.4,186.4,131.9z"/>
			<path id="XMLID_2780_" class="st4" d="M184.1,131.9c0,7.8-4,14.8-10,18.9l0.2,0.3c6.1-4.2,10.2-11.2,10.2-19.2
				c0-2.3-0.4-4.6-1-6.7l-0.4,0.1C183.8,127.4,184.1,129.6,184.1,131.9z"/>
			<path id="XMLID_2779_" class="st4" d="M181.8,131.9c0,7-3.6,13.3-9,17l0.2,0.3c5.5-3.8,9.2-10.1,9.2-17.3c0-2.1-0.3-4.1-0.9-6.1
				l-0.4,0.1C181.5,127.9,181.8,129.9,181.8,131.9z"/>
			<path id="XMLID_2778_" class="st4" d="M179.9,131.9c0-1.9-0.3-3.7-0.8-5.4l-0.4,0.1c0.5,1.7,0.8,3.4,0.8,5.3
				c0,6.3-3.2,11.8-8,15.1l0.2,0.3C176.7,144,179.9,138.3,179.9,131.9z"/>
			<path id="XMLID_2777_" class="st4" d="M177.2,131.9c0,5.5-2.8,10.3-7,13.2l0.2,0.3c4.3-2.9,7.1-7.9,7.1-13.5
				c0-1.6-0.2-3.2-0.7-4.7l-0.4,0.1C176.9,128.8,177.2,130.3,177.2,131.9z"/>
			<path id="XMLID_2776_" class="st4" d="M174.9,131.9c0,4.7-2.4,8.8-6,11.3l0.2,0.3c3.7-2.5,6.1-6.8,6.1-11.6
				c0-1.4-0.2-2.8-0.6-4.1l-0.4,0.1C174.7,129.2,174.9,130.6,174.9,131.9z"/>
			<path id="XMLID_2775_" class="st4" d="M172.6,131.9c0,3.9-2,7.3-4.9,9.3l0.2,0.3c3.1-2.1,5.1-5.7,5.1-9.7c0-1.2-0.2-2.3-0.5-3.4
				l-0.4,0.1C172.4,129.7,172.6,130.8,172.6,131.9z"/>
			<path id="XMLID_2774_" class="st4" d="M170.3,131.9c0,3.1-1.6,5.8-3.9,7.4l0.2,0.3c2.5-1.7,4.1-4.5,4.1-7.8
				c0-0.9-0.1-1.9-0.4-2.7l-0.4,0.1C170.1,130.1,170.3,131,170.3,131.9z"/>
			<path id="XMLID_2773_" class="st4" d="M168.4,131.9c0-0.7-0.1-1.4-0.3-2l-0.4,0.1c0.2,0.6,0.3,1.3,0.3,1.9c0,2.3-1.2,4.3-2.9,5.5
				l0.2,0.3C167.1,136.5,168.4,134.4,168.4,131.9z"/>
			<path id="XMLID_2772_" class="st4" d="M165.7,131.9c0,1.5-0.8,2.8-1.9,3.6l0.2,0.3c1.3-0.9,2.1-2.3,2.1-4c0-0.5-0.1-0.9-0.2-1.4
				l-0.4,0.1C165.6,131.1,165.7,131.5,165.7,131.9z"/>
		</g>
		<g id="XMLID_2747_">
			<path id="XMLID_2770_" class="st4" d="M214,116l0.4-0.1c-6.9-22.8-28-39.4-53-39.4l0,0.4C186.2,76.9,207.2,93.4,214,116z"/>
			<path id="XMLID_2769_" class="st4" d="M211.8,116.6l0.4-0.1c-6.6-21.8-26.9-37.7-50.8-37.8l0,0.4
				C185.1,79.2,205.3,95,211.8,116.6z"/>
			<path id="XMLID_2768_" class="st4" d="M209.6,117.3l0.4-0.1c-6.3-20.9-25.7-36.1-48.6-36.2l0,0.4
				C184.1,81.5,203.3,96.6,209.6,117.3z"/>
			<path id="XMLID_2767_" class="st4" d="M207.4,118l0.4-0.1c-6-19.9-24.5-34.5-46.4-34.5l0,0.4C183.1,83.8,201.4,98.2,207.4,118z"
				/>
			<path id="XMLID_2766_" class="st4" d="M161.4,85.6l0,0.4c20.6,0.1,38.1,13.8,43.8,32.6l0.4-0.1C199.8,99.5,182.2,85.7,161.4,85.6
				z"/>
			<path id="XMLID_2765_" class="st4" d="M203,119.3l0.4-0.1c-5.5-18-22.2-31.2-42-31.2l0,0.4C181,88.4,197.6,101.4,203,119.3z"/>
			<path id="XMLID_2764_" class="st4" d="M200.8,120l0.4-0.1c-5.2-17.1-21-29.6-39.8-29.6l0,0.4C179.9,90.7,195.7,103,200.8,120z"/>
			<path id="XMLID_2763_" class="st4" d="M198.6,120.6l0.4-0.1c-4.9-16.1-19.9-27.9-37.6-28l0,0.4C178.9,93,193.7,104.7,198.6,120.6
				z"/>
			<path id="XMLID_2762_" class="st4" d="M196.4,121.3l0.4-0.1c-4.6-15.2-18.7-26.3-35.4-26.3l0,0.4
				C177.8,95.3,191.8,106.3,196.4,121.3z"/>
			<path id="XMLID_2761_" class="st4" d="M161.4,97.2l0,0.4c15.5,0,28.5,10.3,32.8,24.4l0.4-0.1C190.2,107.6,177,97.2,161.4,97.2z"
				/>
			<path id="XMLID_2760_" class="st4" d="M191.9,122.6l0.4-0.1c-4-13.3-16.4-23-31-23.1l0,0.4C175.8,99.9,188,109.5,191.9,122.6z"/>
			<path id="XMLID_2759_" class="st4" d="M189.7,123.3l0.4-0.1c-3.7-12.4-15.2-21.4-28.8-21.4l0,0.4
				C174.7,102.2,186,111.1,189.7,123.3z"/>
			<path id="XMLID_2758_" class="st4" d="M187.5,124l0.4-0.1c-3.5-11.4-14.1-19.7-26.6-19.8l0,0.4
				C173.7,104.5,184.1,112.7,187.5,124z"/>
			<path id="XMLID_2757_" class="st4" d="M185.3,124.6l0.4-0.1c-3.2-10.5-12.9-18.1-24.4-18.1l0,0.4
				C172.6,106.8,182.2,114.3,185.3,124.6z"/>
			<path id="XMLID_2756_" class="st4" d="M161.3,108.7l0,0.4c10.3,0,19,6.9,21.8,16.2l0.4-0.1C180.6,115.7,171.8,108.7,161.3,108.7z
				"/>
			<path id="XMLID_2755_" class="st4" d="M180.9,126l0.4-0.1c-2.6-8.6-10.6-14.8-20-14.9l0,0.4C170.6,111.4,178.4,117.6,180.9,126z"
				/>
			<path id="XMLID_2754_" class="st4" d="M178.7,126.6l0.4-0.1c-2.3-7.6-9.4-13.2-17.8-13.2l0,0.4
				C169.5,113.7,176.4,119.2,178.7,126.6z"/>
			<path id="XMLID_2753_" class="st4" d="M176.5,127.3l0.4-0.1c-2-6.7-8.2-11.6-15.6-11.6l0,0.4C168.5,116,174.5,120.8,176.5,127.3z
				"/>
			<path id="XMLID_2752_" class="st4" d="M174.3,128l0.4-0.1c-1.7-5.7-7.1-9.9-13.4-10l0,0.4C167.4,118.3,172.6,122.4,174.3,128z"/>
			<path id="XMLID_2751_" class="st4" d="M161.3,120.2l0,0.4c5.1,0,9.4,3.4,10.8,8l0.4-0.1C171,123.7,166.6,120.2,161.3,120.2z"/>
			<path id="XMLID_2750_" class="st4" d="M169.9,129.3l0.4-0.1c-1.2-3.9-4.7-6.7-9-6.7l0,0.4C165.3,122.9,168.8,125.6,169.9,129.3z"
				/>
			<path id="XMLID_2749_" class="st4" d="M167.6,130l0.4-0.1c-0.9-2.9-3.6-5-6.7-5l0,0.4C164.3,125.2,166.8,127.2,167.6,130z"/>
			<path id="XMLID_2748_" class="st4" d="M165.5,130.7l0.4-0.1c-0.6-2-2.4-3.4-4.5-3.4l0,0.4C163.3,127.5,164.9,128.9,165.5,130.7z"
				/>
		</g>
		<g id="XMLID_2723_" class="st13">
			<path id="XMLID_2746_" class="st4" d="M192.3,177.5c-8.8,6-19.5,9.6-31,9.6c-11.5,0-22.2-3.5-31-9.6l-0.2,0.3
				c8.9,6.1,19.6,9.6,31.2,9.6c11.6,0,22.3-3.6,31.2-9.7L192.3,177.5"/>
			<path id="XMLID_2745_" class="st4" d="M161.3,184.7c-11,0-21.2-3.4-29.7-9.2l-0.2,0.3c8.5,5.8,18.8,9.2,29.9,9.2
				c11.1,0,21.4-3.4,29.9-9.3l-0.2-0.3C182.5,181.4,172.3,184.7,161.3,184.7z"/>
			<path id="XMLID_2744_" class="st4" d="M161.3,182.4c-10.5,0-20.3-3.2-28.4-8.8l-0.2,0.3c8.2,5.6,18,8.8,28.6,8.8
				c10.6,0,20.5-3.3,28.6-8.9l-0.2-0.3C181.6,179.2,171.8,182.4,161.3,182.4z"/>
			<path id="XMLID_2743_" class="st4" d="M188.6,172.1l-0.2-0.3c-7.7,5.3-17.1,8.4-27.1,8.4c-10,0-19.4-3.1-27.1-8.4l-0.2,0.3
				c7.8,5.3,17.2,8.4,27.3,8.4C171.4,180.5,180.8,177.4,188.6,172.1z"/>
			<path id="XMLID_2742_" class="st4" d="M161.3,177.8c-9.6,0-18.4-2.9-25.8-8l-0.2,0.3c7.4,5.1,16.4,8,26,8c9.7,0,18.6-3,26.1-8
				l-0.2-0.3C179.7,174.9,170.8,177.8,161.3,177.8z"/>
			<path id="XMLID_2741_" class="st4" d="M161.3,175.5c-9.1,0-17.5-2.8-24.5-7.6l-0.2,0.3c7.1,4.8,15.6,7.6,24.7,7.6
				c9.2,0,17.7-2.8,24.8-7.6l-0.2-0.3C178.8,172.7,170.4,175.5,161.3,175.5z"/>
			<path id="XMLID_2740_" class="st4" d="M161.3,173.2c-8.6,0-16.6-2.6-23.2-7.2l-0.2,0.3c6.7,4.6,14.8,7.2,23.4,7.2
				c8.7,0,16.8-2.7,23.5-7.2l-0.2-0.3C177.9,170.6,169.9,173.2,161.3,173.2z"/>
			<path id="XMLID_2739_" class="st4" d="M161.3,170.9c-8.1,0-15.7-2.5-21.9-6.8l-0.2,0.3c6.3,4.3,13.9,6.8,22.1,6.8
				c8.2,0,15.8-2.5,22.2-6.8l-0.2-0.3C176.9,168.4,169.4,170.9,161.3,170.9z"/>
			<path id="XMLID_2738_" class="st4" d="M182.1,162.6l-0.2-0.3c-5.9,4-13,6.4-20.6,6.4c-7.6,0-14.7-2.4-20.6-6.4l-0.2,0.3
				c5.9,4.1,13.1,6.4,20.8,6.4C169,169,176.2,166.6,182.1,162.6z"/>
			<path id="XMLID_2737_" class="st4" d="M161.3,166.3c-7.2,0-13.8-2.2-19.3-6l-0.2,0.3c5.6,3.8,12.3,6,19.5,6c7.3,0,14-2.2,19.6-6
				l-0.2-0.3C175.1,164.1,168.4,166.3,161.3,166.3z"/>
			<path id="XMLID_2736_" class="st4" d="M161.3,164c-6.7,0-12.9-2.1-18-5.6l-0.2,0.3c5.2,3.6,11.5,5.6,18.2,5.6
				c6.8,0,13.1-2.1,18.3-5.6l-0.2-0.3C174.2,161.9,168,164,161.3,164z"/>
			<path id="XMLID_2735_" class="st4" d="M161.3,161.7c-6.2,0-12-1.9-16.7-5.2l-0.2,0.3c4.8,3.3,10.7,5.2,16.9,5.2
				c6.3,0,12.1-1.9,17-5.2l-0.2-0.3C173.2,159.8,167.5,161.7,161.3,161.7z"/>
			<path id="XMLID_2734_" class="st4" d="M161.3,159.4c-5.7,0-11-1.8-15.4-4.8l-0.2,0.3c4.5,3,9.9,4.8,15.7,4.8
				c5.8,0,11.2-1.8,15.7-4.8l-0.2-0.3C172.3,157.6,167,159.4,161.3,159.4z"/>
			<path id="XMLID_2733_" class="st4" d="M175.6,153l-0.2-0.3c-4,2.8-8.9,4.4-14.2,4.4c-5.2,0-10.1-1.6-14.1-4.4l-0.2,0.3
				c4.1,2.8,9,4.4,14.4,4.4C166.6,157.5,171.5,155.8,175.6,153z"/>
			<path id="XMLID_2732_" class="st4" d="M161.3,154.8c-4.8,0-9.2-1.5-12.8-4l-0.2,0.3c3.7,2.5,8.2,4,13.1,4c4.8,0,9.3-1.5,13.1-4
				l-0.2-0.3C170.5,153.3,166,154.8,161.3,154.8z"/>
			<path id="XMLID_2731_" class="st4" d="M161.3,152.5c-4.3,0-8.3-1.3-11.5-3.6l-0.2,0.3c3.4,2.3,7.4,3.6,11.8,3.6
				c4.4,0,8.4-1.3,11.8-3.6l-0.2-0.3C169.5,151.1,165.5,152.5,161.3,152.5z"/>
			<path id="XMLID_2730_" class="st4" d="M161.3,150.2c-3.8,0-7.3-1.2-10.2-3.2l-0.2,0.3c3,2,6.6,3.2,10.5,3.2
				c3.9,0,7.5-1.2,10.5-3.2l-0.2-0.3C168.6,149,165.1,150.2,161.3,150.2z"/>
			<path id="XMLID_2729_" class="st4" d="M161.3,147.9c-3.3,0-6.4-1-9-2.8l-0.2,0.3c2.6,1.8,5.8,2.8,9.2,2.8c3.4,0,6.6-1.1,9.2-2.8
				l-0.2-0.3C167.7,146.8,164.6,147.9,161.3,147.9z"/>
			<path id="XMLID_2728_" class="st4" d="M169.1,143.5l-0.2-0.3c-2.2,1.5-4.8,2.4-7.7,2.4c-2.8,0-5.5-0.9-7.7-2.4l-0.2,0.3
				c2.2,1.5,5,2.4,7.9,2.4C164.2,145.9,166.9,145,169.1,143.5z"/>
			<path id="XMLID_2727_" class="st4" d="M161.3,143.2c-2.4,0-4.5-0.7-6.4-2l-0.2,0.3c1.9,1.3,4.1,2,6.6,2c2.4,0,4.7-0.8,6.6-2
				l-0.2-0.3C165.8,142.5,163.6,143.2,161.3,143.2z"/>
			<path id="XMLID_2726_" class="st4" d="M161.3,140.9c-1.9,0-3.6-0.6-5.1-1.6l-0.2,0.3c1.5,1,3.3,1.6,5.3,1.6c2,0,3.8-0.6,5.3-1.6
				l-0.2-0.3C164.9,140.4,163.1,140.9,161.3,140.9z"/>
			<path id="XMLID_2725_" class="st4" d="M161.3,138.6c-1.4,0-2.7-0.4-3.8-1.2l-0.2,0.3c1.1,0.8,2.5,1.2,4,1.2c1.5,0,2.9-0.5,4-1.2
				l-0.2-0.3C164,138.2,162.7,138.6,161.3,138.6z"/>
			<path id="XMLID_2724_" class="st4" d="M161.3,136.3c-0.9,0-1.8-0.3-2.5-0.8l-0.2,0.3c0.8,0.5,1.7,0.8,2.7,0.8
				c1,0,1.9-0.3,2.7-0.8l-0.2-0.3C163,136,162.2,136.3,161.3,136.3z"/>
		</g>
		<path id="XMLID_2722_" class="st14" d="M108.2,115.5c7-22.6,28.1-39.1,53-39.1"/>
		<path id="XMLID_2721_" class="st15" d="M130.2,178c-14.8-10-24.5-26.9-24.5-46c0-5.7,0.9-11.3,2.5-16.5"/>
		<path id="XMLID_2720_" class="st16" d="M192.5,177.8c-8.9,6.1-19.7,9.6-31.3,9.6c-11.5,0-22.2-3.5-31-9.5"/>
		<path id="XMLID_2719_" class="st17" d="M214.3,115.4c1.6,5.2,2.5,10.8,2.5,16.5c0,19.1-9.6,35.9-24.3,45.9"/>
		<path id="XMLID_2718_" class="st18" d="M161.3,76.4c24.9,0,46,16.4,53,39"/>
	</g>
	<circle id="XMLID_2716_" class="st4" cx="161.5" cy="187.4" r="1.3"/>
	<circle id="XMLID_2715_" class="st4" cx="212.6" cy="155" r="1.3"/>
	<circle id="XMLID_2714_" class="st4" cx="109.6" cy="154.9" r="1.3"/>
	<circle id="XMLID_2713_" class="st4" cx="211.3" cy="105" r="1.3"/>
	<circle id="XMLID_2712_" class="st4" cx="113.5" cy="101.7" r="1.3"/>
	<circle id="XMLID_2711_" class="st5" cx="161.3" cy="132.2" r="29.3"/>
	<g id="XMLID_2706_">
		<line id="XMLID_2710_" class="st19" x1="130" y1="226.1" x2="192.5" y2="226.1"/>
		<line id="XMLID_2707_" class="st20" x1="161.3" y1="226.1" x2="161.3" y2="187.4"/>
	</g>
	<g id="XMLID_2703_">
		<line id="XMLID_2705_" class="st19" x1="233.4" y1="200.2" x2="261.2" y2="144.3"/>
		<line id="XMLID_2704_" class="st20" x1="247.3" y1="172.3" x2="212.6" y2="155"/>
	</g>
	<g id="XMLID_2562_">
		<line id="XMLID_2702_" class="st19" x1="61" y1="144.5" x2="89.2" y2="200.2"/>
		<line id="XMLID_2701_" class="st20" x1="75.1" y1="172.4" x2="109.6" y2="154.9"/>
	</g>
	<g id="XMLID_2560_">
		<g id="XMLID_97_">
			<circle id="XMLID_98_" cx="161.5" cy="211.1" r="7"/>
		</g>
	</g>
	<g id="XMLID_2464_">
		<rect id="XMLID_80_" x="156.6" y="206.9" class="st7" width="9.7" height="15.3"/>
		<text id="XMLID_2468_" transform="matrix(1 0 0 1 158.6322 214.4911)" class="st5 st8 st9">3</text>
	</g>
	<g id="XMLID_2456_">
		<g id="XMLID_100_">
			<circle id="XMLID_103_" cx="226.5" cy="162.1" r="7"/>
		</g>
	</g>
	<g id="XMLID_2449_">
		<rect id="XMLID_15_" x="221.6" y="157.9" class="st7" width="9.7" height="15.3"/>
		<text id="XMLID_2452_" transform="matrix(1 0 0 1 223.6324 165.4911)" class="st5 st8 st9">2</text>
	</g>
	<g id="XMLID_2433_">
		<g id="XMLID_104_">
			<circle id="XMLID_105_" cx="94.5" cy="164.1" r="7"/>
		</g>
	</g>
	<g id="XMLID_2384_">
		<rect id="XMLID_63_" x="89.6" y="159.9" class="st7" width="9.7" height="15.3"/>
		<text id="XMLID_2408_" transform="matrix(1 0 0 1 91.6322 167.4911)" class="st5 st8 st9">4</text>
	</g>
	<rect id="XMLID_59_" x="129.4" y="232.2" class="st7" width="64.2" height="11.5"/>
	<text id="XMLID_2134_" transform="matrix(1 0 0 1 129.398 239.8255)" class="st21 st9">Приватный токен 3</text>
	
		<rect id="XMLID_57_" x="212.5" y="70.7" transform="matrix(0.7071 0.7071 -0.7071 0.7071 127.2502 -154.4151)" class="st7" width="75" height="11.5"/>
	<text id="XMLID_2132_" transform="matrix(0.7071 0.7071 -0.7071 0.7071 222.2043 51.1694)" class="st21 st9">Приватный токен 1</text>
	
		<rect id="XMLID_14_" x="220.6" y="166.5" transform="matrix(0.4211 -0.907 0.907 0.4211 -6.84 333.8448)" class="st7" width="75" height="11.5"/>
	<text id="XMLID_2130_" transform="matrix(0.4211 -0.907 0.907 0.4211 243.9983 207.0162)" class="st21 st9">Приватный токен 2</text>
	
		<rect id="XMLID_13_" x="28.9" y="172.5" transform="matrix(0.4594 0.8882 -0.8882 0.4594 194.2112 37.3826)" class="st7" width="75" height="11.5"/>
	<text id="XMLID_2128_" transform="matrix(0.4594 0.8882 -0.8882 0.4595 47.5497 145.8308)" class="st21 st9">Приватный токен 2</text>
	
		<rect id="XMLID_12_" x="38.6" y="70.7" transform="matrix(0.5328 -0.8462 0.8462 0.5328 -30.5017 97.5607)" class="st7" width="68.9" height="11.5"/>
	<text id="XMLID_2124_" transform="matrix(0.5328 -0.8462 0.8463 0.5328 56.3119 106.6042)" class="st21 st9">Приватный токен 5</text>
	<g id="XMLID_2032_">
		<line id="XMLID_2058_" class="st19" x1="97.4" y1="54.6" x2="64.1" y2="107.5"/>
		<line id="XMLID_2056_" class="st20" x1="80.7" y1="81.1" x2="113.5" y2="101.7"/>
	</g>
	<g id="XMLID_1994_">
		<line id="XMLID_2010_" class="st19" x1="260.8" y1="100.3" x2="217.2" y2="55.6"/>
		<line id="XMLID_1997_" class="st20" x1="239" y1="77.9" x2="211.3" y2="105"/>
	</g>
	<g id="XMLID_1850_">
		<g id="XMLID_1990_">
			<g id="XMLID_106_">
				<circle id="XMLID_107_" cx="101.5" cy="94.1" r="7"/>
			</g>
		</g>
		<g id="XMLID_1862_">
			<rect id="XMLID_11_" x="96.6" y="89.9" class="st7" width="9.7" height="15.3"/>
			<text id="XMLID_1988_" transform="matrix(1 0 0 1 98.6322 97.4911)" class="st5 st8 st9">5</text>
		</g>
	</g>
	<g id="XMLID_1623_">
		<g id="XMLID_1846_">
			<g id="XMLID_108_">
				<circle id="XMLID_109_" cx="223.5" cy="93.1" r="7"/>
			</g>
		</g>
		<g id="XMLID_1637_">
			<rect id="XMLID_10_" x="218.6" y="88.9" class="st7" width="9.7" height="15.3"/>
			<text id="XMLID_1639_" transform="matrix(1 0 0 1 220.6324 96.4911)" class="st5 st8 st9">1</text>
		</g>
	</g>
	<rect id="XMLID_9_" x="132.8" y="122.9" class="st7" width="59.2" height="19.5"/>
	<text id="XMLID_2615_" transform="matrix(1 0 0 1 140.5782 129.737)"><tspan x="0" y="0" class="st4 st22 st23">Публичный</tspan><tspan x="10.1" y="10.8" class="st4 st22 st23"> токен</tspan></text>
</g>
</svg>
