<?xml version="1.0" encoding="utf-8"?>
<!-- Generator: Adobe Illustrator 19.0.0, SVG Export Plug-In . SVG Version: 6.00 Build 0)  -->
<svg version="1.1" id="Layer_1" xmlns="http://www.w3.org/2000/svg" xmlns:xlink="http://www.w3.org/1999/xlink" x="0px" y="0px"
	 viewBox="0 0 324.7 287.9" style="enable-background:new 0 0 324.7 287.9;" xml:space="preserve">
<style type="text/css">
	.st0{opacity:0.2;}
	.st1{fill:none;stroke:#00A6FF;stroke-width:0.273;stroke-miterlimit:10;}
	.st2{opacity:0.4;}
	.st3{opacity:0.2;fill:none;stroke:#00A6FF;stroke-width:0.273;stroke-miterlimit:10;}
	.st4{opacity:0.1;}
	.st5{fill:#00A6FF;}
	.st6{fill:#FFFFFF;}
	.st7{fill:none;}
	.st8{font-family:'OpenSansCondensed-Bold';}
	.st9{font-size:21.1207px;}
	.st10{fill:#333333;}
	.st11{font-family:'OpenSansCondensed-Light';}
	.st12{font-size:14.0215px;}
	.st13{fill:none;stroke:#00A6FF;stroke-width:2.184;stroke-miterlimit:10;stroke-dasharray:0.2183,1.0913;}
	.st14{opacity:0.3;}
	.st15{fill:none;stroke:#00A6FF;stroke-width:2.184;stroke-miterlimit:10;}
	.st16{fill:none;stroke:#00A6FF;stroke-width:2.184;stroke-miterlimit:10;stroke-dasharray:0.2178,1.0891;}
	.st17{fill:none;stroke:#00A6FF;stroke-width:2.184;stroke-miterlimit:10;stroke-dasharray:0.4409,0.8818;}
	.st18{font-size:10px;}
	.st19{font-size:8.7361px;}
	.st20{font-size:12.0121px;}
	.st21{fill:none;stroke:#00A6FF;stroke-width:0.546;stroke-miterlimit:10;}
	.st22{fill:none;stroke:#00A6FF;stroke-width:0.546;stroke-miterlimit:10;stroke-dasharray:0.2216,1.1082;}
	.st23{fill:none;stroke:#00A6FF;stroke-width:2.184;stroke-miterlimit:10;stroke-dasharray:0.4368,0.8736;}
	.st24{opacity:0.3;fill:none;stroke:#00A6FF;stroke-width:2.184;stroke-miterlimit:10;stroke-dasharray:0.2184,1.092;}
	.st25{fill:none;stroke:#00A6FF;stroke-width:2.5791;stroke-miterlimit:10;stroke-dasharray:0.5158,1.0316;}
</style>
<g id="XMLID_189_">
	<g id="XMLID_1511_" class="st0">
		<g id="XMLID_284_">
			<line id="XMLID_286_" class="st1" x1="127.5" y1="199.9" x2="192.5" y2="87.3"/>
		</g>
		<g id="XMLID_273_">
			<line id="XMLID_277_" class="st1" x1="103.7" y1="176.1" x2="216.3" y2="111.1"/>
		</g>
		<g id="XMLID_269_">
			<line id="XMLID_270_" class="st1" x1="95" y1="143.6" x2="225.1" y2="143.6"/>
		</g>
		<g id="XMLID_266_">
			<line id="XMLID_267_" class="st1" x1="103.7" y1="111.1" x2="216.3" y2="176.1"/>
		</g>
		<g id="XMLID_263_">
			<line id="XMLID_264_" class="st1" x1="127.5" y1="87.3" x2="192.5" y2="199.9"/>
		</g>
		<g id="XMLID_260_">
			<line id="XMLID_261_" class="st1" x1="160" y1="78.6" x2="160" y2="208.7"/>
		</g>
	</g>
	<g id="XMLID_1340_">
		<g id="XMLID_1438_" class="st2">
			<circle id="XMLID_121_" class="st3" cx="160" cy="143.6" r="63.4"/>
			<circle id="XMLID_178_" class="st3" cx="160" cy="143.6" r="60"/>
			<circle id="XMLID_166_" class="st3" cx="160" cy="143.6" r="56.7"/>
			<circle id="XMLID_164_" class="st3" cx="160" cy="143.6" r="53.3"/>
			<circle id="XMLID_143_" class="st3" cx="160" cy="143.6" r="50"/>
			<circle id="XMLID_142_" class="st3" cx="160" cy="143.6" r="46.6"/>
			<circle id="XMLID_141_" class="st3" cx="160" cy="143.6" r="43.3"/>
			<circle id="XMLID_138_" class="st3" cx="160" cy="143.6" r="39.9"/>
			<circle id="XMLID_132_" class="st3" cx="160" cy="143.6" r="36.6"/>
			<circle id="XMLID_125_" class="st3" cx="160" cy="143.6" r="33.2"/>
			<circle id="XMLID_124_" class="st3" cx="160" cy="143.6" r="29.9"/>
			<circle id="XMLID_123_" class="st3" cx="160" cy="143.6" r="26.5"/>
			<circle id="XMLID_122_" class="st3" cx="160" cy="143.6" r="23.1"/>
			<circle id="XMLID_120_" class="st3" cx="160" cy="143.6" r="19.8"/>
		</g>
		<g id="XMLID_1435_" class="st4">
			<path id="XMLID_83_" class="st5" d="M206.3,167.2c-1.7,7-8.5,15.2-15,18.2l-12.8,5.9c-6.5,3-17.3,3.2-24,0.5L116.3,176
				c-6.7-2.8-10.7-10.7-9.1-17.7l9.3-39c1.7-7,8.8-14,15.9-15.5l44.5-9.5c7-1.5,16.2,2.1,20.2,8.1l11,16c4.1,5.9,6,16.5,4.3,23.5
				L206.3,167.2z"/>
		</g>
		<g id="XMLID_1431_" class="st4">
			<path id="XMLID_196_" class="st5" d="M106,121.2c0.7-7.2,6.8-15,13.6-17.5l52.3-18.8c6.8-2.4,15.6,0.5,19.5,6.5l21.5,32.8
				c4,6,5.1,16.5,2.5,23.2l-2.3,6.1c-2.6,6.7-9.1,16.1-14.6,20.8l-29.7,25.9c-5.4,4.7-14.4,4.8-19.8,0.1L112.3,169
				c-5.5-4.7-9.4-14.4-8.7-21.6L106,121.2z"/>
		</g>
		<g id="XMLID_1363_" class="st4">
			<path id="XMLID_218_" class="st5" d="M211.2,174.3c-2,6.9-9.4,13.5-16.5,14.5l-35,5c-7.1,1-17.3-2.1-22.7-7l-30-27.3
				c-5.3-4.9-6.5-13.8-2.7-19.9l16.6-26.4c3.8-6.1,12.8-12.1,19.9-13.4l32.4-5.8c7.1-1.3,16.3,2.5,20.4,8.4l19.5,27.9
				c4.1,5.9,5.9,16.4,4,23.3L211.2,174.3z"/>
		</g>
		<g id="XMLID_1358_" class="st4">
			<path id="XMLID_221_" class="st5" d="M214.4,137.9c2.9,6.6,1.3,16.4-3.6,21.7l-24.4,26.7c-4.9,5.3-14.7,9.4-21.9,9l-41.3-2.1
				c-7.2-0.4-13.8-6.5-14.7-13.7l-4-31.7c-0.9-7.1,2.2-17.5,6.8-23l21.8-25.6c4.7-5.5,14.2-8.4,21.1-6.5l33.5,9.3
				c6.9,1.9,15,8.9,17.9,15.5L214.4,137.9z"/>
		</g>
		<circle id="XMLID_1356_" class="st6" cx="160" cy="143.6" r="44.5"/>
		<rect id="XMLID_304_" x="124.6" y="126.9" class="st7" width="70.8" height="41.7"/>
		<text id="XMLID_1352_" transform="matrix(1 0 0 1 137.3367 142.9136)"><tspan x="0" y="0" class="st5 st8 st9">100%</tspan><tspan x="-3.7" y="16.8" class="st10 st11 st12">(3.500,000)</tspan></text>
		<g id="XMLID_1346_">
			<circle id="XMLID_76_" class="st13" cx="160" cy="143.6" r="41.7"/>
		</g>
		<circle id="XMLID_1345_" class="st1" cx="160" cy="143.6" r="36.9"/>
		<circle id="XMLID_1344_" class="st1" cx="160" cy="143.6" r="36.9"/>
		<circle id="XMLID_1342_" class="st1" cx="160" cy="143.6" r="36"/>
	</g>
	<g id="XMLID_1033_">
		<g id="XMLID_1324_" class="st4">
			<path id="XMLID_220_" class="st5" d="M189.4,50.5c-1.7,7-8.1,15-14.3,17.9s-16.6,2.9-23.2,0.1l-13.7-5.7
				c-6.7-2.8-10.7-10.7-9.1-17.7l3.3-13.7c1.7-7,8.8-14,15.9-15.5l17-3.6c7-1.5,16.2,2.1,20.2,8.1l0.9,1.3c4.1,5.9,6,16.5,4.3,23.5
				L189.4,50.5z"/>
		</g>
		<g id="XMLID_1283_">
			<g id="XMLID_1305_" class="st0">
				<g id="XMLID_346_">
					<line id="XMLID_348_" class="st1" x1="139.7" y1="18.7" x2="180.4" y2="63.9"/>
				</g>
				<g id="XMLID_336_">
					<line id="XMLID_341_" class="st1" x1="172.9" y1="13.7" x2="147.2" y2="68.8"/>
				</g>
				<g id="XMLID_327_">
					<line id="XMLID_329_" class="st1" x1="190.4" y1="42.3" x2="129.6" y2="40.2"/>
				</g>
				<g id="XMLID_295_">
					<line id="XMLID_302_" class="st1" x1="170.9" y1="69.6" x2="149.1" y2="12.9"/>
				</g>
				<g id="XMLID_288_">
					<line id="XMLID_290_" class="st1" x1="138.1" y1="62.4" x2="181.9" y2="20.1"/>
				</g>
				<g id="XMLID_282_">
					<line id="XMLID_285_" class="st1" x1="132" y1="29.4" x2="188" y2="53.1"/>
				</g>
				<g id="XMLID_275_">
					<line id="XMLID_276_" class="st1" x1="160" y1="10.8" x2="160" y2="71.7"/>
				</g>
			</g>
			<g id="XMLID_1284_" class="st2">
				<circle id="XMLID_107_" class="st3" cx="160" cy="41.3" r="29.6"/>
				<circle id="XMLID_119_" class="st3" cx="160" cy="41.3" r="28.1"/>
				<circle id="XMLID_118_" class="st3" cx="160" cy="41.3" r="26.5"/>
				<circle id="XMLID_117_" class="st3" cx="160" cy="41.3" r="24.9"/>
				<circle id="XMLID_116_" class="st3" cx="160" cy="41.3" r="23.4"/>
				<circle id="XMLID_115_" class="st3" cx="160" cy="41.3" r="21.8"/>
				<circle id="XMLID_114_" class="st3" cx="160" cy="41.3" r="20.2"/>
				<circle id="XMLID_113_" class="st3" cx="160" cy="41.3" r="18.7"/>
				<circle id="XMLID_112_" class="st3" cx="160" cy="41.3" r="17.1"/>
				<circle id="XMLID_111_" class="st3" cx="160" cy="41.3" r="15.5"/>
				<circle id="XMLID_110_" class="st3" cx="160" cy="41.3" r="14"/>
				<circle id="XMLID_109_" class="st3" cx="160" cy="41.3" r="12.4"/>
				<circle id="XMLID_108_" class="st3" cx="160" cy="41.3" r="10.8"/>
				<circle id="XMLID_106_" class="st3" cx="160" cy="41.3" r="9.3"/>
			</g>
		</g>
		<circle id="XMLID_1282_" class="st6" cx="160" cy="41.3" r="25.7"/>
		<g id="XMLID_1270_" class="st14">
			<g id="XMLID_193_">
				<path id="XMLID_215_" class="st15" d="M183.6,41.3c0,0,0,0.1,0,0.1"/>
				<path id="XMLID_197_" class="st16" d="M183.6,42.5c-0.6,12.5-10.9,22.4-23.6,22.4c-13,0-23.6-10.6-23.6-23.6
					c0-12.8,10.2-23.2,22.9-23.6"/>
				<path id="XMLID_194_" class="st15" d="M159.9,17.7c0,0,0.1,0,0.1,0"/>
			</g>
		</g>
		<g id="XMLID_1258_">
			<g id="XMLID_180_">
				<path id="XMLID_191_" class="st15" d="M160,17.7c0.1,0,0.1,0,0.2,0"/>
				<path id="XMLID_182_" class="st17" d="M161.1,17.7c12.3,0.6,22.1,10.5,22.5,22.9"/>
				<path id="XMLID_181_" class="st15" d="M183.6,41c0,0.1,0,0.1,0,0.2"/>
			</g>
		</g>
		<rect id="XMLID_242_" x="139.6" y="44.8" class="st7" width="40.7" height="11.4"/>
		<text id="XMLID_1255_" transform="matrix(1 0 0 1 144.432 52.3946)"><tspan x="0" y="0" class="st5 st11 st18">$12</tspan><tspan x="12" y="0" class="st10 st11 st19">/токен</tspan></text>
		<rect id="XMLID_240_" x="139.6" y="28.5" class="st7" width="40.7" height="11.4"/>
		<text id="XMLID_1252_" transform="matrix(1 0 0 1 149.8963 37.6314)" class="st5 st8 st20">25%</text>
		<g id="XMLID_1246_">
			<g id="XMLID_184_">
				<line id="XMLID_190_" class="st21" x1="143.4" y1="42.3" x2="143.5" y2="42.3"/>
				<line id="XMLID_186_" class="st22" x1="144.6" y1="42.3" x2="176" y2="42.3"/>
				<line id="XMLID_185_" class="st21" x1="176.5" y1="42.3" x2="176.6" y2="42.3"/>
			</g>
		</g>
	</g>
	<g id="XMLID_1186_">
		<rect id="XMLID_265_" x="164.8" y="205.1" class="st7" width="33.3" height="10.7"/>
		<text id="XMLID_259_" transform="matrix(1 0 0 1 164.8392 211.7491)" class="st10 st11 st19">3 неделя</text>
	</g>
	<g id="XMLID_1181_">
		<rect id="XMLID_281_" x="78" y="131.1" class="st7" width="26.5" height="10.7"/>
		<text id="XMLID_268_" transform="matrix(1 0 0 1 78.3228 137.7112)" class="st10 st11 st19">4 неделя</text>
	</g>
	<g id="XMLID_1176_">
		<rect id="XMLID_314_" x="220.6" y="132.6" class="st7" width="26.7" height="7.9"/>
		<text id="XMLID_294_" transform="matrix(1 0 0 1 220.6241 139.2822)" class="st10 st11 st19">2 неделя</text>
	</g>
	<g id="XMLID_1171_">
		<rect id="XMLID_342_" x="169.4" y="74.6" class="st7" width="33.3" height="7.9"/>
		<text id="XMLID_332_" transform="matrix(1 0 0 1 169.3753 81.2759)" class="st10 st11 st19">1 неделя</text>
	</g>
	<g id="XMLID_898_">
		<circle id="XMLID_904_" class="st5" cx="85.5" cy="143.6" r="1.1"/>
		<circle id="XMLID_903_" class="st5" cx="100.8" cy="143.5" r="1.1"/>
		<circle id="XMLID_902_" class="st5" cx="76.4" cy="143.7" r="1.8"/>
		<circle id="XMLID_901_" class="st5" cx="112.1" cy="143.5" r="1.1"/>
		<circle id="XMLID_900_" class="st5" cx="93.3" cy="143.6" r="1.1"/>
		<line id="XMLID_899_" class="st1" x1="76.4" y1="143.7" x2="110.3" y2="143.5"/>
	</g>
	<g id="XMLID_1247_">
		<circle id="XMLID_1240_" class="st5" cx="242.5" cy="143.7" r="1.1"/>
		<g id="XMLID_893_">
			<circle id="XMLID_897_" class="st5" cx="252.3" cy="143.6" r="1.8"/>
			<circle id="XMLID_896_" class="st5" cx="234.2" cy="143.6" r="1.1"/>
			<circle id="XMLID_895_" class="st5" cx="217.3" cy="143.6" r="1.1"/>
			<line id="XMLID_894_" class="st1" x1="217.3" y1="143.6" x2="251.2" y2="143.6"/>
		</g>
	</g>
	<g id="XMLID_884_">
		<circle id="XMLID_892_" class="st5" cx="160" cy="72" r="1.8"/>
		<circle id="XMLID_891_" class="st5" cx="160" cy="82.5" r="1.1"/>
		<circle id="XMLID_888_" class="st5" cx="160" cy="92.2" r="1.1"/>
		<line id="XMLID_887_" class="st1" x1="160" y1="93.3" x2="160" y2="73.1"/>
	</g>
	<g id="XMLID_1248_">
		<circle id="XMLID_1264_" class="st5" cx="160" cy="216.8" r="1.8"/>
		<circle id="XMLID_1251_" class="st5" cx="160" cy="206.2" r="1.1"/>
		<circle id="XMLID_1250_" class="st5" cx="160" cy="196.5" r="1.1"/>
		<line id="XMLID_1249_" class="st1" x1="160" y1="195.4" x2="160" y2="215.7"/>
	</g>
	<g id="XMLID_682_">
		<g id="XMLID_877_" class="st4">
			<path id="XMLID_233_" class="st5" d="M12.8,137.3c0.7-7.2,6.8-15,13.6-17.5l18.5-6.6c6.8-2.4,15.6,0.5,19.5,6.5l5.7,8.7
				c4,6,5.7,14.8,3.9,19.5c-1.8,4.7-7.7,12.4-13.2,17.2l-8,7c-5.4,4.7-14.4,4.8-19.8,0.1l-11.8-10c-5.5-4.7-9.4-14.4-8.7-21.6
				L12.8,137.3z"/>
		</g>
		<g id="XMLID_734_">
			<g id="XMLID_853_" class="st0">
				<g id="XMLID_349_">
					<line id="XMLID_350_" class="st1" x1="22.5" y1="121" x2="63.2" y2="166.2"/>
				</g>
				<g id="XMLID_343_">
					<line id="XMLID_345_" class="st1" x1="55.7" y1="116.1" x2="30" y2="171.2"/>
				</g>
				<g id="XMLID_337_">
					<line id="XMLID_340_" class="st1" x1="73.2" y1="144.7" x2="12.4" y2="142.6"/>
				</g>
				<g id="XMLID_331_">
					<line id="XMLID_334_" class="st1" x1="53.7" y1="172" x2="31.9" y2="115.2"/>
				</g>
				<g id="XMLID_316_">
					<line id="XMLID_328_" class="st1" x1="20.9" y1="164.7" x2="64.7" y2="122.5"/>
				</g>
				<g id="XMLID_308_">
					<line id="XMLID_313_" class="st1" x1="14.8" y1="131.7" x2="70.8" y2="155.5"/>
				</g>
				<g id="XMLID_296_">
					<line id="XMLID_301_" class="st1" x1="42.8" y1="113.2" x2="42.8" y2="174"/>
				</g>
			</g>
			<g id="XMLID_735_" class="st2">
				<circle id="XMLID_93_" class="st3" cx="42.8" cy="143.6" r="29.6"/>
				<circle id="XMLID_105_" class="st3" cx="42.8" cy="143.6" r="28.1"/>
				<circle id="XMLID_104_" class="st3" cx="42.8" cy="143.6" r="26.5"/>
				<circle id="XMLID_103_" class="st3" cx="42.8" cy="143.6" r="24.9"/>
				<circle id="XMLID_102_" class="st3" cx="42.8" cy="143.6" r="23.4"/>
				<circle id="XMLID_101_" class="st3" cx="42.8" cy="143.6" r="21.8"/>
				<circle id="XMLID_100_" class="st3" cx="42.8" cy="143.6" r="20.2"/>
				<circle id="XMLID_99_" class="st3" cx="42.8" cy="143.6" r="18.7"/>
				<circle id="XMLID_98_" class="st3" cx="42.8" cy="143.6" r="17.1"/>
				<circle id="XMLID_97_" class="st3" cx="42.8" cy="143.6" r="15.5"/>
				<circle id="XMLID_96_" class="st3" cx="42.8" cy="143.6" r="14"/>
				<circle id="XMLID_95_" class="st3" cx="42.8" cy="143.6" r="12.4"/>
				<circle id="XMLID_94_" class="st3" cx="42.8" cy="143.6" r="10.8"/>
				<circle id="XMLID_92_" class="st3" cx="42.8" cy="143.6" r="9.3"/>
			</g>
		</g>
		<circle id="XMLID_733_" class="st6" cx="42.8" cy="143.6" r="25.7"/>
		<rect id="XMLID_10_" x="22.4" y="147.2" class="st7" width="40.7" height="11.4"/>
		<text id="XMLID_722_" transform="matrix(1 0 0 1 27.2274 154.7544)"><tspan x="0" y="0" class="st5 st11 st18">$18</tspan><tspan x="12" y="0" class="st10 st11 st19">/токен</tspan></text>
		<rect id="XMLID_135_" x="22.4" y="130.9" class="st7" width="40.7" height="11.4"/>
		<text id="XMLID_714_" transform="matrix(1 0 0 1 29.9129 139.9922)" class="st5 st8 st20">100%</text>
		<g id="XMLID_687_">
			<g id="XMLID_223_">
				<line id="XMLID_228_" class="st21" x1="26.2" y1="144.7" x2="26.3" y2="144.7"/>
				<line id="XMLID_227_" class="st22" x1="27.4" y1="144.7" x2="58.8" y2="144.7"/>
				<line id="XMLID_226_" class="st21" x1="59.3" y1="144.7" x2="59.4" y2="144.7"/>
			</g>
		</g>
	</g>
	<ellipse id="XMLID_681_" class="st23" cx="42.7" cy="143.7" rx="23.5" ry="23.5"/>
	<path id="XMLID_1266_" class="st24" d="M281.8,167.1c-12.9,0-23.3-10.5-23.3-23.4s10.4-23.4,23.3-23.4"/>
	<g id="XMLID_1113_">
		<g id="XMLID_1155_" class="st0">
			<g id="XMLID_352_">
				<line id="XMLID_353_" class="st1" x1="261.5" y1="120.9" x2="302.2" y2="166"/>
			</g>
			<g id="XMLID_335_">
				<line id="XMLID_344_" class="st1" x1="294.7" y1="115.9" x2="269" y2="171"/>
			</g>
			<g id="XMLID_330_">
				<line id="XMLID_333_" class="st1" x1="312.2" y1="144.5" x2="251.5" y2="142.4"/>
			</g>
			<g id="XMLID_317_">
				<line id="XMLID_318_" class="st1" x1="292.8" y1="171.8" x2="271" y2="115.1"/>
			</g>
			<g id="XMLID_307_">
				<line id="XMLID_311_" class="st1" x1="260" y1="164.6" x2="303.7" y2="122.3"/>
			</g>
			<g id="XMLID_299_">
				<line id="XMLID_300_" class="st1" x1="253.9" y1="131.6" x2="309.8" y2="155.3"/>
			</g>
			<g id="XMLID_287_">
				<line id="XMLID_292_" class="st1" x1="281.9" y1="113" x2="281.9" y2="173.9"/>
			</g>
		</g>
		<g id="XMLID_1114_" class="st2">
			<circle id="XMLID_59_" class="st3" cx="281.9" cy="143.4" r="29.6"/>
			<circle id="XMLID_91_" class="st3" cx="281.9" cy="143.4" r="28.1"/>
			<circle id="XMLID_90_" class="st3" cx="281.9" cy="143.4" r="26.5"/>
			<circle id="XMLID_89_" class="st3" cx="281.9" cy="143.4" r="24.9"/>
			<circle id="XMLID_88_" class="st3" cx="281.9" cy="143.4" r="23.4"/>
			<circle id="XMLID_87_" class="st3" cx="281.9" cy="143.4" r="21.8"/>
			<circle id="XMLID_86_" class="st3" cx="281.9" cy="143.4" r="20.2"/>
			<circle id="XMLID_85_" class="st3" cx="281.9" cy="143.4" r="18.7"/>
			<circle id="XMLID_77_" class="st3" cx="281.9" cy="143.4" r="17.1"/>
			<circle id="XMLID_69_" class="st3" cx="281.9" cy="143.4" r="15.5"/>
			<circle id="XMLID_64_" class="st3" cx="281.9" cy="143.4" r="14"/>
			<circle id="XMLID_63_" class="st3" cx="281.9" cy="143.4" r="12.4"/>
			<circle id="XMLID_61_" class="st3" cx="281.9" cy="143.4" r="10.8"/>
			<circle id="XMLID_58_" class="st3" cx="281.9" cy="143.4" r="9.3"/>
		</g>
	</g>
	<g id="XMLID_1110_" class="st4">
		<path id="XMLID_198_" class="st5" d="M299,170.6c-5.7,4.4-15.6,5.2-21.9,1.7l-7.9-4.3c-6.3-3.4-12.6-12.1-14-19.1l-2.3-11.7
			c-1.4-7.1,3-15,9.8-17.6l6.2-2.4c6.7-2.6,17.5-2.1,23.9,1.2l6.8,3.4c6.4,3.2,11.5,11.8,11.3,19l-0.3,8.2
			c-0.2,7.2-5.1,16.7-10.8,21.1L299,170.6z"/>
	</g>
	<circle id="XMLID_1109_" class="st6" cx="281.9" cy="143.4" r="25.7"/>
	<rect id="XMLID_82_" x="261.4" y="147" class="st7" width="40.7" height="11.4"/>
	<text id="XMLID_1107_" transform="matrix(1 0 0 1 266.2728 154.586)"><tspan x="0" y="0" class="st5 st11 st18">$14</tspan><tspan x="12" y="0" class="st10 st11 st19">/токен</tspan></text>
	<rect id="XMLID_80_" x="261.5" y="130.7" class="st7" width="40.7" height="11.4"/>
	<text id="XMLID_1105_" transform="matrix(1 0 0 1 271.7386 139.8229)" class="st5 st8 st20">50%</text>
	<g id="XMLID_1099_">
		<g id="XMLID_200_">
			<line id="XMLID_203_" class="st21" x1="265.2" y1="144.5" x2="265.3" y2="144.5"/>
			<line id="XMLID_202_" class="st22" x1="266.5" y1="144.5" x2="297.8" y2="144.5"/>
			<line id="XMLID_201_" class="st21" x1="298.4" y1="144.5" x2="298.5" y2="144.5"/>
		</g>
	</g>
	<path id="XMLID_1047_" class="st23" d="M281.8,120.3c12.9,0,23.3,10.5,23.3,23.4s-10.4,23.4-23.3,23.4"/>
	<g id="XMLID_1035_">
		<path id="XMLID_1267_" class="st24" d="M136.8,247c0-12.9,10.4-23.4,23.2-23.4"/>
		<g id="XMLID_1044_" class="st4">
			<path id="XMLID_225_" class="st5" d="M159,215.6c7.2-0.3,16.5,4.3,20.7,10.1l6.5,9.2c4.2,5.9,5.2,16.1,2.4,22.7l-3,6.9
				c-2.9,6.6-11.1,11.3-18.2,10.4l-13.1-1.7c-7.2-0.9-15.8-6.8-19.2-13.2l-3.1-5.7c-3.4-6.3-2.7-16.3,1.6-22l4.3-5.7
				c4.3-5.8,13.7-10.7,20.9-11L159,215.6z"/>
		</g>
		<g id="XMLID_982_">
			<g id="XMLID_1016_" class="st0">
				<g id="XMLID_354_">
					<line id="XMLID_355_" class="st1" x1="139.7" y1="224" x2="180.4" y2="269.2"/>
				</g>
				<g id="XMLID_347_">
					<line id="XMLID_351_" class="st1" x1="172.9" y1="219.1" x2="147.2" y2="274.2"/>
				</g>
				<g id="XMLID_338_">
					<line id="XMLID_339_" class="st1" x1="190.4" y1="247.7" x2="129.6" y2="245.6"/>
				</g>
				<g id="XMLID_305_">
					<line id="XMLID_310_" class="st1" x1="170.9" y1="275" x2="149.1" y2="218.3"/>
				</g>
				<g id="XMLID_297_">
					<line id="XMLID_298_" class="st1" x1="138.1" y1="267.8" x2="181.9" y2="225.5"/>
				</g>
				<g id="XMLID_289_">
					<line id="XMLID_291_" class="st1" x1="132" y1="234.8" x2="188" y2="258.5"/>
				</g>
				<g id="XMLID_271_">
					<line id="XMLID_274_" class="st1" x1="160" y1="216.2" x2="160" y2="277.1"/>
				</g>
			</g>
			<g id="XMLID_983_" class="st2">
				<circle id="XMLID_13_" class="st3" cx="160" cy="246.6" r="29.6"/>
				<circle id="XMLID_57_" class="st3" cx="160" cy="246.6" r="28.1"/>
				<circle id="XMLID_54_" class="st3" cx="160" cy="246.6" r="26.5"/>
				<circle id="XMLID_49_" class="st3" cx="160" cy="246.6" r="24.9"/>
				<circle id="XMLID_46_" class="st3" cx="160" cy="246.6" r="23.4"/>
				<circle id="XMLID_38_" class="st3" cx="160" cy="246.6" r="21.8"/>
				<circle id="XMLID_36_" class="st3" cx="160" cy="246.6" r="20.2"/>
				<circle id="XMLID_33_" class="st3" cx="160" cy="246.6" r="18.7"/>
				<circle id="XMLID_23_" class="st3" cx="160" cy="246.6" r="17.1"/>
				<circle id="XMLID_19_" class="st3" cx="160" cy="246.6" r="15.5"/>
				<circle id="XMLID_17_" class="st3" cx="160" cy="246.6" r="14"/>
				<circle id="XMLID_15_" class="st3" cx="160" cy="246.6" r="12.4"/>
				<circle id="XMLID_14_" class="st3" cx="160" cy="246.6" r="10.8"/>
				<circle id="XMLID_12_" class="st3" cx="160" cy="246.6" r="9.3"/>
			</g>
		</g>
		<circle id="XMLID_981_" class="st6" cx="160" cy="246.6" r="25.7"/>
		<rect id="XMLID_9_" x="140.7" y="250.2" class="st7" width="40.7" height="11.4"/>
		<text id="XMLID_979_" transform="matrix(1 0 0 1 145.5235 257.7838)"><tspan x="0" y="0" class="st5 st11 st18">$12</tspan><tspan x="12" y="0" class="st10 st11 st19">/токен</tspan></text>
		<rect id="XMLID_24_" x="140.7" y="233.9" class="st7" width="40.7" height="11.4"/>
		<text id="XMLID_977_" transform="matrix(1 0 0 1 150.9888 243.0211)" class="st5 st8 st20">75%</text>
		<g id="XMLID_971_">
			<g id="XMLID_206_">
				<line id="XMLID_210_" class="st21" x1="144.5" y1="247.7" x2="144.6" y2="247.7"/>
				<line id="XMLID_209_" class="st22" x1="145.7" y1="247.7" x2="177.1" y2="247.7"/>
				<line id="XMLID_207_" class="st21" x1="177.6" y1="247.7" x2="177.7" y2="247.7"/>
			</g>
		</g>
		<path id="XMLID_905_" class="st25" d="M160,223.6c12.8,0,23.2,10.5,23.2,23.4c0,12.9-10.4,23.4-23.2,23.4S136.8,260,136.8,247"/>
	</g>
</g>
</svg>
