<?xml version="1.0" encoding="utf-8"?>
<!-- Generator: Adobe Illustrator 19.0.0, SVG Export Plug-In . SVG Version: 6.00 Build 0)  -->
<svg version="1.1" id="Layer_1" xmlns="http://www.w3.org/2000/svg" xmlns:xlink="http://www.w3.org/1999/xlink" x="0px" y="0px"
	 viewBox="0 0 873 191.8" style="enable-background:new 0 0 873 191.8;" xml:space="preserve">
<style type="text/css">
	.st0{fill:none;stroke:#00A6FF;stroke-miterlimit:10;}
	.st1{opacity:0.37;fill:#00A6FF;}
	.st2{fill:none;stroke:#333333;stroke-width:0.5;stroke-miterlimit:10;}
	.st3{fill:#00A6FF;}
	.st4{fill:none;}
	.st5{fill:#999999;}
	.st6{font-family:'OpenSansCondensed-Light';}
	.st7{font-size:10px;}
	.st8{fill:#FFFFFF;}
	.st9{fill:none;stroke:#00A6FF;stroke-width:0.75;stroke-miterlimit:10;}
	.st10{opacity:0.3;}
	.st11{opacity:0.2;}
	.st12{opacity:0.1;}
	.st13{font-size:20.7635px;}
	.st14{fill:none;stroke:#B3B3B3;stroke-width:0.5;stroke-miterlimit:10;}
	.st15{font-family:'OpenSans-Semibold';}
</style>
<g id="XMLID_5163_">
	<g id="XMLID_190_">
		<g id="XMLID_122_">
			<g id="XMLID_146_">
				<g id="XMLID_150_">
					<path id="XMLID_151_" class="st0" d="M339.3,109.2l-14.5,8.5c-1.4,0.8-3.1,0.8-4.5,0l-14.5-8.5c-1.4-0.8-2.2-2.3-2.2-3.9V88.2
						c0-1.6,0.8-3.1,2.2-3.9l14.5-8.5c1.4-0.8,3.1-0.8,4.5,0l14.5,8.5c1.4,0.8,2.2,2.3,2.2,3.9v17.1
						C341.6,106.9,340.7,108.4,339.3,109.2z"/>
				</g>
			</g>
			<g id="XMLID_139_">
				<g id="XMLID_142_">
					<path id="XMLID_143_" class="st0" d="M267.3,109.2l-14.5,8.5c-1.4,0.8-3.1,0.8-4.5,0l-14.5-8.5c-1.4-0.8-2.2-2.3-2.2-3.9V88.2
						c0-1.6,0.8-3.1,2.2-3.9l14.5-8.5c1.4-0.8,3.1-0.8,4.5,0l14.5,8.5c1.4,0.8,2.2,2.3,2.2,3.9v17.1
						C269.6,106.9,268.7,108.4,267.3,109.2z"/>
				</g>
			</g>
			<g id="XMLID_130_">
				<g id="XMLID_133_">
					<path id="XMLID_135_" class="st0" d="M195.3,109.2l-14.5,8.5c-1.4,0.8-3.1,0.8-4.5,0l-14.5-8.5c-1.4-0.8-2.2-2.3-2.2-3.9V88.2
						c0-1.6,0.8-3.1,2.2-3.9l14.5-8.5c1.4-0.8,3.1-0.8,4.5,0l14.5,8.5c1.4,0.8,2.2,2.3,2.2,3.9v17.1
						C197.6,106.9,196.7,108.4,195.3,109.2z"/>
				</g>
			</g>
			<g id="XMLID_123_">
				<g id="XMLID_126_">
					<path id="XMLID_127_" class="st0" d="M123.3,109.2l-14.5,8.5c-1.4,0.8-3.1,0.8-4.5,0l-14.5-8.5c-1.4-0.8-2.2-2.3-2.2-3.9V88.2
						c0-1.6,0.8-3.1,2.2-3.9l14.5-8.5c1.4-0.8,3.1-0.8,4.5,0l14.5,8.5c1.4,0.8,2.2,2.3,2.2,3.9v17.1
						C125.6,106.9,124.7,108.4,123.3,109.2z"/>
				</g>
			</g>
			<g id="XMLID_114_">
				<g id="XMLID_117_">
					<path id="XMLID_118_" class="st0" d="M51.3,109.2l-14.5,8.5c-1.4,0.8-3.1,0.8-4.5,0l-14.5-8.5c-1.4-0.8-2.2-2.3-2.2-3.9V88.2
						c0-1.6,0.8-3.1,2.2-3.9l14.5-8.5c1.4-0.8,3.1-0.8,4.5,0l14.5,8.5c1.4,0.8,2.2,2.3,2.2,3.9v17.1
						C53.6,106.9,52.7,108.4,51.3,109.2z"/>
				</g>
			</g>
		</g>
		<g id="XMLID_1076_">
			<g id="XMLID_660_">
				<g id="XMLID_677_">
					<g id="XMLID_686_">
						<path id="XMLID_692_" class="st1" d="M325.4,101.9h-5.6v-2c-1.4-0.9-2.3-2.5-2.3-4.2c0-2.8,2.3-5.1,5.1-5.1s5.1,2.3,5.1,5.1
							c0,1.7-0.9,3.3-2.3,4.2V101.9z"/>
						<g id="XMLID_689_">
							<path id="XMLID_691_" class="st2" d="M325.5,103.7h-6c-0.4,0-0.8-0.4-0.8-0.8v-0.2c0-0.4,0.4-0.8,0.8-0.8h6
								c0.4,0,0.8,0.4,0.8,0.8v0.2C326.3,103.4,326,103.7,325.5,103.7z"/>
							<path id="XMLID_690_" class="st2" d="M324.8,105.5h-4.5c-0.4,0-0.8-0.4-0.8-0.8v-0.2c0-0.4,0.4-0.8,0.8-0.8h4.5
								c0.4,0,0.8,0.4,0.8,0.8v0.2C325.6,105.2,325.3,105.5,324.8,105.5z"/>
						</g>
						<line id="XMLID_688_" class="st2" x1="322.6" y1="102.2" x2="322.6" y2="96.7"/>
						<circle id="XMLID_687_" class="st2" cx="322.6" cy="95.8" r="0.9"/>
					</g>
					<g id="XMLID_678_">
						<path id="XMLID_685_" class="st3" d="M314.9,91.7l-0.3,0.5l1.7,1c0.1-0.2,0.2-0.3,0.3-0.5L314.9,91.7z"/>
						<path id="XMLID_684_" class="st3" d="M318.3,88.5l-0.5,0.3l1,1.7c0.2-0.1,0.3-0.2,0.5-0.3L318.3,88.5z"/>
						<path id="XMLID_683_" class="st3" d="M322.8,89.4l0-2h-0.6l0,2c0.1,0,0.2,0,0.3,0C322.7,89.4,322.7,89.4,322.8,89.4z"/>
						<path id="XMLID_682_" class="st3" d="M327.3,88.8l-0.5-0.3l-1,1.7c0.2,0.1,0.3,0.2,0.5,0.3L327.3,88.8z"/>
						<path id="XMLID_681_" class="st3" d="M330.5,92.2l-0.3-0.5l-1.7,1c0.1,0.2,0.2,0.3,0.3,0.5L330.5,92.2z"/>
						<path id="XMLID_680_" class="st3" d="M329.6,96.7l2,0v-0.6l-2,0c0,0.1,0,0.2,0,0.3C329.6,96.5,329.6,96.6,329.6,96.7z"/>
						<path id="XMLID_679_" class="st3" d="M315.5,96.2l-2,0v0.6l2,0c0-0.1,0-0.2,0-0.3C315.5,96.3,315.5,96.3,315.5,96.2z"/>
					</g>
				</g>
			</g>
			<g id="XMLID_589_">
				<g id="XMLID_606_">
					<g id="XMLID_615_">
						<path id="XMLID_621_" class="st1" d="M253.4,101.9h-5.6v-2c-1.4-0.9-2.3-2.5-2.3-4.2c0-2.8,2.3-5.1,5.1-5.1
							c2.8,0,5.1,2.3,5.1,5.1c0,1.7-0.9,3.3-2.3,4.2V101.9z"/>
						<g id="XMLID_618_">
							<path id="XMLID_620_" class="st2" d="M253.5,103.7h-6c-0.4,0-0.8-0.4-0.8-0.8v-0.2c0-0.4,0.4-0.8,0.8-0.8h6
								c0.4,0,0.8,0.4,0.8,0.8v0.2C254.3,103.4,254,103.7,253.5,103.7z"/>
							<path id="XMLID_619_" class="st2" d="M252.8,105.5h-4.5c-0.4,0-0.8-0.4-0.8-0.8v-0.2c0-0.4,0.4-0.8,0.8-0.8h4.5
								c0.4,0,0.8,0.4,0.8,0.8v0.2C253.6,105.2,253.3,105.5,252.8,105.5z"/>
						</g>
						<line id="XMLID_617_" class="st2" x1="250.6" y1="102.2" x2="250.6" y2="96.7"/>
						<circle id="XMLID_616_" class="st2" cx="250.6" cy="95.8" r="0.9"/>
					</g>
					<g id="XMLID_607_">
						<path id="XMLID_614_" class="st3" d="M242.9,91.7l-0.3,0.5l1.7,1c0.1-0.2,0.2-0.3,0.3-0.5L242.9,91.7z"/>
						<path id="XMLID_613_" class="st3" d="M246.3,88.5l-0.5,0.3l1,1.7c0.2-0.1,0.3-0.2,0.5-0.3L246.3,88.5z"/>
						<path id="XMLID_612_" class="st3" d="M250.8,89.4l0-2h-0.6l0,2c0.1,0,0.2,0,0.3,0C250.7,89.4,250.7,89.4,250.8,89.4z"/>
						<path id="XMLID_611_" class="st3" d="M255.3,88.8l-0.5-0.3l-1,1.7c0.2,0.1,0.3,0.2,0.5,0.3L255.3,88.8z"/>
						<path id="XMLID_610_" class="st3" d="M258.5,92.2l-0.3-0.5l-1.7,1c0.1,0.2,0.2,0.3,0.3,0.5L258.5,92.2z"/>
						<path id="XMLID_609_" class="st3" d="M257.6,96.7l2,0v-0.6l-2,0c0,0.1,0,0.2,0,0.3C257.6,96.5,257.6,96.6,257.6,96.7z"/>
						<path id="XMLID_608_" class="st3" d="M243.5,96.2l-2,0v0.6l2,0c0-0.1,0-0.2,0-0.3C243.5,96.3,243.5,96.3,243.5,96.2z"/>
					</g>
				</g>
			</g>
			<g id="XMLID_536_">
				<g id="XMLID_556_">
					<g id="XMLID_565_">
						<path id="XMLID_571_" class="st1" d="M181.4,101.9h-5.6v-2c-1.4-0.9-2.3-2.5-2.3-4.2c0-2.8,2.3-5.1,5.1-5.1
							c2.8,0,5.1,2.3,5.1,5.1c0,1.7-0.9,3.3-2.3,4.2V101.9z"/>
						<g id="XMLID_568_">
							<path id="XMLID_570_" class="st2" d="M181.5,103.7h-6c-0.4,0-0.8-0.4-0.8-0.8v-0.2c0-0.4,0.4-0.8,0.8-0.8h6
								c0.4,0,0.8,0.4,0.8,0.8v0.2C182.3,103.4,182,103.7,181.5,103.7z"/>
							<path id="XMLID_569_" class="st2" d="M180.8,105.5h-4.5c-0.4,0-0.8-0.4-0.8-0.8v-0.2c0-0.4,0.4-0.8,0.8-0.8h4.5
								c0.4,0,0.8,0.4,0.8,0.8v0.2C181.6,105.2,181.3,105.5,180.8,105.5z"/>
						</g>
						<line id="XMLID_567_" class="st2" x1="178.6" y1="102.2" x2="178.6" y2="96.7"/>
						<circle id="XMLID_566_" class="st2" cx="178.6" cy="95.8" r="0.9"/>
					</g>
					<g id="XMLID_557_">
						<path id="XMLID_564_" class="st3" d="M170.9,91.7l-0.3,0.5l1.7,1c0.1-0.2,0.2-0.3,0.3-0.5L170.9,91.7z"/>
						<path id="XMLID_563_" class="st3" d="M174.3,88.5l-0.5,0.3l1,1.7c0.2-0.1,0.3-0.2,0.5-0.3L174.3,88.5z"/>
						<path id="XMLID_562_" class="st3" d="M178.8,89.4l0-2h-0.6l0,2c0.1,0,0.2,0,0.3,0C178.7,89.4,178.7,89.4,178.8,89.4z"/>
						<path id="XMLID_561_" class="st3" d="M183.3,88.8l-0.5-0.3l-1,1.7c0.2,0.1,0.3,0.2,0.5,0.3L183.3,88.8z"/>
						<path id="XMLID_560_" class="st3" d="M186.5,92.2l-0.3-0.5l-1.7,1c0.1,0.2,0.2,0.3,0.3,0.5L186.5,92.2z"/>
						<path id="XMLID_559_" class="st3" d="M185.6,96.7l2,0v-0.6l-2,0c0,0.1,0,0.2,0,0.3C185.6,96.5,185.6,96.6,185.6,96.7z"/>
						<path id="XMLID_558_" class="st3" d="M171.5,96.2l-2,0v0.6l2,0c0-0.1,0-0.2,0-0.3C171.5,96.3,171.5,96.3,171.5,96.2z"/>
					</g>
				</g>
			</g>
			<g id="XMLID_485_">
				<g id="XMLID_502_">
					<g id="XMLID_512_">
						<path id="XMLID_518_" class="st1" d="M109.4,101.9h-5.6v-2c-1.4-0.9-2.3-2.5-2.3-4.2c0-2.8,2.3-5.1,5.1-5.1
							c2.8,0,5.1,2.3,5.1,5.1c0,1.7-0.9,3.3-2.3,4.2V101.9z"/>
						<g id="XMLID_515_">
							<path id="XMLID_517_" class="st2" d="M109.5,103.7h-6c-0.4,0-0.8-0.4-0.8-0.8v-0.2c0-0.4,0.4-0.8,0.8-0.8h6
								c0.4,0,0.8,0.4,0.8,0.8v0.2C110.3,103.4,110,103.7,109.5,103.7z"/>
							<path id="XMLID_516_" class="st2" d="M108.8,105.5h-4.5c-0.4,0-0.8-0.4-0.8-0.8v-0.2c0-0.4,0.4-0.8,0.8-0.8h4.5
								c0.4,0,0.8,0.4,0.8,0.8v0.2C109.6,105.2,109.3,105.5,108.8,105.5z"/>
						</g>
						<line id="XMLID_514_" class="st2" x1="106.6" y1="102.2" x2="106.6" y2="96.7"/>
						<circle id="XMLID_513_" class="st2" cx="106.6" cy="95.8" r="0.9"/>
					</g>
					<g id="XMLID_503_">
						<path id="XMLID_510_" class="st3" d="M98.9,91.7l-0.3,0.5l1.7,1c0.1-0.2,0.2-0.3,0.3-0.5L98.9,91.7z"/>
						<path id="XMLID_509_" class="st3" d="M102.3,88.5l-0.5,0.3l1,1.7c0.2-0.1,0.3-0.2,0.5-0.3L102.3,88.5z"/>
						<path id="XMLID_508_" class="st3" d="M106.8,89.4l0-2h-0.6l0,2c0.1,0,0.2,0,0.3,0C106.7,89.4,106.7,89.4,106.8,89.4z"/>
						<path id="XMLID_507_" class="st3" d="M111.3,88.8l-0.5-0.3l-1,1.7c0.2,0.1,0.3,0.2,0.5,0.3L111.3,88.8z"/>
						<path id="XMLID_506_" class="st3" d="M114.5,92.2l-0.3-0.5l-1.7,1c0.1,0.2,0.2,0.3,0.3,0.5L114.5,92.2z"/>
						<path id="XMLID_505_" class="st3" d="M113.6,96.7l2,0v-0.6l-2,0c0,0.1,0,0.2,0,0.3C113.6,96.5,113.6,96.6,113.6,96.7z"/>
						<path id="XMLID_504_" class="st3" d="M99.5,96.2l-2,0v0.6l2,0c0-0.1,0-0.2,0-0.3C99.5,96.3,99.5,96.3,99.5,96.2z"/>
					</g>
				</g>
			</g>
			<g id="XMLID_436_">
				<g id="XMLID_453_">
					<g id="XMLID_462_">
						<path id="XMLID_468_" class="st1" d="M37.4,101.9h-5.6v-2c-1.4-0.9-2.3-2.5-2.3-4.2c0-2.8,2.3-5.1,5.1-5.1s5.1,2.3,5.1,5.1
							c0,1.7-0.9,3.3-2.3,4.2V101.9z"/>
						<g id="XMLID_465_">
							<path id="XMLID_467_" class="st2" d="M37.5,103.7h-6c-0.4,0-0.8-0.4-0.8-0.8v-0.2c0-0.4,0.4-0.8,0.8-0.8h6
								c0.4,0,0.8,0.4,0.8,0.8v0.2C38.3,103.4,38,103.7,37.5,103.7z"/>
							<path id="XMLID_466_" class="st2" d="M36.8,105.5h-4.5c-0.4,0-0.8-0.4-0.8-0.8v-0.2c0-0.4,0.4-0.8,0.8-0.8h4.5
								c0.4,0,0.8,0.4,0.8,0.8v0.2C37.6,105.2,37.3,105.5,36.8,105.5z"/>
						</g>
						<line id="XMLID_464_" class="st2" x1="34.6" y1="102.2" x2="34.6" y2="96.7"/>
						<circle id="XMLID_463_" class="st2" cx="34.6" cy="95.8" r="0.9"/>
					</g>
					<g id="XMLID_454_">
						<path id="XMLID_461_" class="st3" d="M26.9,91.7l-0.3,0.5l1.7,1c0.1-0.2,0.2-0.3,0.3-0.5L26.9,91.7z"/>
						<path id="XMLID_460_" class="st3" d="M30.3,88.5l-0.5,0.3l1,1.7c0.2-0.1,0.3-0.2,0.5-0.3L30.3,88.5z"/>
						<path id="XMLID_459_" class="st3" d="M34.8,89.4l0-2h-0.6l0,2c0.1,0,0.2,0,0.3,0C34.7,89.4,34.7,89.4,34.8,89.4z"/>
						<path id="XMLID_458_" class="st3" d="M39.3,88.8l-0.5-0.3l-1,1.7c0.2,0.1,0.3,0.2,0.5,0.3L39.3,88.8z"/>
						<path id="XMLID_457_" class="st3" d="M42.5,92.2l-0.3-0.5l-1.7,1c0.1,0.2,0.2,0.3,0.3,0.5L42.5,92.2z"/>
						<path id="XMLID_456_" class="st3" d="M41.6,96.7l2,0v-0.6l-2,0c0,0.1,0,0.2,0,0.3C41.6,96.5,41.6,96.6,41.6,96.7z"/>
						<path id="XMLID_455_" class="st3" d="M27.5,96.2l-2,0v0.6l2,0c0-0.1,0-0.2,0-0.3C27.5,96.3,27.5,96.3,27.5,96.2z"/>
					</g>
				</g>
			</g>
		</g>
	</g>
	<g id="XMLID_1073_">
		<g id="XMLID_1262_">
			<rect id="XMLID_209_" x="307.9" y="63.7" class="st4" width="37.2" height="11"/>
			<text id="XMLID_1271_" transform="matrix(1 0 0 1 311.9612 71.3113)" class="st5 st6 st7">Проект 1</text>
		</g>
		<g id="XMLID_1215_">
			<rect id="XMLID_205_" x="234.9" y="63.7" class="st4" width="37.2" height="11"/>
			<text id="XMLID_1259_" transform="matrix(1 0 0 1 238.9612 71.3113)" class="st5 st6 st7">Проект 2</text>
		</g>
		<g id="XMLID_1057_">
			<rect id="XMLID_202_" x="161.9" y="63.7" class="st4" width="37.2" height="11"/>
			<text id="XMLID_1211_" transform="matrix(1 0 0 1 165.9611 71.3113)" class="st5 st6 st7">Проект 3</text>
		</g>
		<g id="XMLID_1025_">
			<rect id="XMLID_199_" x="88.9" y="63.7" class="st4" width="37.2" height="11"/>
			<text id="XMLID_1027_" transform="matrix(1 0 0 1 92.9611 71.3113)" class="st5 st6 st7">Проект 4</text>
		</g>
		<g id="XMLID_818_">
			<rect id="XMLID_196_" x="15.9" y="63.7" class="st4" width="37.2" height="11"/>
			<text id="XMLID_1023_" transform="matrix(1 0 0 1 19.9611 71.3113)" class="st5 st6 st7">Проект 5</text>
		</g>
	</g>
	<g id="XMLID_646_">
		<g id="XMLID_2940_">
			<path id="XMLID_2942_" class="st8" d="M809.9,80.9L828,70.3c1.8-1,3.9-1,5.7,0l18.1,10.6c1.7,1,2.8,2.9,2.8,4.9v21.3
				c0,2-1.1,3.9-2.8,4.9l-18.1,10.6c-1.8,1-3.9,1-5.7,0l-18.1-10.6c-1.7-1-2.8-2.9-2.8-4.9V85.7C807.1,83.7,808.1,81.9,809.9,80.9z"
				/>
			<path id="XMLID_2941_" class="st9" d="M809.9,80.9L828,70.3c1.8-1,3.9-1,5.7,0l18.1,10.6c1.7,1,2.8,2.9,2.8,4.9v21.3
				c0,2-1.1,3.9-2.8,4.9l-18.1,10.6c-1.8,1-3.9,1-5.7,0l-18.1-10.6c-1.7-1-2.8-2.9-2.8-4.9V85.7C807.1,83.7,808.1,81.9,809.9,80.9z"
				/>
		</g>
		<g id="XMLID_630_">
			<path id="XMLID_633_" class="st9" d="M821,72.2l21,0.4c2,0,3.9,1.2,4.8,3l10,18.5c0.9,1.8,0.9,3.9-0.1,5.6l-11.1,18.2
				c-1,1.7-2.9,2.7-4.9,2.7l-21-0.4c-2,0-3.9-1.2-4.8-3l-10-18.5c-0.9-1.8-0.9-3.9,0.1-5.6l11.1-18.2C817.1,73.2,819,72.2,821,72.2z
				"/>
		</g>
		<g id="XMLID_1418_">
			<rect id="XMLID_184_" x="808.1" y="87.4" class="st4" width="47.4" height="24.6"/>
			<text id="XMLID_1422_" transform="matrix(1 0 0 1 812.8977 95.0012)"><tspan x="0" y="0" class="st5 st6 st7">Приватный </tspan><tspan x="6.9" y="12" class="st5 st6 st7">токен 5</tspan></text>
		</g>
	</g>
	<g id="XMLID_643_">
		<g id="XMLID_2937_">
			<path id="XMLID_2939_" class="st8" d="M741.5,80.9l18.1-10.6c1.8-1,3.9-1,5.7,0l18.1,10.6c1.7,1,2.8,2.9,2.8,4.9v21.3
				c0,2-1.1,3.9-2.8,4.9l-18.1,10.6c-1.8,1-3.9,1-5.7,0l-18.1-10.6c-1.7-1-2.8-2.9-2.8-4.9V85.7C738.7,83.7,739.7,81.9,741.5,80.9z"
				/>
			<path id="XMLID_2938_" class="st9" d="M741.5,80.9l18.1-10.6c1.8-1,3.9-1,5.7,0l18.1,10.6c1.7,1,2.8,2.9,2.8,4.9v21.3
				c0,2-1.1,3.9-2.8,4.9l-18.1,10.6c-1.8,1-3.9,1-5.7,0l-18.1-10.6c-1.7-1-2.8-2.9-2.8-4.9V85.7C738.7,83.7,739.7,81.9,741.5,80.9z"
				/>
		</g>
		<g id="XMLID_627_">
			<path id="XMLID_629_" class="st9" d="M752.6,72.2l21,0.4c2,0,3.9,1.2,4.8,3l10,18.5c0.9,1.8,0.9,3.9-0.1,5.6l-11.1,18.2
				c-1,1.7-2.9,2.7-4.9,2.7l-21-0.4c-2,0-3.9-1.2-4.8-3l-10-18.5c-0.9-1.8-0.9-3.9,0.1-5.6l11.1-18.2
				C748.7,73.2,750.6,72.2,752.6,72.2z"/>
		</g>
		<g id="XMLID_1412_">
			<rect id="XMLID_170_" x="739.1" y="87.4" class="st4" width="48.8" height="24.6"/>
			<text id="XMLID_1414_" transform="matrix(1 0 0 1 744.4973 95.0012)"><tspan x="0" y="0" class="st5 st6 st7">Приватный </tspan><tspan x="6.9" y="12" class="st5 st6 st7">токен 4</tspan></text>
		</g>
	</g>
	<g id="XMLID_640_">
		<g id="XMLID_2932_">
			<path id="XMLID_2936_" class="st8" d="M673.1,80.9l18.1-10.6c1.8-1,3.9-1,5.7,0L715,80.9c1.7,1,2.8,2.9,2.8,4.9v21.3
				c0,2-1.1,3.9-2.8,4.9l-18.1,10.6c-1.8,1-3.9,1-5.7,0l-18.1-10.6c-1.7-1-2.8-2.9-2.8-4.9V85.7C670.3,83.7,671.3,81.9,673.1,80.9z"
				/>
			<path id="XMLID_2935_" class="st9" d="M673.1,80.9l18.1-10.6c1.8-1,3.9-1,5.7,0L715,80.9c1.7,1,2.8,2.9,2.8,4.9v21.3
				c0,2-1.1,3.9-2.8,4.9l-18.1,10.6c-1.8,1-3.9,1-5.7,0l-18.1-10.6c-1.7-1-2.8-2.9-2.8-4.9V85.7C670.3,83.7,671.3,81.9,673.1,80.9z"
				/>
		</g>
		<g id="XMLID_325_">
			<path id="XMLID_626_" class="st9" d="M684.2,72.2l21,0.4c2,0,3.9,1.2,4.8,3l10,18.5c0.9,1.8,0.9,3.9-0.1,5.6l-11.1,18.2
				c-1,1.7-2.9,2.7-4.9,2.7l-21-0.4c-2,0-3.9-1.2-4.8-3l-10-18.5c-0.9-1.8-0.9-3.9,0.1-5.6l11.1-18.2
				C680.3,73.2,682.2,72.2,684.2,72.2z"/>
		</g>
		<g id="XMLID_1407_">
			<rect id="XMLID_160_" x="669.3" y="87.4" class="st4" width="51.4" height="24.6"/>
			<text id="XMLID_1410_" transform="matrix(1 0 0 1 676.0957 95.0012)"><tspan x="0" y="0" class="st5 st6 st7">Приватный </tspan><tspan x="6.9" y="12" class="st5 st6 st7">токен 3</tspan></text>
		</g>
	</g>
	<g id="XMLID_637_">
		<g id="XMLID_1055_">
			<path id="XMLID_2931_" class="st8" d="M604.7,80.9l18.1-10.6c1.8-1,3.9-1,5.7,0l18.1,10.6c1.7,1,2.8,2.9,2.8,4.9v21.3
				c0,2-1.1,3.9-2.8,4.9l-18.1,10.6c-1.8,1-3.9,1-5.7,0l-18.1-10.6c-1.7-1-2.8-2.9-2.8-4.9V85.7C601.9,83.7,602.9,81.9,604.7,80.9z"
				/>
			<path id="XMLID_2930_" class="st9" d="M604.7,80.9l18.1-10.6c1.8-1,3.9-1,5.7,0l18.1,10.6c1.7,1,2.8,2.9,2.8,4.9v21.3
				c0,2-1.1,3.9-2.8,4.9l-18.1,10.6c-1.8,1-3.9,1-5.7,0l-18.1-10.6c-1.7-1-2.8-2.9-2.8-4.9V85.7C601.9,83.7,602.9,81.9,604.7,80.9z"
				/>
		</g>
		<g id="XMLID_301_">
			<path id="XMLID_316_" class="st9" d="M615.8,72.2l21,0.4c2,0,3.9,1.2,4.8,3l10,18.5c0.9,1.8,0.9,3.9-0.1,5.6l-11.1,18.2
				c-1,1.7-2.9,2.7-4.9,2.7l-21-0.4c-2,0-3.9-1.2-4.8-3l-10-18.5c-0.9-1.8-0.9-3.9,0.1-5.6l11.1-18.2
				C611.9,73.2,613.8,72.2,615.8,72.2z"/>
		</g>
		<g id="XMLID_1292_">
			<rect id="XMLID_148_" x="604.9" y="87.4" class="st4" width="43.4" height="24.6"/>
			<text id="XMLID_1386_" transform="matrix(1 0 0 1 607.6946 95.0012)"><tspan x="0" y="0" class="st5 st6 st7">Приватный </tspan><tspan x="6.9" y="12" class="st5 st6 st7">токен 2</tspan></text>
		</g>
	</g>
	<g id="XMLID_38_">
		<g id="XMLID_632_">
			<path id="XMLID_636_" class="st8" d="M536.3,80.9l18.1-10.6c1.8-1,3.9-1,5.7,0l18.1,10.6c1.7,1,2.8,2.9,2.8,4.9v21.3
				c0,2-1.1,3.9-2.8,4.9l-18.1,10.6c-1.8,1-3.9,1-5.7,0l-18.1-10.6c-1.7-1-2.8-2.9-2.8-4.9V85.7C533.5,83.7,534.5,81.9,536.3,80.9z"
				/>
			<path id="XMLID_635_" class="st9" d="M536.3,80.9l18.1-10.6c1.8-1,3.9-1,5.7,0l18.1,10.6c1.7,1,2.8,2.9,2.8,4.9v21.3
				c0,2-1.1,3.9-2.8,4.9l-18.1,10.6c-1.8,1-3.9,1-5.7,0l-18.1-10.6c-1.7-1-2.8-2.9-2.8-4.9V85.7C533.5,83.7,534.5,81.9,536.3,80.9z"
				/>
		</g>
		<g id="XMLID_239_">
			<path id="XMLID_241_" class="st9" d="M547.4,72.2l21,0.4c2,0,3.9,1.2,4.8,3l10,18.5c0.9,1.8,0.9,3.9-0.1,5.6L572,117.9
				c-1,1.7-2.9,2.7-4.9,2.7l-21-0.4c-2,0-3.9-1.2-4.8-3l-10-18.5c-0.9-1.8-0.9-3.9,0.1-5.6l11.1-18.2
				C543.5,73.2,545.4,72.2,547.4,72.2z"/>
		</g>
		<rect id="XMLID_138_" x="535.5" y="87.4" class="st4" width="45.5" height="24.6"/>
		<text id="XMLID_1116_" transform="matrix(1 0 0 1 539.2937 95.0012)"><tspan x="0" y="0" class="st5 st6 st7">Приватный </tspan><tspan x="6.9" y="12" class="st5 st6 st7">токен 1</tspan></text>
	</g>
	<g id="XMLID_1233_" class="st10">
		<path id="XMLID_58_" class="st3" d="M483.3,128.9c-1.6,6.4-7.8,13.9-13.8,16.7l-23,10.6c-6,2.8-15.9,3-22,0.4l-54.2-22.4
			c-6.1-2.5-9.8-9.8-8.3-16.3l13.3-55.5c1.5-6.4,8.1-12.8,14.5-14.2L452.3,35c6.5-1.4,14.8,2,18.5,7.4l18.1,26.3
			c3.7,5.4,5.5,15.1,3.9,21.5L483.3,128.9z"/>
	</g>
	<g id="XMLID_1232_" class="st11">
		<path id="XMLID_59_" class="st3" d="M376.6,49.2c2.4-6.1,9.8-11.5,16.3-12l68.7-4.5c6.6-0.4,13.6,4.4,15.5,10.7l14.9,48
			c2,6.3,0.3,15.8-3.7,21l-7.9,10.5c-4,5.3-12.1,11.9-18.1,14.7L416.6,159c-6,2.8-13.9,0.6-17.5-4.9l-33.3-50.4
			c-3.6-5.5-4.6-15-2.2-21.2L376.6,49.2z"/>
	</g>
	<g id="XMLID_1231_" class="st11">
		<path id="XMLID_61_" class="st3" d="M502.4,91.2c2.7,6,1.2,15-3.3,19.9l-36.8,40.3c-4.4,4.9-13.5,8.6-20.1,8.3l-61.2-3.1
			c-6.6-0.3-12.7-6-13.5-12.5l-6.2-48.9c-0.8-6.5,2-16,6.3-21L400.9,35c4.3-5,13-7.7,19.3-5.9l50.9,14.2c6.4,1.8,13.7,8.2,16.4,14.2
			L502.4,91.2z"/>
	</g>
	<g id="XMLID_1230_" class="st12">
		<path id="XMLID_60_" class="st3" d="M496.1,138.6c-1.8,6.4-8.6,12.3-15.1,13.3l-52,7.5c-6.5,0.9-15.9-1.9-20.8-6.4l-43.6-39.7
			c-4.9-4.4-6-12.6-2.5-18.2L387.4,55c3.5-5.6,11.7-11.1,18.2-12.3l48.6-8.7c6.5-1.2,14.9,2.3,18.7,7.7l29.1,41.6
			c3.8,5.4,5.4,15,3.6,21.4L496.1,138.6z"/>
	</g>
	<g id="XMLID_1228_">
		<rect id="XMLID_80_" x="383.1" y="85.2" class="st4" width="88.9" height="24.6"/>
		<text id="XMLID_79_" transform="matrix(1 0 0 1 388.6508 101.0108)" class="st8 st6 st13">Платформа</text>
	</g>
	<path id="XMLID_631_" class="st14" d="M491.2,75l14.5-14.5c2.8-2.8,6.6-4.4,10.6-4.4l99.3,0c5.5,0,10,4.5,10,10l0,4.1"/>
	<path id="XMLID_208_" class="st14" d="M489,116.5l16.7,16.9c2.8,2.9,6.7,4.5,10.7,4.5h168.8c5,0,9-4,9-9l0-5.1"/>
	<path id="XMLID_2037_" class="st14" d="M480.2,63.1l16.7-17.6c2.8-3,6.8-4.7,10.9-4.7h245c5.5,0,10,4.5,10,10l0,18.7"/>
	<path id="XMLID_1614_" class="st14" d="M480.2,131.4l16.7,16.9c2.8,2.9,6.7,4.5,10.7,4.5H821c5.5,0,10-4.5,10-10l0-18.7"/>
	<path id="XMLID_511_" class="st14" d="M383.9,131.4l-16.7,16.9c-2.8,2.9-6.7,4.5-10.7,4.5H43.1c-5.5,0-10-4.5-10-10l0-17.3"/>
	<line id="XMLID_552_" class="st14" x1="502.2" y1="96.9" x2="531.2" y2="96.9"/>
	<g id="XMLID_189_">
		<g id="XMLID_634_">
			<circle id="XMLID_638_" cx="517.9" cy="96.2" r="7"/>
		</g>
		<rect id="XMLID_104_" x="513.2" y="91.7" class="st4" width="9.7" height="15.3"/>
		<text id="XMLID_1243_" transform="matrix(1 0 0 1 515.2429 99.2761)" class="st8 st15 st7">1</text>
	</g>
	<line id="XMLID_251_" class="st14" x1="339.6" y1="96.9" x2="368.6" y2="96.9"/>
	<g id="XMLID_225_">
		<g id="XMLID_240_">
			<circle id="XMLID_246_" cx="354.1" cy="96.7" r="7"/>
		</g>
		<rect id="XMLID_98_" x="349.5" y="92.2" class="st4" width="9.7" height="15.3"/>
		<text id="XMLID_229_" transform="matrix(1 0 0 1 351.4583 99.7675)" class="st8 st15 st7">1</text>
	</g>
	<g id="XMLID_699_">
		<g id="XMLID_639_">
			<circle id="XMLID_641_" cx="586.1" cy="56.1" r="7"/>
		</g>
		<g id="XMLID_1220_">
			<rect id="XMLID_92_" x="581.3" y="51.6" class="st4" width="9.7" height="15.3"/>
			<text id="XMLID_1223_" transform="matrix(1 0 0 1 583.261 59.1498)" class="st8 st15 st7">2</text>
		</g>
	</g>
	<path id="XMLID_2897_" class="st14" d="M378.2,75l-14.5-14.5c-2.8-2.8-6.6-4.4-10.6-4.4l-97.7,0c-3.1,0-5.6,2.5-5.6,5.6v0"/>
	<g id="XMLID_2694_">
		<g id="XMLID_2847_">
			<circle id="XMLID_2848_" cx="291.3" cy="57.3" r="7"/>
		</g>
		<g id="XMLID_2695_">
			<rect id="XMLID_83_" x="286.5" y="52.8" class="st4" width="9.7" height="15.3"/>
			<text id="XMLID_2696_" transform="matrix(1 0 0 1 288.4829 60.4111)" class="st8 st15 st7">2</text>
		</g>
	</g>
	<g id="XMLID_531_">
		<g id="XMLID_648_">
			<circle id="XMLID_1026_" cx="796.2" cy="152.5" r="7"/>
		</g>
		<g id="XMLID_1021_">
			<rect id="XMLID_76_" x="791.4" y="148" class="st4" width="9.7" height="15.3"/>
			<text id="XMLID_1022_" transform="matrix(1 0 0 1 793.3594 155.6267)" class="st8 st15 st7">5</text>
		</g>
	</g>
	<g id="XMLID_1421_">
		<g id="XMLID_1672_">
			<circle id="XMLID_1711_" cx="73.1" cy="152.5" r="7"/>
		</g>
		<g id="XMLID_1426_">
			<rect id="XMLID_69_" x="68.3" y="148" class="st4" width="9.7" height="15.3"/>
			<text id="XMLID_1468_" transform="matrix(1 0 0 1 70.3322 155.6267)" class="st8 st15 st7">5</text>
		</g>
	</g>
	<g id="XMLID_541_">
		<g id="XMLID_645_">
			<circle id="XMLID_647_" cx="724.9" cy="41.7" r="7"/>
		</g>
		<g id="XMLID_1065_">
			<rect id="XMLID_62_" x="719.7" y="37.2" class="st4" width="9.7" height="15.3"/>
			<text id="XMLID_1122_" transform="matrix(1 0 0 1 721.72 44.7498)" class="st8 st15 st7">4</text>
		</g>
	</g>
	<path id="XMLID_289_" class="st14" d="M388.6,63.1l-16.7-17.6c-2.8-3-6.8-4.7-10.9-4.7H116c-5.5,0-10,4.5-10,10l0,10.9"/>
	<g id="XMLID_134_">
		<g id="XMLID_281_">
			<circle id="XMLID_286_" cx="146.7" cy="41.7" r="7"/>
		</g>
		<g id="XMLID_180_">
			<rect id="XMLID_54_" x="141.5" y="37.2" class="st4" width="9.7" height="15.3"/>
			<text id="XMLID_275_" transform="matrix(1 0 0 1 143.5232 44.7498)" class="st8 st15 st7">4</text>
		</g>
	</g>
	<g id="XMLID_554_">
		<g id="XMLID_642_">
			<circle id="XMLID_644_" cx="667.4" cy="137.5" r="7"/>
		</g>
		<g id="XMLID_1131_">
			<rect id="XMLID_46_" x="662.7" y="132.9" class="st4" width="9.7" height="15.3"/>
			<text id="XMLID_1146_" transform="matrix(1 0 0 1 664.7327 140.5454)" class="st8 st15 st7">3</text>
		</g>
	</g>
	<path id="XMLID_738_" class="st14" d="M378.2,116.5l-16.7,16.9c-2.8,2.9-6.7,4.5-10.7,4.5H188.2c-5.5,0-10-4.5-10-10l0-3.8"/>
	<g id="XMLID_250_">
		<g id="XMLID_581_">
			<circle id="XMLID_709_" cx="215.6" cy="137.5" r="7"/>
		</g>
		<g id="XMLID_254_">
			<rect id="XMLID_36_" x="210.9" y="132.9" class="st4" width="9.7" height="15.3"/>
			<text id="XMLID_270_" transform="matrix(1 0 0 1 212.9138 140.5454)" class="st8 st15 st7">3</text>
		</g>
	</g>
	<circle id="XMLID_1971_" class="st3" cx="625.6" cy="69.5" r="1.3"/>
	<circle id="XMLID_155_" class="st3" cx="762.8" cy="69.5" r="1.3"/>
	<circle id="XMLID_49_" class="st3" cx="694.2" cy="123.3" r="1.3"/>
	<circle id="XMLID_1677_" class="st3" cx="831" cy="123.3" r="1.3"/>
	<circle id="XMLID_2034_" class="st3" cx="531.2" cy="97.4" r="1.3"/>
	<circle id="XMLID_213_" class="st3" cx="480.2" cy="63.1" r="1.3"/>
	<circle id="XMLID_235_" class="st3" cx="368.6" cy="96.9" r="1.3"/>
	<circle id="XMLID_236_" class="st3" cx="378.2" cy="75" r="1.3"/>
	<circle id="XMLID_765_" class="st3" cx="388.6" cy="63.1" r="1.3"/>
	<circle id="XMLID_244_" class="st3" cx="339.6" cy="96.9" r="1.3"/>
	<circle id="XMLID_249_" class="st3" cx="249.7" cy="61.8" r="1.3"/>
	<circle id="XMLID_1006_" class="st3" cx="106" cy="61.8" r="1.3"/>
	<circle id="XMLID_739_" class="st3" cx="178.2" cy="124.1" r="1.3"/>
	<circle id="XMLID_1072_" class="st3" cx="33.1" cy="124.1" r="1.3"/>
	<circle id="XMLID_748_" class="st3" cx="378.2" cy="116.5" r="1.3"/>
	<circle id="XMLID_222_" class="st3" cx="491.2" cy="75" r="1.3"/>
	<circle id="XMLID_223_" class="st3" cx="489" cy="116.5" r="1.3"/>
	<circle id="XMLID_228_" class="st3" cx="480.2" cy="131.4" r="1.3"/>
</g>
</svg>
