<?xml version="1.0" encoding="utf-8"?>
<!-- Generator: Adobe Illustrator 19.0.0, SVG Export Plug-In . SVG Version: 6.00 Build 0)  -->
<svg version="1.1" id="Layer_1" xmlns="http://www.w3.org/2000/svg" xmlns:xlink="http://www.w3.org/1999/xlink" x="0px" y="0px"
	 viewBox="0 0 324.7 287.9" style="enable-background:new 0 0 324.7 287.9;" xml:space="preserve">
<style type="text/css">
	.st0{opacity:0.2;}
	.st1{fill:none;stroke:#00A6FF;stroke-width:0.4323;stroke-miterlimit:10;}
	.st2{opacity:0.7;}
	.st3{opacity:0.2;fill:none;stroke:#00A6FF;stroke-width:0.4323;stroke-miterlimit:10;}
	.st4{fill:#00A6FF;}
	.st5{fill:#FFFFFF;}
	.st6{fill:none;stroke:#00A6FF;stroke-miterlimit:10;stroke-dasharray:0.2671,1.3329;}
	.st7{opacity:0.5;fill:#00A6FF;}
	.st8{opacity:0.5;fill:none;stroke:#00A6FF;stroke-width:2;stroke-linecap:round;stroke-linejoin:round;stroke-miterlimit:10;}
	.st9{fill:none;}
	.st10{fill:#333333;}
	.st11{font-family:'OpenSansCondensed-Light';}
	.st12{font-size:10px;}
	.st13{font-family:'OpenSansCondensed-Bold';}
	.st14{fill:none;stroke:#00A6FF;stroke-width:7;stroke-linejoin:round;stroke-miterlimit:10;stroke-dasharray:0.5,1.092;}
	.st15{fill:none;stroke:#B3B3B3;stroke-width:7;stroke-linejoin:round;stroke-miterlimit:10;stroke-dasharray:0.5,1.092;}
</style>
<g id="XMLID_376_">
	<g id="XMLID_1491_" class="st0">
		<g id="XMLID_125_">
			<line id="XMLID_132_" class="st1" x1="259.4" y1="144" x2="65.2" y2="144"/>
		</g>
		<g id="XMLID_122_">
			<line id="XMLID_123_" class="st1" x1="230.9" y1="212.6" x2="93.6" y2="75.3"/>
		</g>
		<g id="XMLID_118_">
			<line id="XMLID_120_" class="st1" x1="162.3" y1="241" x2="162.3" y2="46.9"/>
		</g>
		<g id="XMLID_115_">
			<line id="XMLID_116_" class="st1" x1="93.6" y1="212.6" x2="230.9" y2="75.3"/>
		</g>
		<g id="XMLID_112_">
			<line id="XMLID_113_" class="st1" x1="65.2" y1="144" x2="259.4" y2="144"/>
		</g>
		<g id="XMLID_109_">
			<line id="XMLID_110_" class="st1" x1="93.6" y1="75.3" x2="230.9" y2="212.6"/>
		</g>
		<g id="XMLID_106_">
			<line id="XMLID_107_" class="st1" x1="162.3" y1="46.9" x2="162.3" y2="241"/>
		</g>
	</g>
	<g id="XMLID_1415_" class="st2">
		<circle id="XMLID_14_" class="st3" cx="162.3" cy="144" r="99.6"/>
		<circle id="XMLID_58_" class="st3" cx="162.3" cy="144" r="94.3"/>
		<circle id="XMLID_57_" class="st3" cx="162.3" cy="144" r="89"/>
		<circle id="XMLID_54_" class="st3" cx="162.3" cy="144" r="83.8"/>
		<circle id="XMLID_49_" class="st3" cx="162.3" cy="144" r="78.5"/>
		<circle id="XMLID_46_" class="st3" cx="162.3" cy="144" r="73.2"/>
		<circle id="XMLID_38_" class="st3" cx="162.3" cy="144" r="68"/>
		<circle id="XMLID_36_" class="st3" cx="162.3" cy="144" r="62.7"/>
		<circle id="XMLID_33_" class="st3" cx="162.3" cy="144" r="57.4"/>
		<circle id="XMLID_24_" class="st3" cx="162.3" cy="144" r="52.2"/>
		<circle id="XMLID_23_" class="st3" cx="162.3" cy="144" r="46.9"/>
		<circle id="XMLID_19_" class="st3" cx="162.3" cy="144" r="41.6"/>
		<circle id="XMLID_15_" class="st3" cx="162.3" cy="144" r="36.4"/>
		<circle id="XMLID_13_" class="st3" cx="162.3" cy="144" r="31.1"/>
	</g>
	<g id="XMLID_1748_">
		<g id="XMLID_1755_" class="st0">
			<path id="XMLID_84_" class="st4" d="M73.5,180c-5.9-7.1-7.9-19.9-4.4-28.5l25-61.2c3.5-8.6,13.7-17.6,22.6-20l73.1-19.8
				c8.9-2.4,19.5,2.4,23.4,10.8l25.8,54.6c4,8.4,4.9,22.4,2.2,31.3l-20.1,64c-2.8,8.8-12.6,15.9-21.9,15.7l-71.5-1.6
				c-9.2-0.2-21.7-6.2-27.6-13.3L73.5,180z"/>
		</g>
		<g id="XMLID_1754_" class="st0">
			<path id="XMLID_85_" class="st4" d="M76,105.3c0.5-9.2,8-19.5,16.7-22.7l62.9-23.7c8.7-3.3,22.3-2.2,30.3,2.4l65.7,37.6
				c8,4.6,12.4,15.6,9.8,24.5l-17.6,59.4c-2.6,8.9-11.6,19.4-20,23.4l-63.4,30.2c-8.4,4-20.4,1.7-26.7-5l-49.6-52.6
				c-6.3-6.7-11.1-19.8-10.6-29L76,105.3z"/>
		</g>
	</g>
	<g id="XMLID_1455_">
		<circle id="XMLID_78_" class="st5" cx="161" cy="145.7" r="85.6"/>
		<circle id="XMLID_76_" class="st6" cx="161" cy="145.7" r="85.6"/>
	</g>
	<circle id="XMLID_1669_" class="st7" cx="97.4" cy="209" r="1"/>
	<circle id="XMLID_2073_" class="st7" cx="230.9" cy="211.9" r="1"/>
	<circle id="XMLID_1757_" class="st7" cx="254.2" cy="144" r="1"/>
	<circle id="XMLID_1758_" class="st7" cx="259.3" cy="143.8" r="1"/>
	<circle id="XMLID_1762_" class="st7" cx="97.4" cy="79.1" r="1"/>
	<path id="XMLID_1642_" class="st8" d="M162.3,82.5"/>
	<rect id="XMLID_12_" x="118.4" y="81" class="st9" width="38" height="8.2"/>
	<text id="XMLID_1872_" transform="matrix(1 0 0 1 118.9407 88.6035)" class="st10 st11 st12">Платформа</text>
	<rect id="XMLID_11_" x="87.8" y="124.6" class="st9" width="31.5" height="10"/>
	<text id="XMLID_2924_" transform="matrix(1 0 0 1 87.8296 132.2054)" class="st4 st13 st12">70-90%</text>
	<rect id="XMLID_10_" x="131.4" y="97.3" class="st9" width="25" height="9.4"/>
	<text id="XMLID_1449_" transform="matrix(1 0 0 1 133.1057 104.8554)" class="st10 st11 st12">Проект</text>
	<path id="XMLID_1458_" class="st14" d="M161,85.6c33.2,0,60,26.9,60,60s-26.9,60-60,60s-60-26.9-60-60c0-3.1,0.2-6.1,0.7-9.1"/>
	<rect id="XMLID_17_" x="167.2" y="173.3" class="st9" width="30.5" height="10"/>
	<text id="XMLID_119_" transform="matrix(1 0 0 1 167.2227 180.9125)" class="st4 st13 st12">10-30%</text>
	<path id="XMLID_9_" class="st15" d="M161,102.7c23.7,0,42.9,19.2,42.9,42.9c0,9.3-3,18-8,25"/>
</g>
</svg>
